<svg id="catch_work3.svg" xmlns="http://www.w3.org/2000/svg" width="204" height="60" viewBox="0 0 204 60">
  <defs>
    <style>
      .cls-1 {
        fill: #fff;
      }

      .cls-1, .cls-2 {
        fill-rule: evenodd;
      }

      .cls-2 {
        fill: #1e1e1e;
      }
    </style>
  </defs>
  <path id="長方形_1496_のコピー_6" data-name="長方形 1496 のコピー 6" class="cls-1" d="M960,3715h204v60H960v-60h0Z" transform="translate(-960 -3715)"/>
  <path id="KUMONで_働くと_いうこと_のコピー" data-name="KUMONで 働くと いうこと。 のコピー" class="cls-2" d="M988.933,3743.32c-0.543.92-.543,0.92-1.211,2-2.172,3.64-2.172,3.64-3.508,5.89a25.762,25.762,0,0,1-1.378,2.21,6.039,6.039,0,0,1-2.172-3.25,17.937,17.937,0,0,1-.96-6.06,32.681,32.681,0,0,1,.751-6.22,7.115,7.115,0,0,0,.126-1.09,5.059,5.059,0,0,0-1.88-3.3c-1.252-1.25-2.463-2.04-3.132-2.04h-0.375c1.8,2.34,2.088,3.3,2.129,7.18a47.189,47.189,0,0,0,.293,7.35,19.1,19.1,0,0,0,2.839,8.35c1.295,1.92,3.425,3.55,4.594,3.55a0.986,0.986,0,0,0,.919-1.04,3.655,3.655,0,0,0-.084-0.67,5.058,5.058,0,0,1-.25-1.42c0-1.67.877-4.13,3.925-11.15Zm9.312-6.77a11.509,11.509,0,0,1,5.175,5.47,15.229,15.229,0,0,1,1.3,5.47,1.048,1.048,0,0,1-.96,1.26c-0.38.12-2.26,0.67-5.64,1.58l0.125,0.63c1.42-.08,2.215-0.08,3.175-0.08,1.79,0,2.59.12,3.13,0.5a2.073,2.073,0,0,0,1.25.46c1.26,0,2.09-1.3,2.09-3.3,0-5.76-4.17-11.32-9.436-12.49Zm28.985-11.11c1.59,2.55,3.63,3.85,7.06,4.56-1.05.37-3.93,1.67-7.06,3.09l0.21,0.58c8.64-2.5,8.64-2.5,10.4-2.55,1.12,0,1.71-.33,1.71-0.91a2.058,2.058,0,0,0-.88-1.42,3.229,3.229,0,0,0-2.25-1.01h-0.96a12.264,12.264,0,0,1-7.81-2.67Zm3.09,38.09a19.172,19.172,0,0,0,6.56-4.89,20.4,20.4,0,0,0,5.17-13.48,11.037,11.037,0,0,0-1.58-6.14,6.588,6.588,0,0,0-5.18-2.8c-2.13,0-3.51.46-7.06,2.38-2.17,1.17-3.26,1.63-3.84,1.63-1.09,0-1.92-1.05-2.3-2.88a2.254,2.254,0,0,0-.67,1.54,5.284,5.284,0,0,0,1.13,2.8,3.826,3.826,0,0,0,2.76,1.88c0.67,0,.92-0.17,1.71-0.96,2.88-3.13,5.81-4.93,8.02-4.93,2.46,0,3.97,2.55,3.97,6.68a25.72,25.72,0,0,1-3.55,12.7,23.03,23.03,0,0,1-5.52,6.01Zm31.66-32.7a10.307,10.307,0,0,0,2.92,2.42,11.374,11.374,0,0,0,4.76,1.13c0.75,0,2.21-.04,3.13-0.12-0.67.41-.67,0.41-3.51,1.96-1.08.58-1.75,1-3.04,1.75l0.29,0.63c0.79-.29.79-0.34,1.63-0.67,2.42-1.04,2.42-1.04,3.42-1.42,4.09-1.54,4.47-1.71,6.1-2.05,2.8-.62,3.05-0.75,3.05-1.46a2.864,2.864,0,0,0-2.51-2.17,4.727,4.727,0,0,0-.75.17,32.627,32.627,0,0,1-8.69,1.25,9.81,9.81,0,0,1-6.39-1.84Zm-1.59,15.91a11.152,11.152,0,0,0-.67,3.51,8.022,8.022,0,0,0,3.47,6.6c2.09,1.42,5.05,2,9.73,2a48.131,48.131,0,0,0,9.73-.83,1.423,1.423,0,0,0,1.33-1.3,1.993,1.993,0,0,0-.91-1.46,4.966,4.966,0,0,0-2.3-.83,1.644,1.644,0,0,0-.71.16,28.1,28.1,0,0,1-9.23,1.51c-6.72,0-9.86-2.34-9.86-7.31,0-.59.05-0.96,0.13-1.88Zm41.51-18.87c1.76,0.29,2.55.71,3.01,1.5,0.33,0.63.37,1.25,0.5,4.8,0.13,3.13.17,4.05,0.29,5.06,0.21,1.79.59,2.71,1.21,3.17a2.84,2.84,0,0,0,2.01.63,26.366,26.366,0,0,0-5.1,3.34c-2.75,2.29-4.09,4.59-4.09,7.01a6.606,6.606,0,0,0,4.55,6.18,21.283,21.283,0,0,0,7.1.96,64.962,64.962,0,0,0,8.02-.54c1.34-.25,1.8-0.63,1.8-1.38a2.372,2.372,0,0,0-2.26-2.04,4.08,4.08,0,0,0-.83.12,48.766,48.766,0,0,1-9.69,1.21c-4.64,0-7.02-1.54-7.02-4.55,0-1.96,1-3.59,3.26-5.34,2.63-2.01,5.39-3.26,10.44-4.68a24.867,24.867,0,0,0,2.8-.88,1.323,1.323,0,0,0,.87-1.25,2.035,2.035,0,0,0-2-1.76,3.606,3.606,0,0,0-1.71.51c-3.8,1.79-4.72,2.13-5.6,2.13-1.29,0-1.63-.63-1.63-3.1a32.853,32.853,0,0,1,.92-8.47,2.567,2.567,0,0,0,.34-1.09v-0.08a1.46,1.46,0,0,0-1.17-1.34,13.52,13.52,0,0,0-4.22-.79A2.2,2.2,0,0,0,1101.9,3727.87Zm37.76,25.47a5.385,5.385,0,1,0,5.38,5.39A5.4,5.4,0,0,0,1139.66,3753.34Zm0,1.34a4.05,4.05,0,0,1,0,8.1,4.087,4.087,0,0,1-4.06-4.05A4.029,4.029,0,0,1,1139.66,3754.68Z" transform="translate(-960 -3715)"/>
</svg>
