<svg id="catch_culture2.svg" xmlns="http://www.w3.org/2000/svg" width="287" height="60" viewBox="0 0 287 60">
  <defs>
    <style>
      .cls-1 {
        fill: #fff;
      }

      .cls-2 {
        fill: #1e1e1e;
        fill-rule: evenodd;
      }
    </style>
  </defs>
  <rect id="長方形_1496_のコピー_5" data-name="長方形 1496 のコピー 5" class="cls-1" width="287" height="60"/>
  <path id="一人ひとりが_主役になれる_場所_のコピー" data-name="一人ひとりが 主役になれる 場所。 のコピー" class="cls-2" d="M192.7,5312.11h15.2c0.417,0,.584-0.08.584-0.25a0.883,0.883,0,0,0-.208-0.37,25.306,25.306,0,0,0-3.842-3.51c-1.086,1.34-1.42,1.75-2.506,3.17H178.956a33.17,33.17,0,0,1-4.05-.46l0.375,1.67c1.629-.16,2.84-0.25,3.675-0.25h10.649v10.9h-8.811a33.975,33.975,0,0,1-3.633-.41l0.334,1.67c0.626-.09,2.8-0.3,3.3-0.3h8.811v12.41H176.451a36.118,36.118,0,0,1-4.009-.38l0.417,1.59a32.889,32.889,0,0,1,3.592-.25H210.11a0.38,0.38,0,0,0,.459-0.29,0.822,0.822,0,0,0-.167-0.34,45.028,45.028,0,0,0-3.967-3.59c-1.253,1.38-1.629,1.84-2.8,3.26H192.7v-12.41h13.071c0.292,0,.417-0.08.417-0.2a0.5,0.5,0,0,0-.208-0.38,46.536,46.536,0,0,0-3.634-3.47,29.97,29.97,0,0,0-2.422,3.09H192.7v-10.9Zm-8.185-9.77a28.4,28.4,0,0,1,8.394,6.68,1.435,1.435,0,0,0,1.085.8c0.668,0,1.17-1,1.17-2.3a2.431,2.431,0,0,0-.877-2.17c-1.42-1-5.095-2.38-9.48-3.51Zm40.635,26.4c-0.125,6.93-.167,10.39-0.167,10.44a0.535,0.535,0,0,0,.668.62c2,0,2.339-.08,2.339-0.71v-2.59c-0.084-2.25-.084-3.63-0.084-4.38v-3.38l0.042-7.86c1.169-.46,1.378-0.58,1.378-0.87,0-.34-1-0.63-2.673-0.8a59.347,59.347,0,0,0,4.135-5.55h0.877c0.626,0,1-.17,1-0.5,0-.38-1-0.88-4.26-2.13a33.883,33.883,0,0,1-2.756,5.85,31.255,31.255,0,0,1-6.306,8.22l0.5,0.54a28.723,28.723,0,0,0,5.3-4.59v7.69Zm13.029-8.23a17.84,17.84,0,0,1-5.136-.46l0.417,1.71a11.68,11.68,0,0,1,2.506-.25,30.111,30.111,0,0,0,6.013,9.69,36.9,36.9,0,0,1-12.068,7.68l0.375,0.67c5.8-1.75,9.731-3.72,13.364-6.72a27.044,27.044,0,0,0,11.776,6.14,3.979,3.979,0,0,1,3.174-3.01v-0.5a33.184,33.184,0,0,1-8.686-1.96,26.947,26.947,0,0,1-4.552-2.18,34.7,34.7,0,0,0,6.724-8.51c1.712-.38,2.422-0.67,2.422-1.01a0.862,0.862,0,0,0-.46-0.58,30.772,30.772,0,0,0-3.09-2.59c-0.752.75-1,1-1.8,1.88H238.175Zm10.983,0.96a27.749,27.749,0,0,1-5.846,8.43,22.156,22.156,0,0,1-6.431-8.43h12.277Zm-28.94-7.43a25.5,25.5,0,0,0,5.847-4.31,29.447,29.447,0,0,0,4.8-5.3c1.8-.04,2.213-0.12,2.213-0.54s-1.044-.88-4.677-2.22a18.2,18.2,0,0,1-2.338,4.56,28.749,28.749,0,0,1-6.265,7.26Zm10.941,6.3a16.867,16.867,0,0,0,5.722-4.26c2-2.25,2.923-5.09,2.923-9.1v-1.59h6.6v8.81a2.166,2.166,0,0,0,.835,2.05,6.314,6.314,0,0,0,2.965.37,37.765,37.765,0,0,0,6.306-.33,1.729,1.729,0,0,0,1.42-1.34,0.981,0.981,0,0,0-.877-0.91,0.911,0.911,0,0,1-.71-0.92,2.108,2.108,0,0,1,.042-0.42l0.25-5.64h-0.542c-1.3,4.3-1.963,6.52-2,6.6-0.251.58-.626,0.67-2.506,0.67h-1.837c-0.543,0-.585-0.09-0.585-0.71v-7.35c1.629-1,1.671-1,1.671-1.3a0.856,0.856,0,0,0-.418-0.54c-1.127-.92-1.462-1.21-2.673-2.09-0.793.88-1,1.13-1.754,2.09h-5.721a23.565,23.565,0,0,0-3.508-2.09c0.126,1.8.167,3.13,0.167,4.6a16.51,16.51,0,0,1-1.419,7.43,12.92,12.92,0,0,1-4.719,5.47Zm45.4,0.75-2.213,5.85a33.11,33.11,0,0,1-1.5,3.55,15.812,15.812,0,0,1-.794-5.51,22.9,22.9,0,0,1,.543-5.18,35.535,35.535,0,0,1,2.255-6.64c0.835-1.67.877-1.84,0.877-2.51a5.649,5.649,0,0,0-1.545-3.3c-1.128-1.46-1.879-2-2.8-2.04a7.4,7.4,0,0,1,1.169,3.92,19.665,19.665,0,0,1-.584,3.89,63.761,63.761,0,0,0-1.462,7.89,37.646,37.646,0,0,0-.334,4.47,24.707,24.707,0,0,0,1.462,8.89c0.459,1.13,1.085,1.72,1.8,1.72a1.037,1.037,0,0,0,1-.71,6.159,6.159,0,0,0,.126-1.8,16.432,16.432,0,0,1,.71-4.43c1.169-4.84,1.795-7.47,1.879-7.85Zm5.387-10.48a7.369,7.369,0,0,0,5.68,2.34c0.376,0,.835-0.04,1.712-0.08-0.668.5-2.088,1.67-3.967,3.25l0.417,0.42a42.939,42.939,0,0,1,5.388-2.96,23.9,23.9,0,0,1,5.93-1.47c0.877-.16,1.169-0.41,1.169-0.96a2,2,0,0,0-1.3-1.54,3.149,3.149,0,0,0-1.461-.59,1.654,1.654,0,0,0-.919.34,22.186,22.186,0,0,1-8.394,1.88,6.52,6.52,0,0,1-3.884-1.13Zm-0.25,12.61a11.357,11.357,0,0,0-.5,3.3,6.935,6.935,0,0,0,2.255,5.43c1.879,1.67,5.6,2.55,10.816,2.55a21.11,21.11,0,0,0,5.22-.46,1.131,1.131,0,0,0,.919-1.05,3.212,3.212,0,0,0-2.631-2.46,1.91,1.91,0,0,0-.627.13,6.39,6.39,0,0,1-2.213.66,19.6,19.6,0,0,1-3.55.3c-6.473,0-9.1-1.88-9.1-6.48a16.172,16.172,0,0,1,.125-1.75Zm30.154-12.48a8.555,8.555,0,0,0,3.048,3.04,6.728,6.728,0,0,0,3.675.88,11.891,11.891,0,0,0,1.963-.17,55.383,55.383,0,0,1-5.22,9.82,18.4,18.4,0,0,1-2,2.5,1.786,1.786,0,0,0-.459,1.51c0,1.67.585,2.96,1.295,2.96,0.5,0,.877-0.37,1.5-1.5,0.376-.71,3.592-7.73,4.844-10.61,1.128-2.5,1.838-4.22,2.214-5.05,6.64-1.55,9.229-2.59,9.229-3.68,0-.71-1.211-1.25-2.84-1.25a1.009,1.009,0,0,0-.877.34c-1.169,1-1.545,1.21-4.635,2.29,1.5-3.09,2.38-4.8,2.547-5.13a1.823,1.823,0,0,0,.418-1.09c0-.58-0.543-1.04-1.963-1.75a8.673,8.673,0,0,0-3.341-.96,1.773,1.773,0,0,0-1,.29c2,1,2.672,1.84,2.672,3.21a17.265,17.265,0,0,1-1.5,5.93,17.87,17.87,0,0,1-3.8.5c-2.088,0-3.258-.54-5.262-2.42Zm22.467,2.67c2.965,1,4.26,1.67,5.387,2.88-1.545.33-1.628,0.38-2.255,0.54a7.773,7.773,0,0,0-3.967,1.97c-1.128,1.25-1.462,2.54-1.462,5.97,0,0.5,0,.83.126,4.13a14.159,14.159,0,0,0-2.506-.21c-4.636,0-7.809,2.05-7.809,4.97,0,2.63,2.589,4.43,6.347,4.43a7.7,7.7,0,0,0,5.429-1.8,4.675,4.675,0,0,0,1.17-3.55v-0.79a15.134,15.134,0,0,1,5.053,3.68c0.877,0.96,1.044,1.08,1.461,1.08,0.5,0,.835-0.58.835-1.42a4,4,0,0,0-1.67-3.3,18.811,18.811,0,0,0-5.93-2.71,59.913,59.913,0,0,1-.835-7.18c0-2.89,1.044-3.8,4.385-3.8,2.129,0,2.923.16,4.092,0.87a1.592,1.592,0,0,0,.961.34,1.093,1.093,0,0,0,1.085-1.21c0-.97-1-2.22-2.63-3.26a14.7,14.7,0,0,0-7.142-2.3Zm-2.13,18.75c0,2.63-1.754,4.01-5.136,4.01-2.589,0-4.176-.92-4.176-2.47,0-1.96,2.171-3.17,5.721-3.17a11.841,11.841,0,0,1,3.591.5v1.13ZM359,5324.48a19.166,19.166,0,0,1-2.715,3.71c-0.668.67-.71,0.75-0.71,1.26a7.764,7.764,0,0,0,.459,2.29,1.214,1.214,0,0,0,.961.96c0.418,0,.585-0.25,1.42-2.25a28.874,28.874,0,0,1,3.675,4.55c0.125,0.29.584,1.59,0.71,2a1.156,1.156,0,0,0,1,1.13c1,0,1.8-1.96,1.8-4.34a12.364,12.364,0,0,0-.126-1.96c-0.292-3.22-.417-5.22-0.417-7.48,0-.63,0-1.17.042-2.17a60.479,60.479,0,0,1,6.347-6.6c3.341-2.96,5.513-4.22,7.308-4.22,1.629,0,2.548,1.17,2.548,3.22,0,1.54-.084,2.13-1.044,6.6a43.481,43.481,0,0,0-1.044,7.43c0,3.8,1.712,5.85,4.886,5.85,2.965,0,6.222-1.72,9.229-4.81l-0.334-.5c-2.756,1.88-5.68,2.97-7.768,2.97a3.646,3.646,0,0,1-2.13-.63c-0.751-.54-1.044-1.42-1.044-3.09a40.352,40.352,0,0,1,.752-6.85c0.794-4.3.835-4.59,0.835-6.18a5.229,5.229,0,0,0-1.127-3.67,4.324,4.324,0,0,0-3.3-1.51c-1.838,0-3.8.88-6.724,2.97a66.659,66.659,0,0,0-7.266,6.39,9.957,9.957,0,0,1,.083-1.55,27.733,27.733,0,0,1,1.337-2.71,2.294,2.294,0,0,0,.584-1.21c0-.34-0.292-0.67-1.211-1.63a18.441,18.441,0,0,1,.752-3.3,4.137,4.137,0,0,0,.418-1.71c0-.8-0.836-1.84-2.172-2.76a5.642,5.642,0,0,0-2.673-1.13,0.857,0.857,0,0,0-.543.21c2,1.51,2.381,2.22,2.381,4.64a34.2,34.2,0,0,1-.292,4.42c-2.464,1.38-5.179,2.51-6.014,2.51-0.877,0-1.8-.67-2.714-2a3.463,3.463,0,0,0-.126.71c0,1.33,2,3.8,3.091,3.8a2.494,2.494,0,0,0,1.419-.67c0.752-.55,2.965-2.05,4.218-2.88-0.042.62-.042,0.62-0.125,1.46-0.042,1.08-.042,1.08-0.084,1.75Zm4.51-3.89c-0.126,1.71-.167,2.67-0.167,4.72-0.042,6.22-.042,6.22-0.126,7.81a36.863,36.863,0,0,1-4.426-3.38c0.793-1.67,1.253-2.59,2.213-4.43C362.879,5321.8,362.921,5321.8,363.506,5320.59Zm56.63-13.15a1.08,1.08,0,0,0,.208-0.09h0.126a0.041,0.041,0,0,1,.042-0.04,0.326,0.326,0,0,1,.125.09,2.514,2.514,0,0,1-.418.66c-3.3,4.26-4.886,6.1-9.981,11.82-3.549,3.93-4.217,4.6-5.8,5.81a1.991,1.991,0,0,0-.877,1.46c0,1.25.751,2.71,1.378,2.71,0.417,0,.71-0.25,1.42-1.12,3.466-4.43,9.187-7.77,13.28-7.77a9.291,9.291,0,0,1,4.134.83,5.774,5.774,0,0,1,2.589,5.18,8.224,8.224,0,0,1-5.053,7.81,8.6,8.6,0,0,0-1.838-2.59,7.721,7.721,0,0,0-5.3-2.04c-2.589,0-4.51,1.5-4.51,3.54,0,2.55,2.631,4.18,6.723,4.18,7.559,0,13.113-4.43,13.113-10.4,0-4.67-3.591-7.81-8.937-7.81-3.508,0-6.89,1.17-11.359,3.97l-0.083-.08c0.877-.88.877-0.88,4.886-5.18,1.963-2.09,3.508-3.63,6.139-6.27a11.581,11.581,0,0,1,3.466-2.79,0.978,0.978,0,0,0,.71-0.8c0-.5-0.293-0.96-1.253-1.88-1.044-1.04-1.712-1.46-2.255-1.46a1.037,1.037,0,0,0-.585.21,5.4,5.4,0,0,1-2.589,1.3,46.029,46.029,0,0,1-7.893,1.79c-1.378,0-2.5-1.08-3.132-3.05a1.722,1.722,0,0,0-.376,1.09,5.961,5.961,0,0,0,1.17,3.09c0.793,1.17,1.628,1.75,2.38,1.75a4.809,4.809,0,0,0,1.712-.54c2.882-1.25,6.807-2.8,8.436-3.3Zm-1.545,28.35a10.809,10.809,0,0,1-2.966.38c-2.923,0-4.76-1-4.76-2.55,0-1.29,1.044-2.13,2.631-2.13C415.834,5331.49,417.755,5333.12,418.591,5335.79Z" transform="translate(-160 -5291)"/>
</svg>
