<svg id="catch_work1.svg" xmlns="http://www.w3.org/2000/svg" width="263" height="60" viewBox="0 0 263 60">
  <defs>
    <style>
      .cls-1 {
        fill: #fff;
      }

      .cls-2 {
        fill: #1e1e1e;
        fill-rule: evenodd;
      }
    </style>
  </defs>
  <rect id="長方形_1496_のコピー_4" data-name="長方形 1496 のコピー 4" class="cls-1" width="263" height="60"/>
  <path id="KUMONで_働くと_いうこと_のコピー_3" data-name="KUMONで 働くと いうこと。 のコピー 3" class="cls-2" d="M981.165,3619.41l3.258-3.34,7.224,10.77c1.044,1.55,1.838,2.84,3.007,4.89h6.886v-0.92c-2.209-.25-3.295-1.04-5.049-3.51l-9.521-13.69,6.389-6.81c2.8-3.01,4.719-4.18,7.061-4.34v-1.01h-9.9v1.01c1.837,0.08,2.547.5,2.547,1.42,0,0.75-.668,1.88-1.963,3.21l-9.939,10.44v-10.77c0-3.89.209-4.14,3.258-4.3v-1.01h-10.19v1.01c3.007,0.16,3.216.41,3.216,4.3v19.67c0,3.88-.251,4.17-3.216,4.26v1.04h10.19v-1.04c-3.007-.09-3.258-0.42-3.258-4.26v-7.02Zm28.605-17.96v1.01c3.01,0.16,3.22.41,3.22,4.3v13.03c0,4.34.54,6.72,2,8.6,1.88,2.42,5.43,3.88,9.48,3.88,4.09,0,7.44-1.42,9.23-3.96,1.55-2.13,2.13-4.85,2.13-9.78v-9.27c0-3.46.21-4.84,0.79-5.63s1.42-1.13,3.05-1.17v-1.01h-9.31v1.01c1.75,0.04,2.63.37,3.17,1.17,0.46,0.66.59,1.87,0.59,5.63v9.15c0,4.05-.42,6.6-1.34,8.39-1.38,2.55-4.13,3.97-7.81,3.97-3.13,0-5.38-1.13-6.68-3.38-1.08-1.92-1.5-4.26-1.5-8.69v-11.94c0-3.89.21-4.14,3.26-4.3v-1.01h-10.28Zm44.15,2.18,10.94,27.72h1.79l10.86-27.77v22.85c0,3.8-.29,4.17-3.22,4.26v1.04h10.15v-1.04c-2.96-.09-3.21-0.42-3.21-4.26v-19.67c0-3.89.21-4.14,3.21-4.3v-1.01h-7.77l-9.77,24.73-9.81-24.73h-7.98v1.01c1.63,0.08,2.05.2,2.51,0.66,0.46,0.55.62,1.47,0.62,3.64v17.12c0,3.26-.2,4.89-0.83,5.68-0.5.75-1.38,1.08-2.84,1.13v1.04h9.02v-1.04c-1.67-.05-2.55-0.38-3.05-1.13-0.5-.71-0.62-1.84-0.62-5.68v-20.25Zm41.38,12.94a17.1,17.1,0,0,0,3.47,10.9,12.985,12.985,0,0,0,10.65,4.8c4.55,0,8.06-1.58,10.65-4.8a16.9,16.9,0,0,0,3.46-10.9,17.185,17.185,0,0,0-3.46-10.94q-3.825-4.755-10.65-4.76a13.009,13.009,0,0,0-10.65,4.76A16.979,16.979,0,0,0,1095.3,3616.57Zm4.22,0a20.557,20.557,0,0,1,2.25-10.02,8.391,8.391,0,0,1,7.65-4.55,8.305,8.305,0,0,1,7.64,4.55,23.436,23.436,0,0,1,0,20.04,8.689,8.689,0,0,1-15.29,0A20.665,20.665,0,0,1,1099.52,3616.57Zm40.01-12.07,19,27.36h2.38v-23.18c0-4.93.67-6.06,3.8-6.22v-1.01h-9.31v1.01c1.71,0.08,2.63.41,3.17,1.17,0.5,0.66.63,1.87,0.63,5.63v17.17l-17.42-24.98h-7.39v1.01c3.13,0.12,3.42.54,3.42,4.63v16.83c0,3.22-.25,4.85-0.83,5.64-0.54.79-1.42,1.13-3.01,1.13v1.04h9.19v-1.04c-1.67-.05-2.55-0.38-3.05-1.13-0.46-.67-0.58-1.59-0.58-4.93V3604.5Zm35.37,1.55a1.775,1.775,0,0,0-.46,1.12,5.949,5.949,0,0,0,1.09,2.8c0.96,1.51,2.21,2.47,3.21,2.47a2.749,2.749,0,0,0,1.67-.59c3.93-2.13,13.49-4.97,18.67-5.59-3.51,1.83-5.14,2.96-6.81,4.8a15.488,15.488,0,0,0-4.55,10.19,11.069,11.069,0,0,0,4.85,9.35,17.2,17.2,0,0,0,8.51,3.01,1.329,1.329,0,0,0,1.51-1.17,3.4,3.4,0,0,0-1.26-2,2.043,2.043,0,0,0-1.75-.67,12.723,12.723,0,0,1-4.22-1,8.484,8.484,0,0,1-5.55-8.15c0-7.14,6.89-13.95,14.03-13.95a5.308,5.308,0,0,1,1.17.09,6.08,6.08,0,0,0,.79.04,1.116,1.116,0,0,0,1.3-1.04,2.005,2.005,0,0,0-1.21-1.59,5.655,5.655,0,0,0-2.26-.88,5.055,5.055,0,0,0-1.46.34,46.315,46.315,0,0,1-5.64,1.37c-2.88.55-5.26,1.09-6.76,1.47-9.4,2.25-10.44,2.46-11.61,2.46a2.366,2.366,0,0,1-1.88-.71A4.607,4.607,0,0,1,1174.9,3606.05Zm25.64,6.47a20.033,20.033,0,0,1,3.22,4.43c1.29,2.71,1.29,2.71,1.83,2.71a1.56,1.56,0,0,0,1.3-1.75c0-1-.59-1.97-2.09-3.34a20.579,20.579,0,0,0-3.72-2.59Zm4.39-2.38a20,20,0,0,1,4.59,5.93,1.128,1.128,0,0,0,.96.79c0.63,0,1.04-.71,1.04-1.71,0-1.13-.54-2-2.13-3.21a19.842,19.842,0,0,0-4-2.38Z" transform="translate(-960 -3587)"/>
</svg>
