<?xml version="1.0" encoding="utf-8"?>
<!-- Generator: Adobe Illustrator 25.0.0, SVG Export Plug-In . SVG Version: 6.00 Build 0)  -->
<svg version="1.1" id="catch_kv.svg" xmlns="http://www.w3.org/2000/svg" xmlns:xlink="http://www.w3.org/1999/xlink" x="0px"
	 y="0px" viewBox="0 0 54.531 306.562" style="enable-background:new 0 0 54.531 306.562;" xml:space="preserve">
<style type="text/css">
	.st0{fill-rule:evenodd;clip-rule:evenodd;fill:#1E1E1E;}
	.st1{fill-rule:evenodd;clip-rule:evenodd;fill:#F5F5F5;}
</style>
<path id="kv_catch" class="st0" d="M15.469,37.071c4.93-2.299,9.161-5.863,12.264-10.331c3.528-5.04,5.5-10.374,6.72-18.186
	c0.142,2.057,0.479,4.097,1.008,6.09c1.09,4.107,2.728,8.049,4.872,11.718c2.507,4.124,5.944,7.605,10.037,10.163
	c0.286-0.763,0.698-1.473,1.218-2.1c0.544-0.599,1.336-0.909,2.142-0.839h0.294l0.042-0.5c-1.686-0.567-3.295-1.343-4.788-2.31
	c-3.356-2.104-6.255-4.861-8.525-8.106c-3.712-5.477-5.767-11.907-5.922-18.521c0-0.378,0-0.715,0.042-1.3
	c1.638-0.673,1.806-0.756,1.806-1.093c0-0.419-0.5-0.546-5.082-1.134c0.084,1.134,0.126,1.6,0.126,2.437
	c-0.036,3.02-0.36,6.029-0.966,8.987c-1.164,6.2-3.767,12.041-7.6,17.052c-2.233,2.915-4.946,5.428-8.022,7.433L15.469,37.071z
	 M34.075,81.718c2.86-0.39,5.63-1.271,8.19-2.605c5.291-2.814,8.357-7.475,8.357-12.725c0.152-3.719-1.319-7.321-4.031-9.87
	c-3.006-2.59-6.869-3.968-10.836-3.864c-5.405-0.035-10.603,2.08-14.448,5.88c-2.352,2.562-3.78,5.67-3.78,8.316
	c0.001,1.334,0.333,2.647,0.966,3.822c0.725,1.262,1.343,2.583,1.848,3.948c0.228,0.959,0.626,1.87,1.176,2.688
	c0.457,0.551,1.133,0.873,1.848,0.881c1.554,0,3.612-2.058,6.258-6.257c3.192-5.124,5.544-11.256,5.544-14.532
	c-0.013-1.278-0.473-2.511-1.3-3.485c0.487-0.066,0.979-0.095,1.47-0.085c2.553-0.037,5.066,0.632,7.263,1.932
	c3.108,1.974,4.746,5.208,4.746,9.282c0.059,3.722-1.274,7.331-3.738,10.121c-2.394,2.773-5.292,4.494-9.828,5.838L34.075,81.718z
	 M32.983,54.082c0.358,0.644,0.56,1.364,0.588,2.1c0,2.6-2.226,8.022-5.334,12.978c-2.058,3.276-4.074,5.544-5,5.544
	c-0.677-0.17-1.255-0.611-1.6-1.218c-1.104-1.637-1.69-3.569-1.68-5.544C19.963,61.474,25.675,55.384,32.983,54.082L32.983,54.082z
	 M47.934,97.72h5.88c0.241,0.058,0.489-0.066,0.588-0.293c-0.04-0.128-0.113-0.244-0.21-0.336c-1.68-1.554-2.226-2.017-3.99-3.487
	c-1.134,1.345-1.47,1.765-2.477,3.15H20.677c-1.789,0.041-3.578-0.113-5.334-0.461l0.294,1.679c1.008-0.125,3.78-0.252,5.04-0.252
	h24.234v29.526c0,0.545-0.126,0.671-0.714,0.756h-1.218c-1.68,0-3.528-0.085-7.812-0.294v0.629c3.612,0.463,4.536,0.673,5.376,1.26
	c0.75,0.5,1.217,1.327,1.26,2.227c2.856-0.421,4.032-0.756,4.914-1.3c0.915-0.51,1.429-1.524,1.3-2.563
	c-0.084-6.551-0.084-6.551-0.084-13.775L47.934,97.72L47.934,97.72z M24.373,118.342h10v2.6c-0.036,0.274,0.158,0.525,0.432,0.56
	c0.066,0.009,0.134,0.004,0.198-0.014c0.677-0.013,1.351-0.083,2.016-0.21c0.236-0.098,0.386-0.332,0.378-0.588
	c-0.126-3.654-0.21-7.98-0.21-12.012v-2.688c1.176-0.672,1.386-0.84,1.386-1.05c-0.062-0.219-0.195-0.411-0.378-0.546
	c-1.05-0.882-1.386-1.134-2.52-1.974c-0.621,0.627-1.21,1.286-1.764,1.974h-8.82c-1.164-0.792-2.37-1.521-3.612-2.184
	c0.084,3.528,0.126,5.5,0.126,5.964c0,4.2-0.084,11.424-0.168,14.238c-0.004,0.327,0.258,0.596,0.585,0.6
	c0.043,0.001,0.086-0.004,0.129-0.012h0.126c0.197,0.001,0.393-0.014,0.588-0.042c1.218,0,1.47-0.168,1.512-0.8v-3.816H24.373z
	 M24.373,105.364h10v12.012h-10v-12.014V105.364z M29.035,172.312v6.636c0,0.5-0.126,0.629-0.672,0.671
	c-0.882-0.042-0.882-0.042-2.142-0.042c-1.638-0.042-1.638-0.042-2.856-0.125v0.545c2.142,0.378,2.6,0.5,3.066,0.84
	c0.551,0.443,0.887,1.1,0.924,1.806c2.226-0.42,2.856-0.588,3.36-1.05c0.667-0.56,1.039-1.396,1.008-2.267v-1.722
	c-0.042-3.276-0.042-3.276-0.042-5.67v-10.372c1.05-0.84,1.092-0.882,1.092-1.092c-0.073-0.317-0.291-0.582-0.588-0.714
	c-0.64-0.519-1.314-0.996-2.016-1.428c-0.63,0.714-0.84,0.924-1.47,1.68h-7.56c-1.018-0.643-2.085-1.205-3.192-1.68
	c0.126,2.6,0.168,3.654,0.168,4.578c0,6.72-0.084,16.127-0.21,19.109v0.127c0,0.419,0.168,0.546,0.756,0.546
	c0.591-0.013,1.181-0.069,1.764-0.168c0.294-0.042,0.378-0.169,0.42-0.547c-0.042-5.291-0.042-5.291-0.042-6.215v-3.446H29.035
	L29.035,172.312z M20.803,165.592v-4.62h8.232v4.62H20.8H20.803z M29.035,166.562v4.788H20.8v-4.788h8.232H29.035z M27.355,149.342
	c0.992,1.356,1.85,2.804,2.562,4.326c-2.9,0.294-4.368,0.378-9.66,0.5c1.7-2.154,3.244-4.426,4.62-6.8
	c1.554-0.21,2.1-0.421,2.1-0.841c0-0.546-1.3-0.924-4.914-1.554c-0.54,3.208-1.545,6.321-2.982,9.24
	c-1.638,0-2.226-0.042-4.032-0.126c0.168,0.882,0.252,1.554,0.336,1.974c0.168,0.8,0.252,1.3,0.294,1.554
	c0.084,0.63,0.294,0.882,0.63,0.882c0.5,0,0.63-0.252,0.84-1.6c1.512-0.252,1.974-0.336,6.342-1.008
	c2.304-0.307,4.59-0.741,6.846-1.3c0.295,0.727,0.548,1.47,0.756,2.226c0.378,1.3,0.546,1.554,0.966,1.554
	c0.63,0,1.386-1.638,1.386-3.108c0.008-1.028-0.457-2.004-1.26-2.646c-1.368-1.329-2.812-2.577-4.326-3.737L27.355,149.342z
	 M38.191,147.284c1.008-0.293,1.554-0.671,1.554-1.049c0-0.463-0.882-0.673-4.368-1.051c0.084,2.058,0.084,2.226,0.084,2.982v11.382
	c0,1.176,0.294,1.848,1.008,2.142c0.8,0.378,2.142,0.5,5.838,0.5l3.108-0.042c4.577-0.084,4.577-0.084,5.333-0.252
	c0.773-0.054,1.413-0.624,1.554-1.386c0-0.63-0.294-0.882-1.3-1.218c-0.39-0.099-0.631-0.489-0.546-0.882v-0.5l0.336-5.04h-0.5
	c-0.378,1.134-0.672,1.974-0.84,2.52c-0.462,1.512-0.756,2.31-0.924,2.73c-0.5,1.26-0.588,1.386-0.966,1.47
	c-1.467,0.117-2.938,0.159-4.409,0.126c-1.559,0.097-3.123,0.013-4.662-0.252c-0.259-0.214-0.373-0.556-0.294-0.882v-3.738
	c3.736-1.317,7.281-3.125,10.541-5.375c0.481,0.129,0.973,0.214,1.47,0.251c0.282,0.06,0.56-0.12,0.621-0.402
	c0.004-0.019,0.007-0.039,0.009-0.059c0-0.337-0.756-1.009-3.528-3.067c-2.462,3.176-5.568,5.795-9.113,7.686v-6.594L38.191,147.284
	z M38.191,165.848c1.26-0.63,1.554-0.882,1.554-1.176c-0.017-0.149-0.114-0.278-0.252-0.336c-1.342-0.38-2.723-0.605-4.116-0.672
	c0.084,2.226,0.084,2.478,0.084,3.276v11.885c-0.133,0.88,0.22,1.764,0.924,2.31c0.924,0.546,2.058,0.631,6.93,0.631
	c4.577,0,6.887-0.169,8.063-0.588c0.597-0.205,1.032-0.721,1.134-1.344c0.001-0.445-0.289-0.837-0.714-0.967
	c-1.134-0.252-1.134-0.252-1.134-1.091c-0.006-0.351,0.008-0.702,0.042-1.051l0.42-4.745l-0.588-0.084
	c-1.932,5.838-2.184,6.426-2.561,6.8c-0.463,0.5-1.176,0.588-4.746,0.588c-1.586,0.085-3.178,0-4.746-0.253
	c-0.26-0.193-0.376-0.526-0.294-0.839v-4.452c3.929-1.442,7.667-3.36,11.129-5.712c0.434,0.154,0.885,0.252,1.344,0.294
	c0.298,0.034,0.572-0.167,0.63-0.462c-0.008-0.163-0.084-0.316-0.21-0.42c-1.044-0.992-2.182-1.878-3.4-2.646
	c-1.4,1.861-3.07,3.503-4.955,4.872c-1.422,1.137-2.94,2.149-4.536,3.024v-6.846L38.191,165.848z M32.1,207.592
	c0.867-1.809,1.57-3.693,2.1-5.628c1.386-0.294,1.764-0.5,1.764-0.84c0-0.378-0.714-0.629-4.578-1.722
	c-0.157,2.656-0.651,5.281-1.47,7.812c-0.993,3.562-2.477,6.969-4.41,10.122l0.5,0.42c2.332-2.771,4.243-5.871,5.67-9.2h6.258v9.912
	H33.02c-1.369,0.068-2.741-0.059-4.074-0.378l0.294,1.554c1.255-0.141,2.517-0.211,3.78-0.21h4.914v11.678h-7.77
	c-1.481,0.016-2.959-0.125-4.41-0.42l0.252,1.637c1.379-0.176,2.768-0.26,4.158-0.251h23.183c0.149,0.007,0.278-0.103,0.294-0.252
	c-0.017-0.149-0.093-0.285-0.21-0.378c-1.212-1.26-2.518-2.425-3.906-3.487c-1.134,1.344-1.47,1.764-2.561,3.151h-6.132v-11.676
	h10.5c0.181,0.006,0.34-0.117,0.378-0.294c-0.006-0.155-0.066-0.303-0.168-0.42c-1.042-1.145-2.179-2.199-3.4-3.15
	c-1.134,1.218-1.469,1.6-2.519,2.9h-4.788v-9.91H52.3c0.151-0.025,0.269-0.143,0.294-0.294c-0.014-0.102-0.042-0.201-0.084-0.294
	c-1.638-1.47-2.142-1.932-3.864-3.318c-1.049,1.26-1.344,1.638-2.351,2.94h-5.46v-9.072c1.806-0.546,1.932-0.629,1.932-1.007
	c0-0.42-0.546-0.588-5.082-1.218c0.235,2.189,0.319,4.392,0.252,6.593v4.7H32.1z M18.24,203.854c-0.462,3.864-1.3,6.006-2.94,7.56
	c-0.756,0.714-0.882,0.924-0.882,1.386c0.066,0.612,0.235,1.208,0.5,1.764c0.092,0.443,0.439,0.79,0.882,0.882
	c0.546,0,1.176-0.63,1.722-1.806c0.924-1.89,1.386-4.746,1.386-8.736c0-0.168,0-0.588-0.042-1.05h-0.63L18.24,203.854z
	 M20.466,202.426c0,3.192,0,5,0.042,9.87v7.014c0,5.837-0.042,8.568-0.21,14.867c-0.014,0.247,0.175,0.458,0.422,0.472
	c0.042,0.002,0.083-0.001,0.124-0.01c0.77,0.025,1.538-0.088,2.268-0.335c0.129-0.099,0.193-0.261,0.168-0.421
	c-0.084-7.811-0.126-11.885-0.126-12.305l0.084-23.183c1.47-0.463,1.806-0.673,1.806-1.009c0-0.461-0.8-0.629-4.746-1.134
	c0.148,1.227,0.204,2.464,0.168,3.7v2.477V202.426z M24.498,203.854c0.738,2.167,1.149,4.432,1.218,6.72
	c0.042,0.63,0.21,0.882,0.546,0.882c0.672,0,1.6-1.722,1.6-2.94c0-1.05-0.966-2.646-2.982-4.872L24.498,203.854z M23.698,274.414
	c4.41,3.612,4.578,3.822,4.662,4.914c-0.001,0.54,0.436,0.978,0.975,0.979c0.053,0,0.106-0.004,0.159-0.013
	c1.533-0.103,2.972-0.778,4.032-1.89c2.436-2.688,4.578-9.66,4.578-15.036c0-4.41-1.722-6.552-5.334-6.552
	c-1.232,0.013-2.458,0.168-3.654,0.462c0.761-1.951,1.659-3.846,2.688-5.67c0.321-0.333,0.527-0.76,0.588-1.218
	c0-0.881-1.05-1.68-2.94-2.225c-0.926-0.3-1.885-0.483-2.856-0.546c-0.451-0.012-0.888,0.153-1.218,0.461
	c2.394,0.756,3.234,1.512,3.234,2.814c-0.224,2.37-0.805,4.692-1.722,6.888c-2.335,0.688-4.723,1.179-7.14,1.47
	c-1.554,0-2.31-0.588-3.192-2.31c-0.137,0.291-0.222,0.604-0.252,0.924c0.173,1.17,0.654,2.273,1.394,3.196
	c0.438,0.635,1.097,1.085,1.848,1.26c0.443-0.028,0.868-0.189,1.218-0.462c1.743-0.907,3.572-1.639,5.46-2.184
	c-4.032,8.862-5.838,12.306-7.728,14.616c-0.68,0.584-1.039,1.458-0.966,2.351c0,1.806,0.462,2.9,1.218,2.9
	c0.461-0.052,0.853-0.363,1.008-0.8c0.672-1.177,2.058-4.2,3.738-8.148c1.428-3.4,2.268-5.376,2.478-5.88
	c1.848-4.242,1.848-4.242,2.436-5.712c1.405-0.5,2.878-0.784,4.368-0.84c0.659-0.062,1.32,0.085,1.89,0.42
	c0.756,0.504,1.134,1.637,1.134,3.4c-0.144,3.87-0.983,7.683-2.478,11.256c-1.092,2.646-1.806,3.527-2.73,3.527
	c-0.882,0-3.318-1.049-6.51-2.855L23.698,274.414z M42.262,257.572c3.812,1.824,6.46,5.434,7.055,9.618
	c-2.102,0.827-4.247,1.542-6.425,2.142l0.168,0.546c1.739-0.25,3.493-0.376,5.249-0.378c0.611-0.057,1.222,0.107,1.722,0.462
	c0.284,0.195,0.621,0.298,0.966,0.294c1.05,0,1.68-0.84,1.68-2.31c-0.121-2.184-0.963-4.267-2.394-5.922
	c-1.952-2.464-4.647-4.231-7.685-5.04L42.262,257.572z M43.48,249.131c1.276,1.314,2.364,2.797,3.234,4.409
	c1.3,2.73,1.3,2.73,1.847,2.73c0.84-0.138,1.417-0.921,1.3-1.764c0-1.008-0.588-1.974-2.1-3.317c-1.128-1.025-2.384-1.899-3.737-2.6
	L43.48,249.131z M47.889,246.695c1.883,1.711,3.447,3.742,4.62,6c0.134,0.435,0.513,0.75,0.966,0.8c0.63,0,1.05-0.714,1.05-1.722
	c0-1.176-0.546-2.016-2.142-3.233c-1.237-0.965-2.592-1.77-4.032-2.395L47.889,246.695z M43.27,294.448
	c2.462,1.907,4.64,4.156,6.467,6.678c1.848,2.772,1.848,2.772,2.142,3.024c0.163,0.12,0.349,0.206,0.546,0.252
	c0.8,0,1.554-1.386,1.554-2.814c0-1.47-0.588-2.436-2.226-3.653c-2.558-1.668-5.307-3.022-8.189-4.033L43.27,294.448z"/>
<path id="長方形_1494_のコピー_5" class="st1" d="M0,2.562h1v304H0V2.562z"/>
</svg>
