<svg id="catch_culture3.svg" xmlns="http://www.w3.org/2000/svg" width="140" height="60" viewBox="0 0 140 60">
  <defs>
    <style>
      .cls-1 {
        fill: #fff;
      }

      .cls-2 {
        fill: #1e1e1e;
        fill-rule: evenodd;
      }
    </style>
  </defs>
  <rect id="長方形_1496_のコピー_5" data-name="長方形 1496 のコピー 5" class="cls-1" width="140" height="60"/>
  <path id="一人ひとりが_主役になれる_場所_のコピー_2" data-name="一人ひとりが 主役になれる 場所。 のコピー 2" class="cls-2" d="M200.338,5389.12a20.26,20.26,0,0,1-4.009,6.35,31.92,31.92,0,0,1-9.772,7.64l0.418,0.59a41.955,41.955,0,0,0,4.176-1.97,32.5,32.5,0,0,0,7.391-5.47,22.677,22.677,0,0,0,4.677-7.14h2.172c-0.292,4.26-1.044,8.65-1.67,9.98-0.376.84-.752,1.05-1.88,1.05-1.085,0-2.839-.13-5.387-0.38l-0.042.71c4.135,0.59,4.594.88,4.97,3.01,2.339-.38,3.967-1.25,4.594-2.47,0.793-1.58,1.67-5.84,2.213-11.06,0.96-.42,1.336-0.71,1.336-1.05a0.619,0.619,0,0,0-.334-0.46,21.011,21.011,0,0,0-2.422-1.83,13.174,13.174,0,0,0-1.545,1.54H190.942a39.238,39.238,0,0,0,2.756-3.8h16.83c0.334,0,.5-0.08.5-0.25a0.675,0.675,0,0,0-.251-0.42,41.1,41.1,0,0,0-3.424-2.79c-1.044,1.04-1.378,1.37-2.422,2.5H186.975a14.606,14.606,0,0,1-3.759-.37l0.292,1.58a16.274,16.274,0,0,1,3.467-.25h3.549a21.711,21.711,0,0,1-3.382,4.76,28.314,28.314,0,0,1-7.1,5.97l0.334,0.63a34.869,34.869,0,0,0,9.689-6.6h3.591a21.236,21.236,0,0,1-3.424,4.81,28.861,28.861,0,0,1-8.853,6.09l0.334,0.63a28.4,28.4,0,0,0,10.356-5.93,25.62,25.62,0,0,0,4.552-5.6h3.717Zm-20-11.27v-9.36c1.294-.33,1.67-0.54,1.67-0.87,0-.42-0.5-0.55-4.552-1.05,0.125,1.55.167,2.38,0.167,3.89v7.39H175.2a10.36,10.36,0,0,1-2.965-.34l0.292,1.51a11.744,11.744,0,0,1,2.673-.21h2.422v11.57a50.85,50.85,0,0,1-5.095,1.62c1.044,2.64,1.587,3.97,1.629,4.06a0.546,0.546,0,0,0,.459.41c0.418,0,.543-0.5.627-2.04,1.044-.67,1.044-0.67,5.3-3.3,1.128-.67,2.464-1.59,4.845-3.3l-0.293-.59c-2.13,1.01-2.923,1.38-4.76,2.13v-10.56h6.64a0.394,0.394,0,0,0,.459-0.25,0.758,0.758,0,0,0-.251-0.42c-1.211-1.17-1.628-1.55-2.923-2.63-0.877.96-1.127,1.29-2,2.34h-1.921Zm11.024,1.88h10.649v1.04a0.433,0.433,0,0,0,.543.46,9.925,9.925,0,0,0,1.754-.21,0.53,0.53,0,0,0,.418-0.63c-0.042-4.46-.084-6.68-0.084-8.39v-2.46c1.211-.63,1.337-0.75,1.337-1.01a0.9,0.9,0,0,0-.418-0.58c-0.96-.75-1.295-1-2.38-1.75-0.71.71-.919,0.96-1.629,1.71h-9.73a31.942,31.942,0,0,0-3.174-1.84c0.083,1.5.125,4.05,0.125,9.02,0,1.38-.042,2.88-0.125,5.85,0,0.42.167,0.54,0.752,0.54,1.5,0,1.962-.17,1.962-0.75v-1Zm10.649-6.56H191.359v-4.3h10.649v4.3Zm0,0.96v4.64H191.359v-4.64h10.649Zm47.568,5.89V5391c0,5.6-.042,7.98-0.167,11.03,0.083,0.29.25,0.37,0.835,0.37a7.079,7.079,0,0,0,1.879-.21,0.463,0.463,0,0,0,.376-0.58c-0.125-4.47-.167-7.89-0.167-10.9v-10.69h7.183c0.334,0,.5-0.08.5-0.21a0.585,0.585,0,0,0-.209-0.38c-1.461-1.42-1.921-1.87-3.466-3.29-1.044,1.25-1.336,1.67-2.3,2.92H243.813c0.125-4.93.125-4.93,0.167-7.14a44.175,44.175,0,0,0,12.152-3.55,6.823,6.823,0,0,0,1.378.21c0.543,0,.877-0.17.877-0.42,0-.34-0.751-0.92-2-1.63-0.459-.25-1.128-0.63-2-1.13a12.013,12.013,0,0,1-3.173,2.51,29.748,29.748,0,0,1-6.64,3.13,35.685,35.685,0,0,0-3.592-2.21c0.084,1.67.125,2.38,0.125,3.84,0,2.84-.083,7.64-0.208,10.44-0.251,5.97-1.378,9.98-3.842,13.53a21.518,21.518,0,0,1-5.137,5.26l0.376,0.63a24.33,24.33,0,0,0,3.132-2.01,19.675,19.675,0,0,0,5.053-5.76c2.172-3.63,3.132-7.68,3.3-13.4,0-.3,0-0.8.042-1.34h5.763Zm-14.95,5.72v2.05c0,0.41.125,0.54,0.417,0.54a13.442,13.442,0,0,0,2.255-.25,0.563,0.563,0,0,0,.293-0.59c-0.042-2.25-.042-2.25-0.084-4.97-0.042-2.04-.083-3.84-0.083-4.63v-1.88a2.642,2.642,0,0,0,1-.88,0.633,0.633,0,0,0-.293-0.41,20.35,20.35,0,0,0-2.422-1.88c-0.71.79-.918,1.04-1.628,1.88h-6.766a23.111,23.111,0,0,0-3.466-1.88,34.576,34.576,0,0,1,.209,4.05c0,1.92,0,2.92-.042,5.89-0.125,6.09-.417,8.56-1.461,12.48a19.556,19.556,0,0,1-2.757,6.73l0.5,0.45a22.534,22.534,0,0,0,4.844-8.47,33.486,33.486,0,0,0,1.545-8.23h7.935Zm0-.96h-7.851c0.041-1.63.041-1.63,0.167-9.1h7.684v9.1Zm-12.9-15.37a24.533,24.533,0,0,1,4.427-.25h13.865a0.415,0.415,0,0,0,.417-0.33,1.169,1.169,0,0,0-.125-0.34,42.258,42.258,0,0,0-3.341-2.96c-1.044,1.13-1.336,1.46-2.338,2.55h-8.478a29.1,29.1,0,0,1-4.761-.34Zm53.54,23.93a5.385,5.385,0,1,0,5.387,5.39A5.4,5.4,0,0,0,275.261,5393.34Zm0,1.34a4.05,4.05,0,1,1,0,8.1,4.083,4.083,0,0,1-4.051-4.05A4.025,4.025,0,0,1,275.261,5394.68Z" transform="translate(-160 -5355)"/>
</svg>
