<svg id="catch_work2.svg" xmlns="http://www.w3.org/2000/svg" width="140" height="60" viewBox="0 0 140 60">
  <defs>
    <style>
      .cls-1 {
        fill: #fff;
      }

      .cls-2 {
        fill: #1e1e1e;
        fill-rule: evenodd;
      }
    </style>
  </defs>
  <rect id="長方形_1496_のコピー_4" data-name="長方形 1496 のコピー 4" class="cls-1" width="140" height="60"/>
  <path id="KUMONで_働くと_いうこと_のコピー_2" data-name="KUMONで 働くと いうこと。 のコピー 2" class="cls-2" d="M1008.98,3673.49c0,10.23-.63,18.92-1.51,21.55-0.2.63-.5,0.79-1.42,0.79a35.453,35.453,0,0,1-5.3-.71v0.67a20.836,20.836,0,0,1,3.22,1.21,2.308,2.308,0,0,1,1.04,2.13,11.424,11.424,0,0,0,3.43-.75,3.515,3.515,0,0,0,1.62-2.38c0.88-2.88,1.51-11.4,1.55-21.67,1.42-.84,1.63-1,1.63-1.34a1.121,1.121,0,0,0-.63-0.75c-0.92-.67-1.25-0.88-2.3-1.63l-1.58,1.92h-2.97c0.04-1.04.04-1.13,0.04-1.29,0.09-5.89.09-5.89,0.17-7.27,1.21-.5,1.3-0.58,1.34-0.83,0.04-.42-0.88-0.59-4.26-0.96a30.57,30.57,0,0,1,.25,4.76c0,2.13,0,2.75-.17,5.59a22.467,22.467,0,0,1-3.131-.25l0.291,1.46a13.2,13.2,0,0,1,2.8-.25c-0.13,3.84-.25,5.97-0.25,6.39a29.943,29.943,0,0,1-3.509,12.66,23.036,23.036,0,0,1-5.387,6.09l0.459,0.5a19.484,19.484,0,0,0,3.675-2.88,21.776,21.776,0,0,0,5.092-7.14c1.38-3.17,2.22-8.23,2.55-15.62h3.26Zm-22.971,11.74h4.051v3.46h-4.009a13.247,13.247,0,0,1-3.466-.41l0.251,1.58a19,19,0,0,1,3.215-.21h4.009v3.76a78.465,78.465,0,0,1-7.892.84c0.334,1.38.334,1.42,0.375,1.67,0.376,1.25.376,1.25,0.46,1.54,0.083,0.5.25,0.71,0.459,0.71,0.376,0,.459-0.21.794-1.42,3.758-.87,9.9-2.63,14.532-4.13l-0.25-.59c-2.589.55-3.675,0.71-6.1,1.09v-3.51h6.723c0.46,0,.585-0.04.585-0.21a0.7,0.7,0,0,0-.125-0.25c-1.17-1.12-1.546-1.46-2.757-2.46l-1.67,1.96h-2.756v-3.42H996.7v0.46c0.042,0.37.167,0.46,0.668,0.46,1.42,0,1.754-.13,1.838-0.71-0.042-4.64-.042-4.64-0.042-9.61,0.752-.58.956-0.75,0.956-1.04a1,1,0,0,0-.371-0.55c-0.877-.71-0.877-0.71-2.088-1.71a18.926,18.926,0,0,0-1.295,1.8h-3.925v-3.13h7.809c0.58,0,.71-0.05.71-0.21a0.668,0.668,0,0,0-.17-0.3c-0.958-.83-1.96-1.71-2.962-2.63-0.794.88-1,1.17-1.8,2.18h-3.591v-3.81a48.088,48.088,0,0,0,5.387-1.33,8.993,8.993,0,0,0,1.253.33,0.5,0.5,0,0,0,.459-0.37c0-.3-0.543-0.84-2.84-2.84a15.423,15.423,0,0,1-4.009,2.09,52.859,52.859,0,0,1-9.73,2.63l0.083,0.66a64.078,64.078,0,0,0,7.016-.75v3.39h-4.051a19,19,0,0,1-3.716-.3l0.334,1.46a20.622,20.622,0,0,1,3.382-.2h4.051v3.13h-3.633c-1.211-.8-1.587-1.05-2.84-1.8,0.126,1.71.167,2.34,0.167,3.8,0,4.51-.041,7.1-0.167,9.65,0,0.46.126,0.63,0.46,0.67,1.879-.13,1.879-0.13,1.962-0.71v-0.71Zm0-.96v-4.14h4.051v4.14h-4.051Zm0-5.1v-3.88h4.051v3.88h-4.051Zm6.432,5.1v-4.14H996.7v4.14h-4.259Zm0-5.1v-3.88H996.7v3.88h-4.259Zm-18.5,3.47a27.159,27.159,0,0,0,3.842-5.89v8.06c-0.084,11.4-.084,11.4-0.167,14.32,0,0.46.208,0.63,0.918,0.63a7.458,7.458,0,0,0,1.378-.13,0.583,0.583,0,0,0,.585-0.54c-0.083-7.81-.083-7.81-0.083-14.82v-7.31a1.267,1.267,0,0,0,1.211-.71c0-.34-0.794-0.54-3.132-0.92a67.14,67.14,0,0,0,4.426-11.57c1.462-.21,1.963-0.42,1.963-0.83,0-.46-0.877-0.75-4.844-1.51a55.256,55.256,0,0,1-1.88,9.02,52.306,52.306,0,0,1-4.8,11.86Zm60.049-19.63c1.76,1.13,2.3,1.75,2.3,2.46,0,1.01-1.25,2.76-6.3,8.9-2.55,3.13-3.22,4.26-3.22,5.6a5.405,5.405,0,0,0,1.59,3.5c4.34,5.1,4.55,5.35,6.09,7.56a38.667,38.667,0,0,1,3.51,5.89c0.71,1.5.88,1.71,1.42,1.71,0.88,0,1.42-.92,1.42-2.5a5.486,5.486,0,0,0-.62-2.76c-1.01-1.96-3.14-4.3-7.69-8.52-2.34-2.13-2.34-2.13-2.92-2.75a3.48,3.48,0,0,1-1.25-2.18c0-.79.54-1.75,2-3.38,1.34-1.5,5.43-5.34,7.68-7.22,2.22-1.8,2.43-2.05,2.43-2.59a2.265,2.265,0,0,0-.92-1.67,8.8,8.8,0,0,0-4.64-2.22A2.064,2.064,0,0,0,1033.99,3663.01Zm28.07,1.3c1.75,0.29,2.55.71,3.01,1.5,0.33,0.62.37,1.25,0.5,4.8,0.12,3.13.16,4.05,0.29,5.05,0.21,1.8.58,2.72,1.21,3.18a2.833,2.833,0,0,0,2.01.62,26.476,26.476,0,0,0-5.1,3.35c-2.76,2.29-4.09,4.59-4.09,7.01a6.606,6.606,0,0,0,4.55,6.18,21.242,21.242,0,0,0,7.1.96,64.962,64.962,0,0,0,8.02-.54c1.33-.25,1.79-0.63,1.79-1.38a2.379,2.379,0,0,0-2.25-2.05,4.435,4.435,0,0,0-.84.13,48.677,48.677,0,0,1-9.69,1.21c-4.63,0-7.01-1.54-7.01-4.55,0-1.96,1-3.59,3.26-5.35,2.63-2,5.38-3.25,10.44-4.67a28.955,28.955,0,0,0,2.79-.88,1.319,1.319,0,0,0,.88-1.25,2.035,2.035,0,0,0-2-1.76,3.756,3.756,0,0,0-1.72.5c-3.8,1.8-4.71,2.13-5.59,2.13-1.3,0-1.63-.62-1.63-3.09a32.853,32.853,0,0,1,.92-8.47,2.561,2.561,0,0,0,.33-1.09v-0.08a1.44,1.44,0,0,0-1.17-1.34,13.4,13.4,0,0,0-4.21-.79A2.2,2.2,0,0,0,1062.06,3664.31Z" transform="translate(-960 -3651)"/>
</svg>
