<?xml version="1.0" encoding="utf-8"?>
<!-- Generator: Adobe Illustrator 25.0.0, SVG Export Plug-In . SVG Version: 6.00 Build 0)  -->
<svg version="1.1" id="catch_kv.svg" xmlns="http://www.w3.org/2000/svg" xmlns:xlink="http://www.w3.org/1999/xlink" x="0px"
	 y="0px" viewBox="0 0 56.281 306.562" style="enable-background:new 0 0 56.281 306.562;" xml:space="preserve">
<style type="text/css">
	.st0{fill-rule:evenodd;clip-rule:evenodd;fill:#1E1E1E;}
	.st1{fill-rule:evenodd;clip-rule:evenodd;fill:#F5F5F5;}
</style>
<path id="kv_catch" class="st0" d="M48.84,9.478c-1.009,2.813-2.304,5.515-3.864,8.064l0.378,0.378
	c2.499-2.251,4.803-4.71,6.887-7.35c2.142-0.042,2.52-0.126,2.52-0.588c-0.07-0.328-0.266-0.615-0.546-0.8
	c-1.47-1.3-1.932-1.722-3.36-2.9C49.973,7.206,49.722,7.5,48.84,8.508H34.605c1.008-1.936,1.905-3.927,2.688-5.964
	c1.806-0.083,2.268-0.21,2.268-0.629c-0.06-0.188-0.197-0.341-0.378-0.42c-0.5-0.3-0.672-0.336-4.83-1.512
	c-0.446,2.738-1.207,5.416-2.268,7.979c-1.354,3.674-3.22,7.138-5.544,10.29l0.5,0.294c2.817-2.622,5.186-5.686,7.014-9.072h14.784
	L48.84,9.478z M18.64,3.892c2.225,1.797,4.116,3.972,5.586,6.426c0.966,1.638,1.176,1.848,1.554,1.848
	c0.588,0,1.092-1.218,1.092-2.688c0.102-1.035-0.385-2.039-1.26-2.6c-2.072-1.387-4.299-2.528-6.636-3.4L18.64,3.892z M32,18.382
	c-2.916,1.334-5.919,2.47-8.988,3.4c-2.03,0.716-4.107,1.291-6.216,1.722c1.218,3.99,1.512,4.7,1.89,4.7s0.462-0.337,0.63-1.89
	c4.498-2.123,8.823-4.595,12.936-7.392L32,18.382z M19.736,37.282c2.625-0.514,5.177-1.346,7.6-2.478
	c4.196-1.791,7.681-4.92,9.912-8.9c1.176-2.268,1.722-4.368,2.268-9.156c1.218,7.98,3.15,12.431,7.224,16.464
	c1.423,1.577,3.152,2.848,5.081,3.737c0.924-2.225,1.47-2.771,3.234-3.234v-0.461c-6.258-1.554-10.5-5-13.019-10.626
	c-1.217-2.553-1.917-5.323-2.058-8.148c1.47-0.546,1.764-0.714,1.764-1.05c0-0.462-0.672-0.588-5.04-1.176
	c0.084,1.134,0.084,1.554,0.084,2.352c0,5.8-1.638,10.836-4.578,14.195s-6.972,5.88-12.642,7.98L19.736,37.282z M36.074,81.719
	c2.86-0.39,5.63-1.271,8.19-2.605c5.291-2.814,8.357-7.475,8.357-12.725c0.152-3.719-1.319-7.321-4.031-9.87
	c-3.006-2.59-6.869-3.968-10.836-3.864c-5.406-0.035-10.603,2.08-14.448,5.88c-2.352,2.562-3.78,5.67-3.78,8.316
	c0.001,1.334,0.333,2.647,0.966,3.822c0.725,1.262,1.343,2.583,1.848,3.948c0.228,0.959,0.626,1.87,1.176,2.688
	c0.457,0.551,1.133,0.873,1.848,0.881c1.554,0,3.612-2.058,6.258-6.257c3.192-5.124,5.544-11.256,5.544-14.532
	c-0.013-1.278-0.473-2.511-1.3-3.485c0.487-0.066,0.979-0.095,1.47-0.085c2.553-0.038,5.067,0.631,7.264,1.931
	c3.108,1.974,4.746,5.208,4.746,9.282c0.059,3.722-1.274,7.331-3.738,10.121c-2.394,2.773-5.292,4.494-9.828,5.838L36.074,81.719z
	 M34.982,54.083c0.358,0.644,0.56,1.364,0.588,2.1c0,2.6-2.226,8.022-5.334,12.978c-2.058,3.276-4.074,5.544-5,5.544
	c-0.677-0.17-1.255-0.611-1.6-1.218c-1.104-1.637-1.69-3.569-1.68-5.544c0.007-6.469,5.719-12.559,13.027-13.861L34.982,54.083z
	 M25.49,106.835v-9.493c1.176-0.336,1.68-0.63,1.68-0.924c0-0.378-0.672-0.546-2.6-0.8c-0.462-0.042-1.176-0.168-2.1-0.294
	c0.126,1.848,0.168,2.52,0.168,4.788l-0.042,6.72H21.5c-1.573-0.025-3.143-0.151-4.7-0.378l0.252,1.637
	c1.475-0.203,2.963-0.301,4.452-0.293h1.092c-0.042,15.917-0.042,18.017-0.126,24.275c0,0.546,0.126,0.714,0.63,0.714
	c2.058,0,2.352-0.126,2.394-0.924v-1.722h28.853c0.184,0.044,0.375-0.042,0.462-0.21c-0.035-0.119-0.109-0.223-0.21-0.294
	c-1.638-1.6-2.142-2.1-3.906-3.654c-1.091,1.386-1.427,1.806-2.519,3.192h-22.68V107.8h7.686
	c-0.042,10.415-0.042,10.415-0.126,14.531v0.131c0,0.546,0.126,0.63,0.924,0.63c1.68,0,1.932-0.084,2.016-0.756v-2.6h8.358v2.352
	c0,0.5,0.126,0.63,0.546,0.63c0.693,0.032,1.386-0.038,2.058-0.21c0.245-0.106,0.384-0.367,0.336-0.63
	c-0.126-4.242-0.126-4.242-0.21-14.069h8.1c0.196,0.051,0.398-0.059,0.462-0.252c-0.051-0.103-0.107-0.203-0.168-0.3
	c-1.554-1.428-2.058-1.889-3.906-3.4c-1.008,1.3-1.3,1.68-2.309,2.982h-2.226v-9.534c1.092-0.252,1.638-0.546,1.638-0.84
	c0-0.42-1.134-0.714-4.662-1.134c0.211,1.602,0.323,3.215,0.336,4.83v6.678h-8.358v-9.497c0.504-0.159,0.996-0.355,1.47-0.588
	c0.155-0.069,0.265-0.211,0.294-0.378c-0.039-0.199-0.217-0.341-0.42-0.336c-1.441-0.312-2.9-0.537-4.368-0.672
	c0.21,1.764,0.21,1.764,0.21,11.466h-7.686L25.49,106.835z M35.99,107.801h8.358v10.961H35.99V107.8V107.801z M31.496,161.601
	c-1.408,2.085-3.187,3.893-5.25,5.334c-2.971,2.178-6.296,3.826-9.828,4.872l0.294,0.672c4.327-0.817,8.443-2.503,12.1-4.956
	c0.042,0.588,0.042,0.84,0.042,1.386c0,3.864-0.924,6.552-2.9,8.568c-1.932,1.974-4.242,3.276-8.148,4.7l0.252,0.588
	c6.762-1.3,10.92-3.738,12.474-7.35c0.714-1.638,0.966-2.94,1.344-6.468c1.344-0.378,1.554-0.5,1.554-0.84
	c0-0.294-0.336-0.5-1.218-0.672c-0.843-0.219-1.699-0.386-2.562-0.5c2.055-1.422,3.811-3.234,5.166-5.334h2.52
	c1.011,1.484,2.261,2.79,3.7,3.864c3.636,3.045,7.871,5.291,12.431,6.594c0.63-1.848,1.26-2.478,2.772-2.772l0.042-0.546
	c-4.548-0.29-8.984-1.535-13.019-3.654c-1.792-0.95-3.457-2.121-4.956-3.486h8.274v1.134c0,0.42,0.168,0.588,0.714,0.588
	c0.612,0.013,1.221-0.072,1.806-0.252c0.213-0.118,0.342-0.345,0.335-0.588c-0.083-2.814-0.083-4.074-0.083-6.594
	c0-0.587,0-4.7,0.042-7.307c1.259-0.588,1.637-0.84,1.637-1.218c-0.026-0.211-0.15-0.397-0.336-0.5
	c-1.217-0.84-1.553-1.092-2.771-1.89c-0.84,0.84-1.092,1.092-1.848,1.974H26c-1.086-0.736-2.222-1.395-3.4-1.974
	c0.042,2.142,0.126,8.1,0.126,11.129c0,2.143-0.042,3.78-0.126,6.889c0,0.419,0.21,0.587,0.8,0.587
	c0.552-0.012,1.101-0.082,1.638-0.21c0.261-0.027,0.45-0.261,0.423-0.522c-0.001-0.008-0.002-0.016-0.003-0.024v-1.218H31.5
	L31.496,161.601z M46.574,153.748h-9.408v-5.838h9.408V153.748z M46.574,154.755v5.88h-9.408v-5.88H46.574z M34.474,160.635h-9.03
	v-5.88h9.03V160.635z M25.444,153.748v-5.838h9.03v5.838H25.444z M40.312,167.187c0.084,1.218,0.084,1.848,0.084,3.654
	c0,6.384,0,6.384-0.084,11c0,0.336,0.252,0.462,0.924,0.462c0.597,0,1.191-0.085,1.764-0.252c0.221-0.083,0.347-0.316,0.294-0.546
	c-0.084-3.822-0.126-6.09-0.126-8.232c0-1.3,0-1.428,0.042-4.242c0.966-0.294,1.26-0.462,1.26-0.84s-0.835-0.584-4.153-1.004H40.312
	z M21.202,201.923c1.932,2.478,3.4,3.234,6.258,3.234c0.944,0,1.885-0.085,2.814-0.253c-2.982,4.494-4.83,6.679-7.812,9.03
	c-1.176,0.966-1.218,1.008-1.218,1.89c0,1.344,0.462,2.226,1.134,2.226c0.42,0,0.756-0.252,1.554-1.344
	c3.024-3.864,6.342-6.089,9.114-6.089c0.893-0.014,1.72,0.472,2.142,1.259c0.461,1.042,0.662,2.181,0.588,3.318
	c-1.863,1.059-3.609,2.312-5.208,3.738c-2.058,1.974-3.024,3.78-3.024,5.754c0,2.058,0.966,3.444,3.108,4.452
	c1.68,0.8,4.578,1.218,8.526,1.218c2.518,0.007,5.032-0.19,7.518-0.588c0.655-0.003,1.208-0.486,1.3-1.134
	c0-0.924-1.638-2.1-2.94-2.1c-0.271,0.007-0.54,0.049-0.8,0.126c-2.745,0.787-5.587,1.183-8.442,1.176
	c-4.7,0-7.014-1.092-7.014-3.36c0.125-1.528,0.868-2.939,2.058-3.906c1.476-1.329,3.13-2.446,4.914-3.318
	c-0.014,1.502-0.112,3.003-0.294,4.494c-0.033,0.237-0.047,0.475-0.042,0.714c-0.002,0.696,0.561,1.261,1.257,1.263
	c0.029,0,0.058-0.001,0.087-0.003c0.513-0.018,0.971-0.329,1.176-0.8c0.3-1.179,0.413-2.398,0.336-3.612c0-1.806,0-2.058-0.042-3.4
	c3.617-1.772,7.383-3.219,11.256-4.325c1.175-0.253,1.511-0.546,1.511-1.3c0-1.681-2.9-4.243-4.745-4.243
	c-0.338,0.003-0.67,0.09-0.966,0.253c1.218,0.5,1.932,1.259,1.932,1.973c0,0.756-1.008,1.429-5.166,3.528
	c-3.4,1.722-3.4,1.722-4.116,2.059c-0.238-2.408-2.28-4.234-4.7-4.2c-1.919,0.093-3.783,0.671-5.418,1.68
	c0.8-1.134,1.134-1.6,2.268-3.359c0.966-1.47,1.47-2.226,2.226-3.277c3.104-0.581,6.164-1.381,9.156-2.393
	c1.26-0.42,1.806-0.84,1.806-1.344c0-0.8-1.176-1.386-2.814-1.386c-0.294-0.005-0.579,0.1-0.8,0.294
	c-1.386,1.176-2.52,1.68-6.048,2.688c0.294-0.42,0.294-0.42,1.05-1.639c0.336-0.461,0.84-1.217,1.218-1.721
	c0.351-0.322,0.587-0.75,0.672-1.218c0-0.5-0.462-0.966-1.512-1.386c-1.037-0.444-2.149-0.686-3.276-0.714
	c-0.662-0.037-1.32,0.123-1.89,0.462c2.184,0.546,2.982,1.218,2.982,2.352c-0.197,1.512-0.697,2.969-1.47,4.283
	c-1.476,0.334-2.981,0.518-4.494,0.547c-2.268,0-3.234-0.378-5.25-1.974L21.202,201.923z"/>
<path id="長方形_1494_のコピー_5" class="st1" d="M0,2.562h1v304H0V2.562z"/>
</svg>
