<?xml version="1.0" encoding="utf-8"?>
<!-- Generator: Adobe Illustrator 25.0.0, SVG Export Plug-In . SVG Version: 6.00 Build 0)  -->
<svg version="1.1" id="catch_kv.svg" xmlns="http://www.w3.org/2000/svg" xmlns:xlink="http://www.w3.org/1999/xlink" x="0px"
	 y="0px" viewBox="0 0 37.763 306.562" style="enable-background:new 0 0 37.763 306.562;" xml:space="preserve">
<style type="text/css">
	.st0{fill-rule:evenodd;clip-rule:evenodd;fill:#1E1E1E;}
</style>
<path id="kv_catch" class="st0" d="M14.412,28.042c3.567-0.245,7.071-1.068,10.374-2.436c6.132-2.6,9.659-7.1,9.659-12.305
	c0-5.5-4.367-9.24-10.751-9.24c-4.368,0-8.736,1.134-15.372,4.032C6.738,8.912,5.014,9.425,3.24,9.605
	c-0.634-0.023-1.241-0.26-1.722-0.672C0.984,8.54,0.575,8,0.342,7.379c-0.197,0.317-0.313,0.678-0.336,1.05
	c0,1.89,3.066,4.83,5.04,4.83c0.604-0.027,1.176-0.282,1.6-0.714c5.544-4.326,11.97-7.014,16.884-7.014
	c4.578,0,7.685,2.856,7.685,7.056c0,4.409-2.813,8.525-7.727,11.3c-2.91,1.613-6.035,2.801-9.282,3.528L14.412,28.042z
	 M16.764,44.885c1.764,1.134,2.31,1.763,2.31,2.477c0,1.009-1.26,2.773-6.342,8.946c-2.562,3.15-3.234,4.284-3.234,5.628
	c0.084,1.332,0.653,2.587,1.6,3.528c4.368,5.124,4.578,5.376,6.132,7.6c1.346,1.868,2.526,3.849,3.528,5.922
	c0.714,1.512,0.882,1.722,1.428,1.722c0.882,0,1.428-0.924,1.428-2.521c0.041-0.963-0.177-1.92-0.63-2.771
	c-1.008-1.974-3.15-4.326-7.728-8.568c-1.026-0.874-2.007-1.799-2.94-2.772c-0.676-0.547-1.124-1.325-1.26-2.184
	c0-0.8,0.546-1.764,2.016-3.4c2.451-2.551,5.031-4.976,7.728-7.265c2.226-1.807,2.436-2.058,2.436-2.6
	c-0.047-0.668-0.385-1.282-0.924-1.68c-1.298-1.189-2.921-1.965-4.662-2.226C17.346,44.706,17.042,44.762,16.764,44.885z
	 M21.552,99.107c0.072-0.023,0.142-0.052,0.21-0.084h0.126c-0.001-0.023,0.017-0.041,0.04-0.042c0.001,0,0.001,0,0.002,0
	c0.048,0.018,0.091,0.046,0.126,0.084c-0.101,0.246-0.243,0.473-0.42,0.672c-3.318,4.284-4.914,6.132-10.038,11.886
	c-3.57,3.947-4.242,4.62-5.838,5.837c-0.499,0.333-0.823,0.873-0.882,1.47c0,1.26,0.756,2.73,1.386,2.73
	c0.42,0,0.714-0.252,1.428-1.133c3.486-4.453,9.24-7.813,13.356-7.813c1.432-0.043,2.855,0.245,4.158,0.841
	c1.738,1.144,2.73,3.131,2.6,5.207c0.092,3.417-1.928,6.538-5.082,7.854c-0.449-0.974-1.076-1.856-1.848-2.6
	c-1.451-1.341-3.359-2.077-5.334-2.058c-2.6,0-4.536,1.512-4.536,3.57c0,2.562,2.646,4.2,6.762,4.2
	c7.6,0,13.187-4.452,13.187-10.458c0-4.7-3.611-7.853-8.987-7.853c-3.528,0-6.93,1.176-11.424,3.99l-0.084-0.085
	c0.882-0.882,0.882-0.882,4.914-5.207c1.974-2.1,3.528-3.654,6.174-6.3c0.97-1.154,2.154-2.109,3.486-2.814
	c0.375-0.103,0.654-0.416,0.714-0.8c0-0.5-0.294-0.966-1.26-1.89c-1.05-1.05-1.722-1.47-2.268-1.47
	c-0.213,0.005-0.419,0.079-0.588,0.21c-0.73,0.665-1.63,1.115-2.6,1.3c-2.587,0.837-5.244,1.441-7.938,1.806
	c-1.386,0-2.52-1.092-3.15-3.066c-0.248,0.31-0.381,0.695-0.378,1.092c0.092,1.126,0.499,2.203,1.176,3.108
	c0.8,1.176,1.638,1.764,2.394,1.764c0.603-0.075,1.186-0.26,1.722-0.546c2.9-1.26,6.846-2.814,8.484-3.318L21.552,99.107z
	 M19.998,127.624c-0.972,0.26-1.975,0.387-2.982,0.378c-2.94,0-4.788-1.008-4.788-2.562c0-1.3,1.05-2.142,2.646-2.142
	C17.226,123.298,19.158,124.936,19.998,127.624L19.998,127.624z M32.345,145.097c-2.992,0-5.418,2.426-5.418,5.418
	s2.426,5.418,5.418,5.418s5.418-2.426,5.418-5.418l0,0C37.756,147.526,35.334,145.104,32.345,145.097L32.345,145.097z
	 M32.345,146.441c2.25,0,4.074,1.824,4.074,4.074s-1.824,4.074-4.074,4.074c-2.244-0.015-4.059-1.83-4.073-4.074
	c-0.013-2.237,1.791-4.061,4.028-4.074C32.315,146.441,32.33,146.441,32.345,146.441L32.345,146.441z"/>
</svg>
