<svg id="catch_feature2.svg" xmlns="http://www.w3.org/2000/svg" width="253" height="60" viewBox="0 0 253 60">
  <defs>
    <style>
      .cls-1 {
        fill: #fff;
      }

      .cls-2 {
        fill: #1e1e1e;
        fill-rule: evenodd;
      }
    </style>
  </defs>
  <rect id="長方形_1496_のコピー_3" data-name="長方形 1496 のコピー 3" class="cls-1" width="253" height="60"/>
  <path id="feature_catch2" class="cls-2" d="M204.245,1894.35a44,44,0,0,1-3.864,8.06l0.378,0.38a59.946,59.946,0,0,0,6.888-7.35c2.142-.05,2.519-0.13,2.519-0.59a1.284,1.284,0,0,0-.545-0.8c-1.47-1.3-1.932-1.72-3.36-2.9-0.882.93-1.134,1.22-2.016,2.23H190.008a58.153,58.153,0,0,0,2.687-5.96c1.806-.09,2.268-0.21,2.268-0.63a0.666,0.666,0,0,0-.378-0.42c-0.5-.3-0.672-0.34-4.829-1.52a35.808,35.808,0,0,1-2.268,7.98,41.4,41.4,0,0,1-5.544,10.29l0.5,0.3a35.479,35.479,0,0,0,7.014-9.07h14.783Zm-30.2-5.59a24.293,24.293,0,0,1,5.585,6.42c0.966,1.64,1.176,1.85,1.554,1.85,0.588,0,1.092-1.21,1.092-2.68a2.779,2.779,0,0,0-1.26-2.61,32.185,32.185,0,0,0-6.635-3.4Zm13.355,14.49a72.351,72.351,0,0,1-8.988,3.4,45.959,45.959,0,0,1-6.215,1.72c1.218,3.99,1.512,4.71,1.89,4.71s0.461-.34.63-1.89a94.578,94.578,0,0,0,12.935-7.4Zm-12.263,18.9a33.228,33.228,0,0,0,7.6-2.48,20.673,20.673,0,0,0,9.912-8.9c1.175-2.27,1.721-4.37,2.267-9.16,1.218,7.98,3.15,12.43,7.224,16.46a15.618,15.618,0,0,0,5.082,3.74c0.924-2.22,1.47-2.77,3.233-3.23v-0.46c-6.257-1.56-10.5-5-13.019-10.63a21.423,21.423,0,0,1-2.058-8.15c1.47-.54,1.764-0.71,1.764-1.05,0-.46-0.672-0.58-5.039-1.17,0.084,1.13.084,1.55,0.084,2.35,0,5.79-1.638,10.83-4.578,14.19s-6.972,5.88-12.641,7.98ZM236,1919.54a25.111,25.111,0,0,0,8.189-2.6c5.292-2.81,8.358-7.48,8.358-12.73a12.8,12.8,0,0,0-4.032-9.86,15.952,15.952,0,0,0-10.836-3.87,20.374,20.374,0,0,0-14.447,5.88c-2.352,2.56-3.779,5.67-3.779,8.32a8.1,8.1,0,0,0,.965,3.82,25.678,25.678,0,0,1,1.848,3.95,8.178,8.178,0,0,0,1.176,2.68,2.432,2.432,0,0,0,1.848.89c1.554,0,3.612-2.06,6.258-6.26,3.192-5.13,5.544-11.26,5.544-14.53a5.486,5.486,0,0,0-1.3-3.49,10.14,10.14,0,0,1,1.469-.08,13.845,13.845,0,0,1,7.266,1.93c3.108,1.97,4.746,5.21,4.746,9.28a14.934,14.934,0,0,1-3.738,10.12c-2.394,2.77-5.292,4.5-9.827,5.84Zm-1.092-27.63a4.688,4.688,0,0,1,.588,2.1c0,2.6-2.226,8.02-5.334,12.98-2.058,3.27-4.074,5.54-5,5.54a2.547,2.547,0,0,1-1.6-1.22,9.829,9.829,0,0,1-1.68-5.54C221.886,1899.3,227.6,1893.21,234.906,1891.91Zm35.868,4.87v-9.49c1.176-.34,1.68-0.63,1.68-0.92,0-.38-0.672-0.55-2.6-0.8-0.462-.04-1.176-0.17-2.1-0.3,0.126,1.85.168,2.52,0.168,4.79l-0.042,6.72h-1.092a36.665,36.665,0,0,1-4.7-.38l0.252,1.64a31.289,31.289,0,0,1,4.451-.29h1.092c-0.042,15.91-.042,18.01-0.126,24.27,0,0.55.126,0.72,0.63,0.72,2.058,0,2.352-.13,2.394-0.93v-1.72h28.853a0.407,0.407,0,0,0,.462-0.21,0.533,0.533,0,0,0-.21-0.29c-1.638-1.6-2.142-2.1-3.906-3.66-1.092,1.39-1.428,1.81-2.52,3.19H270.774v-21.37h7.686c-0.042,10.41-.042,10.41-0.126,14.53v0.12c0,0.55.126,0.63,0.924,0.63,1.68,0,1.932-.08,2.016-0.75v-2.61h8.357v2.36c0,0.5.126,0.63,0.546,0.63a7.213,7.213,0,0,0,2.058-.21,0.585,0.585,0,0,0,.336-0.63c-0.126-4.25-.126-4.25-0.21-14.07h8.105a0.386,0.386,0,0,0,.462-0.26c0-.04-0.084-0.12-0.168-0.29-1.553-1.43-2.057-1.89-3.9-3.4l-2.31,2.98h-2.226v-9.53c1.092-.25,1.638-0.55,1.638-0.84,0-.42-1.134-0.72-4.662-1.14a39.53,39.53,0,0,1,.336,4.83v6.68h-8.357v-9.49a9.084,9.084,0,0,0,1.469-.59,0.5,0.5,0,0,0,.3-0.38,0.419,0.419,0,0,0-.42-0.33,34.547,34.547,0,0,0-4.368-.67c0.21,1.76.21,1.76,0.21,11.46h-7.686Zm10.5,0.97h8.357v10.96h-8.357v-10.96Zm42.546,4.24a20.467,20.467,0,0,1-5.25,5.33,31.886,31.886,0,0,1-9.827,4.87l0.294,0.68a32.614,32.614,0,0,0,12.1-4.96c0.042,0.59.042,0.84,0.042,1.39,0,3.86-.924,6.55-2.9,8.56-1.932,1.98-4.242,3.28-8.147,4.71l0.252,0.59c6.761-1.31,10.919-3.74,12.473-7.35,0.714-1.64.966-2.94,1.344-6.47,1.344-.38,1.554-0.51,1.554-0.84,0-.3-0.336-0.51-1.218-0.67a19.731,19.731,0,0,0-2.562-.51,18.991,18.991,0,0,0,5.166-5.33h2.519a16.215,16.215,0,0,0,3.7,3.86,33.816,33.816,0,0,0,12.432,6.6c0.63-1.85,1.26-2.48,2.771-2.78l0.042-.54a32.358,32.358,0,0,1-13.019-3.66,23.975,23.975,0,0,1-4.956-3.48H338.9v1.13c0,0.42.168,0.59,0.714,0.59a5.917,5.917,0,0,0,1.806-.25,0.655,0.655,0,0,0,.336-0.59c-0.084-2.81-.084-4.07-0.084-6.59,0-.59,0-4.71.042-7.31,1.26-.59,1.638-0.84,1.638-1.22a0.655,0.655,0,0,0-.336-0.5c-1.218-.84-1.554-1.09-2.772-1.89-0.84.84-1.092,1.09-1.848,1.97H318.318a28.37,28.37,0,0,0-3.4-1.97c0.042,2.14.126,8.1,0.126,11.13,0,2.14-.042,3.78-0.126,6.88,0,0.42.21,0.59,0.8,0.59a7.429,7.429,0,0,0,1.638-.21,0.469,0.469,0,0,0,.42-0.54v-1.22h6.048Zm15.077-7.85H329.49v-5.84H338.9v5.84Zm0,1v5.88H329.49v-5.88H338.9Zm-12.095,5.88h-9.03v-5.88h9.03v5.88Zm-9.03-6.88v-5.84h9.03v5.84h-9.03Zm14.867,13.43c0.084,1.22.084,1.85,0.084,3.66,0,6.38,0,6.38-.084,11,0,0.34.252,0.46,0.924,0.46a6.176,6.176,0,0,0,1.764-.25,0.465,0.465,0,0,0,.294-0.54c-0.084-3.83-.126-6.09-0.126-8.24,0-1.3,0-1.42.042-4.24,0.966-.29,1.26-0.46,1.26-0.84S335.957,1907.99,332.639,1907.57Zm27.344-15.2c1.932,2.48,3.4,3.24,6.258,3.24a16.077,16.077,0,0,0,2.814-.26c-2.982,4.5-4.83,6.68-7.812,9.03-1.176.97-1.218,1.01-1.218,1.89,0,1.35.462,2.23,1.134,2.23,0.42,0,.756-0.25,1.554-1.35,3.024-3.86,6.342-6.09,9.113-6.09a2.4,2.4,0,0,1,2.142,1.26,7.113,7.113,0,0,1,.588,3.32,30.152,30.152,0,0,0-5.207,3.74c-2.058,1.97-3.024,3.78-3.024,5.75,0,2.06.966,3.45,3.108,4.46,1.679,0.79,4.577,1.21,8.525,1.21a47.486,47.486,0,0,0,7.518-.58,1.322,1.322,0,0,0,1.3-1.14c0-.92-1.638-2.1-2.94-2.1a2.884,2.884,0,0,0-.8.13,30.6,30.6,0,0,1-8.442,1.17c-4.7,0-7.013-1.09-7.013-3.36a5.6,5.6,0,0,1,2.057-3.9,21.4,21.4,0,0,1,4.914-3.32,39.868,39.868,0,0,1-.294,4.49,4.69,4.69,0,0,0-.042.72,1.262,1.262,0,0,0,1.344,1.26,1.338,1.338,0,0,0,1.176-.8,11.633,11.633,0,0,0,.336-3.61c0-1.81,0-2.06-.042-3.4a68.274,68.274,0,0,1,11.255-4.33c1.176-.25,1.512-0.55,1.512-1.3,0-1.68-2.9-4.24-4.745-4.24a2.037,2.037,0,0,0-.966.25c1.218,0.5,1.932,1.26,1.932,1.97,0,0.76-1.008,1.43-5.166,3.53-3.4,1.72-3.4,1.72-4.116,2.06a4.658,4.658,0,0,0-4.7-4.2,11.341,11.341,0,0,0-5.417,1.68c0.8-1.14,1.134-1.6,2.268-3.36,0.966-1.47,1.469-2.23,2.225-3.28a66.723,66.723,0,0,0,9.156-2.39c1.26-.42,1.806-0.84,1.806-1.34,0-.8-1.176-1.39-2.814-1.39a1.174,1.174,0,0,0-.8.29c-1.386,1.18-2.52,1.68-6.048,2.69,0.294-.42.294-0.42,1.05-1.64,0.336-.46.84-1.21,1.218-1.72a2.165,2.165,0,0,0,.672-1.22c0-.5-0.462-0.96-1.512-1.38a8.94,8.94,0,0,0-3.276-.72,3.318,3.318,0,0,0-1.889.47c2.183,0.54,2.981,1.21,2.981,2.35a11.318,11.318,0,0,1-1.47,4.28,22.146,22.146,0,0,1-4.493.55c-2.268,0-3.234-.38-5.25-1.98Z" transform="translate(-160 -1874)"/>
</svg>
