<svg xmlns="http://www.w3.org/2000/svg" width="48.125" height="500" viewBox="0 0 48.125 500">
  <defs>
    <style>
      .cls-1 {
        fill: #343c43;
        fill-rule: evenodd;
      }
    </style>
  </defs>
  <path id="catch_kv2_sp.svg" class="cls-1" d="M39.155,11.835A55.5,55.5,0,0,1,34.489,21.9l0.456,0.472A73.486,73.486,0,0,0,43.263,13.2c2.587-.051,3.043-0.158,3.043-0.734a1.6,1.6,0,0,0-.659-1c-1.775-1.626-2.333-2.15-4.058-3.617C40.524,9,40.22,9.371,39.155,10.629H21.961a73.4,73.4,0,0,0,3.246-7.444c2.181-.106,2.739-0.263,2.739-0.787a0.85,0.85,0,0,0-.457-0.523c-0.609-.367-0.811-0.42-5.833-1.888a46.086,46.086,0,0,1-2.739,9.961,52.448,52.448,0,0,1-6.695,12.846l0.609,0.365A43.927,43.927,0,0,0,21.3,11.835H39.155ZM2.688,4.862a30.1,30.1,0,0,1,6.746,8.022c1.167,2.044,1.42,2.306,1.877,2.306,0.71,0,1.319-1.52,1.319-3.355a3.493,3.493,0,0,0-1.522-3.251A38.331,38.331,0,0,0,3.094,4.338ZM18.817,22.949A84.451,84.451,0,0,1,7.963,27.2,55.156,55.156,0,0,1,.456,29.345c1.471,4.981,1.826,5.872,2.282,5.872S3.3,34.8,3.5,32.858a114.311,114.311,0,0,0,15.621-9.227ZM4.007,46.541a38.821,38.821,0,0,0,9.18-3.093,25.28,25.28,0,0,0,11.97-11.113c1.42-2.832,2.079-5.454,2.739-11.43,1.471,9.961,3.8,15.519,8.724,20.552a18.957,18.957,0,0,0,6.137,4.666c1.116-2.778,1.775-3.46,3.905-4.037V41.509c-7.557-1.94-12.68-6.238-15.723-13.264a27.449,27.449,0,0,1-2.485-10.171c1.775-.68,2.13-0.891,2.13-1.311,0-.577-0.812-0.733-6.086-1.466,0.1,1.415.1,1.938,0.1,2.935,0,7.235-1.978,13.526-5.528,17.72S10.651,43.292,3.8,45.912Zm19.73,55.476a29.534,29.534,0,0,0,9.89-3.249c6.391-3.513,10.093-9.333,10.093-15.886,0-5.087-1.623-9.227-4.869-12.321a18.9,18.9,0,0,0-13.085-4.822A24.192,24.192,0,0,0,8.318,73.077c-2.84,3.2-4.565,7.078-4.565,10.381A10.333,10.333,0,0,0,4.92,88.228a33.217,33.217,0,0,1,2.232,4.929c0.862,2.516.964,2.726,1.42,3.356a2.9,2.9,0,0,0,2.232,1.1c1.877,0,4.362-2.569,7.557-7.812,3.855-6.4,6.695-14.05,6.695-18.14a6.986,6.986,0,0,0-1.572-4.352,11.316,11.316,0,0,1,1.775-.1,16.329,16.329,0,0,1,8.774,2.412c3.753,2.464,5.731,6.5,5.731,11.586A19.021,19.021,0,0,1,35.25,93.839c-2.891,3.46-6.391,5.61-11.868,7.287Zm-1.319-34.5a6.006,6.006,0,0,1,.71,2.621c0,3.251-2.688,10.013-6.441,16.2-2.485,4.09-4.92,6.921-6.036,6.921-0.558,0-1.217-.578-1.927-1.52a12.561,12.561,0,0,1-2.029-6.92C6.695,76.747,13.593,69.145,22.418,67.52ZM10.955,133.375V121.526c1.42-.419,2.029-0.785,2.029-1.153,0-.472-0.812-0.681-3.145-1-0.558-.051-1.42-0.209-2.536-0.366,0.152,2.307.2,3.145,0.2,5.977l-0.051,8.388H6.137A42.9,42.9,0,0,1,.456,132.9l0.3,2.046a36.46,36.46,0,0,1,5.376-.369H7.456C7.4,154.45,7.4,157.073,7.3,164.884c0,0.682.152,0.892,0.761,0.892,2.485,0,2.84-.158,2.891-1.154v-2.149H45.8a0.494,0.494,0,0,0,.558-0.262,0.682,0.682,0,0,0-.254-0.368c-1.978-1.992-2.587-2.62-4.717-4.561-1.319,1.731-1.724,2.255-3.043,3.985H10.955V134.58h9.282c-0.051,13-.051,13-0.152,18.141v0.158c0,0.681.152,0.786,1.116,0.786,2.029,0,2.333-.1,2.435-0.944V149.47H33.728v2.937c0,0.629.152,0.786,0.659,0.786a8.119,8.119,0,0,0,2.485-.263,0.717,0.717,0,0,0,.406-0.786c-0.152-5.3-.152-5.3-0.254-17.564h9.789c0.3,0,.558-0.1.558-0.313a3.936,3.936,0,0,0-.2-0.367c-1.877-1.784-2.485-2.359-4.717-4.246-1.217,1.624-1.572,2.1-2.79,3.721H36.974v-11.9c1.319-.315,1.978-0.681,1.978-1.049,0-.524-1.369-0.89-5.63-1.415a50.96,50.96,0,0,1,.406,6.029v8.336H23.635V121.526a12.556,12.556,0,0,0,1.775-.733,0.635,0.635,0,0,0,.355-0.472,0.51,0.51,0,0,0-.507-0.42,42.851,42.851,0,0,0-5.275-.839c0.254,2.2.254,2.2,0.254,14.313H10.955Zm12.68,1.205H33.728v13.685H23.635V134.58Zm-5.427,67.168a25.177,25.177,0,0,1-6.34,6.658C8.368,211.08,5.579,212.5,0,214.488l0.355,0.839c6.391-1.521,9.992-3.04,14.607-6.186,0.051,0.734.051,1.048,0.051,1.729,0,4.824-1.116,8.18-3.5,10.695-2.333,2.465-5.123,4.091-9.839,5.872l0.3,0.735c8.166-1.626,13.187-4.666,15.064-9.176,0.862-2.043,1.166-3.669,1.623-8.073,1.623-.471,1.877-0.63,1.877-1.048,0-.368-0.406-0.63-1.471-0.84a25.1,25.1,0,0,0-3.094-.629,23.408,23.408,0,0,0,6.238-6.658h3.043a19.985,19.985,0,0,0,4.463,4.824A40.442,40.442,0,0,0,44.734,214.8c0.761-2.307,1.521-3.094,3.347-3.461l0.051-.681A38.227,38.227,0,0,1,32.409,206.1a29.241,29.241,0,0,1-5.985-4.351h9.992v1.415c0,0.524.2,0.734,0.862,0.734a6.712,6.712,0,0,0,2.181-.314,0.817,0.817,0,0,0,.406-0.734c-0.1-3.513-.1-5.086-0.1-8.231,0-.734,0-5.873.051-9.122,1.522-.735,1.978-1.049,1.978-1.521a0.831,0.831,0,0,0-.406-0.629c-1.471-1.049-1.877-1.363-3.347-2.36-1.014,1.048-1.319,1.364-2.232,2.465H11.564a34.222,34.222,0,0,0-4.108-2.465c0.051,2.675.152,10.119,0.152,13.893,0,2.675-.051,4.72-0.152,8.6,0,0.525.254,0.733,0.964,0.733a9.07,9.07,0,0,0,1.978-.262,0.587,0.587,0,0,0,.507-0.68v-1.521h7.3Zm18.208-9.8H25.055v-7.286H36.416v7.286Zm0,1.259v7.341H25.055V193.2H36.416Zm-14.607,7.341H10.9V193.2h10.9v7.341Zm-10.9-8.6v-7.286h10.9v7.286H10.9Zm17.954,16.778c0.1,1.521.1,2.308,0.1,4.561,0,7.969,0,7.969-.1,13.736,0,0.419.3,0.577,1.116,0.577a7.441,7.441,0,0,0,2.13-.314,0.593,0.593,0,0,0,.355-0.682c-0.1-4.772-.152-7.6-0.152-10.275,0-1.625,0-1.784.051-5.3,1.167-.368,1.522-0.577,1.522-1.049S32.866,209.245,28.859,208.721ZM5.782,252.087c2.333,3.093,4.108,4.038,7.557,4.038a18.732,18.732,0,0,0,3.4-.315c-3.6,5.61-5.833,8.336-9.434,11.272-1.42,1.2-1.471,1.258-1.471,2.359,0,1.678.558,2.779,1.369,2.779,0.507,0,.913-0.316,1.877-1.678,3.652-4.824,7.659-7.6,11.006-7.6a2.876,2.876,0,0,1,2.587,1.572,9.092,9.092,0,0,1,.71,4.143,36.621,36.621,0,0,0-6.289,4.666c-2.485,2.464-3.652,4.718-3.652,7.182,0,2.568,1.166,4.3,3.753,5.557,2.029,1,5.528,1.521,10.3,1.521a54.51,54.51,0,0,0,9.079-.735,1.615,1.615,0,0,0,1.572-1.415c0-1.153-1.978-2.621-3.55-2.621a3.593,3.593,0,0,0-.964.158,35.585,35.585,0,0,1-10.195,1.468c-5.68,0-8.47-1.365-8.47-4.195,0-1.573.812-3.2,2.485-4.876a25.775,25.775,0,0,1,5.934-4.141,51.747,51.747,0,0,1-.355,5.609,5.913,5.913,0,0,0-.051.892A1.544,1.544,0,0,0,24.6,279.3a1.612,1.612,0,0,0,1.42-1,15.021,15.021,0,0,0,.406-4.509c0-2.255,0-2.569-.051-4.248a80.774,80.774,0,0,1,13.593-5.4c1.42-.314,1.826-0.683,1.826-1.626,0-2.1-3.5-5.295-5.731-5.295a2.4,2.4,0,0,0-1.166.314c1.471,0.63,2.333,1.574,2.333,2.465,0,0.943-1.217,1.781-6.239,4.4-4.108,2.15-4.108,2.15-4.971,2.569a5.7,5.7,0,0,0-5.68-5.243c-1.927,0-3.7.577-6.543,2.1,0.964-1.416,1.37-1.993,2.739-4.195,1.167-1.835,1.775-2.778,2.688-4.09a79.129,79.129,0,0,0,11.057-2.988c1.522-.524,2.181-1.048,2.181-1.678,0-1-1.42-1.729-3.4-1.729a1.4,1.4,0,0,0-.964.366c-1.674,1.469-3.043,2.1-7.3,3.356,0.355-.525.355-0.525,1.268-2.045,0.406-.577,1.014-1.521,1.471-2.15a2.755,2.755,0,0,0,.812-1.52c0-.629-0.558-1.206-1.826-1.73a10.426,10.426,0,0,0-3.956-.891,3.919,3.919,0,0,0-2.282.576c2.637,0.682,3.6,1.521,3.6,2.936a14.494,14.494,0,0,1-1.775,5.349,26.09,26.09,0,0,1-5.427.68c-2.739,0-3.905-.471-6.34-2.464Zm13.825,88.237a38.811,38.811,0,0,0,12.528-3.041c7.405-3.251,11.665-8.861,11.665-15.362,0-6.868-5.275-11.534-12.984-11.534-5.275,0-10.55,1.415-18.563,5.034-2.891,1.31-4.818,1.886-6.137,1.886a3.325,3.325,0,0,1-2.08-.838,4.253,4.253,0,0,1-1.42-1.941,2.892,2.892,0,0,0-.406,1.311c0,2.36,3.7,6.031,6.086,6.031a2.847,2.847,0,0,0,1.927-.893c6.695-5.4,14.455-8.754,20.389-8.754,5.528,0,9.282,3.564,9.282,8.807,0,5.505-3.4,10.643-9.332,14.1a41.312,41.312,0,0,1-11.209,4.406Zm2.84,21.029c2.13,1.415,2.79,2.2,2.79,3.094,0,1.257-1.521,3.46-7.659,11.167-3.094,3.932-3.905,5.347-3.905,7.024,0,1.416.558,2.675,1.927,4.405,5.275,6.4,5.528,6.71,7.4,9.49a49.821,49.821,0,0,1,4.261,7.391c0.862,1.887,1.065,2.15,1.724,2.15,1.065,0,1.724-1.153,1.724-3.145a6.938,6.938,0,0,0-.761-3.461c-1.217-2.464-3.8-5.4-9.332-10.695a49.083,49.083,0,0,1-3.55-3.46,4.434,4.434,0,0,1-1.522-2.727c0-1,.659-2.2,2.435-4.246a128.056,128.056,0,0,1,9.332-9.07c2.688-2.255,2.942-2.569,2.942-3.251a2.884,2.884,0,0,0-1.116-2.1c-1.42-1.417-4.21-2.779-5.63-2.779A2.29,2.29,0,0,0,22.447,361.353Zm5.782,67.692a2,2,0,0,0,.254-0.105h0.152a0.05,0.05,0,0,1,.051-0.052,0.39,0.39,0,0,1,.152.105,2.934,2.934,0,0,1-.507.839c-4.007,5.347-5.934,7.654-12.122,14.837-4.311,4.928-5.123,5.767-7.05,7.288a2.52,2.52,0,0,0-1.065,1.834c0,1.572.913,3.408,1.674,3.408,0.507,0,.862-0.315,1.724-1.415,4.21-5.558,11.158-9.752,16.129-9.752a10.962,10.962,0,0,1,5.021,1.048c2.029,1.258,3.145,3.618,3.145,6.5a10.341,10.341,0,0,1-6.137,9.8,10.76,10.76,0,0,0-2.232-3.249,9.189,9.189,0,0,0-6.441-2.569c-3.145,0-5.478,1.887-5.478,4.455,0,3.2,3.2,5.243,8.166,5.243,9.18,0,15.926-5.557,15.926-13.054,0-5.873-4.362-9.805-10.854-9.805-4.26,0-8.369,1.468-13.8,4.981l-0.1-.105c1.065-1.1,1.065-1.1,5.934-6.5,2.384-2.623,4.26-4.563,7.456-7.865,2.232-2.307,2.739-2.726,4.21-3.512a1.223,1.223,0,0,0,.862-1c0-.63-0.355-1.207-1.522-2.36-1.268-1.31-2.079-1.835-2.739-1.835a1.2,1.2,0,0,0-.71.261c-1.065.945-1.167,0.945-3.145,1.626a53.735,53.735,0,0,1-9.586,2.255c-1.674,0-3.043-1.363-3.8-3.827a2.194,2.194,0,0,0-.457,1.362,7.642,7.642,0,0,0,1.42,3.88c0.964,1.467,1.978,2.2,2.891,2.2a5.855,5.855,0,0,0,2.079-.681c3.5-1.573,8.267-3.513,10.245-4.142Zm-1.877,35.6a13.093,13.093,0,0,1-3.6.472c-3.55,0-5.782-1.259-5.782-3.2,0-1.625,1.268-2.674,3.2-2.674C23.005,459.244,25.339,461.288,26.353,464.644Zm14.911,21.818a6.767,6.767,0,1,0,6.543,6.762A6.67,6.67,0,0,0,41.264,486.462Zm0,1.676a5.088,5.088,0,0,1,0,10.171,5.042,5.042,0,0,1-4.92-5.085A4.977,4.977,0,0,1,41.264,488.138Z"/>
</svg>
