<svg id="catch_feature3.svg" xmlns="http://www.w3.org/2000/svg" width="166" height="60" viewBox="0 0 166 60">
  <defs>
    <style>
      .cls-1 {
        fill: #fff;
      }

      .cls-2 {
        fill: #1e1e1e;
        fill-rule: evenodd;
      }
    </style>
  </defs>
  <rect id="長方形_1496_のコピー_3" data-name="長方形 1496 のコピー 3" class="cls-1" width="166" height="60"/>
  <path id="feature_catch3" class="cls-2" d="M186.732,1981.09a32.9,32.9,0,0,0,10.374-2.44c6.131-2.6,9.659-7.09,9.659-12.3,0-5.5-4.368-9.24-10.751-9.24-4.368,0-8.736,1.13-15.371,4.03a14.164,14.164,0,0,1-5.082,1.51,2.812,2.812,0,0,1-1.722-.67,3.429,3.429,0,0,1-1.176-1.55,2.224,2.224,0,0,0-.336,1.05c0,1.89,3.066,4.83,5.04,4.83a2.387,2.387,0,0,0,1.6-.72c5.543-4.32,11.969-7.01,16.883-7.01,4.577,0,7.685,2.85,7.685,7.05,0,4.41-2.814,8.53-7.727,11.3a35.055,35.055,0,0,1-9.282,3.53Zm43.932-31.71c1.764,1.13,2.31,1.77,2.31,2.48,0,1.01-1.26,2.77-6.342,8.94-2.562,3.15-3.233,4.29-3.233,5.63a5.464,5.464,0,0,0,1.595,3.53,78,78,0,0,1,6.132,7.6,40.078,40.078,0,0,1,3.528,5.92c0.714,1.52.882,1.73,1.428,1.73,0.882,0,1.428-.93,1.428-2.52a5.442,5.442,0,0,0-.63-2.78c-1.008-1.97-3.15-4.32-7.728-8.56-2.352-2.15-2.352-2.15-2.94-2.78a3.5,3.5,0,0,1-1.26-2.18c0-.8.546-1.76,2.016-3.4a104.915,104.915,0,0,1,7.728-7.27c2.226-1.8,2.436-2.06,2.436-2.6a2.282,2.282,0,0,0-.924-1.68,8.807,8.807,0,0,0-4.662-2.23A2.031,2.031,0,0,0,230.664,1949.38Zm42.126,4.45a1.817,1.817,0,0,0,.21-0.08h0.126a0.041,0.041,0,0,1,.042-0.04,0.324,0.324,0,0,1,.126.08,2.323,2.323,0,0,1-.42.67c-3.318,4.29-4.914,6.13-10.037,11.89-3.57,3.95-4.242,4.62-5.838,5.84a1.99,1.99,0,0,0-.882,1.47c0,1.26.756,2.73,1.386,2.73,0.42,0,.714-0.26,1.428-1.14,3.486-4.45,9.239-7.81,13.355-7.81a9.377,9.377,0,0,1,4.158.84,5.8,5.8,0,0,1,2.6,5.21,8.258,8.258,0,0,1-5.082,7.85,8.539,8.539,0,0,0-1.848-2.6,7.761,7.761,0,0,0-5.334-2.06c-2.6,0-4.535,1.51-4.535,3.57,0,2.56,2.645,4.2,6.761,4.2,7.6,0,13.187-4.45,13.187-10.46,0-4.7-3.611-7.85-8.987-7.85-3.528,0-6.93,1.17-11.423,3.99l-0.084-.09c0.882-.88.882-0.88,4.913-5.2,1.974-2.1,3.528-3.66,6.174-6.3a11.711,11.711,0,0,1,3.486-2.82,0.979,0.979,0,0,0,.714-0.8c0-.5-0.294-0.96-1.26-1.89-1.05-1.05-1.722-1.46-2.268-1.46a1.035,1.035,0,0,0-.588.2,5.354,5.354,0,0,1-2.6,1.31,45.8,45.8,0,0,1-7.937,1.8c-1.386,0-2.52-1.09-3.15-3.06a1.714,1.714,0,0,0-.378,1.09,6.029,6.029,0,0,0,1.176,3.11c0.8,1.17,1.638,1.76,2.394,1.76a4.937,4.937,0,0,0,1.721-.55c2.9-1.26,6.846-2.81,8.484-3.31Zm-1.554,28.52a11.327,11.327,0,0,1-2.982.38c-2.94,0-4.787-1.01-4.787-2.56,0-1.31,1.049-2.15,2.645-2.15C268.464,1978.02,270.4,1979.66,271.236,1982.35Zm29.779-6.05a5.42,5.42,0,1,0,5.417,5.42A5.434,5.434,0,0,0,301.015,1976.3Zm0,1.35a4.07,4.07,0,1,1,0,8.14,4.106,4.106,0,0,1-4.074-4.07A4.047,4.047,0,0,1,301.015,1977.65Z" transform="translate(-160 -1938)"/>
</svg>
