<svg xmlns="http://www.w3.org/2000/svg" width="48.437" height="379.25" viewBox="0 0 48.437 379.25">
  <defs>
    <style>
      .cls-1 {
        fill: #343c43;
        fill-rule: evenodd;
      }
    </style>
  </defs>
  <path id="catch_kv1_sp.svg" class="cls-1" d="M77.229,46.28c6.746-3.565,10.9-7.183,14.81-12.9,4.26-6.292,6.644-12.951,8.115-22.7a41.864,41.864,0,0,0,1.217,7.6,60.142,60.142,0,0,0,5.884,14.629A38.046,38.046,0,0,0,119.377,45.6a9.19,9.19,0,0,1,1.47-2.621,3.077,3.077,0,0,1,2.587-1.048h0.355l0.051-.63a25.242,25.242,0,0,1-5.782-2.883,36.234,36.234,0,0,1-10.3-10.119,44,44,0,0,1-7.151-23.12c0-.472,0-0.892.05-1.625,1.978-.838,2.181-0.945,2.181-1.363,0-.523-0.608-0.681-6.137-1.417,0.1,1.417.152,1.993,0.152,3.042a61.325,61.325,0,0,1-1.166,11.22,51.158,51.158,0,0,1-9.18,21.286,39.653,39.653,0,0,1-9.687,9.28ZM99.7,102.017a29.536,29.536,0,0,0,9.89-3.249c6.39-3.513,10.093-9.333,10.093-15.886,0-5.087-1.623-9.227-4.869-12.321a18.9,18.9,0,0,0-13.086-4.822,24.192,24.192,0,0,0-17.447,7.339c-2.84,3.2-4.565,7.078-4.565,10.381a10.333,10.333,0,0,0,1.167,4.771,33.219,33.219,0,0,1,2.232,4.929c0.862,2.516.964,2.726,1.42,3.356a2.9,2.9,0,0,0,2.232,1.1c1.877,0,4.362-2.569,7.557-7.812,3.855-6.4,6.695-14.05,6.695-18.14a6.989,6.989,0,0,0-1.572-4.352,11.321,11.321,0,0,1,1.775-.1,16.332,16.332,0,0,1,8.775,2.412c3.753,2.464,5.731,6.5,5.731,11.586a19.024,19.024,0,0,1-4.514,12.636c-2.891,3.46-6.391,5.61-11.868,7.287Zm-1.319-34.5a6.006,6.006,0,0,1,.71,2.621c0,3.251-2.688,10.013-6.441,16.2-2.485,4.09-4.92,6.921-6.036,6.921-0.558,0-1.217-.578-1.927-1.52a12.561,12.561,0,0,1-2.029-6.92C82.656,76.747,89.554,69.146,98.379,67.52ZM116.435,122h7.1a0.614,0.614,0,0,0,.71-0.366,1,1,0,0,0-.254-0.419c-2.029-1.941-2.688-2.517-4.818-4.352-1.37,1.678-1.775,2.2-2.993,3.933H83.518a28.5,28.5,0,0,1-6.441-.579l0.355,2.1C78.649,122.156,82,122,83.518,122h29.265v36.858c0,0.682-.152.838-0.862,0.944H110.45c-2.029,0-4.26-.106-9.434-0.368v0.786c4.362,0.577,5.478.84,6.492,1.574a3.563,3.563,0,0,1,1.522,2.778c3.449-.523,4.869-0.944,5.934-1.626,1.167-.786,1.522-1.467,1.572-3.2-0.1-8.177-.1-8.177-0.1-17.2V122ZM87.982,147.741h12.072v3.251a0.614,0.614,0,0,0,.76.681,14,14,0,0,0,2.435-.262,0.767,0.767,0,0,0,.456-0.734c-0.152-4.561-.253-9.961-0.253-14.994v-3.356c1.42-.839,1.674-1.049,1.674-1.31a1.3,1.3,0,0,0-.457-0.683c-1.268-1.1-1.674-1.415-3.043-2.464a32.085,32.085,0,0,0-2.13,2.464H88.844a47.672,47.672,0,0,0-4.362-2.726c0.1,4.406.152,6.87,0.152,7.445,0,5.243-.1,14.261-0.2,17.774a0.723,0.723,0,0,0,.862.734h0.152a4.617,4.617,0,0,0,.71-0.053c1.471,0,1.775-.209,1.826-1v-4.77Zm0-16.2h12.072v14.993H87.982V131.542Zm5.63,83.575V223.4c0,0.629-.152.787-0.811,0.838-1.065-.051-1.065-0.051-2.587-0.051-1.978-.053-1.978-0.053-3.449-0.158v0.681c2.587,0.473,3.145.629,3.7,1.048a3.137,3.137,0,0,1,1.116,2.255c2.688-.524,3.449-0.733,4.058-1.31a3.586,3.586,0,0,0,1.217-2.831v-2.15c-0.051-4.089-.051-4.089-0.051-7.078V201.7c1.268-1.049,1.319-1.1,1.319-1.362a1.288,1.288,0,0,0-.71-0.892,22.882,22.882,0,0,0-2.434-1.782c-0.761.891-1.014,1.154-1.775,2.1H84.076a27.069,27.069,0,0,0-3.855-2.1c0.152,3.251.2,4.561,0.2,5.714,0,8.389-.1,20.133-0.254,23.855v0.157c0,0.525.2,0.683,0.913,0.683a13.967,13.967,0,0,0,2.13-.211c0.355-.052.457-0.21,0.507-0.682-0.051-6.6-.051-6.6-0.051-7.759v-4.3h9.941ZM83.67,206.73v-5.768h9.941v5.768H83.67Zm9.941,1.205v5.978H83.67v-5.978h9.941Zm-2.029-21.494a32.587,32.587,0,0,1,3.094,5.4c-3.5.366-5.275,0.472-11.665,0.628a71.939,71.939,0,0,0,5.579-8.493c1.877-.262,2.536-0.524,2.536-1.048,0-.682-1.572-1.154-5.934-1.941a42.851,42.851,0,0,1-3.6,11.535c-1.978,0-2.688-.053-4.869-0.157,0.2,1.1.3,1.939,0.406,2.464,0.2,1,.3,1.625.355,1.938,0.1,0.788.355,1.1,0.761,1.1,0.609,0,.761-0.315,1.014-1.993,1.826-.315,2.384-0.419,7.658-1.258a73.933,73.933,0,0,0,8.267-1.626,25.6,25.6,0,0,1,.913,2.779c0.456,1.626.659,1.94,1.166,1.94,0.761,0,1.674-2.045,1.674-3.88a4.249,4.249,0,0,0-1.522-3.3,59.616,59.616,0,0,0-5.224-4.665Zm13.086-2.57c1.217-.367,1.877-0.838,1.877-1.31,0-.577-1.065-0.84-5.275-1.312,0.1,2.569.1,2.78,0.1,3.723v14.207c0,1.468.355,2.307,1.218,2.675,0.963,0.472,2.586.629,7.05,0.629l3.753-.052c5.528-.105,5.528-0.105,6.441-0.316a2.086,2.086,0,0,0,1.877-1.729c0-.787-0.355-1.1-1.573-1.521a0.932,0.932,0,0,1-.659-1.1v-0.628l0.406-6.292h-0.609c-0.456,1.416-.811,2.464-1.014,3.146-0.558,1.887-.913,2.884-1.116,3.408-0.609,1.573-.71,1.729-1.167,1.834a50.688,50.688,0,0,1-5.325.157c-3.5,0-5.173-.1-5.63-0.314a1.112,1.112,0,0,1-.355-1.1v-4.666c5.985-2.412,9.485-4.3,12.731-6.711a9.335,9.335,0,0,0,1.775.315,0.636,0.636,0,0,0,.76-0.577c0-.419-0.912-1.258-4.26-3.827a34.781,34.781,0,0,1-11.006,9.595v-8.232Zm0,23.174c1.522-.787,1.877-1.1,1.877-1.469a0.517,0.517,0,0,0-.305-0.419,21.386,21.386,0,0,0-4.97-.838c0.1,2.777.1,3.091,0.1,4.087v14.838c0,1.468.355,2.413,1.116,2.884,1.116,0.682,2.485.787,8.369,0.787,5.528,0,8.318-.21,9.738-0.735a2.117,2.117,0,0,0,1.369-1.678,1.252,1.252,0,0,0-.862-1.205c-1.369-.315-1.369-0.315-1.369-1.363a11.946,11.946,0,0,1,.05-1.311l0.508-5.924-0.711-.106c-2.333,7.288-2.637,8.022-3.093,8.5-0.558.629-1.421,0.732-5.732,0.732-3.246,0-5.325-.1-5.731-0.313a1.008,1.008,0,0,1-.355-1.048V216.9a61.265,61.265,0,0,0,13.441-7.13,6.455,6.455,0,0,0,1.623.366,0.7,0.7,0,0,0,.76-0.576,0.741,0.741,0,0,0-.253-0.525,26.634,26.634,0,0,0-4.108-3.3c-1.116,1.73-2.891,3.513-5.985,6.081a37.962,37.962,0,0,1-5.478,3.774v-8.544Zm-7.354,52.12a42.676,42.676,0,0,0,2.536-7.026c1.673-.366,2.13-0.628,2.13-1.048,0-.473-0.862-0.787-5.528-2.15a40.356,40.356,0,0,1-1.775,9.753,50.622,50.622,0,0,1-5.326,12.635l0.609,0.523c2.891-3.565,4.362-6.082,6.847-11.482h7.557v12.373H98.43a16.853,16.853,0,0,1-4.92-.472l0.355,1.94a39.273,39.273,0,0,1,4.565-.261h5.934v14.574H94.981A24.584,24.584,0,0,1,89.655,288l0.3,2.045a36.2,36.2,0,0,1,5.021-.314h28a0.345,0.345,0,0,0,.355-0.315,0.714,0.714,0,0,0-.254-0.472,42.008,42.008,0,0,0-4.717-4.352c-1.369,1.678-1.775,2.2-3.094,3.932h-7.405V273.95h12.68a0.455,0.455,0,0,0,.457-0.368,0.864,0.864,0,0,0-.2-0.524,33.219,33.219,0,0,0-4.109-3.931c-1.369,1.519-1.775,1.992-3.043,3.616h-5.782V260.37H121.71a0.437,0.437,0,0,0,.355-0.366,1.349,1.349,0,0,0-.1-0.367c-1.978-1.835-2.586-2.412-4.666-4.141-1.268,1.572-1.623,2.043-2.84,3.669h-6.594V247.84c2.181-.682,2.333-0.786,2.333-1.259,0-.523-0.659-0.733-6.137-1.519a61.827,61.827,0,0,1,.305,8.23v5.873h-7.05ZM80.577,254.5c-0.558,4.823-1.572,7.5-3.55,9.437-0.913.891-1.065,1.153-1.065,1.73a7,7,0,0,0,.609,2.2,1.394,1.394,0,0,0,1.065,1.1c0.659,0,1.42-.786,2.079-2.254,1.116-2.359,1.674-5.925,1.674-10.9,0-.211,0-0.735-0.051-1.311H80.577Zm2.688-1.784c0,3.985,0,6.24.051,12.321v8.757c0,7.286-.051,10.694-0.254,18.558a0.549,0.549,0,0,0,.659.578,7.494,7.494,0,0,0,2.739-.42,0.562,0.562,0,0,0,.2-0.525c-0.1-9.751-.152-14.837-0.152-15.36l0.1-28.941c1.775-.576,2.181-0.839,2.181-1.258,0-.577-0.964-0.787-5.731-1.416a32.064,32.064,0,0,1,.2,4.614v3.092Zm4.869,1.784a29.555,29.555,0,0,1,1.471,8.389c0.051,0.785.254,1.1,0.659,1.1,0.811,0,1.927-2.15,1.927-3.67,0-1.31-1.167-3.3-3.6-6.081ZM87.17,342.585c5.326,4.508,5.528,4.77,5.63,6.134a1.193,1.193,0,0,0,1.37,1.206,7.309,7.309,0,0,0,4.869-2.36c2.942-3.356,5.529-12.058,5.529-18.77,0-5.5-2.08-8.177-6.442-8.177a18.732,18.732,0,0,0-4.413.576,56.1,56.1,0,0,1,3.246-7.078,2.753,2.753,0,0,0,.71-1.52c0-1.1-1.268-2.1-3.55-2.78a13.815,13.815,0,0,0-3.449-.681,2.036,2.036,0,0,0-1.471.577c2.891,0.943,3.905,1.887,3.905,3.513a30.37,30.37,0,0,1-2.08,8.6,51.359,51.359,0,0,1-8.622,1.836c-1.877,0-2.79-.734-3.855-2.885a3.577,3.577,0,0,0-.3,1.155,8.469,8.469,0,0,0,1.674,3.985,3.744,3.744,0,0,0,2.232,1.572,2.6,2.6,0,0,0,1.471-.577,35.2,35.2,0,0,1,6.593-2.726c-4.869,11.063-7.05,15.362-9.332,18.245a3.562,3.562,0,0,0-1.167,2.936c0,2.253.558,3.618,1.471,3.618a1.472,1.472,0,0,0,1.217-1c0.811-1.469,2.485-5.243,4.514-10.172,1.724-4.246,2.739-6.71,2.992-7.339,2.232-5.3,2.232-5.3,2.942-7.131a17.185,17.185,0,0,1,5.275-1.048,3.7,3.7,0,0,1,2.283.524q1.37,0.943,1.369,4.247a41.438,41.438,0,0,1-2.992,14.051c-1.319,3.3-2.181,4.4-3.3,4.4-1.065,0-4.007-1.311-7.861-3.564Zm22.418-21.025a15.743,15.743,0,0,1,8.521,12.007,75.844,75.844,0,0,1-7.76,2.674l0.2,0.681a43.412,43.412,0,0,1,6.34-.472,3.022,3.022,0,0,1,2.08.576,1.966,1.966,0,0,0,1.166.368c1.268,0,2.029-1.048,2.029-2.883a12.581,12.581,0,0,0-2.891-7.393,17.589,17.589,0,0,0-9.281-6.29Zm1.471-10.537a24.807,24.807,0,0,1,3.905,5.5c1.572,3.407,1.572,3.407,2.232,3.407,0.862,0,1.572-.943,1.572-2.2s-0.71-2.464-2.536-4.141a21.336,21.336,0,0,0-4.514-3.251Zm5.325-3.04a26.751,26.751,0,0,1,5.579,7.5,1.387,1.387,0,0,0,1.167,1c0.761,0,1.268-.891,1.268-2.15,0-1.467-.66-2.516-2.587-4.036a22.26,22.26,0,0,0-4.869-2.989ZM110.805,367.6a40.332,40.332,0,0,1,7.811,8.335c2.231,3.46,2.231,3.46,2.586,3.775a1.765,1.765,0,0,0,.66.314c0.963,0,1.876-1.73,1.876-3.512,0-1.834-.71-3.041-2.688-4.561a45.292,45.292,0,0,0-9.89-5.033Z" transform="translate(-75.969 -0.781)"/>
</svg>
