<svg id="catch_culture1.svg" xmlns="http://www.w3.org/2000/svg" width="277" height="60" viewBox="0 0 277 60">
  <defs>
    <style>
      .cls-1 {
        fill: #fff;
      }

      .cls-2 {
        fill: #1e1e1e;
        fill-rule: evenodd;
      }
    </style>
  </defs>
  <rect id="長方形_1496_のコピー_5" data-name="長方形 1496 のコピー 5" class="cls-1" width="277" height="60"/>
  <path id="一人ひとりが_主役になれる_場所_" data-name="一人ひとりが 主役になれる 場所。" class="cls-2" d="M172.859,5257.57a31.606,31.606,0,0,1,5.179-.29H210.11a0.385,0.385,0,0,0,.459-0.25,0.449,0.449,0,0,0-.125-0.25c-2.046-1.8-2.714-2.34-4.844-4.01a45.352,45.352,0,0,0-2.882,3.55h-24.68a28.418,28.418,0,0,1-5.471-.33Zm44.269,17.79a30.6,30.6,0,0,0,12.194-10.27c3.508-5.01,5.47-10.31,6.681-18.08a32.235,32.235,0,0,0,1,6.05,46.839,46.839,0,0,0,4.844,11.65,30.744,30.744,0,0,0,9.981,10.11,7.321,7.321,0,0,1,1.211-2.09,2.584,2.584,0,0,1,2.13-.83h0.292l0.042-.5a21.4,21.4,0,0,1-4.761-2.3,29.393,29.393,0,0,1-8.477-8.06,34.262,34.262,0,0,1-5.889-18.42c0-.37,0-0.71.042-1.29,1.629-.67,1.8-0.75,1.8-1.09,0-.41-0.5-0.54-5.053-1.12,0.083,1.12.125,1.58,0.125,2.42a47.261,47.261,0,0,1-.96,8.93,40.109,40.109,0,0,1-7.559,16.96,32.067,32.067,0,0,1-7.976,7.39Zm46.4-31.4c1.086,2.34,2.547,3.34,4.886,3.34a19.107,19.107,0,0,0,3.216-.38,26.789,26.789,0,0,0-4.26,7.1,22.278,22.278,0,0,0-1.67,8.23c0,7.14,4.092,11.82,10.314,11.82a10.856,10.856,0,0,0,8.186-3.59c2.5-2.84,3.716-6.85,3.716-12.41a62.243,62.243,0,0,0-.96-10.48l0.125-.04a72.3,72.3,0,0,0,4.468,11.99c1.671,3.38,2.8,4.84,3.759,4.84,0.585,0,.96-0.67.96-1.63a4.837,4.837,0,0,0-1.211-3.46,18.246,18.246,0,0,1-3.341-5.06c-1.712-3.38-3.173-7.68-3.34-9.6a1.7,1.7,0,0,0-.627-1.55,3.478,3.478,0,0,0-2-1.04H285.7a0.757,0.757,0,0,0-.794.75,5.248,5.248,0,0,0,.209,1,40.785,40.785,0,0,1,1.378,11.32c0,4.43-.71,7.93-2.088,10.56a10.226,10.226,0,0,1-9.062,5.64c-4.969,0-8.1-3.51-8.1-9.14a19.044,19.044,0,0,1,4.593-11.9,17.009,17.009,0,0,1,5.3-4.56c1.211-.62,1.378-0.75,1.378-1.12,0-.76-1.5-2.01-2.339-2.01a0.968,0.968,0,0,0-.584.21,14.846,14.846,0,0,1-7.935,2.71c-1.545,0-2.255-.41-3.549-1.96Zm46.732-3.22c1.754,0.3,2.548.71,3.007,1.51,0.334,0.62.376,1.25,0.5,4.8,0.125,3.13.167,4.05,0.292,5.05,0.209,1.8.585,2.72,1.212,3.18a2.818,2.818,0,0,0,2,.62,27.236,27.236,0,0,0-5.1,3.34c-2.756,2.3-4.092,4.6-4.092,7.02a6.61,6.61,0,0,0,4.552,6.18,21.256,21.256,0,0,0,7.1.96,64.925,64.925,0,0,0,8.018-.54c1.336-.25,1.8-0.63,1.8-1.38a2.38,2.38,0,0,0-2.255-2.05,4.369,4.369,0,0,0-.836.13,48.72,48.72,0,0,1-9.688,1.21c-4.635,0-7.016-1.55-7.016-4.55,0-1.96,1-3.59,3.257-5.35,2.631-2,5.388-3.25,10.441-4.67,1.921-.55,2.5-0.76,2.8-0.88a1.324,1.324,0,0,0,.877-1.25,2.039,2.039,0,0,0-2-1.76,3.7,3.7,0,0,0-1.712.5c-3.8,1.8-4.719,2.13-5.6,2.13-1.3,0-1.629-.62-1.629-3.09a32.907,32.907,0,0,1,.919-8.48,2.5,2.5,0,0,0,.334-1.08v-0.08a1.444,1.444,0,0,0-1.169-1.34,13.447,13.447,0,0,0-4.218-.79A2.218,2.218,0,0,0,310.258,5240.74Zm40.092,35.71a21.186,21.186,0,0,0,9.229-6.6,20.741,20.741,0,0,0,4.552-13.65c0-6.98-2.84-11.91-6.849-11.91a6.775,6.775,0,0,0-5.095,2.47c-2.046,2.13-3.591,5.59-4.844,10.94H347.26c-0.042-.75-0.042-1.17-0.042-1.55,0-3.88,1.42-9.81,3.007-12.44a2.486,2.486,0,0,0,.584-1.59c0-.83-0.459-1.5-1.628-2.34a6.507,6.507,0,0,0-3.341-1.37,2.683,2.683,0,0,0-.752.2c1.671,0.84,2.255,1.63,2.255,2.97a17.486,17.486,0,0,1-.459,3.05,49.987,49.987,0,0,0-1.337,11.19c0,5.18,1.044,8.56,2.631,8.56a1.063,1.063,0,0,0,1.086-1.25,5.9,5.9,0,0,0-.042-0.88c-0.125-1.42-.167-1.88-0.167-2.59a23.525,23.525,0,0,1,1.963-8.98c1.5-3.42,3.425-5.22,5.513-5.22a3.426,3.426,0,0,1,2.965,1.84c0.918,1.55,1.545,4.97,1.545,8.6a21.869,21.869,0,0,1-11.025,19.92Zm34.914-8.98c4.385,3.59,4.552,3.8,4.635,4.89a0.975,0.975,0,0,0,1.128.96,6.132,6.132,0,0,0,4.009-1.88c2.422-2.67,4.552-9.61,4.552-14.95,0-4.39-1.712-6.52-5.3-6.52a16.286,16.286,0,0,0-3.633.46,44.35,44.35,0,0,1,2.673-5.64,2.13,2.13,0,0,0,.584-1.21c0-.87-1.044-1.67-2.923-2.21a11.867,11.867,0,0,0-2.84-.54,1.692,1.692,0,0,0-1.211.46c2.381,0.75,3.216,1.5,3.216,2.79a23.559,23.559,0,0,1-1.712,6.85,43.341,43.341,0,0,1-7.1,1.47c-1.545,0-2.3-.59-3.173-2.3a2.778,2.778,0,0,0-.251.92,6.614,6.614,0,0,0,1.378,3.17,3.078,3.078,0,0,0,1.838,1.25,2.155,2.155,0,0,0,1.211-.46,29.787,29.787,0,0,1,5.429-2.17c-4.009,8.81-5.805,12.24-7.684,14.54a2.774,2.774,0,0,0-.961,2.33c0,1.8.459,2.89,1.211,2.89a1.219,1.219,0,0,0,1-.8c0.669-1.17,2.047-4.17,3.717-8.1,1.42-3.38,2.255-5.34,2.464-5.85,1.837-4.21,1.837-4.21,2.422-5.68a14.806,14.806,0,0,1,4.343-.83,3.067,3.067,0,0,1,1.879.42c0.752,0.5,1.128,1.63,1.128,3.38a32.065,32.065,0,0,1-2.464,11.19c-1.086,2.63-1.8,3.51-2.714,3.51-0.877,0-3.3-1.04-6.473-2.84Zm18.458-16.75a12.592,12.592,0,0,1,7.016,9.57,65.983,65.983,0,0,1-6.389,2.13l0.167,0.54a36.526,36.526,0,0,1,5.22-.38,2.587,2.587,0,0,1,1.712.46,1.679,1.679,0,0,0,.96.3c1.044,0,1.671-.84,1.671-2.3a9.847,9.847,0,0,0-2.38-5.89,14.513,14.513,0,0,0-7.643-5.01Zm1.211-8.39a19.67,19.67,0,0,1,3.216,4.39c1.294,2.71,1.294,2.71,1.837,2.71a1.557,1.557,0,0,0,1.3-1.75c0-1.01-.585-1.97-2.088-3.3a17.425,17.425,0,0,0-3.717-2.59Zm4.385-2.42a21.329,21.329,0,0,1,4.594,5.97,1.121,1.121,0,0,0,.96.79c0.627,0,1.044-.71,1.044-1.71,0-1.17-.543-2-2.129-3.21a17.857,17.857,0,0,0-4.01-2.38Z" transform="translate(-160 -5227)"/>
</svg>
