<svg id="map01_pc.svg" xmlns="http://www.w3.org/2000/svg" width="1060" height="511" viewBox="0 0 1060 511">
  <defs>
    <style>
      .cls-1 {
        fill: none;
      }

      .cls-2, .cls-3 {
        fill: #72c9f3;
      }

      .cls-2 {
        opacity: 0.34;
      }

      .cls-4 {
        fill: #fff;
        fill-rule: evenodd;
      }
    </style>
  </defs>
  <rect id="長方形_540" data-name="長方形 540" class="cls-1" width="1060" height="511"/>
  <circle id="楕円形_2" data-name="楕円形 2" class="cls-2" cx="426" cy="201" r="75"/>
  <circle id="楕円形_2_のコピー" data-name="楕円形 2 のコピー" class="cls-3" cx="426.5" cy="201.5" r="68.5"/>
  <path id="_18" data-name="18" class="cls-4" d="M573.933,2081.42v-0.71c-3.525,0-4.465-.85-4.465-2.87v-28.05l-0.423-.14-8.412,4.27v0.66l1.269-.47a7.038,7.038,0,0,1,2.115-.56c0.987,0,1.41.7,1.41,2.3v21.1c0,2.59-.987,3.57-4.465,3.76v0.71h12.971Zm20.257-7.29c0-3.76-1.5-6.3-7.285-10.15,4.653-2.49,6.3-4.09,6.3-7.61,0-3.67-3.243-6.72-7.895-6.72-5.217,0-9.118,2.81-9.118,7.33,0,3.05.987,4.84,5.828,8.83-5.029,3.53-6.11,5.36-6.11,8.6,0,4.42,3.713,7.66,9.024,7.66C590.571,2082.07,594.19,2078.97,594.19,2074.13Zm-4.23-17.76c0,2.91-1.222,4.88-4.418,6.76-4.135-2.44-5.874-4.6-5.874-7.52s2.021-4.65,5.17-4.65C588.033,2050.96,589.96,2053.12,589.96,2056.37Zm-3.948,12.26c3.2,2.16,4.606,4.04,4.606,6.96a4.937,4.937,0,0,1-5.17,5.17c-3.571,0-5.968-2.45-5.968-6.77,0-3.06.987-4.98,3.76-7.24Z" transform="translate(-190 -1853)"/>
  <path id="カ国_地域" data-name="カ国・地域" class="cls-4" d="M604.6,2072.47c0.16-.63.272-1.27,0.352-1.64,0.128-.62.512-0.62,0.512-1.02,0-.43-1.168-1.09-1.857-1.1a4.835,4.835,0,0,0-1.216.27v0.3a5.918,5.918,0,0,1,1.008.29,0.47,0.47,0,0,1,.288.54,18.785,18.785,0,0,1-.4,2.5c-1.728.21-3.424,0.4-3.9,0.4a1.4,1.4,0,0,1-.993-0.94l-0.288.06a2,2,0,0,0,.08,1.07,2.138,2.138,0,0,0,1.265,1.25,5.575,5.575,0,0,0,.992-0.37c0.464-.11,1.68-0.35,2.592-0.51a14.232,14.232,0,0,1-5.713,7.99l0.24,0.3a12.78,12.78,0,0,0,6.818-8.5,26.962,26.962,0,0,1,3.024-.32,0.172,0.172,0,0,1,.192.19c0,1.03-.624,4.76-1.616,6.01a0.619,0.619,0,0,1-.8.19,18.552,18.552,0,0,1-1.889-.74l-0.176.31c0.928,0.73,1.409,1.02,1.569,1.6a0.556,0.556,0,0,0,.576.56,2.357,2.357,0,0,0,1.872-1.38,18.782,18.782,0,0,0,1.664-5.97c0.08-.49.528-0.46,0.528-0.83a2.321,2.321,0,0,0-1.44-1.25c-0.3,0-.448.38-0.88,0.43Zm17.648,6h-2.177v-3.57h3.073a0.343,0.343,0,0,0,.4-0.26c-0.48-.48-1.28-1.12-1.28-1.12l-0.7.92h-1.489v-2.9h3.489a0.371,0.371,0,0,0,.416-0.26c-0.5-.49-1.36-1.15-1.36-1.15l-0.736.93h-6.561l0.128,0.48h3.408v2.9h-2.912l0.128,0.46h2.784v3.57h-3.824l0.128,0.46h8.769a0.374,0.374,0,0,0,.416-0.25c-0.528-.48-1.344-1.17-1.344-1.17Zm-1.392-3.06a4.286,4.286,0,0,1,1.152,2.03c1.008,0.8,1.984-1.21-.976-2.14Zm-6.514,5.35v-11.64h10.434v11.64H614.345Zm10.946-12.89-0.672.79H614.473l-1.376-.64v14.37h0.224a1.068,1.068,0,0,0,1.024-.5v-0.67h10.434v1.09h0.192a1.559,1.559,0,0,0,1.089-.47v-12.49a1.291,1.291,0,0,0,.672-0.32Zm9.936,7.16a1.569,1.569,0,1,0-1.569,1.57A1.569,1.569,0,0,0,635.227,2075.03Zm8.927-2.04h1.984a0.363,0.363,0,0,0,.416-0.25c-0.464-.5-1.28-1.27-1.28-1.27l-0.7,1.06h-0.416v-3.9a0.551,0.551,0,0,0,.576-0.45l-1.809-.19v4.54h-1.9l0.128,0.46h1.776v5.46c-0.88.35-1.616,0.61-2.064,0.75l0.7,1.59a0.7,0.7,0,0,0,.336-0.47c2.049-1.26,3.585-2.36,4.641-3.15l-0.08-.17c-0.784.33-1.568,0.67-2.3,0.96v-4.97Zm11.09,5.01h-0.192a13.778,13.778,0,0,1-.689,2.36,0.676,0.676,0,0,1-.48.24c-0.352.04-1.12,0.06-2.144,0.06h-2.32c-0.945,0-1.153-.18-1.153-0.66v-6.46l1.937-.72v6.64h0.24a1.16,1.16,0,0,0,.976-0.43v-6.66l2.224-.82c-0.064,3.59-.176,5.05-0.464,5.37a0.477,0.477,0,0,1-.432.14c-0.24,0-.752-0.03-1.088-0.06v0.24a1.36,1.36,0,0,1,.784.38,1.251,1.251,0,0,1,.192.86,1.981,1.981,0,0,0,1.424-.51c0.577-.57.753-2.01,0.8-6.22a0.989,0.989,0,0,0,.624-0.26l-1.345-1.09-0.656.71-0.128.04-1.936.72v-3.55a0.536,0.536,0,0,0,.576-0.45l-1.792-.19v4.64l-1.937.72v-3.47a0.57,0.57,0,0,0,.576-0.43l-1.808-.21v4.58l-2.16.8,0.3,0.38,1.856-.69v6.29c0,1.27.56,1.55,2.273,1.55h2.368c3.489,0,4.225-.19,4.225-0.84a0.647,0.647,0,0,0-.608-0.58Zm10.815-4.68v2.7H664.2v-2.7h1.857Zm-3.073,3.79c-0.656.27-1.312,0.54-1.936,0.78v-5.18h1.808a0.486,0.486,0,0,0,.3-0.1v5.14h0.176a0.929,0.929,0,0,0,.864-0.37v-0.9h1.857v0.82h0.16a1.311,1.311,0,0,0,.9-0.34v-3.56a0.961,0.961,0,0,0,.48-0.25l-1.12-.84-0.528.52h-1.6l-1.184-.49v0.01c-0.464-.48-1.168-1.12-1.168-1.12l-0.7,1.03h-0.24v-3.68a0.58,0.58,0,0,0,.576-0.45l-1.825-.19v4.32h-1.872l0.128,0.45H659.8v5.68c-0.88.33-1.616,0.61-2.032,0.73l0.816,1.54a0.564,0.564,0,0,0,.32-0.43c1.873-1.22,3.233-2.23,4.177-2.93Zm4.849,0.62c-2.577.71-5.089,1.36-6.161,1.57l0.72,1.38a0.646,0.646,0,0,0,.352-0.4c2.256-.95,3.953-1.73,5.153-2.31Zm5.025,0.64-0.192-.03a12.842,12.842,0,0,1-.64,1.81c-0.128.27-.256,0.22-0.448,0.05a6.216,6.216,0,0,1-1.521-2.45,16.3,16.3,0,0,0,2.081-4.6c0.416,0.02.56-.06,0.64-0.27l-1.713-.56a18.4,18.4,0,0,1-1.424,4.05,25.721,25.721,0,0,1-.656-5.31h3.473a0.362,0.362,0,0,0,.4-0.26c-0.5-.48-1.328-1.15-1.328-1.15v0.02c0.064-.48-0.369-1.16-1.857-1.38l-0.16.13a2.981,2.981,0,0,1,.992,1.58,0.663,0.663,0,0,0,.672.11l-0.368.48h-1.84c-0.016-.7-0.016-1.4,0-2.09a0.583,0.583,0,0,0,.544-0.45l-1.776-.21c0,0.95.016,1.86,0.064,2.75H662.57l0.128,0.47h5.121a26.99,26.99,0,0,0,1.04,6.69,12.2,12.2,0,0,1-4.929,4.17l0.128,0.29a12.112,12.112,0,0,0,5.185-3.41,8.786,8.786,0,0,0,1.648,2.63c0.625,0.69,1.425,1.17,1.905.73a1.111,1.111,0,0,0-.224-1.18Z" transform="translate(-190 -1853)"/>
  <path id="アジア" class="cls-4" d="M598.025,2027.99a2.729,2.729,0,0,0,.192,1.05,2.323,2.323,0,0,0,1.472,1.23,8.578,8.578,0,0,0,1.105-.48c1.744-.35,6.129-1.02,6.881-1.02,0.32,0,.4.06,0.208,0.37a14.257,14.257,0,0,1-2.753,2.54,3.686,3.686,0,0,0-1.408-.45,5.13,5.13,0,0,0-1.04,0l-0.08.31c0.688,0.26,1.28.51,1.28,1.01,0,1.07-2.016,4.96-5.169,6.94l0.256,0.32a12.343,12.343,0,0,0,6.529-7.34,0.668,0.668,0,0,0,.049-0.29,35.672,35.672,0,0,0,3.472-2.18c0.368-.25,1.072-0.32,1.072-0.75a2.828,2.828,0,0,0-1.744-1.62c-0.3,0-.48.24-0.9,0.31-0.976.14-6.913,0.8-8.066,0.8a1.368,1.368,0,0,1-1.04-.83Zm24.882,1.93a0.461,0.461,0,0,0,.48-0.48,1.341,1.341,0,0,0-.544-0.94,5.724,5.724,0,0,0-1.92-1.09l-0.208.26a8.091,8.091,0,0,1,1.456,1.55A1.426,1.426,0,0,0,622.907,2029.92Zm1.681-1.28a0.416,0.416,0,0,0,.432-0.46,1.319,1.319,0,0,0-.592-0.98,6.088,6.088,0,0,0-1.9-.94l-0.192.25a9.008,9.008,0,0,1,1.456,1.41A1.5,1.5,0,0,0,624.588,2028.64Zm-8.642.75c0.848,0.71,1.152,1.35,1.68,1.35a0.6,0.6,0,0,0,.576-0.63c0-.68-0.624-1.21-1.712-1.68a16.866,16.866,0,0,0-2.08-.59l-0.16.35A10.837,10.837,0,0,1,615.946,2029.39Zm-1.728,8.45a2.319,2.319,0,0,1-1.472-1.04l-0.241.15a2.947,2.947,0,0,0,.353,1.21,3.239,3.239,0,0,0,1.968,1.27,2.109,2.109,0,0,0,1.008-.67c3.537-1.99,6.977-4.93,8.738-8.15l-0.336-.22C621.387,2034.2,615.53,2037.84,614.218,2037.84Zm-0.256-5.23c0.8,0.64,1.072,1.25,1.648,1.25a0.554,0.554,0,0,0,.576-0.59c0-.72-0.736-1.31-1.76-1.68a15.48,15.48,0,0,0-2.145-.58l-0.144.34A9.99,9.99,0,0,1,613.962,2032.61Zm13.52-4.62a2.729,2.729,0,0,0,.192,1.05,2.323,2.323,0,0,0,1.472,1.23,8.639,8.639,0,0,0,1.1-.48c1.744-.35,6.129-1.02,6.881-1.02,0.32,0,.4.06,0.208,0.37a14.277,14.277,0,0,1-2.752,2.54,3.686,3.686,0,0,0-1.408-.45,5.14,5.14,0,0,0-1.041,0l-0.08.31c0.689,0.26,1.281.51,1.281,1.01,0,1.07-2.017,4.96-5.169,6.94l0.256,0.32a12.347,12.347,0,0,0,6.529-7.34,0.68,0.68,0,0,0,.048-0.29,35.835,35.835,0,0,0,3.473-2.18c0.368-.25,1.072-0.32,1.072-0.75a2.83,2.83,0,0,0-1.745-1.62c-0.3,0-.48.24-0.9,0.31-0.976.14-6.913,0.8-8.065,0.8a1.368,1.368,0,0,1-1.04-.83Z" transform="translate(-190 -1853)"/>
  <circle id="楕円形_2_のコピー_3" data-name="楕円形 2 のコピー 3" class="cls-2" cx="243.5" cy="266.5" r="63.5"/>
  <circle id="楕円形_2_のコピー_3-2" data-name="楕円形 2 のコピー 3" class="cls-3" cx="243.422" cy="266.425" r="57.547"/>
  <path id="_3" data-name="3" class="cls-4" d="M412.673,2122.54c1.518-2.73,3.22-3.92,5.514-3.92,2.442,0,4,1.26,4,3.78a5.522,5.522,0,0,1-3,4.95,15.908,15.908,0,0,1-3.108,1.34v0.51a12.057,12.057,0,0,1,3.774.37c2.553,0.74,3.848,2.56,3.848,5.37,0,3.14-2.072,5.66-4.81,5.66a4.834,4.834,0,0,1-3.182-1.15,3.791,3.791,0,0,0-2.258-.96,1.4,1.4,0,0,0-1.517,1.33c0,1.34,1.443,2.11,4.145,2.11,3.293,0,6.808-1.07,8.584-3.44a8.516,8.516,0,0,0,1.7-5.18,7.1,7.1,0,0,0-1.628-4.77,7.88,7.88,0,0,0-3.071-1.96c2.479-1.48,3.441-3.33,3.441-5.11,0-3.03-2.331-5.07-5.772-5.07-3.848,0-6.18,2.48-7.253,6Z" transform="translate(-190 -1853)"/>
  <path id="カ国" class="cls-4" d="M436.1,2134.01c0.15-.59.255-1.19,0.33-1.53,0.12-.59.48-0.59,0.48-0.96,0-.41-1.094-1.02-1.739-1.04a4.268,4.268,0,0,0-1.14.26v0.28a5.22,5.22,0,0,1,.945.27,0.45,0.45,0,0,1,.27.51,17.681,17.681,0,0,1-.375,2.34c-1.62.2-3.21,0.38-3.66,0.38a1.308,1.308,0,0,1-.93-0.89l-0.27.06a1.9,1.9,0,0,0,.075,1.01,2.035,2.035,0,0,0,1.185,1.17,5.44,5.44,0,0,0,.93-0.35c0.435-.1,1.575-0.33,2.43-0.48a13.326,13.326,0,0,1-5.355,7.49l0.225,0.28a11.962,11.962,0,0,0,6.39-7.96,23.34,23.34,0,0,1,2.834-.3,0.159,0.159,0,0,1,.18.18c0,0.96-.585,4.45-1.515,5.62a0.566,0.566,0,0,1-.75.18,16.062,16.062,0,0,1-1.769-.69l-0.165.29c0.87,0.69,1.319.96,1.469,1.5a0.52,0.52,0,0,0,.54.52,2.2,2.2,0,0,0,1.755-1.29,17.6,17.6,0,0,0,1.56-5.59c0.075-.47.5-0.44,0.5-0.78a2.19,2.19,0,0,0-1.35-1.17c-0.285,0-.42.36-0.825,0.4Zm16.545,5.62H450.6v-3.34h2.88a0.326,0.326,0,0,0,.375-0.24c-0.45-.45-1.2-1.05-1.2-1.05l-0.66.85H450.6v-2.71h3.27a0.354,0.354,0,0,0,.39-0.24,14.636,14.636,0,0,0-1.275-1.08l-0.69.87h-6.149l0.12,0.45h3.195v2.71h-2.73l0.12,0.44h2.61v3.34h-3.585l0.12,0.44h8.219a0.354,0.354,0,0,0,.39-0.24c-0.5-.45-1.26-1.1-1.26-1.1Zm-1.305-2.86a3.959,3.959,0,0,1,1.08,1.9c0.945,0.75,1.86-1.14-.915-2.01Zm-6.1,5.01v-10.91h9.779v10.91h-9.779Zm10.259-12.08-0.63.74h-9.509l-1.29-.6v13.47h0.21a1,1,0,0,0,.96-0.47v-0.63h9.779v1.02h0.18a1.47,1.47,0,0,0,1.02-.43v-11.72a1.117,1.117,0,0,0,.63-0.3Z" transform="translate(-190 -1853)"/>
  <path id="中東" class="cls-4" d="M427.605,2102.1v-3.99h4.08v3.99h-4.08Zm-5.324,0v-3.99h4.079v3.99h-4.079Zm9.914-5.12-0.66.69h-3.93v-2.56a0.552,0.552,0,0,0,.555-0.44l-1.8-.19v3.19H422.4l-1.35-.58v6.88h0.195a1.326,1.326,0,0,0,1.035-.42v-1.02h4.079v5.79h0.24a1.179,1.179,0,0,0,1-.48v-5.31h4.08v1.25h0.21a1.763,1.763,0,0,0,1.05-.36v-5.07a1.117,1.117,0,0,0,.63-0.32Zm7.216,4.02h2.849v1.71h-2.849V2101Zm2.849-2.08v1.65h-2.849v-1.65h2.849Zm4.14,0v1.65h-2.91v-1.65h2.91Zm-2.91,3.79V2101h2.91v1.71h-2.91Zm2.91,0.44v0.75h0.2a1.735,1.735,0,0,0,1.05-.39v-4.37a1.189,1.189,0,0,0,.615-0.3l-1.38-1.05-0.63.71h-2.76v-1.53h5.655a0.372,0.372,0,0,0,.405-0.24c-0.6-.54-1.575-1.29-1.575-1.29l-0.87,1.08H443.49v-1.43a0.533,0.533,0,0,0,.54-0.42l-1.77-.19v2.04h-5.954l0.135,0.45h5.819v1.53h-2.744l-1.32-.57v6.1h0.195a1.321,1.321,0,0,0,1.02-.4v-0.48h2.129a14.952,14.952,0,0,1-5.534,4.62l0.135,0.21a15.514,15.514,0,0,0,6.119-3.72v4.06h0.24a1.142,1.142,0,0,0,.99-0.43v-4.65a10.557,10.557,0,0,0,5.415,4.65,1.388,1.388,0,0,1,1.05-1.05l0.03-.17a12.171,12.171,0,0,1-6.195-3.52h2.61Z" transform="translate(-190 -1853)"/>
  <circle id="楕円形_2_のコピー_7" data-name="楕円形 2 のコピー 7" class="cls-2" cx="113.5" cy="363.5" r="63.5"/>
  <circle id="楕円形_2_のコピー_7-2" data-name="楕円形 2 のコピー 7" class="cls-3" cx="113.422" cy="363.425" r="57.547"/>
  <path id="_5" data-name="5" class="cls-4" d="M295.623,2215.22l-0.333-.26a1.843,1.843,0,0,1-1.776.96h-7.659l-4.034,8.77a0.739,0.739,0,0,0-.037.18c0,0.23.111,0.3,0.444,0.3a12.244,12.244,0,0,1,7.882,2.59,6.692,6.692,0,0,1,2.479,5.55c0,3.18-2.4,6.25-5,6.25a4.246,4.246,0,0,1-2.627-1.18,3.924,3.924,0,0,0-2.739-1.15,1.406,1.406,0,0,0-1.665,1.41c0,1.41,1.924,2.29,4.7,2.29a10.263,10.263,0,0,0,6.29-1.81c2.516-1.85,3.626-4.14,3.626-7.7a7.44,7.44,0,0,0-1.295-4.7c-2.109-2.92-3.959-3.73-9.25-4.73l1.48-3.15h7.178a0.972,0.972,0,0,0,1-.48Z" transform="translate(-190 -1853)"/>
  <path id="カ国-2" data-name="カ国" class="cls-4" d="M305.1,2232.01c0.15-.59.255-1.19,0.33-1.53,0.12-.59.48-0.59,0.48-0.96,0-.41-1.094-1.02-1.739-1.04a4.268,4.268,0,0,0-1.14.26v0.28a5.22,5.22,0,0,1,.945.27,0.45,0.45,0,0,1,.27.51,17.681,17.681,0,0,1-.375,2.34c-1.62.2-3.21,0.38-3.66,0.38a1.308,1.308,0,0,1-.93-0.89l-0.27.06a1.9,1.9,0,0,0,.075,1.01,2.035,2.035,0,0,0,1.185,1.17,5.44,5.44,0,0,0,.93-0.35c0.435-.1,1.575-0.33,2.43-0.48a13.326,13.326,0,0,1-5.355,7.49l0.225,0.28a11.962,11.962,0,0,0,6.39-7.96,23.34,23.34,0,0,1,2.834-.3,0.159,0.159,0,0,1,.18.18c0,0.96-.585,4.45-1.515,5.62a0.566,0.566,0,0,1-.75.18,16.062,16.062,0,0,1-1.769-.69l-0.165.29c0.87,0.69,1.319.96,1.469,1.5a0.52,0.52,0,0,0,.54.52,2.2,2.2,0,0,0,1.755-1.29,17.6,17.6,0,0,0,1.56-5.59c0.075-.47.5-0.44,0.5-0.78a2.19,2.19,0,0,0-1.35-1.17c-0.285,0-.42.36-0.825,0.4Zm16.545,5.62H319.6v-3.34h2.88a0.326,0.326,0,0,0,.375-0.24c-0.45-.45-1.2-1.05-1.2-1.05l-0.66.85H319.6v-2.71h3.27a0.354,0.354,0,0,0,.39-0.24,14.636,14.636,0,0,0-1.275-1.08l-0.69.87h-6.149l0.12,0.45h3.195v2.71h-2.73l0.12,0.44h2.61v3.34h-3.585l0.12,0.44h8.219a0.354,0.354,0,0,0,.39-0.24c-0.5-.45-1.26-1.1-1.26-1.1Zm-1.305-2.86a3.959,3.959,0,0,1,1.08,1.9c0.945,0.75,1.86-1.14-.915-2.01Zm-6.1,5.01v-10.91h9.779v10.91h-9.779Zm10.259-12.08-0.63.74h-9.509l-1.29-.6v13.47h0.21a1,1,0,0,0,.96-0.47v-0.63h9.779v1.02h0.18a1.47,1.47,0,0,0,1.02-.43v-11.72a1.117,1.117,0,0,0,.63-0.3Z" transform="translate(-190 -1853)"/>
  <path id="アフリカ" class="cls-4" d="M279.931,2194.68a2.57,2.57,0,0,0,.18.99,2.18,2.18,0,0,0,1.38,1.16,10.006,10.006,0,0,0,1.035-.45c1.634-.33,5.744-0.96,6.449-0.96,0.3,0,.375.06,0.195,0.34a13.48,13.48,0,0,1-2.58,2.39,3.332,3.332,0,0,0-1.32-.42,3.95,3.95,0,0,0-.975,0l-0.075.28c0.645,0.24,1.2.48,1.2,0.95,0,1-1.89,4.65-4.844,6.51l0.24,0.3a11.6,11.6,0,0,0,6.119-6.89,0.612,0.612,0,0,0,.045-0.27,32.941,32.941,0,0,0,3.255-2.04c0.345-.24,1-0.3,1-0.7a2.648,2.648,0,0,0-1.635-1.52c-0.285,0-.45.23-0.84,0.29-0.915.13-6.479,0.75-7.559,0.75a1.285,1.285,0,0,1-.975-0.78Zm14.04,0.23-0.27.1a4,4,0,0,0,.135.9,2.136,2.136,0,0,0,1.395,1.23,7.308,7.308,0,0,0,1.05-.4,49.849,49.849,0,0,1,5.594-.84c0.135,0,.225.04,0.165,0.24-0.87,3.45-3.689,6.81-7.934,8.97l0.21,0.33a14.535,14.535,0,0,0,8.894-8.19,4.6,4.6,0,0,0,.75-1.13,2.452,2.452,0,0,0-1.695-1.39c-0.3,0-.5.27-0.945,0.36-0.735.16-5.234,0.64-6.179,0.64A1.6,1.6,0,0,1,293.971,2194.91Zm20.01,4.21c0.045-.91.12-2.55,0.15-3.43,0.03-.48.3-0.57,0.3-0.92a2.147,2.147,0,0,0-1.68-.99,2.887,2.887,0,0,0-1.125.39l0.015,0.29a3.021,3.021,0,0,1,.9.24,0.623,0.623,0,0,1,.315.63,31.861,31.861,0,0,1-.03,3.76c-0.2,3.05-1.635,5.04-4.53,6.6l0.18,0.3C311.956,2204.78,313.8,2202.63,313.981,2199.12Zm-6.45-3.88a0.543,0.543,0,0,1,.3.58c0.075,0.57.09,2.07,0.09,2.78-0.015,1.17-.165,1.72-0.165,2.11a1.067,1.067,0,0,0,.705,1.2c0.33,0,.57-0.22.57-0.85,0-.74-0.03-3.84.015-4.5,0.045-.57.27-0.74,0.27-1.05a1.965,1.965,0,0,0-1.635-1.02,2.921,2.921,0,0,0-.96.21v0.28A4.293,4.293,0,0,1,307.531,2195.24Zm17.325,1.77c0.15-.59.255-1.19,0.33-1.53,0.12-.59.48-0.59,0.48-0.96,0-.41-1.095-1.02-1.74-1.04a4.268,4.268,0,0,0-1.14.26v0.28a5.22,5.22,0,0,1,.945.27,0.45,0.45,0,0,1,.27.51,17.681,17.681,0,0,1-.375,2.34c-1.62.2-3.21,0.38-3.66,0.38a1.308,1.308,0,0,1-.93-0.89l-0.27.06a1.9,1.9,0,0,0,.075,1.01,2.035,2.035,0,0,0,1.185,1.17,5.44,5.44,0,0,0,.93-0.35c0.435-.1,1.575-0.33,2.43-0.48a13.326,13.326,0,0,1-5.355,7.49l0.225,0.28a11.962,11.962,0,0,0,6.39-7.96,23.376,23.376,0,0,1,2.835-.3,0.159,0.159,0,0,1,.18.18c0,0.96-.585,4.45-1.515,5.62a0.566,0.566,0,0,1-.75.18,16.06,16.06,0,0,1-1.77-.69l-0.165.29c0.87,0.69,1.32.96,1.47,1.5a0.52,0.52,0,0,0,.54.52,2.2,2.2,0,0,0,1.755-1.29,17.6,17.6,0,0,0,1.56-5.59c0.075-.47.5-0.44,0.5-0.78a2.19,2.19,0,0,0-1.35-1.17c-0.285,0-.42.36-0.825,0.4Z" transform="translate(-190 -1853)"/>
  <circle id="楕円形_2_のコピー_8" data-name="楕円形 2 のコピー 8" class="cls-2" cx="506.5" cy="410.5" r="63.5"/>
  <circle id="楕円形_2_のコピー_8-2" data-name="楕円形 2 のコピー 8" class="cls-3" cx="506.422" cy="410.425" r="57.547"/>
  <path id="_2" data-name="2" class="cls-4" d="M689.955,2282.35l-0.518-.23c-1.221,2.08-2,2.48-3.552,2.48h-8.658l6.105-6.51c3.293-3.48,4.736-6.25,4.736-9.18,0-3.66-2.664-6.51-6.845-6.51-4.551,0-6.92,3.04-7.7,7.36l0.777,0.19c1.48-3.63,2.776-4.81,5.44-4.81,3.145,0,5.143,1.85,5.143,5.22,0,3.14-1.332,5.95-4.81,9.62l-6.587,6.99v0.45h14.468Z" transform="translate(-190 -1853)"/>
  <path id="カ国_のコピー" data-name="カ国 のコピー" class="cls-4" d="M698.1,2279.01c0.15-.59.255-1.19,0.33-1.53,0.12-.59.48-0.59,0.48-0.96,0-.41-1.094-1.02-1.739-1.04a4.268,4.268,0,0,0-1.14.26v0.28a5.22,5.22,0,0,1,.945.27,0.45,0.45,0,0,1,.27.51,17.681,17.681,0,0,1-.375,2.34c-1.62.2-3.21,0.38-3.66,0.38a1.308,1.308,0,0,1-.93-0.89l-0.27.06a1.9,1.9,0,0,0,.075,1.01,2.035,2.035,0,0,0,1.185,1.17,5.44,5.44,0,0,0,.93-0.35c0.435-.1,1.575-0.33,2.43-0.48a13.326,13.326,0,0,1-5.355,7.49l0.225,0.28a11.962,11.962,0,0,0,6.39-7.96,23.34,23.34,0,0,1,2.834-.3,0.159,0.159,0,0,1,.18.18c0,0.96-.585,4.45-1.515,5.62a0.566,0.566,0,0,1-.75.18,16.062,16.062,0,0,1-1.769-.69l-0.165.29c0.87,0.69,1.319.96,1.469,1.5a0.52,0.52,0,0,0,.54.52,2.2,2.2,0,0,0,1.755-1.29,17.6,17.6,0,0,0,1.56-5.59c0.075-.47.5-0.44,0.5-0.78a2.19,2.19,0,0,0-1.35-1.17c-0.285,0-.42.36-0.825,0.4Zm16.545,5.62H712.6v-3.34h2.88a0.326,0.326,0,0,0,.375-0.24c-0.45-.45-1.2-1.05-1.2-1.05l-0.66.85H712.6v-2.71h3.27a0.354,0.354,0,0,0,.39-0.24,14.636,14.636,0,0,0-1.275-1.08l-0.69.87h-6.149l0.12,0.45h3.2v2.71h-2.73l0.12,0.44h2.61v3.34h-3.585l0.12,0.44h8.219a0.354,0.354,0,0,0,.39-0.24c-0.5-.45-1.26-1.1-1.26-1.1Zm-1.3-2.86a3.959,3.959,0,0,1,1.08,1.9c0.945,0.75,1.86-1.14-.915-2.01Zm-6.1,5.01v-10.91h9.779v10.91h-9.779Zm10.259-12.08-0.63.74h-9.509l-1.29-.6v13.47h0.21a1,1,0,0,0,.96-0.47v-0.63h9.779v1.02h0.18a1.47,1.47,0,0,0,1.02-.43v-11.72a1.117,1.117,0,0,0,.63-0.3Z" transform="translate(-190 -1853)"/>
  <path id="オセアニア" class="cls-4" d="M667.181,2241.02a2.706,2.706,0,0,1,.959.23,0.462,0.462,0,0,1,.36.51c0.015,0.51.03,1.38,0.045,2.11-1.6.17-3.854,0.45-4.844,0.47a1.4,1.4,0,0,1-1.1-.84l-0.27.1a2.7,2.7,0,0,0,.105.87,2.091,2.091,0,0,0,1.3,1.11,11.821,11.821,0,0,0,1.455-.36c0.7-.15,1.68-0.33,2.714-0.46a19.915,19.915,0,0,1-6.494,6.4l0.21,0.3a17.3,17.3,0,0,0,6.929-5.4c0.015,1.79.045,3.86-.015,4.44a0.253,0.253,0,0,1-.315.26c-0.435-.05-1.184-0.23-1.814-0.35l-0.105.26a6.774,6.774,0,0,1,1.6.94c0.36,0.32.375,0.86,0.81,0.86a1.437,1.437,0,0,0,1.02-1.44c0-.45-0.09-0.86-0.12-1.71-0.045-1.11-.06-3.39-0.045-4.73a31.859,31.859,0,0,1,3.645,0,0.419,0.419,0,0,0,.435-0.45,1.619,1.619,0,0,0-1.47-.88,11.576,11.576,0,0,1-2.61.51c0.015-.51.03-1.14,0.09-1.58,0.075-.54.3-0.58,0.3-0.93a1.907,1.907,0,0,0-1.605-.81,3.341,3.341,0,0,0-1.184.29v0.28Zm16.109,6.86a19.95,19.95,0,0,0,3.075-2.46,1.848,1.848,0,0,0,.84-0.74,2.4,2.4,0,0,0-1.62-1.32c-0.24,0-.39.29-0.84,0.42-0.84.24-2.639,0.74-3.914,1.1,0.06-.9.12-1.68,0.18-2.09,0.075-.49.375-0.67,0.375-1.05a1.971,1.971,0,0,0-1.635-.97,3.864,3.864,0,0,0-1.215.25l0.015,0.27c0.735,0.14,1.185.24,1.215,0.62,0.045,0.58.015,2.07-.015,3.28a23.349,23.349,0,0,1-3.51.89,1.317,1.317,0,0,1-.975-0.74l-0.225.08a1.838,1.838,0,0,0,.09.88,2.538,2.538,0,0,0,1.47,1.13,2.5,2.5,0,0,0,1.1-.51c0.555-.24,1.365-0.54,2.04-0.78-0.015,1-.06,2.43-0.03,3.42,0.015,2.04.93,2.22,3.389,2.22a17.641,17.641,0,0,0,3.045-.29,0.664,0.664,0,0,0,.705-0.55,1.042,1.042,0,0,0-1.155-.65,13.675,13.675,0,0,1-3.105.36c-1.694,0-1.874-.12-1.9-1.38,0-.88.03-2.23,0.1-3.49a39.88,39.88,0,0,1,4.289-1.31c0.21-.03.285,0.08,0.18,0.26a15.166,15.166,0,0,1-2.205,2.91Zm7.111-6.2a2.57,2.57,0,0,0,.18.99,2.18,2.18,0,0,0,1.38,1.16,10.006,10.006,0,0,0,1.035-.45c1.635-.33,5.744-0.96,6.449-0.96,0.3,0,.375.06,0.195,0.34a13.5,13.5,0,0,1-2.579,2.39,3.332,3.332,0,0,0-1.32-.42,3.95,3.95,0,0,0-.975,0l-0.075.28c0.645,0.24,1.2.48,1.2,0.95,0,1-1.89,4.65-4.845,6.51l0.24,0.3a11.6,11.6,0,0,0,6.12-6.89,0.612,0.612,0,0,0,.045-0.27,33.025,33.025,0,0,0,3.254-2.04c0.345-.24,1-0.3,1-0.7a2.648,2.648,0,0,0-1.635-1.52c-0.285,0-.45.23-0.84,0.29-0.915.13-6.479,0.75-7.559,0.75a1.285,1.285,0,0,1-.975-0.78Zm22.965,1.98c0-.43-0.945-0.73-1.575-0.73-0.3,0-.465.25-1.4,0.45a23.654,23.654,0,0,1-3.285.39,2.21,2.21,0,0,1-1.485-.8l-0.24.14a3.337,3.337,0,0,0,.39.93,1.771,1.771,0,0,0,1.17.79c0.6,0,3.555-.37,5.865-0.63A0.528,0.528,0,0,0,713.366,2243.66Zm-10.02,5.73a2.459,2.459,0,0,0,1.41,1.16,7.543,7.543,0,0,0,1.32-.38,27.566,27.566,0,0,1,5.715-.63,20.953,20.953,0,0,1,3.525.44,0.477,0.477,0,0,0,.525-0.5c0-.54-1.275-1.21-1.935-1.21a8.035,8.035,0,0,1-1.11.19c-2.73.14-7.365,0.69-8.115,0.69a1.643,1.643,0,0,1-1.245-.75l-0.285.11A2.047,2.047,0,0,0,703.346,2249.39Zm15.63-7.71a2.57,2.57,0,0,0,.18.99,2.18,2.18,0,0,0,1.38,1.16,10.006,10.006,0,0,0,1.035-.45c1.635-.33,5.745-0.96,6.45-0.96,0.3,0,.375.06,0.2,0.34a13.48,13.48,0,0,1-2.58,2.39,3.332,3.332,0,0,0-1.32-.42,3.95,3.95,0,0,0-.975,0l-0.075.28c0.645,0.24,1.2.48,1.2,0.95,0,1-1.89,4.65-4.845,6.51l0.24,0.3a11.6,11.6,0,0,0,6.12-6.89,0.612,0.612,0,0,0,.045-0.27,32.941,32.941,0,0,0,3.255-2.04c0.345-.24,1-0.3,1-0.7a2.648,2.648,0,0,0-1.635-1.52c-0.285,0-.45.23-0.84,0.29-0.915.13-6.48,0.75-7.56,0.75a1.285,1.285,0,0,1-.975-0.78Z" transform="translate(-190 -1853)"/>
  <circle id="楕円形_2_のコピー_10" data-name="楕円形 2 のコピー 10" class="cls-2" cx="946.5" cy="319.5" r="63.5"/>
  <circle id="楕円形_2_のコピー_10-2" data-name="楕円形 2 のコピー 10" class="cls-3" cx="946.425" cy="319.425" r="57.545"/>
  <path id="_7" data-name="7" class="cls-4" d="M1131.03,2172.51v-0.59h-13.65l-2.22,5.44,0.66,0.33c1.56-2.51,2.19-3.03,4.33-3.03h7.96l-7.33,22.05h2.41Z" transform="translate(-190 -1853)"/>
  <path id="カ国_のコピー_2" data-name="カ国 のコピー 2" class="cls-4" d="M1138.1,2188.01c0.15-.59.25-1.19,0.33-1.53,0.12-.59.48-0.59,0.48-0.96,0-.41-1.1-1.02-1.74-1.04a4.268,4.268,0,0,0-1.14.26v0.28a5.287,5.287,0,0,1,.94.27,0.445,0.445,0,0,1,.27.51,16.748,16.748,0,0,1-.37,2.34c-1.62.2-3.21,0.38-3.66,0.38a1.308,1.308,0,0,1-.93-0.89l-0.27.06a1.9,1.9,0,0,0,.07,1.01,2.043,2.043,0,0,0,1.19,1.17,5.77,5.77,0,0,0,.93-0.35c0.43-.1,1.57-0.33,2.43-0.48a13.339,13.339,0,0,1-5.36,7.49l0.23,0.28a11.962,11.962,0,0,0,6.39-7.96,23.405,23.405,0,0,1,2.83-.3,0.159,0.159,0,0,1,.18.18c0,0.96-.58,4.45-1.51,5.62a0.566,0.566,0,0,1-.75.18,15.317,15.317,0,0,1-1.77-.69l-0.17.29c0.87,0.69,1.32.96,1.47,1.5a0.523,0.523,0,0,0,.54.52,2.209,2.209,0,0,0,1.76-1.29,17.6,17.6,0,0,0,1.56-5.59c0.07-.47.49-0.44,0.49-0.78a2.19,2.19,0,0,0-1.35-1.17c-0.28,0-.42.36-0.82,0.4Zm16.54,5.62h-2.04v-3.34h2.88a0.332,0.332,0,0,0,.38-0.24c-0.45-.45-1.2-1.05-1.2-1.05l-0.66.85h-1.4v-2.71h3.27a0.35,0.35,0,0,0,.39-0.24,14.1,14.1,0,0,0-1.27-1.08l-0.69.87h-6.15l0.12,0.45h3.19v2.71h-2.73l0.12,0.44h2.61v3.34h-3.58l0.12,0.44h8.22a0.357,0.357,0,0,0,.39-0.24c-0.5-.45-1.26-1.1-1.26-1.1Zm-1.3-2.86a4,4,0,0,1,1.08,1.9c0.94,0.75,1.86-1.14-.92-2.01Zm-6.11,5.01v-10.91h9.78v10.91h-9.78Zm10.26-12.08-0.63.74h-9.51l-1.29-.6v13.47h0.21a0.993,0.993,0,0,0,.96-0.47v-0.63h9.78v1.02h0.18a1.447,1.447,0,0,0,1.02-.43v-11.72a1.117,1.117,0,0,0,.63-0.3Z" transform="translate(-190 -1853)"/>
  <path id="南米" class="cls-4" d="M1131.58,2158.8a0.372,0.372,0,0,0,.39-0.24c-0.5-.47-1.31-1.08-1.31-1.08l-0.7.87h-1.44v-1.86h2.91a0.327,0.327,0,0,0,.37-0.24c-0.45-.41-1.18-0.96-1.18-0.96l-0.65.76h-1.11a16.4,16.4,0,0,0,1.52-1.77,0.517,0.517,0,0,0,.57-0.27l-1.62-.49a21.544,21.544,0,0,1-.86,2.53h-4.15l0.1,0.44h2.91v1.86h-3.19l0.12,0.45h3.07v3.19h0.2a1.436,1.436,0,0,0,.99-0.28v-2.91h3.06Zm-6.35-5.15a4.6,4.6,0,0,1,.86,2.07c0.99,0.84,2.08-1.18-.69-2.16Zm7.31-3.07h-3.98v-1.46a0.516,0.516,0,0,0,.54-0.42l-1.75-.16v2.04h-6.23l0.14,0.45h6.09v1.84h-3.8l-1.3-.58v10.03h0.19a1.169,1.169,0,0,0,1.01-.43v-8.6h9.19v7.31a0.288,0.288,0,0,1-.36.33c-0.37,0-1.99-.12-1.99-0.12v0.22a2.968,2.968,0,0,1,1.38.45,1.229,1.229,0,0,1,.34.84c1.62-.15,1.83-0.7,1.83-1.59v-7.21a1.358,1.358,0,0,0,.64-0.3l-1.39-1.07-0.6.72h-3.93v-1.84h5.97a0.362,0.362,0,0,0,.4-0.24c-0.58-.54-1.55-1.25-1.55-1.25Zm15.37-1.23a26.035,26.035,0,0,1-2.38,3.93l0.19,0.16a17.978,17.978,0,0,0,3.29-3.03,0.513,0.513,0,0,0,.61-0.19Zm-9.49.31a8.368,8.368,0,0,1,2.01,3.5c1.27,0.99,2.25-1.83-1.83-3.6Zm11.98,4.97a0.343,0.343,0,0,0,.39-0.24c-0.57-.51-1.53-1.25-1.53-1.25l-0.84,1.07h-3.93v-5.12a0.525,0.525,0,0,0,.54-0.42l-1.77-.19v5.73h-6.15l0.12,0.42h5.25a17.014,17.014,0,0,1-5.67,6.25l0.15,0.21a15.838,15.838,0,0,0,6.3-5.22v6.45h0.24a1.158,1.158,0,0,0,.99-0.43v-7.1a12.8,12.8,0,0,0,5.39,6.11,1.358,1.358,0,0,1,1.09-1.02l0.04-.18a13.43,13.43,0,0,1-6.26-5.07h5.65Z" transform="translate(-190 -1853)"/>
  <circle id="楕円形_2_のコピー_11" data-name="楕円形 2 のコピー 11" class="cls-2" cx="838.5" cy="118.5" r="63.5"/>
  <circle id="楕円形_2_のコピー_11-2" data-name="楕円形 2 のコピー 11" class="cls-3" cx="838.423" cy="118.425" r="57.548"/>
  <path id="_4" data-name="4" class="cls-4" d="M1020.92,1989.24v-2.37h-3.81V1970.4h-1.63l-11.62,16.47v2.37h10.36v6.18h2.89v-6.18h3.81Zm-6.7-2.37h-8.88l8.88-12.69v12.69Z" transform="translate(-190 -1853)"/>
  <path id="カ国_のコピー_3" data-name="カ国 のコピー 3" class="cls-4" d="M1030.1,1987.01c0.15-.59.25-1.19,0.33-1.53,0.12-.59.48-0.59,0.48-0.96,0-.41-1.1-1.02-1.74-1.04a4.268,4.268,0,0,0-1.14.26v0.28a5.287,5.287,0,0,1,.94.27,0.445,0.445,0,0,1,.27.51,16.748,16.748,0,0,1-.37,2.34c-1.62.2-3.21,0.38-3.66,0.38a1.308,1.308,0,0,1-.93-0.89l-0.27.06a1.9,1.9,0,0,0,.07,1.01,2.043,2.043,0,0,0,1.19,1.17,5.77,5.77,0,0,0,.93-0.35c0.43-.1,1.57-0.33,2.43-0.48a13.339,13.339,0,0,1-5.36,7.49l0.23,0.28a11.962,11.962,0,0,0,6.39-7.96,23.405,23.405,0,0,1,2.83-.3,0.159,0.159,0,0,1,.18.18c0,0.96-.58,4.45-1.51,5.62a0.566,0.566,0,0,1-.75.18,15.317,15.317,0,0,1-1.77-.69l-0.17.29c0.87,0.69,1.32.96,1.47,1.5a0.523,0.523,0,0,0,.54.52,2.209,2.209,0,0,0,1.76-1.29,17.6,17.6,0,0,0,1.56-5.59c0.07-.47.49-0.44,0.49-0.78a2.19,2.19,0,0,0-1.35-1.17c-0.28,0-.42.36-0.82,0.4Zm16.54,5.62h-2.04v-3.34h2.88a0.332,0.332,0,0,0,.38-0.24c-0.45-.45-1.2-1.05-1.2-1.05l-0.66.85h-1.4v-2.71h3.27a0.35,0.35,0,0,0,.39-0.24,14.1,14.1,0,0,0-1.27-1.08l-0.69.87h-6.15l0.12,0.45h3.19v2.71h-2.73l0.12,0.44h2.61v3.34h-3.58l0.12,0.44h8.22a0.357,0.357,0,0,0,.39-0.24c-0.5-.45-1.26-1.1-1.26-1.1Zm-1.3-2.86a4,4,0,0,1,1.08,1.9c0.94,0.75,1.86-1.14-.92-2.01Zm-6.11,5.01v-10.91h9.78v10.91h-9.78Zm10.26-12.08-0.63.74h-9.51l-1.29-.6v13.47h0.21a0.993,0.993,0,0,0,.96-0.47v-0.63h9.78v1.02h0.18a1.447,1.447,0,0,0,1.02-.43v-11.72a1.117,1.117,0,0,0,.63-0.3Z" transform="translate(-190 -1853)"/>
  <path id="北米" class="cls-4" d="M1017.59,1952.05h-4.08l0.14,0.45h3.94v4.17c-1.92.66-3.76,1.23-4.54,1.43l0.73,1.57a0.494,0.494,0,0,0,.33-0.39c1.47-.87,2.63-1.63,3.48-2.2v4.2h0.21a1.089,1.089,0,0,0,.96-0.42v-12.29a0.493,0.493,0,0,0,.54-0.42l-1.71-.18v4.08Zm8.91,5.25h-0.18a13.636,13.636,0,0,1-.57,2.12,0.342,0.342,0,0,1-.33.19c-0.19.02-.64,0.03-1.24,0.03h-1.31c-0.6,0-.69-0.13-0.69-0.48v-4.89a19.259,19.259,0,0,0,4.14-2.73,0.485,0.485,0,0,0,.6-0.09l-1.53-1.05a24.6,24.6,0,0,1-3.21,3.51v-5.32a0.5,0.5,0,0,0,.51-0.42l-1.72-.2v11.46c0,1.02.37,1.34,1.66,1.34h1.49c2.33,0,2.93-.18,2.93-0.75a0.556,0.556,0,0,0-.49-0.53Zm13.41-8.95a26.035,26.035,0,0,1-2.38,3.93l0.19,0.16a17.978,17.978,0,0,0,3.29-3.03,0.513,0.513,0,0,0,.61-0.19Zm-9.49.31a8.368,8.368,0,0,1,2.01,3.5c1.27,0.99,2.25-1.83-1.83-3.6Zm11.98,4.97a0.343,0.343,0,0,0,.39-0.24c-0.57-.51-1.53-1.25-1.53-1.25l-0.84,1.07h-3.93v-5.12a0.525,0.525,0,0,0,.54-0.42l-1.77-.19v5.73h-6.15l0.12,0.42h5.25a17.014,17.014,0,0,1-5.67,6.25l0.15,0.21a15.838,15.838,0,0,0,6.3-5.22v6.45h0.24a1.158,1.158,0,0,0,.99-0.43v-7.1a12.8,12.8,0,0,0,5.39,6.11,1.358,1.358,0,0,1,1.09-1.02l0.04-.18a13.43,13.43,0,0,1-6.26-5.07h5.65Z" transform="translate(-190 -1853)"/>
  <circle id="楕円形_2_のコピー_2" data-name="楕円形 2 のコピー 2" class="cls-2" cx="179" cy="93" r="75"/>
  <circle id="楕円形_2_のコピー_2-2" data-name="楕円形 2 のコピー 2" class="cls-3" cx="179.5" cy="93.5" r="68.5"/>
  <path id="_18-2" data-name="18" class="cls-4" d="M348.933,1973.42v-0.71c-3.525,0-4.465-.85-4.465-2.87v-28.05l-0.423-.14-8.412,4.27v0.66l1.269-.47a7.038,7.038,0,0,1,2.115-.56c0.987,0,1.41.7,1.41,2.3v21.1c0,2.59-.987,3.57-4.465,3.76v0.71h12.971Zm20.257-7.29c0-3.76-1.5-6.3-7.285-10.15,4.653-2.49,6.3-4.09,6.3-7.61,0-3.67-3.243-6.72-7.895-6.72-5.217,0-9.118,2.81-9.118,7.33,0,3.05.987,4.84,5.828,8.83-5.029,3.53-6.11,5.36-6.11,8.6,0,4.42,3.713,7.66,9.024,7.66C365.571,1974.07,369.19,1970.97,369.19,1966.13Zm-4.23-17.76c0,2.91-1.222,4.88-4.418,6.76-4.135-2.44-5.874-4.6-5.874-7.52s2.021-4.65,5.17-4.65C363.033,1942.96,364.96,1945.12,364.96,1948.37Zm-3.948,12.26c3.2,2.16,4.606,4.04,4.606,6.96a4.937,4.937,0,0,1-5.17,5.17c-3.571,0-5.968-2.45-5.968-6.77,0-3.06.987-4.98,3.76-7.24Z" transform="translate(-190 -1853)"/>
  <path id="カ国-3" data-name="カ国" class="cls-4" d="M379.6,1964.47c0.16-.63.272-1.27,0.352-1.64,0.128-.62.512-0.62,0.512-1.02,0-.43-1.168-1.09-1.857-1.1a4.835,4.835,0,0,0-1.216.27v0.3a5.918,5.918,0,0,1,1.008.29,0.47,0.47,0,0,1,.288.54,18.785,18.785,0,0,1-.4,2.5c-1.728.21-3.424,0.4-3.9,0.4a1.4,1.4,0,0,1-.993-0.94l-0.288.06a2,2,0,0,0,.08,1.07,2.138,2.138,0,0,0,1.265,1.25,5.575,5.575,0,0,0,.992-0.37c0.464-.11,1.68-0.35,2.592-0.51a14.232,14.232,0,0,1-5.713,7.99l0.24,0.3a12.78,12.78,0,0,0,6.818-8.5,26.962,26.962,0,0,1,3.024-.32,0.172,0.172,0,0,1,.192.19c0,1.03-.624,4.76-1.616,6.01a0.619,0.619,0,0,1-.8.19,18.552,18.552,0,0,1-1.889-.74l-0.176.31c0.928,0.73,1.409,1.02,1.569,1.6a0.556,0.556,0,0,0,.576.56,2.357,2.357,0,0,0,1.872-1.38,18.782,18.782,0,0,0,1.664-5.97c0.08-.49.528-0.46,0.528-0.83a2.321,2.321,0,0,0-1.44-1.25c-0.3,0-.448.38-0.88,0.43Zm17.648,6h-2.177v-3.57h3.073a0.343,0.343,0,0,0,.4-0.26c-0.48-.48-1.28-1.12-1.28-1.12l-0.7.92h-1.489v-2.9h3.489a0.371,0.371,0,0,0,.416-0.26c-0.5-.49-1.36-1.15-1.36-1.15l-0.736.93h-6.561l0.128,0.48h3.408v2.9h-2.912l0.128,0.46h2.784v3.57h-3.824l0.128,0.46h8.769a0.374,0.374,0,0,0,.416-0.25c-0.528-.48-1.344-1.17-1.344-1.17Zm-1.392-3.06a4.286,4.286,0,0,1,1.152,2.03c1.008,0.8,1.984-1.21-.976-2.14Zm-6.514,5.35v-11.64h10.434v11.64H389.345Zm10.946-12.89-0.672.79H389.473l-1.376-.64v14.37h0.224a1.068,1.068,0,0,0,1.024-.5v-0.67h10.434v1.09h0.192a1.559,1.559,0,0,0,1.089-.47v-12.49a1.291,1.291,0,0,0,.672-0.32Z" transform="translate(-190 -1853)"/>
  <path id="ヨーロッパ" class="cls-4" d="M334.841,1918.56a3.721,3.721,0,0,0,.112.85,2.14,2.14,0,0,0,1.377,1.23,7.828,7.828,0,0,0,1.1-.35,52.965,52.965,0,0,1,5.633-.62,0.134,0.134,0,0,1,.16.17l-0.256,2.55c-2.033.13-5.681,0.53-6.273,0.53a2.04,2.04,0,0,1-1.232-.74l-0.273.16a2.582,2.582,0,0,0,.224.85,2,2,0,0,0,1.3,1.01c0.3,0,.544-0.21,1.024-0.29,1.28-.16,3.329-0.42,5.121-0.53-0.112,1.14-.24,2.29-0.352,3.14-1.777.11-5.361,0.49-6.465,0.49a1.733,1.733,0,0,1-1.249-.86l-0.272.16a3.157,3.157,0,0,0,.192.86,2.284,2.284,0,0,0,1.409,1.2,6.507,6.507,0,0,0,1.088-.29,29,29,0,0,1,4.561-.48c0.88,0,1.856.23,2.224,0.23a0.5,0.5,0,0,0,.576-0.53,1.165,1.165,0,0,0-.928-0.77c0.288-1.84.688-4.59,0.912-5.87,0.08-.48.576-0.63,0.576-1.01a2.626,2.626,0,0,0-1.744-1.33c-0.352,0-.448.35-0.992,0.43-0.976.15-5.153,0.55-6.113,0.55a1.624,1.624,0,0,1-1.137-.85Zm13.872,3.7a2.357,2.357,0,0,0,1.681,2.46c0.512,0,.7-0.27,1.7-0.38,1.2-.14,5.441-0.38,6.5-0.38,1.024,0,1.584.03,2.16,0.03s0.817-.19.817-0.51c0-.52-0.752-0.85-1.473-0.85-0.4,0-.928.09-2,0.17-0.8.07-6.193,0.42-7.7,0.42a1.6,1.6,0,0,1-1.361-1.06Zm19.009,3.92c-0.048-1.58-.16-4.5-0.208-5.59a1.645,1.645,0,0,0,.672.23c0.3,0,.784-0.16,1.3-0.23,0.881-.09,3.313-0.28,4.273-0.28a0.168,0.168,0,0,1,.208.19,51.412,51.412,0,0,1-.656,5.3C371.787,1925.86,369.354,1926.05,367.722,1926.18Zm-2.608-6.87a2.464,2.464,0,0,1,.912,1.36,28.464,28.464,0,0,1,.448,4.6c0.016,0.65-.048,1.52-0.048,1.87a1.075,1.075,0,0,0,.768,1.2,0.557,0.557,0,0,0,.56-0.69v-0.54c1.856-.13,3.937-0.24,5.185-0.24,0.784,0,1.616.11,2.032,0.11a0.486,0.486,0,0,0,.544-0.54,0.938,0.938,0,0,0-1.008-.66c0.336-1.65.672-3.58,0.832-4.35,0.112-.47.641-0.61,0.641-1a2.726,2.726,0,0,0-1.713-1.48,9.957,9.957,0,0,1-1.04.46c-0.64.1-4.241,0.42-5.841,0.51a0.234,0.234,0,0,0-.064-0.06,3.48,3.48,0,0,0-2.016-.8Zm17.521,3.17c0.384,0.84.368,1.51,0.928,1.51a0.6,0.6,0,0,0,.624-0.63,2.125,2.125,0,0,0-.976-1.64,5.522,5.522,0,0,0-1.232-.76l-0.176.16A7.177,7.177,0,0,1,382.635,1922.48Zm5.137,0.63a2.472,2.472,0,0,0,.5-0.82,1.969,1.969,0,0,0-1.5-1.31,4.136,4.136,0,0,0-.8.03l-0.064.22a1.06,1.06,0,0,1,.833.74c0,1.35-2.609,5.55-6.754,7.68l0.176,0.27A13.027,13.027,0,0,0,387.772,1923.11Zm-7.922.29c0.432,0.86.448,1.53,1.024,1.53a0.575,0.575,0,0,0,.593-0.64,2.371,2.371,0,0,0-1.137-1.74,4.854,4.854,0,0,0-1.152-.74l-0.192.18A5.738,5.738,0,0,1,379.85,1923.4Zm22.754-2.44a1.775,1.775,0,1,0-1.776-1.77A1.771,1.771,0,0,0,402.6,1920.96Zm0-2.99a1.215,1.215,0,1,1-1.216,1.22A1.214,1.214,0,0,1,402.6,1917.97Zm-7.377,3.78c0,1.12-2.913,4.29-5.1,5.79l0.224,0.32a18.356,18.356,0,0,0,5.937-4.75,1.963,1.963,0,0,0,.7-0.9,2.5,2.5,0,0,0-1.712-1.76,3.6,3.6,0,0,0-1.024-.03l-0.1.29A1.786,1.786,0,0,1,395.227,1921.75Zm8.961,4.27c-0.192-2.05-2.928-4.51-5.329-5.71l-0.224.3a12.337,12.337,0,0,1,3.969,5.44c0.24,0.69.384,1.07,0.864,1.06A0.865,0.865,0,0,0,404.188,1926.02Z" transform="translate(-190 -1853)"/>
</svg>
