<?xml version="1.0" encoding="utf-8"?>
<!-- Generator: Adobe Illustrator 25.2.3, SVG Export Plug-In . SVG Version: 6.00 Build 0)  -->
<svg version="1.1" id="レイヤー_1" xmlns="http://www.w3.org/2000/svg" xmlns:xlink="http://www.w3.org/1999/xlink" x="0px"
	 y="0px" viewBox="0 0 69 69" style="enable-background:new 0 0 69 69;" xml:space="preserve">
<style type="text/css">
	.st0{fill:#BEB387;}
	.st1{fill:#FFFFFF;}
</style>
<g id="グループ_1440" transform="translate(-6774 -2729)">
	<circle id="楕円形_227" class="st0" cx="6808.5" cy="2763.5" r="34.5"/>
</g>
<g id="グループ_1454" transform="translate(-1113.163 -1426.762)">
	<path id="パス_782" class="st1" d="M1168.42,1456.31h-15.68c-0.35,0.7-0.9,1.28-1.58,1.67c-2.34,1.26-5.15,1.26-7.49,0
		c-1.58-0.71-2.29-2.56-1.58-4.14c0.31-0.7,0.88-1.27,1.58-1.58c2.34-1.26,5.15-1.26,7.49,0c0.73,0.41,1.31,1.05,1.65,1.82h17.41
		l-22.48-11.88l-24.3,13.12l23.66,12.52L1168.42,1456.31z"/>
	<path id="パス_783" class="st1" d="M1147.41,1453.55c-0.9-0.02-1.8,0.19-2.59,0.63c-0.62,0.38-0.78,0.74-0.78,0.95
		c-0.01,0.2,0.16,0.57,0.78,0.94c1.63,0.84,3.56,0.84,5.19,0c0.62-0.38,0.78-0.74,0.77-0.94c0.01-0.2-0.15-0.57-0.77-0.95
		C1149.21,1453.74,1148.32,1453.53,1147.41,1453.55z"/>
	<path id="パス_784" class="st1" d="M1147.1,1470.36l-14.65-7.75v12.38h29.93v-12.88l-14.75,7.96L1147.1,1470.36z"/>
	<path id="パス_785" class="st1" d="M1171.89,1467.89c-0.01-0.89-0.59-1.68-1.44-1.94v-9.65h-1.2v9.65
		c-1.08,0.33-1.68,1.46-1.36,2.54c0.17,0.55,0.57,1.01,1.09,1.26l-0.84,7.81c0.01,0.04,0.07,0.15,0.31,0.31
		c0.88,0.47,1.93,0.47,2.81,0c0.23-0.15,0.29-0.26,0.31-0.31l-0.85-7.81C1171.43,1469.4,1171.89,1468.68,1171.89,1467.89z"/>
</g>
</svg>
