<svg id="icon_02_01.svg" xmlns="http://www.w3.org/2000/svg" width="70" height="70" viewBox="0 0 70 70">
  <defs>
    <style>
      .cls-1 {
        fill: #72c9f3;
      }

      .cls-2 {
        fill: #fff;
        fill-rule: evenodd;
      }
    </style>
  </defs>
  <circle id="楕円形_1_のコピー_2" data-name="楕円形 1 のコピー 2" class="cls-1" cx="35" cy="35" r="35"/>
  <path id="シェイプ_3" data-name="シェイプ 3" class="cls-2" d="M259,5258h24.133v-32H259v32Zm4.695-6.49h4.457v1.89H263.7v-1.89Zm-0.182-18.52v-1.89h7.554v1.89h-7.554Zm0.182,16.51v-1.89h14.743v1.89H263.7Zm0-3.91v-1.89h14.743v1.89H263.7Zm0-3.91v-1.88h14.743v1.88H263.7Zm0-3.9v-1.89h14.743v1.89H263.7Zm22.792-5H291v17.12h-4.513v-17.12Zm2.256,23.72,1.88-4.71h-3.759ZM291,5230.19a2.257,2.257,0,1,0-4.513,0v0.7H291v-0.7Z" transform="translate(-240 -5207)"/>
</svg>
