<svg id="icon_03_02.svg" xmlns="http://www.w3.org/2000/svg" width="70" height="70" viewBox="0 0 70 70">
  <defs>
    <style>
      .cls-1 {
        fill: #6aa0db;
      }

      .cls-2 {
        fill: #fff;
        fill-rule: evenodd;
      }
    </style>
  </defs>
  <circle id="楕円形_1_のコピー_4" data-name="楕円形 1 のコピー 4" class="cls-1" cx="35" cy="35" r="35"/>
  <path id="シェイプ_8" data-name="シェイプ 8" class="cls-2" d="M783.69,7462.2a1.312,1.312,0,0,0-.008-1.91c-0.929-.93-1.871-1.85-2.8-2.79a2.513,2.513,0,0,1-.79-2.08,2.018,2.018,0,0,1,3.117-1.47,7.8,7.8,0,0,1,1.444,1.12c0.53,0.48,1,1.02,1.515,1.52a4.477,4.477,0,0,0,1.716,1.07,6.017,6.017,0,0,1,4.254,5.61c0.179,2.86.068,5.73,0.082,8.59a0.556,0.556,0,0,1-.041.14h-8.222c0-.69.018-1.36,0-2.02a7.569,7.569,0,0,0-.167-2.04,4.259,4.259,0,0,0-1.048-1.6c-1.478-1.51-3.007-2.97-4.531-4.44a3.756,3.756,0,0,1-1.212-2.87c0.02-4.71.008-9.42,0.009-14.14a1.363,1.363,0,0,1,1.651-1.49,2.062,2.062,0,0,1,1.228.89,6.816,6.816,0,0,1,1.1,3.36,21.114,21.114,0,0,0,.679,4.44,1.184,1.184,0,0,1,.025.21,3.3,3.3,0,0,0-2.212,1.19,3.39,3.39,0,0,0-.263,4.03,7.022,7.022,0,0,0,.956,1.21c1.051,1.07,2.132,2.12,3.2,3.17C783.471,7462,783.569,7462.08,783.69,7462.2Zm24.583-9.91c0.1-.41.172-0.79,0.295-1.15a16.4,16.4,0,0,0,.408-3.29,7.641,7.641,0,0,1,1.131-3.55,2.081,2.081,0,0,1,1.109-.86,1.344,1.344,0,0,1,1.766,1.17c0.013,0.14.009,0.29,0.009,0.43,0,4.66-.012,9.32.009,13.98a3.8,3.8,0,0,1-1.232,2.9c-1.5,1.44-2.966,2.9-4.464,4.34a3.87,3.87,0,0,0-1.288,3.15c0.045,0.85.009,1.71,0.009,2.59H797.8a1.524,1.524,0,0,1-.03-0.2c0.006-2.68-.016-5.37.033-8.05a6.548,6.548,0,0,1,1.757-4.47,5.525,5.525,0,0,1,2.316-1.52,6.325,6.325,0,0,0,2.489-1.68,25.573,25.573,0,0,1,1.866-1.79,2.4,2.4,0,0,1,2.205-.58,1.978,1.978,0,0,1,1.315,2.74,3.7,3.7,0,0,1-.752,1.15c-0.878.93-1.8,1.81-2.7,2.71a1.294,1.294,0,0,0-.022,1.85,0.091,0.091,0,0,0,.074-0.01c1.345-1.34,2.736-2.64,4.013-4.04a3.415,3.415,0,0,0,.8-3.44,3.259,3.259,0,0,0-2.6-2.32C808.486,7452.33,808.408,7452.32,808.273,7452.29Zm-13.287,6.06c-0.073-.07-0.133-0.12-0.189-0.18-2.547-2.51-5.1-5.01-7.638-7.53a5.015,5.015,0,0,1-.2-7.05,5.315,5.315,0,0,1,7.4-.18,7.371,7.371,0,0,1,.554.67c0.318-.29.542-0.49,0.762-0.7a5.34,5.34,0,0,1,7.029-.12,5,5,0,0,1,.165,7.35c-2.582,2.57-5.186,5.12-7.781,7.67A0.91,0.91,0,0,1,794.986,7458.35Z" transform="translate(-760 -7421)"/>
</svg>
