<svg id="icon_03_01.svg" xmlns="http://www.w3.org/2000/svg" width="70" height="70" viewBox="0 0 70 70">
  <defs>
    <style>
      .cls-1 {
        fill: #6aa0db;
      }

      .cls-2 {
        fill: #fff;
        fill-rule: evenodd;
      }
    </style>
  </defs>
  <circle id="楕円形_1_のコピー_4" data-name="楕円形 1 のコピー 4" class="cls-1" cx="35" cy="35" r="35"/>
  <path id="シェイプ_9" data-name="シェイプ 9" class="cls-2" d="M276.359,7447.08c0.85-.85,1.722-1.72,2.586-2.59,0.621,0.61,1.258,1.25,1.908,1.88a0.927,0.927,0,0,0,1.52-.16,0.909,0.909,0,0,0-.2-1.16c-0.635-.65-1.281-1.28-1.906-1.9,0.452-.45.887-0.88,1.377-1.37,1.027,1.05,2.069,2.13,3.128,3.19a1.536,1.536,0,0,0,.625.37,0.876,0.876,0,0,0,.955-0.47,0.934,0.934,0,0,0-.192-1.14c-0.975-.98-1.956-1.95-2.937-2.92-0.109-.11-0.232-0.2-0.359-0.31a4.024,4.024,0,0,1,1.937-1.4,2.53,2.53,0,0,1,2.44.53c1.069,1,2.105,2.03,3.1,3.11a2.708,2.708,0,0,1-.007,3.48c-0.107.13-.219,0.25-0.337,0.37q-3.416,3.42-6.833,6.85c-0.083.08-.17,0.16-0.232,0.22Q279.622,7450.345,276.359,7447.08Zm-14.633,14.6c0.437-.44.86-0.87,1.281-1.31,0.519,0.51,1.043,1.02,1.566,1.53,0.154,0.15.3,0.31,0.458,0.45a0.96,0.96,0,0,0,1.3-.02,0.883,0.883,0,0,0,.028-1.28c-0.481-.53-1-1.03-1.5-1.53-0.16-.16-0.33-0.31-0.48-0.45,0.9-.89,1.777-1.75,2.622-2.59,2.149,2.15,4.347,4.35,6.561,6.57-0.032.03-.1,0.11-0.173,0.19q-3.408,3.405-6.819,6.8a2.756,2.756,0,0,1-3.51.56,3.335,3.335,0,0,1-.72-0.57c-0.8-.79-1.585-1.58-2.374-2.37a2.827,2.827,0,0,1-.064-4.19c0.146-.16.276-0.33,0.452-0.54,0.5,0.51.93,0.96,1.372,1.41,0.646,0.65,1.293,1.3,1.949,1.94a0.906,0.906,0,0,0,1.333.02,0.94,0.94,0,0,0-.026-1.35c-0.994-1-2-2-3-3C261.887,7461.86,261.8,7461.76,261.726,7461.68Zm2-11.24c0.891-.89,1.762-1.76,2.7-2.71q8.445,8.58,16.9,17.16c-0.773.77-1.645,1.64-2.552,2.54C275.123,7461.8,269.406,7456.1,263.724,7450.44Zm23.6,10.49c-0.8.79-1.667,1.66-2.6,2.6q-8.445-8.565-16.9-17.15c0.786-.78,1.665-1.66,2.609-2.6C276.038,7449.47,281.7,7455.21,287.327,7460.93Zm-18.641-18.27q-3.043,3.045-6.1,6.11c-0.028-.06-0.072-0.15-0.11-0.24q-1.666-4.02-3.331-8.04a0.95,0.95,0,0,1,.565-1.45,1.219,1.219,0,0,1,.655.06c2.769,1.17,5.53,2.36,8.293,3.54A0.034,0.034,0,0,1,268.686,7442.66Zm13.559,26.12c2.166-2.14,4.377-4.33,6.589-6.53,0.413,0.41.892,0.84,1.317,1.32a2.822,2.822,0,0,1-.116,4.07c-0.827.83-1.661,1.67-2.506,2.48a2.752,2.752,0,0,1-3.913.12C283.12,7469.8,282.7,7469.27,282.245,7468.78Z" transform="translate(-240 -7421)"/>
</svg>
