<svg id="icon_02_02.svg" xmlns="http://www.w3.org/2000/svg" width="70" height="70" viewBox="0 0 70 70">
  <defs>
    <style>
      .cls-1 {
        fill: #72c9f3;
      }

      .cls-2 {
        fill: #fff;
        fill-rule: evenodd;
      }
    </style>
  </defs>
  <circle id="楕円形_1_のコピー" data-name="楕円形 1 のコピー" class="cls-1" cx="35" cy="35" r="35"/>
  <path id="シェイプ_5" data-name="シェイプ 5" class="cls-2" d="M793.409,5243.22c4.06-3.93,8.04-7.79,12.048-11.68-0.49-.47-1-0.95-1.508-1.45a1.059,1.059,0,0,1-.42-0.9,0.973,0.973,0,0,1,.954-0.89q2.025-.12,4.054-0.21c0.72-.04,1.44-0.08,2.161-0.09a1.073,1.073,0,0,1,1.3,1.26c-0.086,1.92-.192,3.83-0.3,5.74a1.124,1.124,0,0,1-.752,1.05,1.006,1.006,0,0,1-1.186-.33c-0.485-.5-0.973-1-1.576-1.61a2.693,2.693,0,0,1-.291.45q-6.476,6.285-12.96,12.57a1.846,1.846,0,0,1-2.926,0q-2.4-2.34-4.8-4.66c-0.1-.1-0.18-0.21-0.295-0.34-0.139.12-.241,0.21-0.335,0.3q-2.644,2.565-5.289,5.12a1.733,1.733,0,0,1-2.306.19,1.8,1.8,0,0,1-.748-2.46,2.053,2.053,0,0,1,.355-0.43q3.472-3.375,6.951-6.74a1.782,1.782,0,0,1,2.7.02c1.638,1.59,3.275,3.17,4.909,4.76A4.136,4.136,0,0,1,793.409,5243.22Zm14.821-6.15a0.763,0.763,0,0,1,.432.79q-0.015,8.58-.007,17.17c0,0.8-.169.96-1,0.96-1.214,0-2.428.01-3.642,0a0.709,0.709,0,0,1-.875-0.83q0-6.45.006-12.91a0.7,0.7,0,0,1,.171-0.45q2.364-2.31,4.75-4.6A2.042,2.042,0,0,1,808.23,5237.07Zm-7.218,6.98v11.08c0,0.71-.155.86-0.889,0.86-1.251,0-2.5.01-3.754,0a0.684,0.684,0,0,1-.837-0.82c0-1.87,0-3.75-.006-5.62a0.5,0.5,0,0,1,.253-0.49,2.516,2.516,0,0,0,.451-0.39q2.211-2.145,4.418-4.29C800.743,5244.29,800.844,5244.2,801.012,5244.05Zm-13.057,1.89c0.943,0.92,1.83,1.76,2.684,2.63a3.927,3.927,0,0,0,2.587,1.24c0.048,0.01.1,0.03,0.161,0.04,0.007,0.12.019,0.22,0.019,0.33q0,2.505,0,5.01c0,0.62-.183.8-0.836,0.8q-1.954.015-3.909,0a0.611,0.611,0,0,1-.733-0.68q-0.006-4.545,0-9.09C787.927,5246.16,787.938,5246.1,787.955,5245.94Zm-7.649,4.11a4.351,4.351,0,0,0,2.9-1.53c0.818-.83,1.671-1.63,2.553-2.49a2.623,2.623,0,0,1,.04.29c0,2.95,0,5.91,0,8.86a0.687,0.687,0,0,1-.846.81q-1.935.015-3.868,0a0.673,0.673,0,0,1-.8-0.75c-0.006-1.66,0-3.33,0-5C780.285,5250.19,780.3,5250.15,780.306,5250.05Z" transform="translate(-760 -5207)"/>
</svg>
