<svg id="icon_03_04.svg" xmlns="http://www.w3.org/2000/svg" width="70" height="70" viewBox="0 0 70 70">
  <defs>
    <style>
      .cls-1 {
        fill: #6aa0db;
      }

      .cls-2 {
        fill: #fff;
        fill-rule: evenodd;
      }
    </style>
  </defs>
  <circle id="楕円形_1_のコピー_10" data-name="楕円形 1 のコピー 10" class="cls-1" cx="35" cy="35" r="35"/>
  <path id="シェイプ_6" data-name="シェイプ 6" class="cls-2" d="M785.936,7765.03a33.288,33.288,0,0,0-.777,5.12v0.02a2.8,2.8,0,0,0-1.933,1.83H778a16.869,16.869,0,0,1,2.059-6.97h5.877Zm0,15.94h-5.877A16.869,16.869,0,0,1,778,7774h5.226a2.8,2.8,0,0,0,1.933,1.83v0.02A33.288,33.288,0,0,0,785.936,7780.97ZM794,7766.84V7772h-5.16a2.938,2.938,0,0,0-1.693-1.77,29.963,29.963,0,0,1,.856-5.2h4.184a2.892,2.892,0,0,0,1.813,1.81h0Zm0-10.84v5.23a2.916,2.916,0,0,0-1.813,1.81h-3.566c1.275-3.65,3.207-6.44,5.379-7.04m0,34v-7.04h-5.389C789.89,7786.6,791.823,7789.39,794,7790ZM796,7756c2.172,0.6,4.1,3.39,5.379,7.04h-3.566a2.916,2.916,0,0,0-1.813-1.81V7756m6.853,14.23a2.938,2.938,0,0,0-1.693,1.77H796v-5.16a2.892,2.892,0,0,0,1.813-1.81h4.184a29.963,29.963,0,0,1,.856,5.2h0ZM794,7774v6.97h-6a29.8,29.8,0,0,1-.856-5.2,2.938,2.938,0,0,0,1.693-1.77H794Zm6.314-17.29a19.2,19.2,0,0,1,3.183,6.33h5.163a17.4,17.4,0,0,0-8.346-6.33M786.5,7782.96h-5.163a17.464,17.464,0,0,0,8.346,6.33A19.3,19.3,0,0,1,786.5,7782.96Zm3.183-26.25a17.4,17.4,0,0,0-8.346,6.33H786.5a19.2,19.2,0,0,1,3.183-6.33m13.819,26.25a19.3,19.3,0,0,1-3.183,6.33,17.464,17.464,0,0,0,8.346-6.33H803.5Zm-0.652-7.19a29.8,29.8,0,0,1-.856,5.2h-6V7774h5.16a2.938,2.938,0,0,0,1.693,1.77h0ZM812,7772h-5.226a2.8,2.8,0,0,0-1.933-1.83v-0.02a33.288,33.288,0,0,0-.777-5.12h5.877A16.869,16.869,0,0,1,812,7772Zm-16,10.96V7790c2.181-.61,4.113-3.4,5.389-7.04H796Zm16-8.96a16.869,16.869,0,0,1-2.059,6.97h-5.877a33.288,33.288,0,0,0,.777-5.12v-0.02a2.8,2.8,0,0,0,1.933-1.83H812Zm-25.965-2a1,1,0,1,1-1,1A1,1,0,0,1,786.035,7772Zm17.93,0a1,1,0,1,1-1,1A1,1,0,0,1,803.965,7772ZM795,7763.04a1,1,0,1,1-1,1A1,1,0,0,1,795,7763.04Z" transform="translate(-760 -7738)"/>
</svg>
