<svg id="icon_02_04.svg" xmlns="http://www.w3.org/2000/svg" width="70" height="70" viewBox="0 0 70 70">
  <defs>
    <style>
      .cls-1 {
        fill: #72c9f3;
      }

      .cls-2 {
        fill: #fff;
        fill-rule: evenodd;
      }
    </style>
  </defs>
  <circle id="楕円形_1_のコピー_3" data-name="楕円形 1 のコピー 3" class="cls-1" cx="35" cy="35" r="35"/>
  <path id="シェイプ_10" data-name="シェイプ 10" class="cls-2" d="M804.052,5600.26c-1.2-.9-2.375-1.74-3.508-2.64a2.778,2.778,0,0,0-1.86-.6c-3.52.02-7.041,0.01-10.562,0.01-1.422,0-1.978-.55-1.98-1.96,0-2.09-.005-4.17,0-6.26a1.559,1.559,0,0,1,1.8-1.81q7.261,0,14.523.01a1.449,1.449,0,0,1,1.687,1.57c0.018,3.82,0,7.64,0,11.45A0.791,0.791,0,0,1,804.052,5600.26Zm-14.216-7.15h10.617v-2.27H789.836v2.27ZM813,5619.94c-0.387.02-.639,0.04-0.891,0.04-4.322.01-8.644-.01-12.965,0.02-0.677,0-.931-0.17-0.875-0.86a20.248,20.248,0,0,1,.234-2.69,6.811,6.811,0,0,1,2.968-4.37,0.8,0.8,0,0,1,.972-0.05,6.51,6.51,0,0,0,6.317.01,0.84,0.84,0,0,1,1.04.07,6.806,6.806,0,0,1,2.975,4.62A25.216,25.216,0,0,1,813,5619.94Zm-35-.09c0.116-1.52.142-2.07,0.377-3.58a6.174,6.174,0,0,1,1.928-3.38c0.757-.75,1.405-1.23,2.641-0.59a5.9,5.9,0,0,0,5.6-.24,0.908,0.908,0,0,1,1.105.06,7.159,7.159,0,0,1,3.085,5.55c0.055,0.9.006,0.81,0.028,1.71a0.484,0.484,0,0,1-.562.61q-6.832-.015-13.666-0.01A3.441,3.441,0,0,1,778,5619.85Zm27.732-17.09a3.935,3.935,0,1,1-.049,7.87A3.935,3.935,0,0,1,805.732,5602.76Zm-16.241,3.97a3.936,3.936,0,1,1-3.913-3.97A3.957,3.957,0,0,1,789.491,5606.73Z" transform="translate(-760 -5569)"/>
</svg>
