<svg id="icon_01_03.svg" xmlns="http://www.w3.org/2000/svg" width="70" height="70" viewBox="0 0 70 70">
  <defs>
    <style>
      .cls-1 {
        fill: #bcaf7b;
      }

      .cls-2 {
        fill: #fff;
        fill-rule: evenodd;
      }
    </style>
  </defs>
  <circle id="楕円形_1_のコピー_7" data-name="楕円形 1 のコピー 7" class="cls-1" cx="35" cy="35" r="35"/>
  <path id="シェイプ_2" data-name="シェイプ 2" class="cls-2" d="M778.076,3590.24c0.247-.69.451-1.39,0.753-2.04a1.6,1.6,0,0,0-.147-1.92,3.37,3.37,0,0,1-.548-1.24,1.216,1.216,0,0,1,.913-1.62,3,3,0,0,1,1.962.03,1.162,1.162,0,0,1,.848,1.52,11.753,11.753,0,0,1-.907,1.86,0.628,0.628,0,0,0-.075.59c0.328,0.86.634,1.73,0.949,2.59,0.028,0.08.066,0.15,0.136,0.3,1.011-3.07,2-6.07,3-9.11,0.228,0.14.431,0.26,0.635,0.38a20.221,20.221,0,0,0,5.44,2.31,3.6,3.6,0,0,1,2.89,3.38,15.784,15.784,0,0,1-.24,4.37,0.694,0.694,0,0,1-.358.36,24.523,24.523,0,0,1-5.833,2.14,32.712,32.712,0,0,1-11.585.61,27.964,27.964,0,0,1-9.062-2.64,0.9,0.9,0,0,1-.608-0.83c-0.054-1.12-.222-2.25-0.234-3.38a4.422,4.422,0,0,1,.77-2.64,3,3,0,0,1,1.687-1.21,22.908,22.908,0,0,0,5.928-2.47c0.188-.12.375-0.23,0.563-0.34a0.088,0.088,0,0,1,.062-0.01q1.491,4.5,2.986,9.01h0.079Zm8.5-18.2a0.785,0.785,0,0,1,.8.93,6.388,6.388,0,0,1-.978,3.25,0.175,0.175,0,0,1-.064.08,1.6,1.6,0,0,0-.668,1.15,7.027,7.027,0,0,1-3.081,3.8,5.1,5.1,0,0,1-5.953-.49,6.847,6.847,0,0,1-2.5-3.94,0.362,0.362,0,0,0-.119-0.24,1.581,1.581,0,0,1-.779-1.01c-0.243-.7-0.43-1.43-0.628-2.15a1.516,1.516,0,0,1-.021-0.43,0.808,0.808,0,0,1,.763-0.94c-0.1-.88-0.27-1.74-0.29-2.61a5.129,5.129,0,0,1,1.247-3.37,7.587,7.587,0,0,1,4.214-2.87,5.869,5.869,0,0,1,6.234,1.96,0.541,0.541,0,0,0,.256.17,2.422,2.422,0,0,1,1.64,1.67,7.327,7.327,0,0,1,.2,3.53C786.777,3571.03,786.667,3571.53,786.573,3572.04Z" transform="translate(-745 -3544)"/>
</svg>
