<svg id="icon_02_03.svg" xmlns="http://www.w3.org/2000/svg" width="70" height="70" viewBox="0 0 70 70">
  <defs>
    <style>
      .cls-1 {
        fill: #72c9f3;
      }

      .cls-2 {
        fill: #fff;
        fill-rule: evenodd;
      }
    </style>
  </defs>
  <circle id="楕円形_1_のコピー_3" data-name="楕円形 1 のコピー 3" class="cls-1" cx="35" cy="35" r="35"/>
  <path id="シェイプ_4" data-name="シェイプ 4" class="cls-2" d="M275.7,5602.04a3.089,3.089,0,0,0-.862-0.12,3.235,3.235,0,1,0,3.238,3.23,3.194,3.194,0,0,0-.118-0.86l9.021-9.01,1.459,0.19,4.566-4.56-3.454-.46-0.459-3.45-4.565,4.56,0.194,1.46Zm-0.515-3.1,2.669-2.67a9.378,9.378,0,1,0,5.872,5.86l-2.668,2.67A6.234,6.234,0,1,1,275.181,5598.94Zm10.842,0.9a12.388,12.388,0,1,1-5.873-5.87l2.551-2.55a15.828,15.828,0,1,0,5.865,5.87Z" transform="translate(-240 -5569)"/>
</svg>
