<svg id="icon_03_03.svg" xmlns="http://www.w3.org/2000/svg" width="70" height="70" viewBox="0 0 70 70">
  <defs>
    <style>
      .cls-1 {
        fill: #6aa0db;
      }

      .cls-2 {
        fill: #fff;
        fill-rule: evenodd;
      }
    </style>
  </defs>
  <circle id="楕円形_1_のコピー_4" data-name="楕円形 1 のコピー 4" class="cls-1" cx="35" cy="35" r="35"/>
  <path id="シェイプ_7" data-name="シェイプ 7" class="cls-2" d="M276.1,7790a3.024,3.024,0,0,1-.052-0.41q0-8.055,0-16.12v-0.42h15.668a1.079,1.079,0,0,1,1.281,1.26q0,7.17,0,14.32a1.146,1.146,0,0,1-.939,1.37H276.1Zm8.69-3.27a4.994,4.994,0,0,0,3.385-1.5,1.025,1.025,0,0,0,.234-1.26,0.985,0.985,0,0,0-1.081-.54,1.918,1.918,0,0,0-.715.4,3.089,3.089,0,0,1-3.432.51,2.986,2.986,0,0,1-1.847-2.93,2.956,2.956,0,0,1,1.887-2.82,3.038,3.038,0,0,1,3.448.59,1.072,1.072,0,0,0,1.569.03,1.05,1.05,0,0,0-.153-1.58,5.084,5.084,0,0,0-4.343-1.36,5.248,5.248,0,0,0-4.5,5.72A5.342,5.342,0,0,0,284.794,7786.73ZM257,7773.83a1.255,1.255,0,0,1,1.335-.79q7.568,0.015,15.136.01h0.484V7790H257.921a1.479,1.479,0,0,1-.921-0.77v-15.4Zm11.915,7.64,0.115-.15a3.151,3.151,0,0,0-2.514-5.11q-2.052-.015-4.105,0a1.036,1.036,0,0,0-1.115,1.09q-0.007,4.17,0,8.32a1.023,1.023,0,0,0,1.058,1.11c1.471,0.01,2.942.03,4.411-.02a3.066,3.066,0,0,0,2.821-2.22A3.143,3.143,0,0,0,268.915,7781.47Zm15.559-10.56H265.51v-0.41q0-7.6,0-15.21a1.107,1.107,0,0,1,1.31-1.29H283.2a1.1,1.1,0,0,1,1.3,1.27q0,7.635,0,15.28C284.5,7770.66,284.482,7770.78,284.474,7770.91Zm-4.211-4.37a2.2,2.2,0,0,0-.144-0.43q-2.057-4.125-4.122-8.25a1.085,1.085,0,0,0-.988-0.67,1.071,1.071,0,0,0-.994.66q-2.074,4.14-4.141,8.28a1.048,1.048,0,1,0,1.869.94c0.214-.4.395-0.83,0.628-1.22a0.57,0.57,0,0,1,.4-0.25c1.483-.01,2.965,0,4.447-0.01a0.415,0.415,0,0,1,.438.27c0.2,0.44.419,0.88,0.655,1.3a1.027,1.027,0,0,0,1.173.51A1.076,1.076,0,0,0,280.263,7766.54ZM263.4,7780.42v-2.05a0.482,0.482,0,0,1,.142-0.06c1.009,0,2.018-.02,3.026,0a1.03,1.03,0,0,1,1.04,1.09,1.04,1.04,0,0,1-1.075,1.02C265.505,7780.43,264.473,7780.42,263.4,7780.42Zm0,4.22v-2.06a0.449,0.449,0,0,1,.142-0.05c1.009-.01,2.018-0.02,3.027,0a1.05,1.05,0,1,1-.036,2.1C265.505,7784.64,264.472,7784.64,263.4,7784.64Zm11.6-24.07c0.492,0.99.957,1.91,1.444,2.89h-2.884Z" transform="translate(-240 -7738)"/>
</svg>
