<?xml version="1.0" encoding="utf-8"?>
<!-- Generator: Adobe Illustrator 25.2.3, SVG Export Plug-In . SVG Version: 6.00 Build 0)  -->
<svg version="1.1" id="レイヤー_1" xmlns="http://www.w3.org/2000/svg" xmlns:xlink="http://www.w3.org/1999/xlink" x="0px"
	 y="0px" viewBox="0 0 69 69" style="enable-background:new 0 0 69 69;" xml:space="preserve">
<style type="text/css">
	.st0{fill:#BEB387;}
	.st1{fill:#FFFFFF;}
</style>
<g id="グループ_1440" transform="translate(-6774 -2729)">
	<circle id="楕円形_227" class="st0" cx="6808.5" cy="2763.5" r="34.5"/>
</g>
<path id="パス_786" class="st1" d="M45.36,19.62l-4.82,2.78l-4.81-2.78l4.81-2.78L45.36,19.62z M39.31,23.1l-4.81,2.78l-4.81-2.78
	l4.81-2.78l2.03,1.17L39.31,23.1z M34.5,13.35l4.81,2.79l-1.78,1.03l-3.03,1.75l-4.81-2.78L34.5,13.35z M28.46,16.84l2.64,1.52
	l2.18,1.26l-4.81,2.78l-4.82-2.78L28.46,16.84z M21.82,48.68L17,45.9v-6.3l4.82,2.78V48.68z M21.82,40.96L17,38.18v-6.3l4.82,2.79
	V40.96z M21.82,33.25L17,30.47v-6.31l4.82,2.79V33.25z M17.61,23.1l4.82-2.78l3.8,2.19l1.01,0.59l-4.81,2.78L17.61,23.1z
	 M27.85,52.16l-4.81-2.78v-6.3l0.74,0.43l4.08,2.35V52.16z M27.85,44.44l-4.81-2.78v-6.31l4.81,2.78V44.44z M27.85,36.73l-0.74-0.42
	l-4.08-2.36v-6.3l4.81,2.78V36.73z M27.07,28.57l-3.43-1.98l4.82-2.78l4.81,2.78l-2.18,1.26l-2.64,1.53L27.07,28.57z M33.89,55.65
	l-4.81-2.78v-6.31l4.81,2.78V55.65z M33.89,47.93l-4.81-2.78v-6.3l4.81,2.79V47.93z M33.89,40.22l-4.81-2.77v-6.31l4.81,2.78V40.22z
	 M34.5,32.86l-4.81-2.78l4.81-2.78l4.81,2.78l-2.78,1.61L34.5,32.86z M39.92,52.87l-4.82,2.78v-6.31l4.82-2.78V52.87z M39.92,45.15
	l-3.42,1.98l-1.4,0.8v-6.3l2.22-1.29l2.6-1.5L39.92,45.15z M39.92,37.44l-1.46,0.84l-3.36,1.94v-6.3l2.22-1.28l2.6-1.5L39.92,37.44z
	 M40.53,29.37l-4.81-2.78l4.81-2.78l4.82,2.78l-3.41,1.96L40.53,29.37z M45.96,49.38l-4.82,2.78v-6.31l3.25-1.87l1.57-0.91
	L45.96,49.38z M45.96,41.67l-4.82,2.78v-6.3l4-2.31l0.82-0.47L45.96,41.67z M45.96,33.95l-3.74,2.16l-1.08,0.62v-6.3l4.82-2.78
	V33.95z M46.57,25.88l-4.82-2.78l4.82-2.78l4.82,2.78L46.57,25.88z M52,45.9l-4.81,2.78v-6.31L52,39.59V45.9z M52,38.18l-4.81,2.78
	v-6.3l1.47-0.85L52,31.87V38.18z M52,30.47l-4.81,2.78v-6.3L52,24.16V30.47z"/>
</svg>
