<svg id="icon_01_01.svg" xmlns="http://www.w3.org/2000/svg" width="70" height="70" viewBox="0 0 70 70">
  <defs>
    <style>
      .cls-1 {
        fill: #bcaf7b;
      }

      .cls-2 {
        fill: #fff;
        fill-rule: evenodd;
      }
    </style>
  </defs>
  <circle id="楕円形_1_のコピー_5" data-name="楕円形 1 のコピー 5" class="cls-1" cx="35" cy="35" r="35"/>
  <path id="シェイプ_1" data-name="シェイプ 1" class="cls-2" d="M289,2913.01V2916H262v-2.99h2.5c0.473,0,.473,0,0.473-0.47V2886H286v0.41q0,13.035,0,26.08c0,0.58-.064.51,0.523,0.51C287.326,2913.01,288.13,2913.01,289,2913.01Zm-13.512,0c0.9,0,1.807-.01,2.71,0,0.209,0,.3-0.05.3-0.28-0.012-.95,0-1.9-0.01-2.85a2.765,2.765,0,0,0-.548-1.59,2.955,2.955,0,0,0-3.306-1.15,3.024,3.024,0,0,0-2.145,2.88c-0.013.88,0.006,1.76-.009,2.65a0.272,0.272,0,0,0,.335.34C273.7,2912.99,274.6,2913.01,275.488,2913.01Zm-7.5-9.01c0.956,0,1.88,0,2.8-.02a0.342,0.342,0,0,0,.179-0.26c0.017-.59.009-1.19,0.009-1.78v-0.92h-2.991V2904Zm12-2.99c0,0.94,0,1.85,0,2.75,0,0.2.093,0.24,0.267,0.24,0.424-.01.848,0,1.271,0h1.448v-2.99h-2.983Zm0.014-9.06h2.963v-2.94H280v2.94Zm-12,3.06v2.95h2.957v-2.95H268Zm14.972,0.01h-2.961v2.94h2.961v-2.94ZM268,2891.95h2.963V2889H268v2.95Zm8.992,9.06h-3c0,0.95-.006,1.87.012,2.8a0.352,0.352,0,0,0,.266.18c0.658,0.02,1.317.01,1.976,0.01,0.749,0,.749,0,0.749-0.76v-2.23Zm-3-9.04c0.974,0,1.9.01,2.82-.01a0.273,0.273,0,0,0,.175-0.2q0.016-1.275-.006-2.55a0.315,0.315,0,0,0-.2-0.22q-1.288-.015-2.577,0a0.289,0.289,0,0,0-.206.21C273.98,2890.1,273.985,2891,273.985,2891.97Zm0,3.02c0,0.97,0,1.9.01,2.82a0.312,0.312,0,0,0,.218.17c0.849,0.01,1.7.01,2.546-.01a0.3,0.3,0,0,0,.215-0.2q0.021-1.29,0-2.58a0.268,0.268,0,0,0-.19-0.19C275.874,2894.99,274.96,2894.99,273.989,2894.99Z" transform="translate(-240 -2866)"/>
</svg>
