<?xml version="1.0" encoding="utf-8"?>
<!-- Generator: Adobe Illustrator 25.2.3, SVG Export Plug-In . SVG Version: 6.00 Build 0)  -->
<svg version="1.1" id="レイヤー_1" xmlns="http://www.w3.org/2000/svg" xmlns:xlink="http://www.w3.org/1999/xlink" x="0px"
	 y="0px" viewBox="0 0 69 69" style="enable-background:new 0 0 69 69;" xml:space="preserve">
<style type="text/css">
	.st0{fill:#7EC4E4;}
	.st1{fill:#FFFFFF;}
</style>
<g id="グループ_1440" transform="translate(-6774 -2729)">
	<circle id="楕円形_227" class="st0" cx="6808.5" cy="2763.5" r="34.5"/>
</g>
<g id="グループ_1447" transform="translate(-471.35 -1578.646)">
	<path id="パス_774" class="st1" d="M491.41,1600.65l-0.87,2.68h-2.81l2.27,1.65l-0.87,2.67l2.27-1.65l2.27,1.65l-0.87-2.67
		l2.27-1.65h-2.81L491.41,1600.65z"/>
	<path id="パス_775" class="st1" d="M491.41,1618.65l-0.87,2.67h-2.81l2.27,1.65l-0.87,2.68l2.27-1.65l2.27,1.65l-0.87-2.68
		l2.27-1.65h-2.81L491.41,1618.65z"/>
	<path id="パス_776" class="st1" d="M491.41,1609.65l-0.87,2.68h-2.81l2.27,1.65l-0.87,2.67l2.27-1.65l2.27,1.65l-0.87-2.67
		l2.27-1.65h-2.81L491.41,1609.65z"/>
	<path id="パス_777" class="st1" d="M492.28,1630.32l-0.87-2.67l-0.87,2.67h-2.82l2.27,1.65l-0.87,2.68l2.27-1.65l2.27,1.65
		l-0.87-2.68l2.27-1.65H492.28z"/>
	<path id="パス_778" class="st1" d="M491.41,1591.65l-0.87,2.67h-2.81l2.27,1.65l-0.87,2.68l2.27-1.65l2.27,1.65l-0.87-2.68
		l2.27-1.65h-2.81L491.41,1591.65z"/>
	<path id="パス_779" class="st1" d="M496.95,1592.1v41.95h15.91v-5.83h5.31v5.83h5.8v-41.95H496.95z M512.25,1596.72h6.52v6.53
		h-6.52V1596.72z M502.14,1596.72h6.53v6.53h-6.53V1596.72z M508.67,1623.94v0.84h-6.53v-6.53h6.53V1623.94z M508.67,1613.17v0.85
		h-6.53v-6.53h6.53V1613.17z M518.78,1623.94v0.84h-6.53v-6.53h6.53V1623.94z M518.78,1613.17v0.85h-6.53v-6.53h6.53V1613.17z"/>
</g>
</svg>
