<?xml version="1.0" encoding="utf-8"?>
<!-- Generator: Adobe Illustrator 25.0.0, SVG Export Plug-In . SVG Version: 6.00 Build 0)  -->
<svg version="1.1" id="icon_01_02.svg" xmlns="http://www.w3.org/2000/svg" xmlns:xlink="http://www.w3.org/1999/xlink" x="0px"
	 y="0px" viewBox="0 0 70 70" style="enable-background:new 0 0 70 70;" xml:space="preserve">
<style type="text/css">
	.st0{fill:#BCAF7B;}
	.st1{fill:#FFFFFF;}
</style>
<circle id="楕円形_1_のコピー_6" class="st0" cx="35" cy="35" r="35"/>
<path class="st1" d="M48.73,31.03c-0.31-0.4-0.71-0.72-1.16-0.95C46.79,23.79,41.43,18.98,35,18.98s-11.79,4.81-12.58,11.09
	c-0.45,0.23-0.84,0.55-1.16,0.95c-3.02,3.86-3.03,9.42,0,13.29c1.4,1.79,4.21,1.84,5.64-0.07c0.68-0.9,0.89-2.02,0.58-3.1
	c-0.6-2.11-0.6-4.84,0-6.96c0.03,0,0.53-1.63-0.58-3.1c-0.46-0.61-1.09-1.04-1.79-1.26c0.86-4.7,4.98-8.22,9.88-8.22
	s9.02,3.52,9.88,8.22c-1.78,0.55-2.92,2.45-2.37,4.36c0.07,0,0.97,3.55,0,6.96c-0.41,1.44,0.13,2.9,1.24,3.77
	c-0.3,0.35-0.64,0.66-1.03,0.92c-1.67,0.84-1.52,0.79-2.15,0.95c-0.58,0.15-1.13,0.22-1.58,0.26c0-0.78-0.61-1.34-1.32-1.34h-5.35
	c-0.73,0-1.32,0.59-1.32,1.32v2.67c0,0.73,0.59,1.32,1.32,1.32h5.35c0.7,0,1.32-0.56,1.32-1.33c3.03-0.17,5.86-1.43,7.5-4.06
	c0.88-0.14,1.7-0.61,2.25-1.31C51.75,40.46,51.76,34.9,48.73,31.03L48.73,31.03z"/>
</svg>
