<svg xmlns="http://www.w3.org/2000/svg" width="210" height="33.125" viewBox="0 0 210 33.125">
  <defs>
    <style>
      .cls-1 {
        fill: #1e1e1e;
        fill-rule: evenodd;
      }
    </style>
  </defs>
  <path id="header_text.svg" class="cls-1" d="M306.845,38.4a2.185,2.185,0,0,1-1.3-.494,8.623,8.623,0,0,1-1.522-1.594q-0.858-1.1-2.138-3.06a3.425,3.425,0,0,0,1.272-1.134,2.823,2.823,0,0,0,.476-1.6,1.807,1.807,0,0,0-.741-1.538,3.471,3.471,0,0,0-2.1-.55c-0.24,0-.455.005-0.648,0.016s-0.356.022-.491,0.033q-0.609.049-1.124,0.049-0.421,0-1.108-.032l-0.812-.016c-0.021,0-.031.032-0.031,0.1s0.01,0.1.031,0.1a2.444,2.444,0,0,1,.765.089,0.529,0.529,0,0,1,.336.316,2.179,2.179,0,0,1,.085.713v7.5a2.08,2.08,0,0,1-.093.72,0.525,0.525,0,0,1-.336.316,2.638,2.638,0,0,1-.772.081c-0.032,0-.047.032-0.047,0.1s0.015,0.1.047,0.1c0.343,0,.614-0.006.811-0.017l1.124-.016,1.155,0.016q0.281,0.016.8,0.017c0.02,0,.031-0.033.031-0.1s-0.011-.1-0.031-0.1a2.641,2.641,0,0,1-.773-0.081,0.5,0.5,0,0,1-.327-0.308,2.21,2.21,0,0,1-.086-0.728v-3.61q0.468,0.032.811,0.032,0.188,0,.531-0.032A42.064,42.064,0,0,0,303,37.3a3.079,3.079,0,0,0,1.335,1.3h2.512c0.031,0,.047-0.033.047-0.1s-0.016-.1-0.047-0.1h0Zm-7.553-5.165V29.815a1.125,1.125,0,0,1,.257-0.85,1.272,1.272,0,0,1,.866-0.236,1.518,1.518,0,0,1,1.241.519,2.932,2.932,0,0,1,.429,1.829,2.64,2.64,0,0,1-.437,1.692,1.785,1.785,0,0,1-1.451.527,5.375,5.375,0,0,1-.905-0.065h0Zm15.98,2.834a2.53,2.53,0,0,1-2.653,2.1h-0.764a0.925,0.925,0,0,1-.695-0.209,1.1,1.1,0,0,1-.2-0.745V33.539h1.483q1.748,0,1.748,1.392c0,0.022.031,0.032,0.093,0.032s0.094-.01.094-0.032c0-.216-0.011-0.5-0.031-0.842l-0.016-.761,0.016-1.409c0-.032-0.029-0.049-0.086-0.049s-0.086.016-.086,0.049q0,1.2-1.717,1.2h-1.5v-3.3A0.922,0.922,0,0,1,311.2,29.1a1.191,1.191,0,0,1,.8-0.21h0.624a2.035,2.035,0,0,1,2.17,1.846c0.01,0.033.044,0.044,0.1,0.033s0.086-.027.086-0.049l-0.031-2.1a0.134,0.134,0,0,0-.156-0.146H308.3c-0.031,0-.046.032-0.046,0.1s0.015,0.1.046,0.1a2.449,2.449,0,0,1,.765.089,0.529,0.529,0,0,1,.336.316,2.179,2.179,0,0,1,.085.713v7.5a2.252,2.252,0,0,1-.085.72,0.5,0.5,0,0,1-.328.316,2.645,2.645,0,0,1-.773.081c-0.031,0-.046.032-0.046,0.1s0.015,0.1.046,0.1h6.774a0.238,0.238,0,0,0,.187-0.057,0.294,0.294,0,0,0,.047-0.186,18.026,18.026,0,0,1,.156-2.251,0.07,0.07,0,0,0-.039-0.04,0.156,0.156,0,0,0-.086-0.025q-0.063,0-.063.033h0Zm8.428-7.772a6.459,6.459,0,0,0-2.965.673,5.222,5.222,0,0,0-2.092,1.87,4.947,4.947,0,0,0-.764,2.72,5.092,5.092,0,0,0,.733,2.728,4.944,4.944,0,0,0,2.044,1.846,6.58,6.58,0,0,0,2.981.656,7.517,7.517,0,0,0,2.981-.6,0.309,0.309,0,0,0,.219-0.356l0.2-1.943a0.077,0.077,0,0,0-.077-0.048c-0.053-.011-0.084,0-0.094.033a5.12,5.12,0,0,1-1.335,1.983,2.883,2.883,0,0,1-1.9.623,3.581,3.581,0,0,1-2.075-.631,4.274,4.274,0,0,1-1.452-1.772,6.1,6.1,0,0,1-.53-2.6,6.238,6.238,0,0,1,.5-2.583,3.883,3.883,0,0,1,1.4-1.7,3.624,3.624,0,0,1,2.037-.591,2.931,2.931,0,0,1,1.989.7,4.242,4.242,0,0,1,1.21,2.024,0.088,0.088,0,0,0,.109.049A0.076,0.076,0,0,0,326.9,31.3l-0.187-2.137a0.941,0.941,0,0,0-.063-0.251,0.379,0.379,0,0,0-.156-0.121,6.579,6.579,0,0,0-2.793-.5h0Zm15.918,10.1a2.188,2.188,0,0,1-1.3-.494,8.623,8.623,0,0,1-1.521-1.594q-0.859-1.1-2.139-3.06a3.425,3.425,0,0,0,1.272-1.134,2.816,2.816,0,0,0,.476-1.6,1.807,1.807,0,0,0-.741-1.538,3.471,3.471,0,0,0-2.1-.55c-0.24,0-.455.005-0.648,0.016s-0.356.022-.491,0.033q-0.609.049-1.124,0.049-0.421,0-1.108-.032l-0.812-.016c-0.02,0-.031.032-0.031,0.1s0.011,0.1.031,0.1a2.444,2.444,0,0,1,.765.089,0.529,0.529,0,0,1,.336.316,2.173,2.173,0,0,1,.086.713v7.5a2.075,2.075,0,0,1-.094.72,0.523,0.523,0,0,1-.336.316,2.633,2.633,0,0,1-.772.081c-0.031,0-.047.032-0.047,0.1s0.016,0.1.047,0.1c0.343,0,.614-0.006.811-0.017l1.124-.016,1.155,0.016c0.187,0.011.453,0.017,0.8,0.017,0.021,0,.031-0.033.031-0.1s-0.01-.1-0.031-0.1a2.645,2.645,0,0,1-.773-0.081,0.5,0.5,0,0,1-.327-0.308,2.21,2.21,0,0,1-.086-0.728v-3.61q0.468,0.032.811,0.032,0.188,0,.531-0.032a42.064,42.064,0,0,0,2.364,3.627,3.079,3.079,0,0,0,1.335,1.3h2.512c0.032,0,.047-0.033.047-0.1s-0.015-.1-0.047-0.1h0Zm-7.553-5.165V29.815a1.125,1.125,0,0,1,.257-0.85,1.274,1.274,0,0,1,.866-0.236,1.518,1.518,0,0,1,1.241.519,2.932,2.932,0,0,1,.429,1.829,2.64,2.64,0,0,1-.437,1.692,1.785,1.785,0,0,1-1.451.527,5.375,5.375,0,0,1-.905-0.065h0Zm17.26-2.785V35a3.516,3.516,0,0,1-.749,2.4,2.949,2.949,0,0,1-4.237-.1,4.487,4.487,0,0,1-.772-2.874V29.815a2.256,2.256,0,0,1,.085-0.721,0.548,0.548,0,0,1,.336-0.332,2.245,2.245,0,0,1,.765-0.1c0.031,0,.046-0.033.046-0.1s-0.015-.1-0.046-0.1l-0.781.016c-0.458.022-.842,0.032-1.155,0.032q-0.422,0-1.108-.032l-0.811-.016c-0.031,0-.047.032-0.047,0.1s0.016,0.1.047,0.1a2.374,2.374,0,0,1,.757.089,0.549,0.549,0,0,1,.335.316,1.985,1.985,0,0,1,.094.713V35a4.053,4.053,0,0,0,.491,2.032,3.307,3.307,0,0,0,1.382,1.327,4.341,4.341,0,0,0,2.028.462,4.149,4.149,0,0,0,2.006-.469,3.291,3.291,0,0,0,1.342-1.336,4.158,4.158,0,0,0,.476-2.032V30.447a2.226,2.226,0,0,1,.336-1.312,1.092,1.092,0,0,1,.944-0.469c0.02,0,.031-0.033.031-0.1s-0.011-.1-0.031-0.1l-0.687.016q-0.561.033-.843,0.032-0.344,0-.936-0.032l-0.718-.016c-0.021,0-.031.032-0.031,0.1s0.01,0.1.031,0.1a1.256,1.256,0,0,1,1.053.469,2.083,2.083,0,0,1,.367,1.312h0Zm6.367,6.832V29.815a2.25,2.25,0,0,1,.086-0.721,0.55,0.55,0,0,1,.328-0.332,2.177,2.177,0,0,1,.757-0.1c0.031,0,.047-0.033.047-0.1s-0.016-.1-0.047-0.1l-0.78.016q-0.687.033-1.171,0.032-0.436,0-1.124-.032l-0.811-.016c-0.031,0-.047.032-0.047,0.1s0.016,0.1.047,0.1a2.431,2.431,0,0,1,.772.089,0.549,0.549,0,0,1,.336.316,2.008,2.008,0,0,1,.094.713v7.5a2.075,2.075,0,0,1-.094.72,0.521,0.521,0,0,1-.336.316,2.633,2.633,0,0,1-.772.081c-0.031,0-.047.032-0.047,0.1s0.016,0.1.047,0.1c0.343,0,.614-0.006.811-0.017l1.124-.016,1.155,0.016c0.2,0.011.463,0.017,0.8,0.017,0.031,0,.047-0.033.047-0.1s-0.016-.1-0.047-0.1a2.645,2.645,0,0,1-.773-0.081,0.476,0.476,0,0,1-.32-0.308,2.444,2.444,0,0,1-.078-0.728h0Zm6.118-8.468a1.8,1.8,0,0,1,.624.081,0.482,0.482,0,0,1,.281.275,1.776,1.776,0,0,1,.078.616v7.5a1.934,1.934,0,0,1-.1.72,0.56,0.56,0,0,1-.39.316,3.6,3.6,0,0,1-.9.081c-0.021,0-.031.032-0.031,0.1s0.01,0.1.031,0.1q0.577,0,.905-0.017l1.218-.016,1.279,0.016q0.312,0.016.859,0.017c0.031,0,.047-0.033.047-0.1s-0.016-.1-0.047-0.1a3.5,3.5,0,0,1-.89-0.081,0.532,0.532,0,0,1-.374-0.308,2.043,2.043,0,0,1-.094-0.728V29.815a2.112,2.112,0,0,1,.07-0.64,0.457,0.457,0,0,1,.281-0.283,1.933,1.933,0,0,1,.648-0.081,2.079,2.079,0,0,1,1.56.591,3.124,3.124,0,0,1,.734,1.838,0.092,0.092,0,0,0,.1.048c0.057,0,.086-0.016.086-0.048q0-.631.047-1.652t0.094-1.522A0.064,0.064,0,0,0,367.85,28a0.084,0.084,0,0,0-.094.065,0.484,0.484,0,0,1-.351.324,3.319,3.319,0,0,1-.866.081l-1.062.016q-1.029.033-1.95,0.032-1.8,0-3.137-.049-0.874,0-.874-0.356a0.086,0.086,0,0,0-.172,0q0,0.5-.078,1.5t-0.14,1.628c0,0.032.028,0.048,0.086,0.048s0.085-.01.085-0.032a3.965,3.965,0,0,1,.945-1.838,2.139,2.139,0,0,1,1.568-.607h0Zm11.034,8.468V29.815a2.222,2.222,0,0,1,.086-0.721,0.548,0.548,0,0,1,.327-0.332,2.177,2.177,0,0,1,.757-0.1c0.031,0,.047-0.033.047-0.1s-0.016-.1-0.047-0.1l-0.78.016q-0.687.033-1.171,0.032c-0.291,0-.666-0.01-1.123-0.032l-0.812-.016c-0.031,0-.047.032-0.047,0.1s0.016,0.1.047,0.1a2.442,2.442,0,0,1,.773.089,0.549,0.549,0,0,1,.335.316,1.985,1.985,0,0,1,.094.713v7.5a2.051,2.051,0,0,1-.094.72,0.522,0.522,0,0,1-.335.316,2.645,2.645,0,0,1-.773.081c-0.031,0-.047.032-0.047,0.1s0.016,0.1.047,0.1c0.344,0,.614-0.006.812-0.017l1.123-.016,1.155,0.016q0.3,0.016.8,0.017c0.031,0,.047-0.033.047-0.1s-0.016-.1-0.047-0.1a2.633,2.633,0,0,1-.772-0.081,0.474,0.474,0,0,1-.32-0.308,2.444,2.444,0,0,1-.078-0.728h0Zm14.014-8.808-0.687.016q-0.53.033-.842,0.032-0.329,0-.828-0.032l-0.639-.016c-0.021,0-.032.032-0.032,0.1s0.011,0.1.032,0.1a1.079,1.079,0,0,1,.936.461,2.263,2.263,0,0,1,.328,1.32v5.731l-5.618-6.864-0.375-.518a2.017,2.017,0,0,0-.187-0.259,0.251,0.251,0,0,0-.188-0.064c-0.177,0-.327.006-0.452,0.016l-1,.016c-0.25,0-.442-0.005-0.577-0.016l-0.625-.016c-0.021,0-.031.032-0.031,0.1s0.01,0.1.031,0.1a1.476,1.476,0,0,1,.726.194,3.263,3.263,0,0,1,.788.68v7.092a2.038,2.038,0,0,1-.367,1.311,1.257,1.257,0,0,1-1.037.454c-0.032,0-.047.032-0.047,0.1s0.015,0.1.047,0.1q0.468,0,.717-0.017l0.921-.016,0.827,0.016q0.219,0.016.64,0.017c0.021,0,.031-0.033.031-0.1s-0.01-.1-0.031-0.1a1.1,1.1,0,0,1-.952-0.454,2.222,2.222,0,0,1-.328-1.311v-6.59l7.32,8.824a0.114,0.114,0,0,0,.109.016,0.077,0.077,0,0,0,.078-0.065V30.447a2.181,2.181,0,0,1,.343-1.32,1.137,1.137,0,0,1,.968-0.461c0.021,0,.031-0.033.031-0.1s-0.01-.1-0.031-0.1h0Zm7.678,10.313a15.82,15.82,0,0,0,3.512-.453,0.355,0.355,0,0,0,.14-0.065,0.191,0.191,0,0,0,.031-0.13,3.161,3.161,0,0,0-.054-0.389,6.657,6.657,0,0,1-.055-1.036q0-.923.039-1.295a0.83,0.83,0,0,1,.164-0.494,0.579,0.579,0,0,1,.437-0.106q0.078,0,.078-0.113a0.157,0.157,0,0,0-.023-0.073,0.067,0.067,0,0,0-.055-0.04q-0.843.048-1.623,0.049t-2.076-.081a0.063,0.063,0,0,0-.054.04,0.174,0.174,0,0,0-.024.089c0,0.087.032,0.13,0.094,0.13a3.764,3.764,0,0,1,1.116.114,0.625,0.625,0,0,1,.413.445,4.924,4.924,0,0,1,.094,1.174,3.388,3.388,0,0,1-.172,1.23,1.013,1.013,0,0,1-.546.583,2.707,2.707,0,0,1-1.046.162,4.07,4.07,0,0,1-2.348-.7,4.533,4.533,0,0,1-1.577-1.9,6.347,6.347,0,0,1-.554-2.679,5.61,5.61,0,0,1,.508-2.453,3.857,3.857,0,0,1,1.389-1.627A3.548,3.548,0,0,1,394.3,28.6a3.089,3.089,0,0,1,2.248.85,4.542,4.542,0,0,1,1.2,1.869,0.074,0.074,0,0,0,.1.049,0.082,0.082,0,0,0,.086-0.064l-0.2-2.137a1.039,1.039,0,0,0-.039-0.259,0.362,0.362,0,0,0-.164-0.113,4.237,4.237,0,0,0-1.21-.372,8.793,8.793,0,0,0-1.521-.13,7.047,7.047,0,0,0-3.075.656,5.169,5.169,0,0,0-2.154,1.854,4.931,4.931,0,0,0-.78,2.752,5.2,5.2,0,0,0,.687,2.647,4.9,4.9,0,0,0,1.99,1.886,6.413,6.413,0,0,0,3.066.7h0Zm-156.8-.389a2.022,2.022,0,0,1-.843-0.146,3.144,3.144,0,0,1-.85-0.769q-0.538-.624-1.6-2.13L232.151,32.2l2-2.072a5.228,5.228,0,0,1,1.49-1.068,3.543,3.543,0,0,1,1.506-.389c0.031,0,.047-0.033.047-0.1s-0.016-.1-0.047-0.1l-0.671.016q-0.624.033-1.233,0.032-0.562,0-1.248-.032l-0.7-.016c-0.021,0-.031.032-0.031,0.1s0.01,0.1.031,0.1a1.462,1.462,0,0,1,.71.138,0.422,0.422,0,0,1,.242.38,1.381,1.381,0,0,1-.484.842L230.7,33.232V29.815a2.256,2.256,0,0,1,.085-0.721,0.55,0.55,0,0,1,.328-0.332,2.177,2.177,0,0,1,.757-0.1c0.031,0,.047-0.033.047-0.1s-0.016-.1-0.047-0.1l-0.78.016q-0.687.033-1.155,0.032-0.407,0-1.093-.032l-0.827-.016c-0.021,0-.031.032-0.031,0.1s0.01,0.1.031,0.1a2.449,2.449,0,0,1,.765.089,0.525,0.525,0,0,1,.335.316,2.173,2.173,0,0,1,.086.713v7.5a2.08,2.08,0,0,1-.093.72,0.525,0.525,0,0,1-.336.316A2.638,2.638,0,0,1,228,38.4c-0.021,0-.032.032-0.032,0.1s0.011,0.1.032,0.1q0.53,0,.827-0.017l1.108-.016,1.139,0.016q0.3,0.016.8,0.017c0.042,0,.062-0.033.062-0.1s-0.02-.1-0.062-0.1a2.645,2.645,0,0,1-.773-0.081,0.475,0.475,0,0,1-.319-0.308,2.411,2.411,0,0,1-.078-0.728V33.717l0.39-.421,2.169,2.946,0.64,0.891q0.546,0.761.749,1.02a1.519,1.519,0,0,0,.359.356,0.7,0.7,0,0,0,.374.1l0.609-.016h1.748c0.031,0,.047-0.033.047-0.1s-0.016-.1-0.047-0.1h0Zm9.8-7.95V35a3.521,3.521,0,0,1-.749,2.4,2.949,2.949,0,0,1-4.237-.1,4.487,4.487,0,0,1-.773-2.874V29.815a2.25,2.25,0,0,1,.086-0.721,0.549,0.549,0,0,1,.335-0.332,2.252,2.252,0,0,1,.765-0.1c0.031,0,.047-0.033.047-0.1s-0.016-.1-0.047-0.1l-0.78.016q-0.687.033-1.155,0.032-0.422,0-1.108-.032l-0.812-.016c-0.031,0-.046.032-0.046,0.1s0.015,0.1.046,0.1a2.366,2.366,0,0,1,.757.089,0.554,0.554,0,0,1,.336.316,2.012,2.012,0,0,1,.093.713V35a4.043,4.043,0,0,0,.492,2.032,3.3,3.3,0,0,0,1.381,1.327,4.346,4.346,0,0,0,2.029.462,4.145,4.145,0,0,0,2-.469,3.293,3.293,0,0,0,1.343-1.336,4.158,4.158,0,0,0,.476-2.032V30.447a2.226,2.226,0,0,1,.335-1.312,1.1,1.1,0,0,1,.944-0.469c0.021,0,.032-0.033.032-0.1s-0.011-.1-0.032-0.1l-0.686.016q-0.562.033-.843,0.032-0.343,0-.936-0.032l-0.718-.016c-0.021,0-.032.032-0.032,0.1s0.011,0.1.032,0.1a1.257,1.257,0,0,1,1.053.469,2.09,2.09,0,0,1,.367,1.312h0ZM263.4,38.4a2.556,2.556,0,0,1-.765-0.081,0.524,0.524,0,0,1-.328-0.308,2.484,2.484,0,0,1-.125-0.728l-0.343-7.4a1.084,1.084,0,0,1,.305-0.931,1.673,1.673,0,0,1,1.084-.283c0.021,0,.031-0.033.031-0.1s-0.01-.1-0.031-0.1c-0.271,0-.473.006-0.609,0.016l-0.842.016c-0.167,0-.307-0.005-0.422-0.016s-0.208-.016-0.281-0.016a0.408,0.408,0,0,0-.265.089,0.8,0.8,0,0,0-.2.316L257.5,36.259l-3.433-6.946a4.528,4.528,0,0,0-.39-0.688,0.4,0.4,0,0,0-.328-0.154,2.546,2.546,0,0,0-.312.016L252.3,28.5q-0.328,0-.531-0.016l-0.671-.016c-0.031,0-.047.032-0.047,0.1s0.016,0.1.047,0.1a1.281,1.281,0,0,1,.772.243,2.227,2.227,0,0,1,.617.761l-0.141,6.962a2.171,2.171,0,0,1-.366,1.311,1.181,1.181,0,0,1-.991.454c-0.032,0-.047.032-0.047,0.1s0.015,0.1.047,0.1q0.422,0,.655-0.017l0.921-.016,0.858,0.016q0.234,0.016.656,0.017c0.031,0,.046-0.033.046-0.1s-0.015-.1-0.046-0.1a1.172,1.172,0,0,1-1.007-.454,2.112,2.112,0,0,1-.32-1.311l0.141-6.152,3.9,8a0.191,0.191,0,0,0,.141.065,0.125,0.125,0,0,0,.125-0.065l3.324-8.063,0.312,6.865,0.015,0.275a0.787,0.787,0,0,1-.234.68,1.781,1.781,0,0,1-.92.162c-0.021,0-.032.032-0.032,0.1s0.011,0.1.032,0.1q0.515,0,.8-0.017l1.092-.016,1.124,0.016c0.208,0.011.483,0.017,0.827,0.017,0.02,0,.031-0.033.031-0.1s-0.011-.1-0.031-0.1h0Zm7.022,0.389a5.52,5.52,0,0,0,4.729-2.655,5.093,5.093,0,0,0,.749-2.7,5.457,5.457,0,0,0-.6-2.509,4.81,4.81,0,0,0-1.724-1.9,4.726,4.726,0,0,0-2.606-.721,6.039,6.039,0,0,0-2.6.6,5.129,5.129,0,0,0-2.083,1.789,4.949,4.949,0,0,0-.812,2.858,5.7,5.7,0,0,0,.617,2.631,4.737,4.737,0,0,0,4.33,2.614h0Zm0.531-.389a3.017,3.017,0,0,1-1.958-.7,4.626,4.626,0,0,1-1.358-1.95,7.526,7.526,0,0,1-.492-2.785,5.133,5.133,0,0,1,.835-3.117,2.756,2.756,0,0,1,2.349-1.125,3.346,3.346,0,0,1,2.068.664,4.221,4.221,0,0,1,1.357,1.846,7.09,7.09,0,0,1,.476,2.672,6.243,6.243,0,0,1-.429,2.428,3.5,3.5,0,0,1-1.17,1.547,2.831,2.831,0,0,1-1.678.526h0Zm17.838-9.925-0.687.016c-0.354.022-.634,0.032-0.842,0.032s-0.5-.01-0.828-0.032l-0.639-.016c-0.021,0-.032.032-0.032,0.1s0.011,0.1.032,0.1a1.08,1.08,0,0,1,.936.461,2.263,2.263,0,0,1,.328,1.32v5.731l-5.619-6.864-0.374-.518a2.122,2.122,0,0,0-.187-0.259,0.251,0.251,0,0,0-.188-0.064c-0.177,0-.327.006-0.452,0.016l-1,.016c-0.25,0-.442-0.005-0.578-0.016l-0.624-.016c-0.021,0-.031.032-0.031,0.1s0.01,0.1.031,0.1a1.476,1.476,0,0,1,.726.194,3.263,3.263,0,0,1,.788.68v7.092a2.038,2.038,0,0,1-.367,1.311,1.258,1.258,0,0,1-1.038.454c-0.031,0-.046.032-0.046,0.1s0.015,0.1.046,0.1q0.469,0,.718-0.017l0.921-.016,0.827,0.016q0.219,0.016.64,0.017c0.021,0,.031-0.033.031-0.1s-0.01-.1-0.031-0.1a1.1,1.1,0,0,1-.952-0.454,2.222,2.222,0,0,1-.328-1.311v-6.59l7.32,8.824a0.114,0.114,0,0,0,.109.016,0.077,0.077,0,0,0,.078-0.065V30.447a2.181,2.181,0,0,1,.343-1.32,1.137,1.137,0,0,1,.968-0.461c0.021,0,.031-0.033.031-0.1s-0.01-.1-0.031-0.1h0Zm-52.457,25.3v2.68c-0.013,2.771-.013,2.771-0.051,4.221,0.013,0.193.077,0.232,0.333,0.232a8.814,8.814,0,0,0,.911-0.064,0.248,0.248,0,0,0,.218-0.272c-0.051-1.994-.051-2.615-0.051-4.117v-2.68h1.551a0.089,0.089,0,0,0,.1-0.078,0.15,0.15,0,0,0-.051-0.078c-0.565-.517-0.731-0.66-1.308-1.139-0.385.44-.513,0.569-0.924,1.023h-2.1c0.026-1.916.026-1.916,0.026-2.381a18.068,18.068,0,0,0,3.308-.7,3.234,3.234,0,0,0,.526.065,0.224,0.224,0,0,0,.257-0.129,4.858,4.858,0,0,0-1.642-1.178,8.454,8.454,0,0,1-2.385,1.58c-0.616-.337-0.821-0.44-1.488-0.777,0.051,0.777.077,1.566,0.077,3.2a16.94,16.94,0,0,1-.4,4.428,6.406,6.406,0,0,1-1.846,3.146l0.115,0.129a7.013,7.013,0,0,0,2.167-1.968c0.9-1.23,1.257-2.706,1.283-5.14h1.372Zm-5.54-2.822V49.839a0.657,0.657,0,0,0,.5-0.3,0.149,0.149,0,0,0-.064-0.091c-0.18-.129-0.269-0.142-1.86-0.246a8.241,8.241,0,0,1,.1,1.4v0.349h-0.962a10.213,10.213,0,0,1-1.1-.09l0.077,0.414c0.539-.038.77-0.052,1.026-0.052h4.732a0.109,0.109,0,0,0,.1-0.09,0.166,0.166,0,0,0-.077-0.1c-0.474-.414-0.616-0.544-1.09-0.919-0.321.337-.423,0.453-0.744,0.841h-0.641Zm-0.09,3.029a12.687,12.687,0,0,0,1.513-1.773c0.385-.039.5-0.09,0.5-0.208,0-.142-0.359-0.3-1.706-0.737a8.48,8.48,0,0,1-.68,2.718h-2.1a7.872,7.872,0,0,1-1.116-.09l0.077,0.414c0.526-.039.757-0.052,1.039-0.052h5.155a0.1,0.1,0,0,0,.116-0.09,0.2,0.2,0,0,0-.051-0.078c-0.4-.336-0.77-0.66-1.129-0.958-0.333.363-.449,0.479-0.795,0.855H230.7Zm-2.385,1.877a10.928,10.928,0,0,1-1.154-.078l0.089,0.4c0.462-.039.693-0.052,1.078-0.052h0.961a7.8,7.8,0,0,1-.667,1.476,9.736,9.736,0,0,1-1.615,2.175l0.077,0.1a9.177,9.177,0,0,0,2.436-1.954c0.013,0.181.013,0.336,0.013,0.427,0,0.272-.013.376-0.064,2.382a0.179,0.179,0,0,0,.218.22,4.778,4.778,0,0,0,.975-0.078,0.2,0.2,0,0,0,.141-0.207V60.622c-0.052-2.084-.064-3.327-0.064-3.754a3.379,3.379,0,0,1,1,1.592,0.373,0.373,0,0,0,.295.35,0.752,0.752,0,0,0,.538-0.467,1.554,1.554,0,0,0,.129-0.479,0.919,0.919,0,0,0-.321-0.6,4.964,4.964,0,0,0-1.641-.6V56.13h2.539a0.077,0.077,0,0,0,.09-0.065,0.12,0.12,0,0,0-.065-0.1c-0.448-.414-0.589-0.543-1.038-0.918-0.334.349-.424,0.466-0.731,0.815H230.75V55.03c0.334-.1.436-0.155,0.436-0.258a0.168,0.168,0,0,0-.166-0.143,9.684,9.684,0,0,0-1.578-.142,4.814,4.814,0,0,1,.064.893v0.479h-1.192Zm-0.167-4.44a4.645,4.645,0,0,1,.487,1.968c0.026,0.362.1,0.478,0.334,0.478a1.02,1.02,0,0,0,.833-0.945,1.2,1.2,0,0,0-.461-0.789,8.523,8.523,0,0,0-1.1-.79Zm24.913,6.033a0.159,0.159,0,0,0,.167-0.13,0.23,0.23,0,0,0-.09-0.143c-0.628-.491-0.795-0.608-1.411-1.035a1.114,1.114,0,0,0,.4-0.88c0-.492-0.333-0.816-1.231-1.178-0.513-.207-0.757-0.3-1.334-0.479a11.455,11.455,0,0,0,.757-1.1c0.474-.065.6-0.13,0.6-0.272,0-.181,0-0.181-2.052-0.648a10.613,10.613,0,0,1-.693,2.175,10.422,10.422,0,0,1-1.026,1.915c-0.2-.013-0.2-0.013-0.615-0.051a0.964,0.964,0,0,0,.269-0.66,1.108,1.108,0,0,0-.834-0.946,7.972,7.972,0,0,0-1.09-.427,8.339,8.339,0,0,0,.577-1.087,2.247,2.247,0,0,0,.539-0.143,0.155,0.155,0,0,0,.064-0.116c0-.169-0.09-0.194-2.039-0.686a8.036,8.036,0,0,1-.513,1.941,11.979,11.979,0,0,1-1.808,3.223l0.1,0.078a7.436,7.436,0,0,0,2.95-3,3.263,3.263,0,0,1,.744,1.23,2.227,2.227,0,0,0,.282.764,0.337,0.337,0,0,0,.282.181,0.409,0.409,0,0,0,.218-0.091,8.3,8.3,0,0,1,.064,1.294h-4.014a5.415,5.415,0,0,1-1-.1l0.1,0.466a5.259,5.259,0,0,1,.936-0.091h3.976c0.013,0.647.013,0.647,0.013,1.2,0,0.88-.013,1.242-0.051,2.136,0.013,0.26.077,0.3,0.526,0.3a3.326,3.326,0,0,0,.884-0.09,0.249,0.249,0,0,0,.141-0.272c-0.038-1.178-.038-1.748-0.038-2.835v-0.44h5.245Zm-5.245-.273V56.3c0.4-.143.5-0.208,0.5-0.311a0.175,0.175,0,0,0-.09-0.142,1.144,1.144,0,0,0-.525-0.09l-0.283-.039a10.766,10.766,0,0,0,2-1.916,4.437,4.437,0,0,1,1.4,1.98c0.18,0.453.257,0.57,0.423,0.57a0.457,0.457,0,0,0,.128-0.013c-0.4.454-.4,0.454-0.731,0.841h-2.821Zm-0.038-6.213V49.812a1.725,1.725,0,0,1,.294-0.129,0.616,0.616,0,0,0,.231-0.117l0.064-.117a0.23,0.23,0,0,0-.115-0.155,7.6,7.6,0,0,0-2.039-.259,6.056,6.056,0,0,1,.077.971v0.958H242.7a8.707,8.707,0,0,1-1.18-.117l0.128,0.492a7.43,7.43,0,0,1,1.065-.1h10.208a0.122,0.122,0,0,0,.141-0.1,0.259,0.259,0,0,0-.128-0.168c-0.641-.518-0.834-0.686-1.475-1.165l-0.974,1.165h-2.706Zm17.695,1.618a2.574,2.574,0,0,0,2.013,1.113,7.582,7.582,0,0,0,1.886-.324c0.128,0.505.243,1.075,0.41,1.878-0.167.051-.359,0.1-0.564,0.155-0.641.181-.641,0.181-1.3,0.376a6.415,6.415,0,0,1-1.577.337,1.539,1.539,0,0,1-1.167-.622,0.91,0.91,0,0,0-.026.22,2.111,2.111,0,0,0,1.578,1.618,1.074,1.074,0,0,0,.615-0.272,13.285,13.285,0,0,1,2.578-1.049,14.551,14.551,0,0,1,.372,2.732,1.058,1.058,0,0,1-.013.259,2.492,2.492,0,0,0-.025.324,1.525,1.525,0,0,0,.525.932,1.222,1.222,0,0,0,.731.427,0.556,0.556,0,0,0,.5-0.66,3.581,3.581,0,0,0-.193-1.009c-0.2-.738-0.333-1.269-0.846-3.314a19.721,19.721,0,0,1,3.321-.544,2.24,2.24,0,0,0,.757-0.09,0.393,0.393,0,0,0,.269-0.349A0.511,0.511,0,0,0,275,54.24a2.62,2.62,0,0,0-1.142-.35,0.71,0.71,0,0,0-.474.194,8.3,8.3,0,0,1-2.578.881c-0.231-1.036-.269-1.178-0.385-1.864,0.552-.169,2.039-0.66,2.4-0.79a0.741,0.741,0,0,0,.655-0.557,0.508,0.508,0,0,0-.347-0.427,1.759,1.759,0,0,0-.756-0.181,0.655,0.655,0,0,0-.5.207,5.634,5.634,0,0,1-1.615.829,4.972,4.972,0,0,1-.1-0.919,2.245,2.245,0,0,1,.026-0.375,1.6,1.6,0,0,0,.064-0.4,0.709,0.709,0,0,0-.706-0.66,4.836,4.836,0,0,0-1.192-.181,1.285,1.285,0,0,0-.988.311,1.225,1.225,0,0,1,1.18.608,8.717,8.717,0,0,1,.616,1.968,8.361,8.361,0,0,1-2.065.4,2.686,2.686,0,0,1-1.526-.453Zm18.552,4.168c0.564-.337,1.6-1.036,2.282-1.528a1.79,1.79,0,0,1,.475-0.3c0.423-.13.487-0.181,0.487-0.4a1.033,1.033,0,0,0-.487-0.686,1.924,1.924,0,0,0-.988-0.57,0.642,0.642,0,0,0-.372.142,4.861,4.861,0,0,1-1.59.6c-1.116.311-1.116,0.311-1.334,0.389a5.907,5.907,0,0,1-.128-0.984,1.479,1.479,0,0,1,.051-0.363,0.513,0.513,0,0,0,.052-0.207,0.47,0.47,0,0,0-.347-0.44,4,4,0,0,0-1.308-.233,0.947,0.947,0,0,0-.769.259c0.885,0.116,1.064.389,1.526,2.226a9.116,9.116,0,0,1-1.962.466,1.092,1.092,0,0,1-.949-0.556,1.113,1.113,0,0,0-.039.22,1.958,1.958,0,0,0,1.283,1.476,0.673,0.673,0,0,0,.4-0.155,6.468,6.468,0,0,1,1.475-.725,24.93,24.93,0,0,1,.641,3.806,1.134,1.134,0,0,1-.012.181v0.078a1.537,1.537,0,0,0,1.1,1.178,0.413,0.413,0,0,0,.41-0.479,2.065,2.065,0,0,0-.1-0.556c-0.692-2.5-.846-3.068-1.18-4.518a22.662,22.662,0,0,1,2.809-.842c0.077,0,.1.026,0.1,0.065a1.9,1.9,0,0,1-.18.414,11.782,11.782,0,0,1-1.423,1.942Zm7.008-6.2a1.408,1.408,0,0,1,.821.621A3.144,3.144,0,0,1,292.1,52.8a7.139,7.139,0,0,1-.218,2.1,0.709,0.709,0,0,0-.077.323,2.321,2.321,0,0,0,.321.919,0.97,0.97,0,0,0,.7.569,0.487,0.487,0,0,0,.474-0.466,4.048,4.048,0,0,0,.039-0.7c0-.143,0-0.453-0.013-0.764-0.013-.557-0.026-0.945-0.026-1.152a7.925,7.925,0,0,1,.1-1.605,1.723,1.723,0,0,0,.115-0.453V51.547a0.688,0.688,0,0,0-.307-0.53,3.549,3.549,0,0,0-1.706-.583A0.726,0.726,0,0,0,291.032,50.551ZM293,60.816a6.225,6.225,0,0,0,4.488-3.961,11.033,11.033,0,0,0,.334-3.2,9.165,9.165,0,0,1,.218-2.576,0.8,0.8,0,0,0,.089-0.337,1,1,0,0,0-.782-0.776,4.3,4.3,0,0,0-1.526-.375,0.816,0.816,0,0,0-.59.194,1.687,1.687,0,0,1,1.013.608c0.18,0.259.218,0.7,0.218,2.162,0,2.964-.154,4.026-0.756,5.243a7.5,7.5,0,0,1-2.783,2.886Zm10.253-.181a7.759,7.759,0,0,0,1.886-1.308,8.218,8.218,0,0,0,2.321-3.625c0.09-.246.231-0.737,0.449-1.476,1.6-.621,2.039-0.8,3.155-1.333a2.15,2.15,0,0,1,.5-0.181,1.041,1.041,0,0,0,.385-0.117,0.422,0.422,0,0,0,.256-0.4,2.7,2.7,0,0,0-1.039-1.359,1.452,1.452,0,0,0-.872-0.479,0.533,0.533,0,0,0-.231.051,2.129,2.129,0,0,1-.769.207c-0.513.078-1.219,0.156-3.463,0.428a18.916,18.916,0,0,1-2.424.22,1.44,1.44,0,0,1-1.423-.842,1.077,1.077,0,0,0-.077.376,2.338,2.338,0,0,0,.4,1.048,1.709,1.709,0,0,0,1.142.906,1.11,1.11,0,0,0,.564-0.181,8.9,8.9,0,0,1,2.257-.751,22.256,22.256,0,0,1,3.514-.492c0.359,0,.475.039,0.475,0.156a9.206,9.206,0,0,1-2.411,2.369,4.152,4.152,0,0,0-1.975-.867,0.612,0.612,0,0,0-.488.168,1.445,1.445,0,0,1,.565.285,0.714,0.714,0,0,1,.32.634,10.113,10.113,0,0,1-.731,2.965,9.412,9.412,0,0,1-2.385,3.482Zm17.514-4.777a13.464,13.464,0,0,1-1.014,1.709,11.715,11.715,0,0,1-2.193,2.33l0.077,0.142a9.46,9.46,0,0,0,3.694-2.809V58.3c-0.013.829-.013,1.2-0.039,2.46,0.013,0.272.064,0.3,0.513,0.3,0.731,0,.872-0.052.872-0.362-0.025-.686-0.025-0.686-0.038-2.718V56.052a8.911,8.911,0,0,0,1.706,2.965,3.2,3.2,0,0,0,1.231.918,0.147,0.147,0,0,0,.141-0.129,2.017,2.017,0,0,1,.949-1.269v-0.13a6.461,6.461,0,0,1-2.629-1.152,3.766,3.766,0,0,1-1.244-1.4h3.539c0.09,0,.142-0.026.142-0.078a0.268,0.268,0,0,0-.065-0.117,13.545,13.545,0,0,0-1.3-1.1c-0.385.428-.5,0.57-0.872,1.023h-1.6V54.757c0.308-.1.423-0.181,0.423-0.285,0-.155-0.205-0.194-1.808-0.31a6.7,6.7,0,0,1,.077.932v0.492H318.94a3.384,3.384,0,0,1-.936-0.1l0.077,0.466a3.2,3.2,0,0,1,.847-0.091h1.834Zm-4.771-3.6v2.77a7.47,7.47,0,0,1-1.655.311c0.385,1.5.488,1.825,0.642,1.825,0.115,0,.192-0.169.23-0.518,0.206-.1.257-0.13,0.565-0.3a2.43,2.43,0,0,1,.218-0.117v3.107a0.154,0.154,0,0,1-.18.181h-0.025a14.138,14.138,0,0,1-1.424-.065l-0.013.169a2.3,2.3,0,0,1,1,.44,1.09,1.09,0,0,1,.283.724c0.012,0.194.051,0.233,0.192,0.233a2.322,2.322,0,0,0,.641-0.117,1.013,1.013,0,0,0,.859-1.139V55.444c0.8-.5,1.026-0.66,1.578-1.062l-0.051-.142c-0.642.219-.885,0.3-1.527,0.465V52.259h1.347c0.077,0,.128-0.026.128-0.065a0.138,0.138,0,0,0-.038-0.09,8.58,8.58,0,0,0-.8-0.867c-0.231.324-.3,0.414-0.513,0.75h-0.129V49.812c0.462-.155.59-0.22,0.59-0.349,0-.168-0.077-0.182-1.987-0.389a14.879,14.879,0,0,1,.064,1.826v1.087h-0.783a3.773,3.773,0,0,1-.872-0.116l0.077,0.466a3.193,3.193,0,0,1,.783-0.078h0.795Zm5.014-1.126a6.049,6.049,0,0,1,.616,2.1c0.064,0.518.141,0.673,0.359,0.673a1.178,1.178,0,0,0,.885-1.113c0-.531-0.552-1.062-1.77-1.735Zm2.334,3.47a12.211,12.211,0,0,0,2.424-2.628c0.372-.039.564-0.13,0.564-0.272s-0.269-.246-1.769-0.776a14.032,14.032,0,0,1-1.334,3.6Zm-5.065-3.651a30.488,30.488,0,0,0,6.835-.7,2.359,2.359,0,0,0,.552.078,0.214,0.214,0,0,0,.243-0.168c0-.13-0.269-0.324-1.667-1.191a10.147,10.147,0,0,1-2.642,1.048,32.089,32.089,0,0,1-3.334.777Zm0.32,0.415a6.615,6.615,0,0,1,.718,2.356c0.052,0.492.116,0.608,0.3,0.608a1.151,1.151,0,0,0,.9-1.075c0-.582-0.577-1.216-1.821-1.954Zm16.642,4.764h2.68v3.133c0,0.169-.026.194-0.218,0.194-1.039-.065-1.68-0.091-1.911-0.1v0.156c1.334,0.375,1.6.569,1.616,1.23,0,0.22.026,0.246,0.192,0.246a3.161,3.161,0,0,0,1.142-.258,0.934,0.934,0,0,0,.667-1c-0.013-.737-0.013-0.789-0.026-1.553,0-.79,0-0.79-0.013-1.722v-5.7a0.705,0.705,0,0,0,.462-0.454,0.327,0.327,0,0,0-.18-0.246c-0.461-.337-0.6-0.44-1.077-0.8-0.346.362-.449,0.466-0.757,0.828h-6.386a11.4,11.4,0,0,0-1.68-.828,35.233,35.233,0,0,1,.089,3.715,20.128,20.128,0,0,1-.564,5.994,7.777,7.777,0,0,1-.962,2.084l0.09,0.09a6.4,6.4,0,0,0,1.706-1.851,7.4,7.4,0,0,0,1.051-3.158h2.629v1.657c0,0.738,0,.919-0.051,2.382,0,0.311.064,0.363,0.475,0.363a4.354,4.354,0,0,0,.833-0.065,0.247,0.247,0,0,0,.244-0.271V60.142c-0.039-1.229-.051-2.019-0.051-2.356V56.13Zm0-.272v-2.68h2.68v2.68h-2.68Zm-1.45,0h-2.6c0.051-.582.077-1.308,0.1-2.68h2.5v2.68Zm1.45-2.951v-2.55h2.68v2.55h-2.68Zm-1.45,0h-2.5V51.418l0.012-.634V50.356h2.488v2.55Zm12.435,7.845a6.074,6.074,0,0,0,1.834-.907,4.841,4.841,0,0,0,2.218-3.533,18.232,18.232,0,0,0,.18-2.667h0.41a21.42,21.42,0,0,1,2.142.091,1.283,1.283,0,0,0,.2.013,0.387,0.387,0,0,0,.411-0.388,0.807,0.807,0,0,0-.475-0.609,1.887,1.887,0,0,0-.9-0.336,0.718,0.718,0,0,0-.347.09,3.659,3.659,0,0,1-1.423.285,4.506,4.506,0,0,1,.282-1.761,0.677,0.677,0,0,0,.077-0.31,0.738,0.738,0,0,0-.552-0.635,3.85,3.85,0,0,0-1.615-.388,0.873,0.873,0,0,0-.616.181,1.542,1.542,0,0,1,.936.5,2.5,2.5,0,0,1,.257,1.54c0,0.493,0,.829-0.013,1.023a3.559,3.559,0,0,1-.359.039c-0.757.091-.757,0.091-0.911,0.1-0.551.065-.872,0.116-1.321,0.194a4.521,4.521,0,0,1,.154-1.113,1.038,1.038,0,0,0,.09-0.4,0.737,0.737,0,0,0-.449-0.608,3.323,3.323,0,0,0-1.565-.557,0.651,0.651,0,0,0-.423.13,1.427,1.427,0,0,1,.9.893,7.641,7.641,0,0,1,.154,1.826,13,13,0,0,1-1.975.285,1.471,1.471,0,0,1-1.244-.66,0.955,0.955,0,0,0-.026.155,1.608,1.608,0,0,0,.231.673,1.862,1.862,0,0,0,1.154,1.023,1.273,1.273,0,0,0,.513-0.155,4.233,4.233,0,0,1,1.36-.492A5.023,5.023,0,0,1,345.3,56a1.027,1.027,0,0,0-.09.363,1.6,1.6,0,0,0,.282.764,0.9,0.9,0,0,0,.654.479c0.359,0,.526-0.311.526-0.984V56.544c-0.013-.427-0.026-1.411-0.026-1.825v-0.7a15.987,15.987,0,0,1,2.591-.337,10.524,10.524,0,0,1-.667,4.22,6.065,6.065,0,0,1-2.437,2.732Zm8.869-3.405a15.787,15.787,0,0,0,2.411-1.023,21.275,21.275,0,0,0,2.744-1.838,1.544,1.544,0,0,1,.218,1.087,15.128,15.128,0,0,1-.282,3.34,1.147,1.147,0,0,0-.077.414,1.61,1.61,0,0,0,1.18,1.333c0.359,0,.526-0.259.526-0.79,0-.13,0-0.311-0.013-0.492-0.077-2.46-.077-2.628-0.09-3.224a2.347,2.347,0,0,0-.141-1.268,3.125,3.125,0,0,0-.885-0.764c0.911-.79.911-0.79,1.809-1.631,0.782-.751.782-0.751,0.833-0.79,0.449-.323.513-0.4,0.513-0.634a1.607,1.607,0,0,0-.936-1.035,2.561,2.561,0,0,0-1.295-.44,1.5,1.5,0,0,0-.411.052,1.221,1.221,0,0,1,.77.854c0,0.428-.782,1.463-2.155,2.862a23.85,23.85,0,0,1-4.783,3.844Zm13.536-7.612a1.562,1.562,0,0,1,.885.673c0.192,0.35.231,0.842,0.231,2.705,0,3.314-.077,4.816-0.3,5.45a1.342,1.342,0,0,0-.116.518,2,2,0,0,0,.462,1.048,0.907,0.907,0,0,0,.693.453,0.464,0.464,0,0,0,.448-0.323,2.381,2.381,0,0,0,.077-0.777c0-.22,0-0.4-0.012-0.621-0.039-1.541-.039-1.541-0.039-2.628V54.2a7.3,7.3,0,0,1,2.86,2.02,0.635,0.635,0,1,0,1.167-.493,1.317,1.317,0,0,0-.936-1.269,9.534,9.534,0,0,0-3.091-.634c0.026-.686.051-1.527,0.077-1.786a1.653,1.653,0,0,1,.218-0.854,0.649,0.649,0,0,0,.115-0.349,1.169,1.169,0,0,0-.833-0.855,3.706,3.706,0,0,0-1.411-.375A0.88,0.88,0,0,0,368.626,49.735Zm44.547-13.166-0.221-.1a1.532,1.532,0,0,1-1.513,1.065h-3.69l2.6-2.8c1.4-1.494,2.018-2.685,2.018-3.941a2.74,2.74,0,0,0-2.917-2.8c-1.94,0-2.949,1.3-3.28,3.162l0.331,0.08c0.631-1.558,1.183-2.066,2.318-2.066a2.032,2.032,0,0,1,2.192,2.24c0,1.351-.568,2.558-2.05,4.131l-2.807,3v0.191h6.166Zm8.6-3.066c0-3.257-1.435-5.5-3.5-5.5-2.538,0-3.626,2.59-3.626,5.4,0,2.605.867,5.561,3.563,5.561C420.781,38.968,421.775,36.235,421.775,33.5Zm-1.514.079c0,3.146-.71,4.973-2.05,4.973-1.356,0-2.05-1.811-2.05-5.036s0.71-5.1,2.019-5.1C419.567,28.418,420.261,30.277,420.261,33.581Zm10.22,2.987-0.221-.1a1.532,1.532,0,0,1-1.513,1.065h-3.69l2.6-2.8c1.4-1.494,2.018-2.685,2.018-3.941A2.74,2.74,0,0,0,426.76,28c-1.94,0-2.949,1.3-3.28,3.162l0.331,0.08c0.631-1.558,1.183-2.066,2.318-2.066a2.032,2.032,0,0,1,2.192,2.24c0,1.351-.568,2.558-2.05,4.131l-2.807,3v0.191h6.166ZM437,38.745V38.507c-1.183,0-1.5-.286-1.5-0.969V28.052L435.356,28l-2.823,1.446v0.222l0.426-.159a2.364,2.364,0,0,1,.709-0.191c0.332,0,.473.238,0.473,0.778v7.134c0,0.874-.331,1.208-1.5,1.271v0.239H437ZM259,54a1,1,0,1,1-1,1A1,1,0,0,1,259,54Z" transform="translate(-227 -28)"/>
</svg>
