<svg xmlns="http://www.w3.org/2000/svg" width="10" height="8" viewBox="0 0 10 8"><defs><style>.a{fill:none;}.b{fill:#5e646b;}.c{fill:#a4a8ac;}</style></defs><polygon class="a" points="3 6 3 7 9 7 9 3 8 3 8 6 3 6"/><polygon class="b" points="7 5 3 5 3 6 8 6 8 3 7 3 7 5"/><polygon class="b" points="1 5 1 1 7 1 7 2 8 2 8 0 0 0 0 6 2 6 2 5 1 5"/><polygon class="c" points="8 2 8 3 9 3 9 7 3 7 3 6 2 6 2 8 10 8 10 2 8 2"/><rect class="b" x="2" y="5" width="1" height="1"/><rect class="b" x="7" y="2" width="1" height="1"/></svg>