<svg xmlns="http://www.w3.org/2000/svg" width="40.719" height="35.312" viewBox="0 0 40.719 35.312">
  <defs>
    <style>
      .cls-1 {
        fill: #e7e7e7;
        fill-rule: evenodd;
      }
    </style>
  </defs>
  <path id="icon_quot.svg" class="cls-1" d="M554.118,228.62q-3.615,0-4.865,2.085-1.391-1.8-1.39-5.7a22.66,22.66,0,0,1,6.811-16.4,0.5,0.5,0,0,0,0-.7,0.818,0.818,0,0,0-.695-0.417,0.571,0.571,0,0,0-.417.139,41.9,41.9,0,0,0-7.992,10.286,23.778,23.778,0,0,0-2.711,11.259q0,6.536,2.641,10.077a8.526,8.526,0,0,0,7.228,3.545,8.7,8.7,0,0,0,5.908-1.877,6.715,6.715,0,0,0,2.154-5.351,7.011,7.011,0,0,0-1.807-5.074,6.44,6.44,0,0,0-4.865-1.876h0Zm22.8,0q-3.615,0-4.865,2.085-1.39-1.8-1.39-5.7a22.66,22.66,0,0,1,6.811-16.4,0.5,0.5,0,0,0,0-.7,0.818,0.818,0,0,0-.7-0.417,0.571,0.571,0,0,0-.417.139,41.9,41.9,0,0,0-7.992,10.286,23.778,23.778,0,0,0-2.711,11.259q0,6.536,2.641,10.077a8.526,8.526,0,0,0,7.228,3.545,8.7,8.7,0,0,0,5.908-1.877,6.715,6.715,0,0,0,2.154-5.351,7.011,7.011,0,0,0-1.807-5.074,6.44,6.44,0,0,0-4.865-1.876h0Z" transform="translate(-542.875 -207.5)"/>
</svg>
