<svg xmlns="http://www.w3.org/2000/svg" width="136" height="33" viewBox="0 0 136 33">
  <defs>
    <style>
      .cls-1 {
        fill: #1e1e1e;
        fill-rule: evenodd;
      }
    </style>
  </defs>
  <path id="logo.svg" class="cls-1" d="M46.673,37.758l-2.26-2.8L33.6,43.421V35.268H30.031L30,55.62h3.6v-7.47l1.221-.746,11.542,8.961,2.321-2.676L37.757,44.915l8.916-7.157h0ZM68.107,48.02s0.061,4.426-5.252,4.426c-5.068,0-4.946-4.418-4.946-4.418V35.33h-3.55v13.7s0.058,6.844,8.619,6.844c8.7,0,8.672-6.922,8.672-6.922V35.33H68.107V48.02h0Zm22.046-4.988-6.6-7.764H80.4L80.382,55.744h3.725V41.467l5.741,6.7h0.793L96.321,41.4v14.34h3.542V35.268H96.87l-6.717,7.764h0Zm72.364-7.7V49.583l-12.4-14.315H147.3V55.62h3.59l0.052-14.09,12.068,14.152H166V35.33h-3.481Zm-23.692,3.564a7.928,7.928,0,0,0-1.153-2.456,22.957,22.957,0,0,0-1.81-2.129c-0.868-1.221-1.251-.846-1.251-0.971a11.6,11.6,0,0,0-3.213-2.2,1.757,1.757,0,0,0-.872-0.242,7.273,7.273,0,0,1-1.233-.515,23.15,23.15,0,0,0-9.416-.627s-0.161-1.036-2.015-.654a5.745,5.745,0,0,1-1.443.373,1.979,1.979,0,0,0-1.442.514c-0.31.227-1.03,0.328-1.6,0.63a8.745,8.745,0,0,0-2.145,2.093,6.2,6.2,0,0,0-.993,1.128,17.852,17.852,0,0,0-2.129,3.9,9.123,9.123,0,0,0-.418,1.362,24.334,24.334,0,0,0-.368,9.168c0.811,4.133,2.393,5.746,5.161,8.567,0.627,0.639,5.943,5.331,12.726,4.805,2.5-.194,8.541.376,13.508-8.145,3.023-5.185,1.678-10.564.957-12.9a15.847,15.847,0,0,0-.848-1.7h0Zm-1.463,11.148a9.139,9.139,0,0,1-.691,1.335,16.975,16.975,0,0,1-1.457,2.145c-0.3.438-1.163,1.43-1.163,1.43a3.548,3.548,0,0,0-.765.7,19.979,19.979,0,0,1-2.159,1.8,7.414,7.414,0,0,1-2.924,1.228c-0.947.131-2.194,0.35-2.709,0.35a10.374,10.374,0,0,1-3.7-.219,25.25,25.25,0,0,1-5.763-2.717,19.164,19.164,0,0,1-3.4-2.586,6.676,6.676,0,0,1-1.936-2.762,11.485,11.485,0,0,1-1.29-4.558c-0.3-2.98,1.171-7.4,1.171-7.4a21.574,21.574,0,0,1,2.2-3.874,9.636,9.636,0,0,1,2.909-2.451,15.4,15.4,0,0,1,2.954-.887,0.953,0.953,0,0,0,.457.676,1.51,1.51,0,0,0,.825.211,1.453,1.453,0,0,0,.87-0.187,7.849,7.849,0,0,1,.871-0.233,21.289,21.289,0,0,1,2.931,0,14.815,14.815,0,0,1,3.355.648,17.8,17.8,0,0,1,1.79.736,16.891,16.891,0,0,1,3.326,1.995,12.147,12.147,0,0,1,1.975,1.915,10.7,10.7,0,0,1,1.247,2.147c0.438,0.962.913,1.88,1.074,2.328a13.3,13.3,0,0,1,.646,2.976,15.965,15.965,0,0,1-.646,5.258h0ZM116.879,34.863a1.347,1.347,0,0,0-.408-0.245,0.436,0.436,0,0,1-.313-0.159,1.042,1.042,0,0,0-.649-0.11,2.629,2.629,0,0,0-.578.515c-0.228.295-.468,1.14-0.721,1.386a1.793,1.793,0,0,0-.168,1.336,0.863,0.863,0,0,0,.325.82,2.334,2.334,0,0,0,1.3-.012c0.222-.093.48-0.245,0.625-0.319a3.207,3.207,0,0,0,.4-0.466,5.19,5.19,0,0,1,.24-0.661,1.594,1.594,0,0,0,.145-0.343,7.851,7.851,0,0,0,.036-1.25,0.677,0.677,0,0,0-.229-0.491h0Zm16.244,3.013a0.44,0.44,0,0,1-.311-0.126,1.206,1.206,0,0,0-.474-0.062,1.31,1.31,0,0,0-.554.282,1.652,1.652,0,0,0-.461.611A2.551,2.551,0,0,0,131,39.756a0.638,0.638,0,0,0-.106.367,9.537,9.537,0,0,0,.095,1.03,0.706,0.706,0,0,0,.149.389,0.574,0.574,0,0,0,.415.2,1.679,1.679,0,0,0,.474.08,2.474,2.474,0,0,0,.461-0.047,1.147,1.147,0,0,0,.343-0.17,4.694,4.694,0,0,1,.382-0.4,5.184,5.184,0,0,0,.486-0.506,0.593,0.593,0,0,0,.219-0.458,8.049,8.049,0,0,0,.058-0.943,1.316,1.316,0,0,0-.229-0.788,1.063,1.063,0,0,0-.625-0.642h0ZM129.416,55.99a1.131,1.131,0,0,0-.276-0.329,2.139,2.139,0,0,0-.338-0.208,3.725,3.725,0,0,0-.765-0.187,5.612,5.612,0,0,0-.705-0.125c-0.251-.044-0.643-0.094-0.643-0.094s-0.217-.033-0.536-0.109-0.306-.063-0.719-0.14a5.88,5.88,0,0,0-.769-0.078,4.281,4.281,0,0,0-.691.047,2.985,2.985,0,0,0-.593-0.188c-0.229-.032-0.433.015-0.642,0s-0.509-.094-0.7-0.093a4.949,4.949,0,0,0-1.013.188,0.5,0.5,0,0,0-.461.469,2.6,2.6,0,0,0,.092.706,0.623,0.623,0,0,0,.139.422c0.135,0.179.23,0.283,0.23,0.283a0.791,0.791,0,0,0,.369.281,1.6,1.6,0,0,0,.506.178,0.814,0.814,0,0,0,.417.01,0.283,0.283,0,0,0,.257.1c0.2,0,.254.006,0.413,0s0.3,0,.3,0h0.462l0.461,0.047h0.323a1.971,1.971,0,0,1,.263.006,1.048,1.048,0,0,1,.337.089,3.893,3.893,0,0,0,.505.035,4.73,4.73,0,0,1,.475-0.016l0.337-.108,0.251-.006,0.507,0.141L127.71,57.4l0.415,0.093h0.553A0.431,0.431,0,0,0,129,57.42a0.289,0.289,0,0,0,.215-0.281,2.509,2.509,0,0,1,.184-0.374,0.673,0.673,0,0,0,.016-0.351,0.737,0.737,0,0,0,0-.424h0Z" transform="translate(-30 -29)"/>
</svg>
