<svg id="menu_category_work.svg" xmlns="http://www.w3.org/2000/svg" width="198" height="26" viewBox="0 0 198 26">
  <defs>
    <style>
      .cls-1 {
        fill: #fff;
      }

      .cls-1, .cls-2 {
        fill-rule: evenodd;
      }

      .cls-2 {
        fill: #1e1e1e;
      }
    </style>
  </defs>
  <path id="長方形_1507_のコピー" data-name="長方形 1507 のコピー" class="cls-1" d="M626,314H824v26H626V314h0Z" transform="translate(-626 -314)"/>
  <path id="KUMONで働くということ_" data-name="KUMONで働くということ。" class="cls-2" d="M636.418,327.518l1.091-1.12,2.422,3.611c0.35,0.518.615,0.952,1.007,1.638h2.31v-0.308a2.143,2.143,0,0,1-1.694-1.176l-3.191-4.59,2.141-2.282a3.568,3.568,0,0,1,2.366-1.455V321.5h-3.317v0.336c0.616,0.028.854,0.168,0.854,0.476a1.931,1.931,0,0,1-.658,1.077l-3.331,3.5v-3.611c0-1.3.07-1.385,1.091-1.441V321.5H634.1v0.336c1.007,0.056,1.077.14,1.077,1.441v6.592c0,1.3-.084,1.4-1.077,1.428v0.35h3.414V331.3c-1.007-.028-1.091-0.14-1.091-1.428v-2.351Zm9.59-6.018v0.336c1.008,0.056,1.078.14,1.078,1.441v4.367a4.393,4.393,0,0,0,.672,2.883,4,4,0,0,0,3.177,1.3,3.655,3.655,0,0,0,3.093-1.329,5.276,5.276,0,0,0,.714-3.275v-3.107a3.443,3.443,0,0,1,.266-1.889,1.146,1.146,0,0,1,1.021-.392V321.5h-3.121v0.336a1.17,1.17,0,0,1,1.064.392,3.947,3.947,0,0,1,.2,1.889v3.065A6.261,6.261,0,0,1,653.72,330a2.784,2.784,0,0,1-2.617,1.33,2.374,2.374,0,0,1-2.239-1.134,5.681,5.681,0,0,1-.5-2.911v-4c0-1.3.07-1.385,1.091-1.441V321.5h-3.443Zm14.8,0.728,3.667,9.293h0.6l3.639-9.307v7.655c0,1.274-.1,1.4-1.077,1.428v0.35h3.4V331.3c-0.994-.028-1.078-0.14-1.078-1.428v-6.592c0-1.3.07-1.385,1.078-1.441V321.5h-2.6l-3.275,8.285-3.289-8.285H659.2v0.336a1.08,1.08,0,0,1,.84.224,1.935,1.935,0,0,1,.21,1.217v5.738a3.485,3.485,0,0,1-.28,1.9,1.071,1.071,0,0,1-.952.378v0.35h3.023V331.3a1.131,1.131,0,0,1-1.021-.378,3.71,3.71,0,0,1-.21-1.9v-6.787Zm13.874,4.338a5.733,5.733,0,0,0,1.162,3.653,4.762,4.762,0,0,0,7.137,0,5.652,5.652,0,0,0,1.162-3.653,5.748,5.748,0,0,0-1.162-3.667,4.789,4.789,0,0,0-7.137,0A5.694,5.694,0,0,0,674.68,326.566Zm1.414,0a6.9,6.9,0,0,1,.755-3.359,2.914,2.914,0,0,1,5.123,0,7.85,7.85,0,0,1,0,6.718,2.913,2.913,0,0,1-5.123,0A6.936,6.936,0,0,1,676.094,326.566Zm13.411-4.044,6.368,9.167h0.8v-7.768c0-1.651.224-2.029,1.274-2.085V321.5h-3.121v0.336a1.261,1.261,0,0,1,1.063.392,3.67,3.67,0,0,1,.21,1.889v5.752l-5.836-8.369h-2.477v0.336c1.05,0.042,1.148.182,1.148,1.553v5.64a3.6,3.6,0,0,1-.28,1.89,1.084,1.084,0,0,1-1.008.378v0.35h3.079V331.3a1.132,1.132,0,0,1-1.022-.378,3.084,3.084,0,0,1-.2-1.652v-6.745Zm11.859,0.517a0.607,0.607,0,0,0-.154.378,2,2,0,0,0,.364.938,1.546,1.546,0,0,0,1.077.826,0.923,0.923,0,0,0,.56-0.2,23.669,23.669,0,0,1,6.256-1.876,7.262,7.262,0,0,0-2.281,1.61,5.183,5.183,0,0,0-1.526,3.415,3.718,3.718,0,0,0,1.624,3.135,5.787,5.787,0,0,0,2.855,1.007,0.444,0.444,0,0,0,.5-0.392,1.147,1.147,0,0,0-.42-0.671,0.7,0.7,0,0,0-.588-0.224,4.22,4.22,0,0,1-1.413-.336,2.841,2.841,0,0,1-1.862-2.729,4.965,4.965,0,0,1,4.7-4.675,1.915,1.915,0,0,1,.392.028,1.968,1.968,0,0,0,.265.014,0.373,0.373,0,0,0,.434-0.35,0.669,0.669,0,0,0-.406-0.531,1.861,1.861,0,0,0-.755-0.294,1.764,1.764,0,0,0-.49.112,15.2,15.2,0,0,1-1.89.461c-0.965.182-1.763,0.364-2.267,0.49a22.492,22.492,0,0,1-3.891.826,0.793,0.793,0,0,1-.629-0.238A1.524,1.524,0,0,1,701.364,323.039Zm8.593,2.17a6.71,6.71,0,0,1,1.078,1.483c0.434,0.91.434,0.91,0.615,0.91a0.523,0.523,0,0,0,.434-0.588,1.615,1.615,0,0,0-.7-1.12,7.194,7.194,0,0,0-1.246-.867Zm1.47-.8a6.7,6.7,0,0,1,1.539,1.987,0.381,0.381,0,0,0,.322.266,0.48,0.48,0,0,0,.35-0.574,1.342,1.342,0,0,0-.714-1.077,6.83,6.83,0,0,0-1.343-.8Zm16.687-.07a34.694,34.694,0,0,1-.5,7.222,0.381,0.381,0,0,1-.475.265,12.034,12.034,0,0,1-1.778-.237v0.223a6.488,6.488,0,0,1,1.078.406,0.777,0.777,0,0,1,.35.714,3.819,3.819,0,0,0,1.147-.252,1.2,1.2,0,0,0,.546-0.8,36.416,36.416,0,0,0,.518-7.263c0.476-.28.546-0.336,0.546-0.448a0.378,0.378,0,0,0-.21-0.252c-0.308-.224-0.42-0.294-0.77-0.546l-0.532.644h-0.993c0.014-.35.014-0.378,0.014-0.434,0.028-1.973.028-1.973,0.056-2.435,0.4-.168.433-0.2,0.447-0.28,0.014-.14-0.293-0.2-1.427-0.322a10.329,10.329,0,0,1,.084,1.6c0,0.713,0,.923-0.056,1.875a7.786,7.786,0,0,1-1.05-.084l0.1,0.49a4.475,4.475,0,0,1,.938-0.084c-0.042,1.287-.084,2-0.084,2.141a9.991,9.991,0,0,1-1.176,4.241,7.76,7.76,0,0,1-1.8,2.043l0.154,0.168a6.574,6.574,0,0,0,1.231-.966,7.315,7.315,0,0,0,1.708-2.393,15.886,15.886,0,0,0,.854-5.234h1.091Zm-7.7,3.933h1.357v1.161h-1.343a4.407,4.407,0,0,1-1.162-.14l0.084,0.532a6.138,6.138,0,0,1,1.078-.07h1.343v1.26a25.109,25.109,0,0,1-2.645.28c0.112,0.462.112,0.475,0.126,0.559,0.126,0.42.126,0.42,0.154,0.518,0.028,0.168.084,0.238,0.154,0.238,0.126,0,.154-0.07.266-0.476,1.26-.294,3.317-0.881,4.87-1.385l-0.084-.2c-0.867.182-1.231,0.238-2.043,0.364v-1.176h2.253c0.154,0,.2-0.014.2-0.07a0.216,0.216,0,0,0-.042-0.084c-0.392-.378-0.518-0.49-0.923-0.826l-0.56.658h-0.924v-1.147H724v0.154c0.014,0.126.056,0.154,0.224,0.154,0.475,0,.587-0.042.615-0.238-0.014-1.554-.014-1.554-0.014-3.219a0.57,0.57,0,0,0,.322-0.35,0.343,0.343,0,0,0-.126-0.182c-0.294-.238-0.294-0.238-0.7-0.574a6.624,6.624,0,0,0-.434.6h-1.316v-1.05h2.617c0.2,0,.238-0.014.238-0.07a0.241,0.241,0,0,0-.056-0.1c-0.322-.28-0.658-0.574-0.993-0.881-0.266.293-.336,0.391-0.6,0.727h-1.2v-1.273a17,17,0,0,0,1.806-.448,3.172,3.172,0,0,0,.419.112,0.166,0.166,0,0,0,.154-0.126,3.186,3.186,0,0,0-.951-0.952,5.112,5.112,0,0,1-1.344.7,17.544,17.544,0,0,1-3.261.882l0.028,0.224a22.4,22.4,0,0,0,2.351-.252v1.133h-1.357a6.421,6.421,0,0,1-1.246-.1l0.112,0.49a6.627,6.627,0,0,1,1.134-.07h1.357v1.05h-1.217c-0.406-.266-0.532-0.35-0.952-0.6,0.042,0.574.056,0.784,0.056,1.274,0,1.511-.014,2.379-0.056,3.233,0,0.154.042,0.209,0.154,0.223,0.63-.042.63-0.042,0.658-0.237v-0.238Zm0-.322v-1.386h1.357v1.386h-1.357Zm0-1.708v-1.3h1.357v1.3h-1.357Zm2.155,1.708v-1.386H724v1.386h-1.428Zm0-1.708v-1.3H724v1.3h-1.428Zm-6.2,1.162a9.083,9.083,0,0,0,1.288-1.973v2.7c-0.028,3.82-.028,3.82-0.056,4.8,0,0.154.07,0.21,0.308,0.21a2.678,2.678,0,0,0,.461-0.042,0.2,0.2,0,0,0,.2-0.182c-0.028-2.617-.028-2.617-0.028-4.968V325.5a0.421,0.421,0,0,0,.406-0.238c0-.112-0.266-0.182-1.049-0.308a22.578,22.578,0,0,0,1.483-3.877c0.49-.07.658-0.14,0.658-0.28s-0.294-.252-1.624-0.5a18.541,18.541,0,0,1-.629,3.023,17.6,17.6,0,0,1-1.61,3.975Zm20.13-6.578a1.206,1.206,0,0,1,.77.826c0,0.336-.42.923-2.113,2.981-0.854,1.049-1.078,1.427-1.078,1.875a1.82,1.82,0,0,0,.532,1.176,25.885,25.885,0,0,1,2.043,2.533,13.239,13.239,0,0,1,1.176,1.973c0.238,0.5.294,0.574,0.476,0.574,0.294,0,.475-0.308.475-0.84a1.8,1.8,0,0,0-.209-0.923A12.215,12.215,0,0,0,736,328.148c-0.783-.714-0.783-0.714-0.979-0.924a1.172,1.172,0,0,1-.42-0.728,1.972,1.972,0,0,1,.672-1.133,34.6,34.6,0,0,1,2.575-2.422c0.742-.6.812-0.685,0.812-0.867a0.763,0.763,0,0,0-.308-0.56,2.948,2.948,0,0,0-1.554-.742A0.649,0.649,0,0,0,736.5,320.828Zm9.409,0.434a1.246,1.246,0,0,1,1.008.5,4.119,4.119,0,0,1,.168,1.609c0.042,1.05.056,1.358,0.1,1.694a1.461,1.461,0,0,0,.406,1.063,0.941,0.941,0,0,0,.671.21,8.991,8.991,0,0,0-1.707,1.12,3.13,3.13,0,0,0-1.372,2.351,2.217,2.217,0,0,0,1.526,2.071,7.151,7.151,0,0,0,2.379.322,21.688,21.688,0,0,0,2.687-.182c0.448-.084.6-0.21,0.6-0.461a0.8,0.8,0,0,0-.756-0.686,1.348,1.348,0,0,0-.28.042,16.322,16.322,0,0,1-3.247.406c-1.553,0-2.351-.518-2.351-1.526a2.252,2.252,0,0,1,1.092-1.791,9.522,9.522,0,0,1,3.5-1.568,8.874,8.874,0,0,0,.937-0.294,0.444,0.444,0,0,0,.294-0.42,0.682,0.682,0,0,0-.672-0.587,1.218,1.218,0,0,0-.573.168,5.222,5.222,0,0,1-1.876.713c-0.434,0-.546-0.21-0.546-1.035a11,11,0,0,1,.308-2.841,0.839,0.839,0,0,0,.112-0.364v-0.028a0.486,0.486,0,0,0-.392-0.448,4.52,4.52,0,0,0-1.413-.266A0.742,0.742,0,0,0,745.911,321.262Zm15.525,5.178c-0.182.308-.182,0.308-0.406,0.672-0.727,1.218-.727,1.218-1.175,1.973-0.308.518-.308,0.518-0.462,0.742a2.032,2.032,0,0,1-.728-1.092,5.986,5.986,0,0,1-.322-2.029,10.939,10.939,0,0,1,.252-2.085,2.387,2.387,0,0,0,.042-0.364,1.688,1.688,0,0,0-.63-1.106,2.068,2.068,0,0,0-1.049-.685h-0.126a3.061,3.061,0,0,1,.714,2.407,15.839,15.839,0,0,0,.1,2.463,6.413,6.413,0,0,0,.951,2.8,2.634,2.634,0,0,0,1.54,1.19,0.331,0.331,0,0,0,.308-0.35,1.225,1.225,0,0,0-.028-0.224,1.678,1.678,0,0,1-.084-0.476c0-.56.294-1.386,1.315-3.737Zm3.121-2.267a3.871,3.871,0,0,1,1.736,1.833,5.085,5.085,0,0,1,.434,1.834,0.348,0.348,0,0,1-.322.42c-0.126.042-.756,0.224-1.89,0.531l0.042,0.21c0.476-.028.742-0.028,1.064-0.028a1.864,1.864,0,0,1,1.05.168,0.675,0.675,0,0,0,.419.154,0.911,0.911,0,0,0,.7-1.105,4.363,4.363,0,0,0-3.163-4.185Zm9.718-3.723a3.252,3.252,0,0,0,2.365,1.526c-0.35.126-1.316,0.56-2.365,1.035l0.07,0.2c2.9-.839,2.9-0.839,3.485-0.853,0.377,0,.573-0.112.573-0.308a0.7,0.7,0,0,0-.294-0.476,1.078,1.078,0,0,0-.755-0.336h-0.322a4.111,4.111,0,0,1-2.617-.9Zm1.035,12.764a6.454,6.454,0,0,0,2.2-1.637,6.836,6.836,0,0,0,1.735-4.521,3.693,3.693,0,0,0-.532-2.057,2.213,2.213,0,0,0-1.735-.938,4.448,4.448,0,0,0-2.365.8,3.787,3.787,0,0,1-1.288.546,0.971,0.971,0,0,1-.77-0.966,0.758,0.758,0,0,0-.224.518,1.761,1.761,0,0,0,.378.937,1.279,1.279,0,0,0,.924.63,0.7,0.7,0,0,0,.574-0.322,4.289,4.289,0,0,1,2.687-1.651c0.826,0,1.329.854,1.329,2.239a8.6,8.6,0,0,1-1.189,4.255,7.747,7.747,0,0,1-1.848,2.015Zm10.613-10.958a3.5,3.5,0,0,0,.98.811,3.821,3.821,0,0,0,1.6.378c0.252,0,.742-0.014,1.05-0.042-0.224.14-.224,0.14-1.175,0.658-0.364.2-.588,0.336-1.022,0.588l0.1,0.21c0.266-.1.266-0.112,0.546-0.224,0.811-.35.811-0.35,1.147-0.476a11.442,11.442,0,0,1,2.044-.686c0.937-.21,1.021-0.252,1.021-0.49a0.96,0.96,0,0,0-.839-0.727,1.42,1.42,0,0,0-.252.056,10.956,10.956,0,0,1-2.911.419,3.288,3.288,0,0,1-2.142-.615Zm-0.531,5.332a3.731,3.731,0,0,0-.224,1.175,2.686,2.686,0,0,0,1.161,2.212,5.724,5.724,0,0,0,3.261.672,16.063,16.063,0,0,0,3.261-.28,0.476,0.476,0,0,0,.448-0.434,0.668,0.668,0,0,0-.308-0.49,1.673,1.673,0,0,0-.77-0.28,0.533,0.533,0,0,0-.238.056,9.413,9.413,0,0,1-3.093.5c-2.253,0-3.3-.784-3.3-2.449,0-.2.014-0.322,0.042-0.63Zm13.915-6.326a1.246,1.246,0,0,1,1.008.5,4.119,4.119,0,0,1,.168,1.609c0.042,1.05.056,1.358,0.1,1.694a1.461,1.461,0,0,0,.406,1.063,0.945,0.945,0,0,0,.672.21,8.972,8.972,0,0,0-1.708,1.12,3.132,3.132,0,0,0-1.371,2.351,2.217,2.217,0,0,0,1.525,2.071,7.156,7.156,0,0,0,2.379.322,21.706,21.706,0,0,0,2.688-.182c0.447-.084.6-0.21,0.6-0.461a0.8,0.8,0,0,0-.755-0.686,1.348,1.348,0,0,0-.28.042,16.33,16.33,0,0,1-3.247.406c-1.554,0-2.351-.518-2.351-1.526a2.25,2.25,0,0,1,1.091-1.791,9.538,9.538,0,0,1,3.5-1.568,8.85,8.85,0,0,0,.938-0.294,0.444,0.444,0,0,0,.294-0.42,0.682,0.682,0,0,0-.672-0.587,1.218,1.218,0,0,0-.574.168,5.221,5.221,0,0,1-1.875.713c-0.434,0-.546-0.21-0.546-1.035a11,11,0,0,1,.308-2.841,0.839,0.839,0,0,0,.112-0.364v-0.028a0.486,0.486,0,0,0-.392-0.448,4.532,4.532,0,0,0-1.414-.266A0.742,0.742,0,0,0,799.307,321.262Zm12.657,8.537a1.806,1.806,0,1,0,1.8,1.806A1.792,1.792,0,0,0,811.964,329.8Zm0,0.448a1.358,1.358,0,0,1,0,2.715,1.368,1.368,0,0,1-1.358-1.357A1.35,1.35,0,0,1,811.964,330.247Z" transform="translate(-626 -314)"/>
</svg>
