<svg id="menu_category_culture.svg" xmlns="http://www.w3.org/2000/svg" width="235" height="26" viewBox="0 0 235 26">
  <defs>
    <style>
      .cls-1 {
        fill: #fff;
      }

      .cls-1, .cls-2 {
        fill-rule: evenodd;
      }

      .cls-2 {
        fill: #1e1e1e;
      }
    </style>
  </defs>
  <path id="長方形_1507_のコピー_2" data-name="長方形 1507 のコピー 2" class="cls-1" d="M1087,314h235v26H1087V314h0Z" transform="translate(-1087 -314)"/>
  <path id="一人ひとりが主役になれる場所_" data-name="一人ひとりが主役になれる場所。" class="cls-2" d="M1095.3,326.9a10.658,10.658,0,0,1,1.74-.1h10.75c0.1,0,.15-0.042.15-0.084a0.135,0.135,0,0,0-.04-0.084c-0.69-.6-0.91-0.784-1.62-1.343a13.762,13.762,0,0,0-.97,1.189h-8.27a9.413,9.413,0,0,1-1.83-.112Zm16.24,5.962a10.218,10.218,0,0,0,4.09-3.443,13.478,13.478,0,0,0,2.24-6.06,10.783,10.783,0,0,0,.34,2.03,15.576,15.576,0,0,0,1.62,3.9,10.316,10.316,0,0,0,3.34,3.387,2.518,2.518,0,0,1,.41-0.7,0.859,0.859,0,0,1,.71-0.279h0.1l0.02-.168a6.984,6.984,0,0,1-1.6-.77,9.989,9.989,0,0,1-2.84-2.7,11.508,11.508,0,0,1-1.97-6.172c0-.126,0-0.238.01-0.434,0.55-.224.6-0.252,0.6-0.364,0-.14-0.17-0.182-1.69-0.378,0.03,0.378.04,0.532,0.04,0.812a15.837,15.837,0,0,1-.32,3,13.473,13.473,0,0,1-2.53,5.682,10.9,10.9,0,0,1-2.68,2.477Zm16.4-10.524a1.643,1.643,0,0,0,1.64,1.119,6.213,6.213,0,0,0,1.07-.126,8.839,8.839,0,0,0-1.42,2.379,7.346,7.346,0,0,0-.56,2.758c0,2.393,1.37,3.96,3.45,3.96a3.65,3.65,0,0,0,2.75-1.2,6.025,6.025,0,0,0,1.24-4.157,20.775,20.775,0,0,0-.32-3.513l0.04-.014a24.889,24.889,0,0,0,1.5,4.017c0.56,1.133.94,1.623,1.26,1.623a0.455,0.455,0,0,0,.32-0.545,1.614,1.614,0,0,0-.41-1.162,6.09,6.09,0,0,1-1.11-1.694,11.236,11.236,0,0,1-1.12-3.219,0.6,0.6,0,0,0-.21-0.517,1.192,1.192,0,0,0-.68-0.35h-0.01a0.26,0.26,0,0,0-.27.252,1.946,1.946,0,0,0,.07.336,13.352,13.352,0,0,1,.47,3.792,7.672,7.672,0,0,1-.7,3.541,3.442,3.442,0,0,1-3.04,1.89c-1.67,0-2.72-1.176-2.72-3.065a6.431,6.431,0,0,1,1.54-3.989,5.77,5.77,0,0,1,1.78-1.526c0.41-.21.46-0.252,0.46-0.377a1.015,1.015,0,0,0-.78-0.672,0.356,0.356,0,0,0-.2.07,4.981,4.981,0,0,1-2.66.909,1.346,1.346,0,0,1-1.19-.657Zm16.5-1.078a1.241,1.241,0,0,1,1.01.5,4.093,4.093,0,0,1,.17,1.609c0.04,1.05.06,1.358,0.1,1.694a1.463,1.463,0,0,0,.4,1.063,0.955,0.955,0,0,0,.67.21,9.063,9.063,0,0,0-1.7,1.12,3.109,3.109,0,0,0-1.37,2.351,2.208,2.208,0,0,0,1.52,2.071,7.174,7.174,0,0,0,2.38.322,21.772,21.772,0,0,0,2.69-.182c0.45-.084.6-0.21,0.6-0.461a0.8,0.8,0,0,0-.76-0.686,1.386,1.386,0,0,0-.28.042,16.265,16.265,0,0,1-3.24.406c-1.56,0-2.35-.518-2.35-1.526a2.238,2.238,0,0,1,1.09-1.791,9.473,9.473,0,0,1,3.5-1.568,7.964,7.964,0,0,0,.93-0.294,0.444,0.444,0,0,0,.3-0.42,0.685,0.685,0,0,0-.67-0.587,1.226,1.226,0,0,0-.58.168,5.215,5.215,0,0,1-1.87.713c-0.44,0-.55-0.21-0.55-1.035a10.888,10.888,0,0,1,.31-2.841,0.8,0.8,0,0,0,.11-0.364v-0.028a0.483,0.483,0,0,0-.39-0.448,4.528,4.528,0,0,0-1.41-.266A0.758,0.758,0,0,0,1144.44,321.262Zm14.28,11.966a7.145,7.145,0,0,0,3.1-2.211,6.956,6.956,0,0,0,1.52-4.577c0-2.337-.95-3.988-2.29-3.988a2.273,2.273,0,0,0-1.71.825,7.777,7.777,0,0,0-1.62,3.667h-0.03c-0.02-.252-0.02-0.392-0.02-0.518a10.086,10.086,0,0,1,1.01-4.17,0.829,0.829,0,0,0,.2-0.532,0.992,0.992,0,0,0-.55-0.784,2.16,2.16,0,0,0-1.12-.462,0.894,0.894,0,0,0-.25.07,1.045,1.045,0,0,1,.76.994,6.292,6.292,0,0,1-.16,1.021,17.047,17.047,0,0,0-.45,3.751c0,1.736.35,2.869,0.89,2.869a0.358,0.358,0,0,0,.36-0.42,2.744,2.744,0,0,0-.01-0.293,7.221,7.221,0,0,1-.06-0.868,7.8,7.8,0,0,1,.66-3.009c0.5-1.148,1.14-1.75,1.84-1.75a1.149,1.149,0,0,1,1,.616,6.576,6.576,0,0,1,.52,2.883,7.636,7.636,0,0,1-1.47,4.717,7.784,7.784,0,0,1-2.23,1.959Zm12.27-3.009c1.47,1.2,1.52,1.274,1.55,1.637a0.327,0.327,0,0,0,.38.322,2.036,2.036,0,0,0,1.34-.629,8.957,8.957,0,0,0,1.53-5.011c0-1.469-.58-2.183-1.78-2.183a5.38,5.38,0,0,0-1.22.154,14.644,14.644,0,0,1,.9-1.89,0.678,0.678,0,0,0,.19-0.405,1.08,1.08,0,0,0-.97-0.742,3.991,3.991,0,0,0-.96-0.182,0.569,0.569,0,0,0-.4.154c0.8,0.252,1.08.5,1.08,0.938a8,8,0,0,1-.58,2.3,14.434,14.434,0,0,1-2.38.49,1.061,1.061,0,0,1-1.06-.77,0.877,0.877,0,0,0-.09.308,2.16,2.16,0,0,0,.47,1.063,1.03,1.03,0,0,0,.61.42,0.747,0.747,0,0,0,.41-0.154,9.7,9.7,0,0,1,1.82-.727,23.84,23.84,0,0,1-2.58,4.87,0.932,0.932,0,0,0-.32.784c0,0.6.15,0.965,0.41,0.965a0.407,0.407,0,0,0,.33-0.265c0.23-.392.69-1.4,1.25-2.716,0.47-1.133.75-1.791,0.82-1.959,0.62-1.413.62-1.413,0.82-1.9a4.828,4.828,0,0,1,1.45-.28,1.044,1.044,0,0,1,.63.14,1.309,1.309,0,0,1,.38,1.133,10.756,10.756,0,0,1-.83,3.751c-0.36.882-.6,1.176-0.91,1.176a7.2,7.2,0,0,1-2.17-.952Zm6.18-5.612a4.206,4.206,0,0,1,2.36,3.2,21.817,21.817,0,0,1-2.15.714l0.06,0.181a12.479,12.479,0,0,1,1.75-.125,0.83,0.83,0,0,1,.57.153,0.566,0.566,0,0,0,.32.1,0.627,0.627,0,0,0,.56-0.769,3.3,3.3,0,0,0-.79-1.974,4.888,4.888,0,0,0-2.56-1.679Zm0.41-2.813a6.509,6.509,0,0,1,1.08,1.469c0.43,0.91.43,0.91,0.61,0.91a0.525,0.525,0,0,0,.44-0.588,1.578,1.578,0,0,0-.7-1.1,5.878,5.878,0,0,0-1.25-.868Zm1.47-.812a7.181,7.181,0,0,1,1.54,2,0.372,0.372,0,0,0,.32.266,0.48,0.48,0,0,0,.35-0.574,1.324,1.324,0,0,0-.71-1.077,6.233,6.233,0,0,0-1.35-.8Zm11.98,2.9h5.1c0.14,0,.19-0.028.19-0.084a0.222,0.222,0,0,0-.07-0.126,8.362,8.362,0,0,0-1.28-1.175c-0.37.447-.48,0.587-0.84,1.063h-7.7a11.315,11.315,0,0,1-1.36-.154l0.13,0.56q0.81-.084,1.23-0.084H1190v3.653h-2.95a10.786,10.786,0,0,1-1.22-.14l0.11,0.56c0.21-.028.94-0.1,1.11-0.1H1190v4.156h-4.41a12.261,12.261,0,0,1-1.34-.126l0.14,0.532a10.876,10.876,0,0,1,1.2-.084h11.28c0.1,0,.15-0.042.15-0.1a0.23,0.23,0,0,0-.05-0.112,15.048,15.048,0,0,0-1.33-1.2c-0.42.462-.55,0.616-0.94,1.091h-3.67v-4.156h4.39c0.09,0,.14-0.028.14-0.07a0.188,0.188,0,0,0-.07-0.126c-0.52-.532-0.68-0.686-1.22-1.162a8.846,8.846,0,0,0-.81,1.036h-2.43v-3.653Zm-2.74-3.275a9.3,9.3,0,0,1,2.81,2.239,0.493,0.493,0,0,0,.37.266,0.675,0.675,0,0,0,.39-0.769,0.826,0.826,0,0,0-.29-0.728,12.118,12.118,0,0,0-3.18-1.176Zm13.9,8.845c-0.04,2.323-.05,3.485-0.05,3.5a0.176,0.176,0,0,0,.22.21c0.67,0,.79-0.028.79-0.238v-0.868c-0.03-.755-0.03-1.217-0.03-1.469v-1.134l0.01-2.631c0.39-.154.46-0.2,0.46-0.294a1.163,1.163,0,0,0-.89-0.266,21,21,0,0,0,1.38-1.861h0.3c0.21,0,.33-0.056.33-0.168s-0.33-.294-1.42-0.714a11.232,11.232,0,0,1-.93,1.96,10.551,10.551,0,0,1-2.11,2.757l0.17,0.182a9.711,9.711,0,0,0,1.77-1.54v2.575Zm4.37-2.757a6,6,0,0,1-1.72-.154l0.14,0.574a3.955,3.955,0,0,1,.84-0.084,9.971,9.971,0,0,0,2.01,3.247,12.358,12.358,0,0,1-4.04,2.575l0.13,0.224a11.961,11.961,0,0,0,4.47-2.253,9.151,9.151,0,0,0,3.95,2.057,1.331,1.331,0,0,1,1.06-1.008V331.7a11.139,11.139,0,0,1-2.91-.658,8.951,8.951,0,0,1-1.52-.728,11.736,11.736,0,0,0,2.25-2.855,1.022,1.022,0,0,0,.81-0.336,0.283,0.283,0,0,0-.15-0.2,10.213,10.213,0,0,0-1.04-.868c-0.25.252-.33,0.336-0.6,0.63h-3.68Zm3.68,0.322a9.376,9.376,0,0,1-1.96,2.827,7.4,7.4,0,0,1-2.15-2.827h4.11Zm-9.7-2.491a8.6,8.6,0,0,0,1.96-1.442,9.636,9.636,0,0,0,1.61-1.777c0.6-.014.74-0.042,0.74-0.182s-0.35-.294-1.56-0.742a6.272,6.272,0,0,1-.79,1.526,9.691,9.691,0,0,1-2.1,2.435Zm3.67,2.113a5.726,5.726,0,0,0,1.92-1.427,4.314,4.314,0,0,0,.98-3.051v-0.532h2.21v2.953a0.731,0.731,0,0,0,.28.686,2.066,2.066,0,0,0,.99.126,12.56,12.56,0,0,0,2.11-.112,0.581,0.581,0,0,0,.48-0.448,0.329,0.329,0,0,0-.29-0.308,0.3,0.3,0,0,1-.24-0.308,1,1,0,0,1,.01-0.14l0.09-1.889h-0.19c-0.43,1.441-.65,2.183-0.67,2.211-0.08.2-.21,0.224-0.84,0.224h-0.61c-0.18,0-.2-0.028-0.2-0.238V321.92c0.55-.336.56-0.336,0.56-0.434a0.275,0.275,0,0,0-.14-0.182c-0.38-.308-0.49-0.406-0.89-0.7a8.386,8.386,0,0,0-.59.7h-1.92a7.336,7.336,0,0,0-1.18-.7c0.05,0.6.06,1.05,0.06,1.54a5.622,5.622,0,0,1-.47,2.491,4.351,4.351,0,0,1-1.59,1.833Zm15.5,0.252-0.74,1.959a12.129,12.129,0,0,1-.51,1.19,5.455,5.455,0,0,1-.26-1.847,7.458,7.458,0,0,1,.18-1.736,11.883,11.883,0,0,1,.75-2.225,1.586,1.586,0,0,0,.3-0.84,1.89,1.89,0,0,0-.52-1.105,1.323,1.323,0,0,0-.94-0.686,2.485,2.485,0,0,1,.39,1.315,6.415,6.415,0,0,1-.19,1.3,22.234,22.234,0,0,0-.49,2.645,12.572,12.572,0,0,0-.11,1.5,8.25,8.25,0,0,0,.49,2.981,0.729,0.729,0,0,0,.6.573,0.336,0.336,0,0,0,.33-0.237,1.829,1.829,0,0,0,.05-0.6,5.657,5.657,0,0,1,.23-1.484c0.4-1.623.61-2.5,0.63-2.631Zm1.8-3.513a2.468,2.468,0,0,0,1.91.784c0.12,0,.28-0.014.57-0.028-0.22.168-.7,0.56-1.33,1.092l0.14,0.14a13.918,13.918,0,0,1,1.81-.994,7.926,7.926,0,0,1,1.98-.49c0.3-.056.4-0.14,0.4-0.322a0.669,0.669,0,0,0-.44-0.518,1.05,1.05,0,0,0-.49-0.2,0.559,0.559,0,0,0-.31.112,7.369,7.369,0,0,1-2.81.63,2.193,2.193,0,0,1-1.3-.378Zm-0.08,4.227a3.672,3.672,0,0,0-.17,1.105,2.309,2.309,0,0,0,.76,1.82,5.694,5.694,0,0,0,3.62.854,6.984,6.984,0,0,0,1.75-.154,0.377,0.377,0,0,0,.31-0.35,1.08,1.08,0,0,0-.88-0.826,0.649,0.649,0,0,0-.21.042,2.211,2.211,0,0,1-.74.224,6.668,6.668,0,0,1-1.19.1c-2.17,0-3.05-.63-3.05-2.169a4.9,4.9,0,0,1,.04-0.588Zm10.39-4.185a2.853,2.853,0,0,0,1.02,1.022,2.267,2.267,0,0,0,1.23.294,4.138,4.138,0,0,0,.66-0.056,18.35,18.35,0,0,1-1.75,3.289,6.345,6.345,0,0,1-.67.839,0.583,0.583,0,0,0-.16.5,0.908,0.908,0,0,0,.44.994,0.691,0.691,0,0,0,.5-0.5c0.13-.238,1.21-2.589,1.63-3.555,0.37-.839.61-1.413,0.74-1.693,2.22-.518,3.09-0.868,3.09-1.232a0.852,0.852,0,0,0-.95-0.42,0.334,0.334,0,0,0-.29.112,3.713,3.713,0,0,1-1.56.77c0.51-1.036.8-1.609,0.86-1.721a0.611,0.611,0,0,0,.14-0.364,0.894,0.894,0,0,0-.66-0.588,2.959,2.959,0,0,0-1.12-.322,0.623,0.623,0,0,0-.34.1,1.188,1.188,0,0,1,.9,1.078,5.831,5.831,0,0,1-.51,1.987,6.111,6.111,0,0,1-1.27.168,2.236,2.236,0,0,1-1.76-.812Zm7.53,0.9a3.852,3.852,0,0,1,1.8.966c-0.51.112-.54,0.126-0.75,0.182a2.1,2.1,0,0,0-1.82,2.659c0,0.168,0,.28.04,1.385a4.515,4.515,0,0,0-.84-0.07c-1.55,0-2.62.686-2.62,1.666,0,0.881.87,1.483,2.13,1.483a2.6,2.6,0,0,0,1.82-.6,1.566,1.566,0,0,0,.39-1.189v-0.266a5.157,5.157,0,0,1,1.7,1.232,0.669,0.669,0,0,0,.49.363,0.4,0.4,0,0,0,.28-0.475,1.356,1.356,0,0,0-.56-1.106,6.414,6.414,0,0,0-1.99-.91,19.981,19.981,0,0,1-.28-2.407c0-.966.35-1.274,1.47-1.274a2.2,2.2,0,0,1,1.37.294,0.535,0.535,0,0,0,.32.112,0.366,0.366,0,0,0,.37-0.406,1.638,1.638,0,0,0-.89-1.091,4.9,4.9,0,0,0-2.39-.77Zm-0.72,6.284c0,0.882-.58,1.343-1.72,1.343-0.86,0-1.4-.307-1.4-0.825,0-.658.73-1.064,1.92-1.064a3.861,3.861,0,0,1,1.2.168V330.6Zm9.27-2.575a6.185,6.185,0,0,1-.91,1.245,0.468,0.468,0,0,0-.23.42,2.717,2.717,0,0,0,.15.77,0.41,0.41,0,0,0,.32.322c0.14,0,.2-0.084.48-0.756a9.513,9.513,0,0,1,1.23,1.526c0.04,0.1.2,0.531,0.24,0.671a0.388,0.388,0,0,0,.33.378c0.34,0,.61-0.658.61-1.455a3.531,3.531,0,0,0-.05-0.658c-0.09-1.078-.14-1.75-0.14-2.5,0-.21,0-0.392.02-0.728a19.8,19.8,0,0,1,2.13-2.211c1.11-.994,1.84-1.414,2.44-1.414a0.9,0.9,0,0,1,.86,1.078,9.1,9.1,0,0,1-.35,2.211,14,14,0,0,0-.35,2.491c0,1.274.57,1.96,1.64,1.96a4.573,4.573,0,0,0,3.09-1.61l-0.11-.168a5.156,5.156,0,0,1-2.61.994,1.236,1.236,0,0,1-.71-0.21,1.145,1.145,0,0,1-.35-1.036,13.246,13.246,0,0,1,.25-2.3,8.892,8.892,0,0,0,.28-2.071,1.738,1.738,0,0,0-.38-1.232,1.44,1.44,0,0,0-1.1-.5,4.006,4.006,0,0,0-2.25.994,21.753,21.753,0,0,0-2.44,2.141,3.084,3.084,0,0,1,.03-0.518,8.83,8.83,0,0,1,.45-0.909,0.746,0.746,0,0,0,.19-0.406,1.134,1.134,0,0,0-.4-0.546,5.583,5.583,0,0,1,.25-1.106,1.388,1.388,0,0,0,.14-0.573,1.424,1.424,0,0,0-.73-0.924,1.862,1.862,0,0,0-.9-0.378,0.279,0.279,0,0,0-.18.07,1.52,1.52,0,0,1,.8,1.553,11.477,11.477,0,0,1-.1,1.484,6.907,6.907,0,0,1-2.01.84,1.218,1.218,0,0,1-.91-0.672,1.25,1.25,0,0,0-.05.238,1.7,1.7,0,0,0,1.04,1.273,0.837,0.837,0,0,0,.48-0.223c0.25-.182.99-0.686,1.41-0.966-0.01.21-.01,0.21-0.04,0.49-0.02.364-.02,0.364-0.03,0.587Zm1.52-1.3a15.38,15.38,0,0,0-.06,1.582c-0.01,2.085-.01,2.085-0.04,2.617a12.128,12.128,0,0,1-1.49-1.134c0.27-.56.42-0.868,0.75-1.483C1249.21,327.126,1249.22,327.126,1249.42,326.72Zm19.26-4.408c0.04-.014.07-0.028,0.07-0.028h0.04a0.011,0.011,0,0,1,.01-0.014,0.108,0.108,0,0,1,.05.028,0.9,0.9,0,0,1-.14.224c-1.11,1.427-1.64,2.043-3.35,3.96a13.1,13.1,0,0,1-1.94,1.946,0.665,0.665,0,0,0-.3.489,0.957,0.957,0,0,0,.46.91,0.7,0.7,0,0,0,.48-0.378,6.611,6.611,0,0,1,4.45-2.6,3.133,3.133,0,0,1,1.39.28,1.927,1.927,0,0,1,.86,1.735,2.759,2.759,0,0,1-1.69,2.618,2.752,2.752,0,0,0-.62-0.868,2.571,2.571,0,0,0-1.77-.686,1.338,1.338,0,0,0-1.51,1.19c0,0.853.88,1.4,2.25,1.4,2.53,0,4.39-1.483,4.39-3.485,0-1.567-1.2-2.617-2.99-2.617a7.018,7.018,0,0,0-3.81,1.33l-0.03-.028c0.3-.294.3-0.294,1.64-1.736,0.66-.7,1.18-1.217,2.06-2.1a3.778,3.778,0,0,1,1.16-.938,0.328,0.328,0,0,0,.24-0.266,0.97,0.97,0,0,0-.42-0.629,1.29,1.29,0,0,0-.76-0.49,0.3,0.3,0,0,0-.19.07,1.852,1.852,0,0,1-.87.434,15.1,15.1,0,0,1-2.65.6,1.21,1.21,0,0,1-1.05-1.021,0.615,0.615,0,0,0-.12.364,2.009,2.009,0,0,0,.39,1.035,1.1,1.1,0,0,0,.8.588,1.651,1.651,0,0,0,.57-0.182c0.97-.42,2.28-0.937,2.83-1.105Zm-0.52,9.5a3.661,3.661,0,0,1-.99.126c-0.98,0-1.6-.335-1.6-0.853a0.76,0.76,0,0,1,.88-0.714A1.83,1.83,0,0,1,1268.16,331.814Zm17.29-3.428a6.816,6.816,0,0,1-1.34,2.127,10.76,10.76,0,0,1-3.28,2.561l0.14,0.2a13.038,13.038,0,0,0,1.4-.658,10.878,10.878,0,0,0,2.48-1.833,7.715,7.715,0,0,0,1.57-2.393h0.72a13.152,13.152,0,0,1-.56,3.345,0.533,0.533,0,0,1-.63.349c-0.36,0-.95-0.042-1.8-0.126l-0.02.238c1.39,0.2,1.54.294,1.67,1.008a2.024,2.024,0,0,0,1.54-.826,13.873,13.873,0,0,0,.74-3.708,0.585,0.585,0,0,0,.45-0.35,0.21,0.21,0,0,0-.11-0.154,7.588,7.588,0,0,0-.81-0.616,3.847,3.847,0,0,0-.52.518h-4.79a11.925,11.925,0,0,0,.92-1.274h5.65c0.11,0,.16-0.028.16-0.084a0.238,0.238,0,0,0-.08-0.14,13.11,13.11,0,0,0-1.15-.938c-0.35.35-.46,0.462-0.81,0.84h-6.02a4.883,4.883,0,0,1-1.26-.126l0.1,0.532a5.5,5.5,0,0,1,1.16-.084h1.19a7.158,7.158,0,0,1-1.13,1.6,9.535,9.535,0,0,1-2.38,2l0.11,0.21a11.838,11.838,0,0,0,3.25-2.211h1.2a7,7,0,0,1-1.15,1.609,9.6,9.6,0,0,1-2.96,2.043l0.11,0.21a9.444,9.444,0,0,0,3.47-1.987,8.617,8.617,0,0,0,1.52-1.875h1.25Zm-6.7-3.779v-3.135c0.43-.112.56-0.182,0.56-0.294,0-.14-0.17-0.182-1.53-0.35,0.04,0.518.06,0.8,0.06,1.3v2.477h-0.82a3.5,3.5,0,0,1-.99-0.112l0.1,0.5a3.992,3.992,0,0,1,.89-0.07h0.82v3.876a17.576,17.576,0,0,1-1.71.546c0.35,0.882.53,1.33,0.55,1.358a0.176,0.176,0,0,0,.15.14c0.14,0,.18-0.168.21-0.686,0.35-.224.35-0.224,1.78-1.106,0.37-.224.82-0.531,1.62-1.105l-0.1-.2c-0.71.336-.98,0.462-1.59,0.714v-3.541h2.22a0.138,0.138,0,0,0,.16-0.084,0.252,0.252,0,0,0-.09-0.14,12.189,12.189,0,0,0-.98-0.882c-0.29.322-.38,0.434-0.67,0.784h-0.64Zm3.69,0.63h3.57v0.35a0.145,0.145,0,0,0,.18.153,3.248,3.248,0,0,0,.59-0.07,0.179,0.179,0,0,0,.14-0.209c-0.01-1.5-.03-2.24-0.03-2.814v-0.825c0.41-.21.45-0.252,0.45-0.336a0.292,0.292,0,0,0-.14-0.2c-0.32-.252-0.43-0.336-0.8-0.588-0.24.238-.31,0.322-0.54,0.574h-3.26a11.5,11.5,0,0,0-1.07-.616c0.03,0.5.04,1.358,0.04,3.023,0,0.462-.01.966-0.04,1.959,0,0.14.06,0.182,0.25,0.182,0.51,0,.66-0.056.66-0.251v-0.336Zm3.57-2.2h-3.57V321.6h3.57v1.441Zm0,0.322v1.554h-3.57v-1.554h3.57Zm15.95,1.974v3.68c0,1.876-.02,2.674-0.06,3.695,0.03,0.1.08,0.126,0.28,0.126a2.4,2.4,0,0,0,.63-0.07,0.159,0.159,0,0,0,.13-0.2c-0.05-1.5-.06-2.645-0.06-3.653v-3.582h2.41c0.11,0,.16-0.028.16-0.07a0.173,0.173,0,0,0-.07-0.126c-0.48-.476-0.64-0.63-1.16-1.106-0.35.42-.44,0.56-0.77,0.98h-3.43c0.05-1.652.05-1.652,0.06-2.394a14.64,14.64,0,0,0,4.07-1.189,2.13,2.13,0,0,0,.47.07c0.18,0,.29-0.056.29-0.14a1.342,1.342,0,0,0-.67-0.546c-0.16-.084-0.38-0.21-0.67-0.378a4.194,4.194,0,0,1-1.07.84,10.169,10.169,0,0,1-2.22,1.05,12.687,12.687,0,0,0-1.21-.742c0.03,0.56.04,0.8,0.04,1.287,0,0.952-.02,2.562-0.06,3.5a8.125,8.125,0,0,1-1.29,4.535,7.242,7.242,0,0,1-1.72,1.763l0.12,0.21a8,8,0,0,0,1.05-.672,6.7,6.7,0,0,0,1.7-1.931,8.922,8.922,0,0,0,1.1-4.493c0-.1,0-0.265.01-0.447h1.94Zm-5.01,1.917v0.686c0,0.14.04,0.182,0.14,0.182a4.3,4.3,0,0,0,.75-0.084,0.188,0.188,0,0,0,.1-0.2c-0.01-.756-0.01-0.756-0.03-1.666-0.01-.685-0.03-1.287-0.03-1.553v-0.63a0.866,0.866,0,0,0,.34-0.294,0.207,0.207,0,0,0-.1-0.14,6.816,6.816,0,0,0-.81-0.63c-0.24.266-.31,0.35-0.55,0.63h-2.26a7.774,7.774,0,0,0-1.17-.63,10.805,10.805,0,0,1,.07,1.358c0,0.644,0,.98-0.01,1.973a14.926,14.926,0,0,1-.49,4.185,6.461,6.461,0,0,1-.92,2.253l0.17,0.154a7.578,7.578,0,0,0,1.62-2.841,11.2,11.2,0,0,0,.52-2.757h2.66Zm0-.322h-2.64c0.02-.546.02-0.546,0.06-3.051h2.58v3.051Zm-4.33-5.15a8.193,8.193,0,0,1,1.48-.084h4.65a0.138,0.138,0,0,0,.14-0.112,0.3,0.3,0,0,0-.04-0.112,14.279,14.279,0,0,0-1.12-.994c-0.35.378-.45,0.49-0.78,0.854h-2.85a9.633,9.633,0,0,1-1.59-.112Zm17.95,8.019a1.806,1.806,0,1,0,1.8,1.806A1.786,1.786,0,0,0,1310.57,329.8Zm0,0.448a1.358,1.358,0,1,1,0,2.715,1.371,1.371,0,0,1-1.36-1.357A1.35,1.35,0,0,1,1310.57,330.247Z" transform="translate(-1087 -314)"/>
</svg>
