<svg id="menu_category_feature.svg" xmlns="http://www.w3.org/2000/svg" width="237" height="26" viewBox="0 0 237 26">
  <defs>
    <style>
      .cls-1 {
        fill: #fff;
      }

      .cls-1, .cls-2 {
        fill-rule: evenodd;
      }

      .cls-2 {
        fill: #1e1e1e;
      }
    </style>
  </defs>
  <path id="長方形_1507" data-name="長方形 1507" class="cls-1" d="M125,314H362v26H125V314h0Z" transform="translate(-125 -314)"/>
  <path id="人の可能性が_次の世界をつくる_" data-name="人の可能性が、次の世界をつくる。" class="cls-2" d="M135.305,332.864a10.247,10.247,0,0,0,4.086-3.443,13.466,13.466,0,0,0,2.239-6.06,10.831,10.831,0,0,0,.336,2.03,15.729,15.729,0,0,0,1.624,3.9,10.312,10.312,0,0,0,3.345,3.387,2.438,2.438,0,0,1,.406-0.7,0.86,0.86,0,0,1,.713-0.279h0.1l0.014-.168a7.083,7.083,0,0,1-1.595-.77,9.864,9.864,0,0,1-2.841-2.7,11.479,11.479,0,0,1-1.974-6.172c0-.126,0-0.238.014-0.434,0.546-.224.6-0.252,0.6-0.364,0-.14-0.168-0.182-1.693-0.378,0.028,0.378.042,0.532,0.042,0.812a15.85,15.85,0,0,1-.322,3,13.441,13.441,0,0,1-2.533,5.682,10.8,10.8,0,0,1-2.673,2.477Zm20.52-.8a8.347,8.347,0,0,0,2.729-.867,4.823,4.823,0,0,0,2.785-4.241A4.276,4.276,0,0,0,160,323.669a5.318,5.318,0,0,0-3.611-1.287,6.787,6.787,0,0,0-4.815,1.959,4.377,4.377,0,0,0-1.259,2.771,2.689,2.689,0,0,0,.322,1.274,8.673,8.673,0,0,1,.616,1.315,2.759,2.759,0,0,0,.391.9,0.812,0.812,0,0,0,.616.294c0.518,0,1.2-.686,2.086-2.086a11.5,11.5,0,0,0,1.847-4.842,1.827,1.827,0,0,0-.434-1.162,3.223,3.223,0,0,1,.49-0.028,4.618,4.618,0,0,1,2.421.644,3.472,3.472,0,0,1,1.582,3.093A4.977,4.977,0,0,1,159,329.883a6.356,6.356,0,0,1-3.275,1.945Zm-0.364-9.209a1.563,1.563,0,0,1,.2.7,10.828,10.828,0,0,1-1.777,4.325,4.215,4.215,0,0,1-1.666,1.847,0.852,0.852,0,0,1-.532-0.406,3.28,3.28,0,0,1-.559-1.847A5.078,5.078,0,0,1,155.461,322.857Zm19.026-1.133h1.959a0.17,0.17,0,0,0,.2-0.1,0.265,0.265,0,0,0-.07-0.112c-0.56-.518-0.741-0.672-1.329-1.162-0.378.448-.49,0.588-0.826,1.05H165.4a8.137,8.137,0,0,1-1.777-.154l0.1,0.56c0.336-.042,1.26-0.084,1.68-0.084h8.075v9.839c0,0.182-.042.223-0.238,0.251h-0.405c-0.56,0-1.176-.028-2.6-0.1v0.209a3.957,3.957,0,0,1,1.792.42,0.945,0.945,0,0,1,.42.742,4.271,4.271,0,0,0,1.637-.434,0.857,0.857,0,0,0,.434-0.854c-0.028-2.183-.028-2.183-0.028-4.59v-5.486Zm-7.851,6.872h3.33v0.867a0.167,0.167,0,0,0,.21.182,3.967,3.967,0,0,0,.672-0.07,0.2,0.2,0,0,0,.126-0.2c-0.042-1.217-.07-2.659-0.07-4v-0.9a0.749,0.749,0,0,0,.462-0.35,0.343,0.343,0,0,0-.126-0.182c-0.35-.294-0.462-0.378-0.84-0.658a8.377,8.377,0,0,0-.587.658h-2.94a12.946,12.946,0,0,0-1.2-.728c0.028,1.176.042,1.834,0.042,1.988,0,1.4-.028,3.806-0.056,4.744a0.2,0.2,0,0,0,.238.2h0.042a1.331,1.331,0,0,0,.2-0.014c0.406,0,.49-0.056.5-0.266V328.6Zm0-4.325h3.33v4h-3.33v-4Zm16.624,5.234v2.212c0,0.167-.042.209-0.224,0.223-0.294-.014-0.294-0.014-0.714-0.014-0.545-.014-0.545-0.014-0.951-0.042v0.182a2.4,2.4,0,0,1,1.021.28,0.828,0.828,0,0,1,.308.6,2.23,2.23,0,0,0,1.12-.35,0.944,0.944,0,0,0,.336-0.756v-0.573c-0.014-1.092-.014-1.092-0.014-1.89v-3.457a0.635,0.635,0,0,0,.364-0.363,0.345,0.345,0,0,0-.2-0.238,6.335,6.335,0,0,0-.672-0.476c-0.21.238-.28,0.308-0.49,0.56h-2.519a7.628,7.628,0,0,0-1.064-.56c0.042,0.867.056,1.217,0.056,1.525,0,2.24-.028,5.375-0.07,6.368v0.042c0,0.14.056,0.182,0.252,0.182a3.987,3.987,0,0,0,.588-0.056c0.1-.014.126-0.056,0.14-0.182-0.014-1.763-.014-1.763-0.014-2.071v-1.148h2.743Zm-2.743-2.239v-1.54h2.743v1.54h-2.743Zm2.743,0.322v1.595h-2.743v-1.595h2.743Zm-0.56-5.738a8.64,8.64,0,0,1,.854,1.441c-0.966.1-1.456,0.126-3.219,0.168a18.935,18.935,0,0,0,1.539-2.267c0.518-.07.7-0.14,0.7-0.28,0-.182-0.434-0.308-1.637-0.518a11.165,11.165,0,0,1-.994,3.079c-0.546,0-.742-0.014-1.343-0.042,0.056,0.294.084,0.518,0.112,0.658,0.056,0.266.083,0.434,0.1,0.518,0.028,0.21.1,0.294,0.21,0.294,0.168,0,.21-0.084.28-0.532,0.5-.084.658-0.112,2.114-0.336a20.992,20.992,0,0,0,2.281-.434,6.667,6.667,0,0,1,.252.742c0.126,0.434.182,0.518,0.322,0.518a1.262,1.262,0,0,0,.042-1.918,16.323,16.323,0,0,0-1.442-1.245Zm3.611-.686a0.6,0.6,0,0,0,.518-0.35c0-.154-0.294-0.224-1.456-0.35,0.028,0.686.028,0.742,0.028,0.994v3.793a0.661,0.661,0,0,0,.336.713,5.333,5.333,0,0,0,1.946.168l1.035-.014a8.579,8.579,0,0,0,1.778-.084,0.568,0.568,0,0,0,.518-0.461c0-.21-0.1-0.294-0.434-0.406a0.249,0.249,0,0,1-.182-0.294v-0.168l0.112-1.68h-0.168c-0.126.378-.224,0.658-0.28,0.84-0.154.5-.252,0.77-0.308,0.91-0.168.42-.2,0.462-0.322,0.49a14.456,14.456,0,0,1-1.469.042,6.706,6.706,0,0,1-1.554-.084,0.292,0.292,0,0,1-.1-0.294v-1.246a14.913,14.913,0,0,0,3.513-1.791,2.663,2.663,0,0,0,.49.084,0.174,0.174,0,0,0,.21-0.154,3.486,3.486,0,0,0-1.176-1.022,9.5,9.5,0,0,1-3.037,2.561v-2.2Zm0,6.186a0.719,0.719,0,0,0,.518-0.392,0.139,0.139,0,0,0-.084-0.112,6.115,6.115,0,0,0-1.372-.224c0.028,0.742.028,0.826,0.028,1.092v3.961a0.819,0.819,0,0,0,.308.769c0.308,0.182.686,0.21,2.309,0.21a9.892,9.892,0,0,0,2.688-.2,0.569,0.569,0,0,0,.377-0.448,0.334,0.334,0,0,0-.237-0.321c-0.378-.084-0.378-0.084-0.378-0.364a3.045,3.045,0,0,1,.014-0.35l0.14-1.582-0.2-.028a8.3,8.3,0,0,1-.854,2.268c-0.154.167-.392,0.195-1.582,0.195a7.543,7.543,0,0,1-1.581-.083,0.266,0.266,0,0,1-.1-0.28v-1.484a17.112,17.112,0,0,0,3.709-1.9,1.839,1.839,0,0,0,.448.1,0.192,0.192,0,0,0,.21-0.154,0.194,0.194,0,0,0-.07-0.14,7.3,7.3,0,0,0-1.134-.882,7.829,7.829,0,0,1-1.651,1.624,10.6,10.6,0,0,1-1.512,1.007V327.35Zm13.509-3.163a11.179,11.179,0,0,0,.7-1.875c0.462-.1.588-0.168,0.588-0.28s-0.238-.21-1.526-0.574a10.49,10.49,0,0,1-.489,2.6,13.269,13.269,0,0,1-1.47,3.373l0.168,0.14a12.248,12.248,0,0,0,1.889-3.065h2.086v3.3h-1.638a4.8,4.8,0,0,1-1.357-.126l0.1,0.518a11.146,11.146,0,0,1,1.259-.07h1.638v3.89h-2.589a6.989,6.989,0,0,1-1.47-.14l0.084,0.546a10.38,10.38,0,0,1,1.386-.084H206.9a0.094,0.094,0,0,0,.1-0.084,0.189,0.189,0,0,0-.07-0.126,11.591,11.591,0,0,0-1.3-1.161c-0.377.448-.489,0.588-0.853,1.049h-2.044v-3.89h3.5a0.124,0.124,0,0,0,.126-0.1,0.226,0.226,0,0,0-.056-0.14,9.133,9.133,0,0,0-1.133-1.05c-0.378.406-.49,0.532-0.84,0.966h-1.6v-3.3h3.821a0.119,0.119,0,0,0,.1-0.1,0.356,0.356,0,0,0-.028-0.1c-0.546-.49-0.714-0.644-1.287-1.106-0.35.42-.448,0.546-0.784,0.98h-1.82v-3.023c0.6-.182.644-0.21,0.644-0.336s-0.182-.2-1.693-0.406a16,16,0,0,1,.084,2.2v1.568H199.82Zm-4.618-1.246a3.812,3.812,0,0,1-.98,2.52,0.583,0.583,0,0,0-.294.461,1.824,1.824,0,0,0,.168.588,0.379,0.379,0,0,0,.294.294,0.854,0.854,0,0,0,.574-0.6,6.887,6.887,0,0,0,.462-2.911c0-.056,0-0.2-0.014-0.35H195.2Zm0.742-.475c0,1.063,0,1.665.014,3.288v2.338c0,1.945-.014,2.855-0.07,4.954a0.15,0.15,0,0,0,.182.154,2.126,2.126,0,0,0,.755-0.112,0.147,0.147,0,0,0,.056-0.14c-0.028-2.6-.042-3.961-0.042-4.1l0.028-7.725c0.49-.154.6-0.224,0.6-0.336,0-.154-0.266-0.21-1.581-0.378a8.282,8.282,0,0,1,.056,1.232v0.826Zm1.343,0.475a7.661,7.661,0,0,1,.406,2.24c0.014,0.21.07,0.294,0.182,0.294a1.108,1.108,0,0,0,.532-0.98,3.12,3.12,0,0,0-.994-1.624Zm15,7.278c1.469,1.2,1.525,1.274,1.553,1.637a0.325,0.325,0,0,0,.378.322,2.05,2.05,0,0,0,1.344-.629,8.949,8.949,0,0,0,1.525-5.011c0-1.469-.574-2.183-1.777-2.183a5.341,5.341,0,0,0-1.218.154,14.758,14.758,0,0,1,.9-1.89,0.72,0.72,0,0,0,.2-0.405,1.1,1.1,0,0,0-.98-0.742,3.924,3.924,0,0,0-.952-0.182,0.573,0.573,0,0,0-.406.154c0.8,0.252,1.078.5,1.078,0.938a7.894,7.894,0,0,1-.574,2.3,14.573,14.573,0,0,1-2.379.49,1.07,1.07,0,0,1-1.064-.77,0.926,0.926,0,0,0-.084.308,2.214,2.214,0,0,0,.462,1.063,1.034,1.034,0,0,0,.616.42,0.732,0.732,0,0,0,.406-0.154,9.9,9.9,0,0,1,1.819-.727,23.559,23.559,0,0,1-2.575,4.87,0.935,0.935,0,0,0-.322.784c0,0.6.154,0.965,0.406,0.965a0.4,0.4,0,0,0,.336-0.265c0.224-.392.686-1.4,1.246-2.716,0.475-1.133.755-1.791,0.825-1.959,0.616-1.413.616-1.413,0.812-1.9a4.889,4.889,0,0,1,1.456-.28,1.045,1.045,0,0,1,.629.14,1.3,1.3,0,0,1,.378,1.133,10.767,10.767,0,0,1-.825,3.751c-0.364.882-.6,1.176-0.91,1.176a7.084,7.084,0,0,1-2.169-.952Zm6.186-5.612a4.212,4.212,0,0,1,2.351,3.2,21.347,21.347,0,0,1-2.141.714l0.056,0.181a12.46,12.46,0,0,1,1.749-.125,0.858,0.858,0,0,1,.574.153,0.556,0.556,0,0,0,.322.1,0.627,0.627,0,0,0,.559-0.769,3.3,3.3,0,0,0-.8-1.974,4.871,4.871,0,0,0-2.561-1.679Zm0.405-2.813a6.625,6.625,0,0,1,1.078,1.469c0.434,0.91.434,0.91,0.616,0.91a0.523,0.523,0,0,0,.434-0.588,1.564,1.564,0,0,0-.7-1.1,5.9,5.9,0,0,0-1.246-.868Zm1.47-.812a7.158,7.158,0,0,1,1.539,2,0.381,0.381,0,0,0,.322.266,0.48,0.48,0,0,0,.35-0.574,1.326,1.326,0,0,0-.713-1.077,6.192,6.192,0,0,0-1.344-.8Zm4.031,9.111a10.945,10.945,0,0,1,2.156,2.225,5.207,5.207,0,0,0,.713,1.008,0.46,0.46,0,0,0,.2.084,0.923,0.923,0,0,0,.5-0.924,1.414,1.414,0,0,0-.742-1.231,12.648,12.648,0,0,0-2.729-1.344Zm21.008-6.424a14.607,14.607,0,0,1-1.287,2.687l0.125,0.126a19.857,19.857,0,0,0,2.3-2.449c0.714-.014.839-0.042,0.839-0.2a0.428,0.428,0,0,0-.181-0.266c-0.49-.434-0.644-0.574-1.12-0.966-0.294.308-.378,0.406-0.672,0.742h-4.744a19.284,19.284,0,0,0,.895-1.987c0.6-.028.756-0.07,0.756-0.21a0.23,0.23,0,0,0-.126-0.14,7.9,7.9,0,0,0-1.609-.5,11.974,11.974,0,0,1-.756,2.659,13.871,13.871,0,0,1-1.847,3.429l0.167,0.1a11.768,11.768,0,0,0,2.338-3.023h4.926Zm-10.063-1.861a8.107,8.107,0,0,1,1.862,2.141c0.322,0.546.392,0.616,0.518,0.616a0.858,0.858,0,0,0,.363-0.9,0.921,0.921,0,0,0-.419-0.868,10.741,10.741,0,0,0-2.212-1.133Zm4.451,4.828a23.828,23.828,0,0,1-2.995,1.134,15.714,15.714,0,0,1-2.071.574c0.405,1.329.5,1.567,0.629,1.567s0.154-.112.21-0.63a31.69,31.69,0,0,0,4.311-2.463Zm-4.087,6.3a10.953,10.953,0,0,0,2.533-.826,6.876,6.876,0,0,0,3.3-2.967,7.92,7.92,0,0,0,.756-3.051c0.406,2.659,1.05,4.143,2.407,5.487a5.233,5.233,0,0,0,1.694,1.245,1.363,1.363,0,0,1,1.077-1.077v-0.154a6.029,6.029,0,0,1-4.338-3.541,7.137,7.137,0,0,1-.686-2.715c0.49-.182.588-0.238,0.588-0.35,0-.154-0.224-0.2-1.68-0.392,0.028,0.378.028,0.518,0.028,0.784a7.156,7.156,0,0,1-1.525,4.73,9.932,9.932,0,0,1-4.213,2.659Zm19.815-.868a8.354,8.354,0,0,0,2.73-.867,4.825,4.825,0,0,0,2.785-4.241,4.274,4.274,0,0,0-1.344-3.289,5.316,5.316,0,0,0-3.611-1.287,6.785,6.785,0,0,0-4.814,1.959,4.373,4.373,0,0,0-1.26,2.771,2.689,2.689,0,0,0,.322,1.274,8.673,8.673,0,0,1,.616,1.315,2.748,2.748,0,0,0,.392.9,0.812,0.812,0,0,0,.616.294c0.517,0,1.2-.686,2.085-2.086a11.483,11.483,0,0,0,1.847-4.842,1.831,1.831,0,0,0-.433-1.162,3.2,3.2,0,0,1,.489-0.028,4.621,4.621,0,0,1,2.422.644,3.474,3.474,0,0,1,1.581,3.093,4.977,4.977,0,0,1-1.246,3.373,6.353,6.353,0,0,1-3.274,1.945Zm-0.363-9.209a1.563,1.563,0,0,1,.2.7,10.818,10.818,0,0,1-1.778,4.325,4.215,4.215,0,0,1-1.665,1.847,0.852,0.852,0,0,1-.532-0.406,3.273,3.273,0,0,1-.56-1.847A5.078,5.078,0,0,1,255.136,322.857Zm11.822,1.624v-3.163a0.686,0.686,0,0,0,.56-0.308c0-.126-0.224-0.182-0.868-0.266-0.154-.014-0.392-0.056-0.7-0.1,0.042,0.616.056,0.84,0.056,1.6l-0.014,2.239h-0.364a12.223,12.223,0,0,1-1.568-.126l0.084,0.546a10.431,10.431,0,0,1,1.484-.1h0.364c-0.014,5.3-.014,6-0.042,8.089,0,0.182.042,0.238,0.21,0.238,0.685,0,.783-0.042.8-0.308v-0.574h9.615a0.137,0.137,0,0,0,.154-0.07,0.182,0.182,0,0,0-.07-0.1c-0.546-.531-0.714-0.7-1.3-1.217-0.364.462-.476,0.6-0.84,1.063h-7.558V324.8h2.561c-0.014,3.471-.014,3.471-0.042,4.842v0.042c0,0.182.042,0.21,0.308,0.21,0.56,0,.644-0.028.672-0.252v-0.868h2.785v0.784c0,0.168.042,0.21,0.182,0.21a2.331,2.331,0,0,0,.686-0.07,0.191,0.191,0,0,0,.112-0.21c-0.042-1.413-.042-1.413-0.07-4.688h2.7c0.084,0,.154-0.028.154-0.084a1.087,1.087,0,0,0-.056-0.1c-0.518-.476-0.686-0.63-1.3-1.134l-0.769.994h-0.742V321.3a0.642,0.642,0,0,0,.546-0.28c0-.14-0.378-0.238-1.554-0.378a13.168,13.168,0,0,1,.112,1.61v2.225h-2.785v-3.163a3.485,3.485,0,0,0,.49-0.2,0.169,0.169,0,0,0,.1-0.126,0.139,0.139,0,0,0-.14-0.112,12.142,12.142,0,0,0-1.456-.224,30.082,30.082,0,0,1,.07,3.821h-2.561Zm3.5,0.322h2.785v3.653h-2.785V324.8Zm13.574,1.413a6.828,6.828,0,0,1-1.75,1.778,10.673,10.673,0,0,1-3.275,1.623l0.1,0.224a10.87,10.87,0,0,0,4.031-1.651c0.014,0.2.014,0.28,0.014,0.462a3.816,3.816,0,0,1-.966,2.855,6.749,6.749,0,0,1-2.715,1.567l0.084,0.2c2.253-.434,3.639-1.246,4.157-2.449a6.565,6.565,0,0,0,.448-2.155c0.447-.126.517-0.168,0.517-0.28s-0.112-.168-0.4-0.224a7.053,7.053,0,0,0-.854-0.168,6.343,6.343,0,0,0,1.721-1.778h0.84a5.407,5.407,0,0,0,1.232,1.288,11.268,11.268,0,0,0,4.142,2.2,1.092,1.092,0,0,1,.924-0.924l0.014-.181a10.813,10.813,0,0,1-4.339-1.218,8.083,8.083,0,0,1-1.651-1.162h2.757v0.378c0,0.14.056,0.2,0.238,0.2a1.907,1.907,0,0,0,.6-0.084,0.217,0.217,0,0,0,.112-0.2c-0.028-.937-0.028-1.357-0.028-2.2,0-.2,0-1.568.014-2.435a0.7,0.7,0,0,0,.545-0.406,0.222,0.222,0,0,0-.111-0.168c-0.406-.28-0.518-0.364-0.924-0.63-0.28.28-.364,0.364-0.616,0.658H282.2a9.539,9.539,0,0,0-1.133-.658c0.014,0.714.042,2.7,0.042,3.709,0,0.714-.014,1.259-0.042,2.3,0,0.14.07,0.2,0.265,0.2a2.6,2.6,0,0,0,.546-0.07,0.158,0.158,0,0,0,.14-0.182v-0.406h2.016Zm5.024-2.617H285.92v-1.945h3.135V323.6Zm0,0.336v1.959H285.92v-1.959h3.135Zm-4.031,1.959h-3.009v-1.959h3.009v1.959Zm-3.009-2.3v-1.945h3.009V323.6h-3.009Zm4.955,4.479C287,328.484,287,328.693,287,329.3c0,2.128,0,2.128-.028,3.667,0,0.112.084,0.154,0.308,0.154a2.1,2.1,0,0,0,.587-0.084,0.157,0.157,0,0,0,.1-0.182c-0.028-1.273-.042-2.029-0.042-2.743,0-.434,0-0.476.014-1.414,0.322-.1.42-0.153,0.42-0.279S288.075,328.218,286.97,328.078Zm8.561-5.067a2.262,2.262,0,0,0,2.086,1.078,5.3,5.3,0,0,0,.937-0.084,11.25,11.25,0,0,1-2.6,3.009c-0.392.322-.406,0.336-0.406,0.63,0,0.448.154,0.742,0.378,0.742a0.749,0.749,0,0,0,.518-0.448c1.008-1.288,2.113-2.03,3.037-2.03a0.8,0.8,0,0,1,.714.42,2.357,2.357,0,0,1,.2,1.106,10.114,10.114,0,0,0-1.736,1.246,2.661,2.661,0,0,0-1.007,1.917,1.532,1.532,0,0,0,1.035,1.483,7.236,7.236,0,0,0,2.841.406,15.562,15.562,0,0,0,2.506-.2,0.439,0.439,0,0,0,.433-0.378,1.046,1.046,0,0,0-.979-0.7,1.034,1.034,0,0,0-.266.042,10.121,10.121,0,0,1-2.813.392c-1.568,0-2.338-.364-2.338-1.12a1.874,1.874,0,0,1,.686-1.3,7.119,7.119,0,0,1,1.638-1.105,13.37,13.37,0,0,1-.1,1.5,1.526,1.526,0,0,0-.014.238,0.42,0.42,0,0,0,.448.42,0.442,0.442,0,0,0,.391-0.266,3.883,3.883,0,0,0,.112-1.2c0-.6,0-0.685-0.014-1.133a22.759,22.759,0,0,1,3.751-1.442c0.392-.084.5-0.182,0.5-0.434a1.967,1.967,0,0,0-1.581-1.413,0.681,0.681,0,0,0-.322.084,0.869,0.869,0,0,1,.643.658c0,0.252-.335.476-1.721,1.175-1.134.574-1.134,0.574-1.372,0.686a1.55,1.55,0,0,0-1.567-1.4,3.779,3.779,0,0,0-1.805.559c0.266-.378.377-0.531,0.755-1.119,0.322-.49.49-0.742,0.742-1.092a22.4,22.4,0,0,0,3.051-.8,0.679,0.679,0,0,0,.6-0.448,0.808,0.808,0,0,0-.938-0.461,0.393,0.393,0,0,0-.266.1,4.615,4.615,0,0,1-2.015.895c0.1-.14.1-0.14,0.35-0.546,0.112-.153.28-0.405,0.406-0.573a0.727,0.727,0,0,0,.224-0.406,0.619,0.619,0,0,0-.5-0.462,2.961,2.961,0,0,0-1.092-.238,1.111,1.111,0,0,0-.63.154c0.728,0.182.994,0.406,0.994,0.784a3.777,3.777,0,0,1-.49,1.427,7.412,7.412,0,0,1-1.5.182,2.3,2.3,0,0,1-1.75-.658Zm18.4,8.384a10.99,10.99,0,0,0,3.457-.812c2.044-.868,3.219-2.365,3.219-4.1,0-1.833-1.455-3.079-3.583-3.079a12.493,12.493,0,0,0-5.122,1.344,4.723,4.723,0,0,1-1.693.5,0.934,0.934,0,0,1-.574-0.224,1.14,1.14,0,0,1-.392-0.518,0.752,0.752,0,0,0-.112.35,2.152,2.152,0,0,0,1.679,1.609,0.8,0.8,0,0,0,.532-0.238,10.053,10.053,0,0,1,5.626-2.337,2.339,2.339,0,0,1,2.562,2.351,4.468,4.468,0,0,1-2.576,3.765,11.6,11.6,0,0,1-3.093,1.176Zm14.128-10.567a1.206,1.206,0,0,1,.769.826c0,0.336-.419.923-2.113,2.981-0.854,1.049-1.078,1.427-1.078,1.875a1.82,1.82,0,0,0,.532,1.176,25.8,25.8,0,0,1,2.044,2.533,13.31,13.31,0,0,1,1.175,1.973c0.238,0.5.294,0.574,0.476,0.574,0.294,0,.476-0.308.476-0.84a1.8,1.8,0,0,0-.21-0.923,12.226,12.226,0,0,0-2.575-2.855,13.441,13.441,0,0,1-.98-0.924,1.172,1.172,0,0,1-.42-0.728,1.972,1.972,0,0,1,.672-1.133,34.8,34.8,0,0,1,2.575-2.422c0.742-.6.812-0.685,0.812-0.867a0.763,0.763,0,0,0-.308-0.56,2.949,2.949,0,0,0-1.553-.742A0.649,0.649,0,0,0,328.062,320.828Zm13.366,1.484a0.589,0.589,0,0,0,.07-0.028h0.042a0.014,0.014,0,0,1,.014-0.014,0.108,0.108,0,0,1,.042.028,0.783,0.783,0,0,1-.14.224c-1.105,1.427-1.637,2.043-3.345,3.96a12.879,12.879,0,0,1-1.945,1.946,0.667,0.667,0,0,0-.294.489,0.958,0.958,0,0,0,.462.91,0.691,0.691,0,0,0,.476-0.378,6.611,6.611,0,0,1,4.45-2.6,3.107,3.107,0,0,1,1.386.28,1.932,1.932,0,0,1,.868,1.735,2.756,2.756,0,0,1-1.694,2.618,2.879,2.879,0,0,0-.616-0.868,2.579,2.579,0,0,0-1.777-.686,1.341,1.341,0,0,0-1.512,1.19c0,0.853.882,1.4,2.254,1.4,2.533,0,4.394-1.483,4.394-3.485,0-1.567-1.2-2.617-3-2.617a7.018,7.018,0,0,0-3.807,1.33l-0.028-.028c0.294-.294.294-0.294,1.638-1.736,0.658-.7,1.176-1.217,2.057-2.1a3.9,3.9,0,0,1,1.162-.938,0.329,0.329,0,0,0,.238-0.266,0.962,0.962,0,0,0-.42-0.629,1.279,1.279,0,0,0-.756-0.49,0.335,0.335,0,0,0-.2.07,1.785,1.785,0,0,1-.867.434,15.228,15.228,0,0,1-2.646.6,1.208,1.208,0,0,1-1.049-1.021,0.574,0.574,0,0,0-.126.364,2,2,0,0,0,.392,1.035,1.091,1.091,0,0,0,.8.588,1.652,1.652,0,0,0,.574-0.182c0.966-.42,2.281-0.937,2.827-1.105Zm-0.518,9.5a3.706,3.706,0,0,1-.993.126c-0.98,0-1.6-.335-1.6-0.853a0.761,0.761,0,0,1,.882-0.714A1.831,1.831,0,0,1,340.91,331.814Zm9.255-2.015a1.806,1.806,0,1,0,1.805,1.806A1.81,1.81,0,0,0,350.165,329.8Zm0,0.448a1.358,1.358,0,0,1,0,2.715,1.368,1.368,0,0,1-1.358-1.357A1.35,1.35,0,0,1,350.165,330.247Z" transform="translate(-125 -314)"/>
</svg>
