<svg id="icon_global01.svg" xmlns="http://www.w3.org/2000/svg" width="70" height="70" viewBox="0 0 70 70">
  <defs>
    <style>
      .cls-1 {
        fill: #6aa0db;
      }

      .cls-2 {
        fill: #fff;
        fill-rule: evenodd;
      }
    </style>
  </defs>
  <circle id="楕円形_1_のコピー_4" data-name="楕円形 1 のコピー 4" class="cls-1" cx="35" cy="35" r="35"/>
  <path id="シェイプ_4" data-name="シェイプ 4" class="cls-2" d="M271.088,3283.91h7.462c0.208,0,.365-0.01.39,0.28a47.488,47.488,0,0,1-.03,7.72,1.088,1.088,0,0,1-.043.16h-7.786A44.843,44.843,0,0,1,271.088,3283.91Zm-2.761.03a51.56,51.56,0,0,0,.017,8.13c-0.138.01-.244,0.02-0.351,0.02-2.358,0-4.716-.01-7.075,0a0.351,0.351,0,0,1-.426-0.31,14.641,14.641,0,0,1,.015-7.6,0.279,0.279,0,0,1,.306-0.27c2.456,0.01,4.911,0,7.367,0A0.937,0.937,0,0,1,268.327,3283.94Zm13.316,8.13a51.079,51.079,0,0,0-.01-8.13c0.125-.01.23-0.02,0.336-0.02,2.358-.01,4.716,0,7.074-0.01a0.374,0.374,0,0,1,.448.33,14.729,14.729,0,0,1-.019,7.57,0.3,0.3,0,0,1-.333.28c-2.443-.01-4.887,0-7.33,0C281.762,3292.09,281.715,3292.07,281.643,3292.07Zm-3.036,2.77c-0.24,1.06-.451,2.09-0.715,3.11a13.014,13.014,0,0,1-1.514,3.76,5.207,5.207,0,0,1-.884,1.05,0.655,0.655,0,0,1-1.014,0,7.844,7.844,0,0,1-1.176-1.55,19.808,19.808,0,0,1-1.817-5.93c-0.022-.13-0.044-0.26-0.073-0.44h7.193Zm-7.2-13.68a19.985,19.985,0,0,1,2.2-6.88,4.536,4.536,0,0,1,.859-1.03,0.672,0.672,0,0,1,1.042,0,7.3,7.3,0,0,1,1.169,1.56,19.949,19.949,0,0,1,1.816,5.93c0.022,0.12.043,0.26,0.071,0.42H271.4Zm16.942,0.04h-0.491c-2.043,0-4.087-.01-6.13.01a0.4,0.4,0,0,1-.477-0.42,24.934,24.934,0,0,0-1.981-6.76c-0.05-.11-0.094-0.22-0.176-0.41A15.153,15.153,0,0,1,288.346,3281.2Zm-26.622,13.63a2.817,2.817,0,0,1,.282-0.03h6.346a0.29,0.29,0,0,1,.358.29,24.83,24.83,0,0,0,2.054,7c0.03,0.07.052,0.13,0.081,0.21C268.206,3302.24,262.439,3297.53,261.724,3294.83Zm-0.069-13.68a15.158,15.158,0,0,1,9.219-7.53c-0.072.18-.11,0.29-0.157,0.39a25.089,25.089,0,0,0-2,6.87,0.291,0.291,0,0,1-.332.32q-3.226-.015-6.454-0.01A2.455,2.455,0,0,1,261.655,3281.15Zm17.5,21.22c0.436-1.2.914-2.32,1.25-3.48,0.356-1.24.582-2.51,0.851-3.76a0.3,0.3,0,0,1,.332-0.33q3.228,0.015,6.457.01c0.068,0,.136.02,0.27,0.03A15.138,15.138,0,0,1,279.158,3302.37Z" transform="translate(-240 -3253)"/>
</svg>
