<svg id="icon_training02.svg" xmlns="http://www.w3.org/2000/svg" width="70" height="70" viewBox="0 0 70 70">
  <defs>
    <style>
      .cls-1 {
        fill: #72c9f3;
      }

      .cls-2 {
        fill: #fff;
        fill-rule: evenodd;
      }
    </style>
  </defs>
  <circle id="楕円形_1_のコピー" data-name="楕円形 1 のコピー" class="cls-1" cx="35" cy="35" r="35"/>
  <path id="シェイプ_6" data-name="シェイプ 6" class="cls-2" d="M795.529,2392.77a14.32,14.32,0,0,1-4.5-.73,0.759,0.759,0,0,0-.573.03q-3.387,1.41-6.78,2.81a1.1,1.1,0,0,1-1.62-.75,1.52,1.52,0,0,1,.111-0.81c0.643-1.61,1.277-3.21,1.985-4.79a1.534,1.534,0,0,0-.15-1.74,11.475,11.475,0,0,1,.829-13.98,13.529,13.529,0,0,1,8.979-4.7,13.985,13.985,0,0,1,9.048,1.9,11.963,11.963,0,0,1,5.808,7.73,11.253,11.253,0,0,1-2.957,10.71A13.719,13.719,0,0,1,795.529,2392.77Zm0-10.71a1.68,1.68,0,1,0-1.7-1.66A1.681,1.681,0,0,0,795.524,2382.06Zm-5.643,0a1.68,1.68,0,1,0-1.677-1.68A1.676,1.676,0,0,0,789.881,2382.06Zm12.92-1.68a1.678,1.678,0,1,0-1.681,1.68A1.681,1.681,0,0,0,802.8,2380.38Z" transform="translate(-760 -2346)"/>
</svg>
