<svg id="icon_enlightenment01.svg" xmlns="http://www.w3.org/2000/svg" width="70" height="70" viewBox="0 0 70 70">
  <defs>
    <style>
      .cls-1 {
        fill: #bdb07b;
      }

      .cls-2 {
        fill: #fff;
        fill-rule: evenodd;
      }
    </style>
  </defs>
  <circle id="楕円形_1_のコピー_5" data-name="楕円形 1 のコピー 5" class="cls-1" cx="35" cy="35" r="35"/>
  <path id="楕円形_1" data-name="楕円形 1" class="cls-2" d="M267.346,3810.36v-0.34c0-2.9,0-5.78,0-8.67a0.539,0.539,0,0,1,.255-0.49,5.24,5.24,0,0,1,3.475-1.14,5.054,5.054,0,0,1,2.962,1.11,0.966,0.966,0,0,0,.538.2c1.856,0.01,3.711,0,5.567.01a1.935,1.935,0,0,1,1.957,2.49,1.96,1.96,0,0,1-1.854,1.33c-1.337.03-2.676,0.01-4.013,0.01-0.4,0-.8-0.01-1.2,0a0.833,0.833,0,0,0-.882.82,0.8,0.8,0,0,0,.866.82c2.082,0.01,4.165.03,6.246-.02a3.24,3.24,0,0,0,2.5-1.38q1.507-1.905,3.008-3.8a1.771,1.771,0,0,1,2.089-.71,1.657,1.657,0,0,1,1.014,2.22,3.157,3.157,0,0,1-.243.44q-1.566,2.355-3.137,4.71a5.146,5.146,0,0,1-4.5,2.39c-4.79.01-9.58,0-14.37,0h-0.278ZM261,3805.69v-5.32a0.855,0.855,0,0,1,1.007-.97h2.685a0.841,0.841,0,0,1,.96.92q0,5.37,0,10.74a0.855,0.855,0,0,1-.98.94h-2.716a0.842,0.842,0,0,1-.955-0.93C261,3809.27,261,3807.48,261,3805.69ZM280.344,3785a6.3,6.3,0,1,1-6.156,6.3A6.229,6.229,0,0,1,280.344,3785Z" transform="translate(-240 -3763)"/>
</svg>
