<svg id="icon_training01.svg" xmlns="http://www.w3.org/2000/svg" width="70" height="70" viewBox="0 0 70 70">
  <defs>
    <style>
      .cls-1 {
        fill: #72c9f3;
      }

      .cls-2 {
        fill: #fff;
        fill-rule: evenodd;
      }
    </style>
  </defs>
  <circle id="楕円形_1_のコピー_2" data-name="楕円形 1 のコピー 2" class="cls-1" cx="35" cy="35" r="35"/>
  <path id="シェイプ_2" data-name="シェイプ 2" class="cls-2" d="M275,2364a5.646,5.646,0,1,1-5.535,5.64A5.591,5.591,0,0,1,275,2364Zm4.067,12.05a7.339,7.339,0,0,1-8.134,0,11.369,11.369,0,0,0-3.541,2.21l7.608,2.91,7.608-2.91a11.369,11.369,0,0,0-3.541-2.21h0Zm7.654,8.54H286.07a0.981,0.981,0,0,0-.977.99v2.66a0.981,0.981,0,0,0,.977.99h0.651A2.32,2.32,0,0,0,286.721,2384.59Zm-22.7-5.03a0.992,0.992,0,0,0-.42.82v2.21h0.325a2.963,2.963,0,0,1,2.93,2.99v2.66a2.963,2.963,0,0,1-2.93,2.99h-0.325v2.1a1,1,0,0,0,.633.93l9.785,3.74v-15.08l-9.1-3.48a0.964,0.964,0,0,0-.9.12h0Zm19.115,8.68v-2.66a2.963,2.963,0,0,1,2.93-2.99H286.4v-2.21a0.992,0.992,0,0,0-.42-0.82,0.964,0.964,0,0,0-.9-0.12l-9.1,3.48V2398l9.785-3.74a1,1,0,0,0,.633-0.93v-2.1H286.07a2.963,2.963,0,0,1-2.93-2.99h0Zm-18.233,0v-2.66a0.981,0.981,0,0,0-.977-0.99h-0.651a2.32,2.32,0,0,0,0,4.64h0.651A0.981,0.981,0,0,0,264.907,2388.24Z" transform="translate(-240 -2346)"/>
</svg>
