<svg id="icon_training03.svg" xmlns="http://www.w3.org/2000/svg" width="70" height="70" viewBox="0 0 70 70">
  <defs>
    <style>
      .cls-1 {
        fill: #72c9f3;
      }

      .cls-2 {
        fill: #fff;
        fill-rule: evenodd;
      }
    </style>
  </defs>
  <circle id="楕円形_1_のコピー_3" data-name="楕円形 1 のコピー 3" class="cls-1" cx="35" cy="35" r="35"/>
  <path id="シェイプ_7_のコピー_2" data-name="シェイプ 7 のコピー 2" class="cls-2" d="M275,2760.18h-5.278a0.833,0.833,0,0,1-.942-0.99,5.927,5.927,0,0,1,1.043-3.19,6.136,6.136,0,0,1,4.251-2.66,6.027,6.027,0,0,1,4.3.91,5.962,5.962,0,0,1,2.781,4.24c0.041,0.25.043,0.51,0.072,0.77a0.854,0.854,0,0,1-.914.93C278.541,2760.17,276.771,2760.18,275,2760.18Zm3.395-11.85a3.4,3.4,0,1,1-3.435-3.33A3.355,3.355,0,0,1,278.4,2748.33ZM265.222,2779h-5.278a0.837,0.837,0,0,1-.942-0.99,5.941,5.941,0,0,1,1.043-3.2,6.283,6.283,0,0,1,8.55-1.75,6,6,0,0,1,2.781,4.24c0.041,0.25.044,0.52,0.073,0.77a0.851,0.851,0,0,1-.915.93C268.764,2778.98,266.993,2779,265.222,2779Zm3.4-11.85a3.4,3.4,0,1,1-3.436-3.34A3.355,3.355,0,0,1,268.618,2767.15ZM284.777,2779H279.5a0.836,0.836,0,0,1-.941-0.99,5.924,5.924,0,0,1,1.043-3.2,6.283,6.283,0,0,1,8.55-1.75,6,6,0,0,1,2.781,4.24c0.04,0.25.043,0.52,0.072,0.77a0.85,0.85,0,0,1-.914.93C288.319,2778.98,286.548,2779,284.777,2779Zm3.4-11.85a3.4,3.4,0,1,1-3.435-3.34A3.353,3.353,0,0,1,288.173,2767.15Z" transform="translate(-240 -2729)"/>
</svg>
