<svg id="icon_global02.svg" xmlns="http://www.w3.org/2000/svg" width="70" height="70" viewBox="0 0 70 70">
  <defs>
    <style>
      .cls-1 {
        fill: #6aa0db;
      }

      .cls-2 {
        fill: #fff;
        fill-rule: evenodd;
      }
    </style>
  </defs>
  <circle id="楕円形_1_のコピー_4" data-name="楕円形 1 のコピー 4" class="cls-1" cx="35" cy="35" r="35"/>
  <path id="シェイプ_5" data-name="シェイプ 5" class="cls-2" d="M811.565,3280.91c-1.724-1.76-4.251-2.44-5.924-2.9-0.321-.08-0.625-0.17-0.877-0.24a4.089,4.089,0,0,1-1.981-1.43,1.17,1.17,0,0,0-.606-0.92l-0.416-.26a0.924,0.924,0,0,0-.53-0.16,1.016,1.016,0,0,0-.9.56l-5.422,9.78-5.159-9.74a1.021,1.021,0,0,0-.909-0.58,0.945,0.945,0,0,0-.512.15l-0.421.26a1.139,1.139,0,0,0-.623.9,3.975,3.975,0,0,1-2,1.38c-0.253.07-.558,0.15-0.881,0.23-1.681.42-4.221,1.05-5.976,2.76a0.966,0.966,0,0,0-.336,1.18l3.783,7.53a0.727,0.727,0,0,0,.642.41h0a0.744,0.744,0,0,0,.558-0.26,6.4,6.4,0,0,1,3.562-2.02,11.306,11.306,0,0,0,5.017-1.8l0.02-.01a0.8,0.8,0,0,1,.2-0.12,0.324,0.324,0,0,1,.047.07l1.39,2.55-5.853,10.55,0,0.01a1.158,1.158,0,0,0,.368,1.49l0.417,0.27a1,1,0,0,0,.529.16,1.035,1.035,0,0,0,.9-0.56l5.195-9.09,5.118,9.36a1.019,1.019,0,0,0,.908.58,0.94,0.94,0,0,0,.511-0.15l0.421-.25a1.166,1.166,0,0,0,.4-1.49l-5.751-10.85,1.518-2.66,0.006-.01a0.283,0.283,0,0,1,.048-0.07,0.77,0.77,0,0,1,.2.12l0.02,0.01a11.419,11.419,0,0,0,4.983,1.92,6.421,6.421,0,0,1,3.526,2.09,0.73,0.73,0,0,0,.567.27h0a0.725,0.725,0,0,0,.635-0.39l3.918-7.45A0.957,0.957,0,0,0,811.565,3280.91Z" transform="translate(-760 -3253)"/>
</svg>
