<svg id="icon_training04.svg" xmlns="http://www.w3.org/2000/svg" width="70" height="70" viewBox="0 0 70 70">
  <defs>
    <style>
      .cls-1 {
        fill: #72c9f3;
      }

      .cls-2 {
        fill: #fff;
        fill-rule: evenodd;
      }
    </style>
  </defs>
  <circle id="楕円形_1_のコピー_3" data-name="楕円形 1 のコピー 3" class="cls-1" cx="35" cy="35" r="35"/>
  <path id="シェイプ_1" data-name="シェイプ 1" class="cls-2" d="M785,2777v-5.73h5.739v-5.76H796.5v-5.76h5.756V2754H808v23H785Z" transform="translate(-760 -2729)"/>
  <path id="シェイプ_7" data-name="シェイプ 7" class="cls-2" d="M792.2,2755.32c-0.3.51-.576,1-0.881,1.48a6.837,6.837,0,0,1-9.041,2.38,0.44,0.44,0,0,1-.279-0.44,0.43,0.43,0,0,1,.38-0.38,9.6,9.6,0,0,0,3.146-1.49,9.418,9.418,0,0,0,2.625-2.88c0.138-.23.275-0.46,0.424-0.71a1.4,1.4,0,0,0-.14-0.08l-1.969-1.11a0.437,0.437,0,0,1-.271-0.35,0.4,0.4,0,0,1,.352-0.44c0.867-.19,1.734-0.37,2.6-0.56,1.116-.24,2.232-0.47,3.348-0.71a0.453,0.453,0,0,1,.632.35c0.59,1.81,1.181,3.61,1.772,5.42,0.031,0.09.064,0.19,0.088,0.29a0.369,0.369,0,0,1-.158.42,0.413,0.413,0,0,1-.452.03,0.654,0.654,0,0,1-.118-0.07c-0.634-.35-1.269-0.71-1.9-1.06A1.27,1.27,0,0,0,792.2,2755.32Z" transform="translate(-760 -2729)"/>
</svg>
