<svg id="icon_classroom2.svg" xmlns="http://www.w3.org/2000/svg" width="100" height="100" viewBox="0 0 100 100">
  <defs>
    <style>
      .cls-1 {
        fill: #eaf4f9;
      }

      .cls-2 {
        fill: #72c9f3;
        fill-rule: evenodd;
      }
    </style>
  </defs>
  <circle id="楕円形_611_のコピー_22" data-name="楕円形 611 のコピー 22" class="cls-1" cx="50" cy="50" r="50"/>
  <path id="シェイプ_749" data-name="シェイプ 749" class="cls-2" d="M915,10240.7a11.023,11.023,0,0,0-11.066,11c0,2.9,1.8,6.7,5.338,11.2a53.069,53.069,0,0,0,5.26,5.9,0.6,0.6,0,0,0,.936,0,53.069,53.069,0,0,0,5.26-5.9c3.542-4.5,5.338-8.3,5.338-11.2a11.023,11.023,0,0,0-11.066-11h0Zm0,18.9a7.9,7.9,0,1,1,7.9-7.9A7.947,7.947,0,0,1,915,10259.6Zm5.424-8.9-4.968-4.5a0.768,0.768,0,0,0-.912,0l-4.968,4.5a0.762,0.762,0,0,0-.126.9,0.7,0.7,0,0,0,.6.3h0.657v4.3a0.681,0.681,0,0,0,.678.7h1.581a0.68,0.68,0,0,0,.677-0.7v-2.5a0.68,0.68,0,0,1,.677-0.7h1.355a0.681,0.681,0,0,1,.678.7v2.5a0.68,0.68,0,0,0,.677.7h1.581a0.681,0.681,0,0,0,.678-0.7v-4.3h0.657a0.7,0.7,0,0,0,.6-0.3A0.762,0.762,0,0,0,920.424,10250.7Z" transform="translate(-865 -10221)"/>
  <path id="シェイプ_749_のコピー" data-name="シェイプ 749 のコピー" class="cls-2" d="M900.066,10269A11.023,11.023,0,0,0,889,10280c0,3,1.8,6.8,5.337,11.3a62.993,62.993,0,0,0,5.26,5.8,0.6,0.6,0,0,0,.937,0,62.993,62.993,0,0,0,5.26-5.8c3.541-4.5,5.337-8.3,5.337-11.3a11.023,11.023,0,0,0-11.065-11h0Zm0,18.9a7.9,7.9,0,1,1,7.9-7.9A7.882,7.882,0,0,1,900.066,10287.9Zm5.423-8.8-4.968-4.5a0.574,0.574,0,0,0-.911,0l-4.968,4.5a0.6,0.6,0,0,0-.126.8,0.7,0.7,0,0,0,.6.3h0.657v4.3a0.68,0.68,0,0,0,.677.7h1.581a0.681,0.681,0,0,0,.678-0.7v-2.5a0.664,0.664,0,0,1,.677-0.6h1.355a0.665,0.665,0,0,1,.678.6v2.5a0.68,0.68,0,0,0,.677.7h1.581a0.68,0.68,0,0,0,.677-0.7v-4.3h0.658a0.7,0.7,0,0,0,.6-0.3A0.6,0.6,0,0,0,905.489,10279.1Z" transform="translate(-865 -10221)"/>
  <path id="シェイプ_749_のコピー_2" data-name="シェイプ 749 のコピー 2" class="cls-2" d="M930.934,10269a11.023,11.023,0,0,0-11.065,11c0,3,1.8,6.8,5.337,11.3a62.993,62.993,0,0,0,5.26,5.8,0.6,0.6,0,0,0,.937,0,62.993,62.993,0,0,0,5.26-5.8c3.541-4.5,5.337-8.3,5.337-11.3a11.023,11.023,0,0,0-11.066-11h0Zm0,18.9a7.9,7.9,0,1,1,7.9-7.9A7.883,7.883,0,0,1,930.934,10287.9Zm5.424-8.8-4.968-4.5a0.574,0.574,0,0,0-.911,0l-4.968,4.5a0.6,0.6,0,0,0-.126.8,0.7,0.7,0,0,0,.6.3h0.658v4.3a0.68,0.68,0,0,0,.677.7H928.9a0.68,0.68,0,0,0,.677-0.7v-2.5a0.665,0.665,0,0,1,.678-0.6h1.355a0.664,0.664,0,0,1,.677.6v2.5a0.681,0.681,0,0,0,.678.7h1.581a0.68,0.68,0,0,0,.677-0.7v-4.3h0.657a0.7,0.7,0,0,0,.6-0.3A0.6,0.6,0,0,0,936.358,10279.1Z" transform="translate(-865 -10221)"/>
</svg>
