<svg id="icon_hub.svg" xmlns="http://www.w3.org/2000/svg" width="100" height="100" viewBox="0 0 100 100">
  <defs>
    <style>
      .cls-1 {
        fill: #eaf4f9;
      }

      .cls-2 {
        fill: #72c9f3;
        fill-rule: evenodd;
      }
    </style>
  </defs>
  <circle id="楕円形_611_のコピー_14" data-name="楕円形 611 のコピー 14" class="cls-1" cx="50" cy="50" r="50"/>
  <path id="シェイプ_748" data-name="シェイプ 748" class="cls-2" d="M540.166,10260.9v33.1H551v-33.1H540.166Zm3.863,6.1h3.047v2.9h-3.047v-2.9Zm3.047,16.3h-3.047v-2.9h3.047v2.9Zm0.042-6.7h-3.047v-2.9h3.047v2.9Zm-6.929-23.5H551v4.8H540.189v-4.8ZM499,10250.3v43.7h10.884v-40.6Zm3.916,10h3.047v2.9h-3.047v-2.9Zm3.05,23.1h-3.047v-3h3.047v3Zm0-6.8h-3.047v-2.9h3.047v2.9Zm0.019-6.7h-3.047v-2.9h3.047v2.9Zm14.445,15.9h3.047v8.2H520.43v-8.2Zm6.093,0h3.047v8.2h-3.047v-8.2Zm-13.307-37.8v46h4.167v-11.1h15.234v11.1h4.5v-46h-23.9Zm7.214,30.4h-3.047v-6.3h3.047v6.3Zm0-9.3h-3.047v-6.3h3.047v6.3Zm0-9.3h-3.047v-6.3h3.047v6.3Zm6.093,18.6h-3.046v-6.3h3.046v6.3Zm0-9.3h-3.046v-6.3h3.046v6.3Zm0-9.3h-3.046v-6.3h3.046v6.3Zm6.094,18.6H529.57v-6.3h3.047v6.3Zm0-9.3H529.57v-6.3h3.047v6.3Zm0-9.3H529.57v-6.3h3.047v6.3Z" transform="translate(-475 -10221)"/>
</svg>
