<svg xmlns="http://www.w3.org/2000/svg" width="20" height="46" viewBox="0 0 20 46">
  <defs>
    <style>
      .cls-1 {
        fill: #72c9f3;
        fill-rule: evenodd;
      }
    </style>
  </defs>
  <path id="icon_man.svg" class="cls-1" d="M477.919,9520.01a3.872,3.872,0,1,1-3.988,3.87A3.928,3.928,0,0,1,477.919,9520.01Zm1.389,9.58a7.46,7.46,0,0,0-3.05.04c-6.63.75-8.783,8.2-8.175,13.88,0.263,2.45,4.252,2.48,3.985,0a14.376,14.376,0,0,1,1.007-7.42v8.1c0,0.09.01,0.18,0.014,0.27,0,0.05-.013.08-0.013,0.13,0,6.42-.011,12.84-0.285,19.25-0.121,2.86,4.437,2.84,4.557,0,0.214-5.03.268-10.06,0.281-15.09a3.507,3.507,0,0,0,.648,0c0.013,5.04.065,10.07,0.277,15.09,0.122,2.84,4.68,2.86,4.558,0-0.274-6.41-.284-12.83-0.284-19.25a2.412,2.412,0,0,0-.069-0.56c-0.006-2.78-.116-5.57-0.082-8.36,1.358,2.23,1.481,5.63,1.246,7.83-0.267,2.48,3.722,2.46,3.986,0C488.531,9537.71,486.274,9530.07,479.308,9529.59Z" transform="translate(-468 -9520)"/>
</svg>
