<svg id="icon_teacher.svg" xmlns="http://www.w3.org/2000/svg" width="100" height="100" viewBox="0 0 100 100">
  <defs>
    <style>
      .cls-1 {
        fill: #fff;
      }

      .cls-2 {
        fill: #72c9f3;
        fill-rule: evenodd;
      }
    </style>
  </defs>
  <circle id="楕円形_611_のコピー_9" data-name="楕円形 611 のコピー 9" class="cls-1" cx="50" cy="50" r="50"/>
  <path id="シェイプ_730" data-name="シェイプ 730" class="cls-2" d="M833.5,9768.78a6.391,6.391,0,1,0-6.513-6.39A6.456,6.456,0,0,0,833.5,9768.78Zm-13.026,9.34,0.347,0.07a1.732,1.732,0,0,1,1.39,1.67v4.27a1.723,1.723,0,0,1-1.39,1.67l-0.347.07v4.65l12.157,4.48v-16.08l-12.157-4.47v3.67ZM817,9782a2.156,2.156,0,0,0,2.171,2.13h1.3v-4.27h-1.3A2.158,2.158,0,0,0,817,9782Zm25.026-8.39a13.209,13.209,0,0,0-17.052,0l-0.552.47,9.078,3.34,9.078-3.34Zm5.8,6.25h-1.3v4.27h1.3A2.135,2.135,0,1,0,847.829,9779.86Zm-3.04,4.27v-4.27a1.732,1.732,0,0,1,1.39-1.67l0.347-.07v-3.67l-12.158,4.47V9795l12.158-4.48v-4.65l-0.347-.07A1.723,1.723,0,0,1,844.789,9784.13Z" transform="translate(-774 -9716)"/>
  <path id="シェイプ_730-2" data-name="シェイプ 730" class="cls-2" d="M812.5,9752.47a7.236,7.236,0,1,0-7.137-7.24A7.186,7.186,0,0,0,812.5,9752.47Zm6.417,0.4h-1.87a0.982,0.982,0,0,0-.721.39l-3.569,3.35a0.283,0.283,0,0,1-.514,0l-3.569-3.35a0.982,0.982,0,0,0-.72-0.39h-1.871a4.111,4.111,0,0,0-4.083,4.14v10.92a2.059,2.059,0,0,0,2.042,2.07h16.916a2.057,2.057,0,0,0,2.042-2.07v-10.92A4.108,4.108,0,0,0,818.917,9752.87Z" transform="translate(-774 -9716)"/>
</svg>
