<svg id="icon_employee.svg" xmlns="http://www.w3.org/2000/svg" width="359" height="100" viewBox="0 0 359 100">
  <defs>
    <style>
      .cls-1 {
        fill: #cfeaf7;
      }

      .cls-2 {
        fill: #fff;
      }

      .cls-3 {
        fill: #72c9f3;
        fill-rule: evenodd;
      }
    </style>
  </defs>
  <rect id="長方形_687" data-name="長方形 687" class="cls-1" x="88" y="35" width="192" height="30"/>
  <circle id="楕円形_611_のコピー_16" data-name="楕円形 611 のコピー 16" class="cls-2" cx="50" cy="50" r="50"/>
  <circle id="楕円形_611_のコピー_17" data-name="楕円形 611 のコピー 17" class="cls-2" cx="180" cy="50" r="50"/>
  <circle id="楕円形_611_のコピー_18" data-name="楕円形 611 のコピー 18" class="cls-2" cx="309" cy="50" r="50"/>
  <path id="シェイプ_678_のコピー_2" data-name="シェイプ 678 のコピー 2" class="cls-3" d="M1138.4,10823.9a3.87,3.87,0,1,1-3.87-3.9A3.833,3.833,0,0,1,1138.4,10823.9Zm2.58,10.3a6.563,6.563,0,0,0-2.62-5.2,6.292,6.292,0,0,1-7.66,0,6.638,6.638,0,0,0-2.7,5.2v6.5h12.98v-6.5Zm12.89-10.3a3.87,3.87,0,1,1-3.87-3.9A3.833,3.833,0,0,1,1153.87,10823.9Zm-10.32,10.3v6.5h12.9v-6.5a6.563,6.563,0,0,0-2.62-5.2,6.292,6.292,0,0,1-7.66,0A6.563,6.563,0,0,0,1143.55,10834.2Zm25.79-10.3a3.87,3.87,0,1,1-3.87-3.9A3.839,3.839,0,0,1,1169.34,10823.9Zm-0.04,5.1a6.292,6.292,0,0,1-7.66,0,6.563,6.563,0,0,0-2.62,5.2v6.5H1172v-6.5A6.638,6.638,0,0,0,1169.3,10829Zm-30.9,18.2a3.87,3.87,0,1,1-3.87-3.9A3.833,3.833,0,0,1,1138.4,10847.2Zm2.58,10.3a6.419,6.419,0,0,0-2.62-5.2,6.292,6.292,0,0,1-7.66,0,6.489,6.489,0,0,0-2.7,5.2v6.5h12.98v-6.5Zm12.89-10.3a3.87,3.87,0,1,1-3.87-3.9A3.833,3.833,0,0,1,1153.87,10847.2Zm-10.32,16.8h12.9v-6.5a6.419,6.419,0,0,0-2.62-5.2,6.292,6.292,0,0,1-7.66,0,6.419,6.419,0,0,0-2.62,5.2v6.5Zm25.79-16.8a3.87,3.87,0,1,1-3.87-3.9A3.839,3.839,0,0,1,1169.34,10847.2Zm-0.04,5.1a6.292,6.292,0,0,1-7.66,0,6.419,6.419,0,0,0-2.62,5.2v6.5H1172v-6.5A6.489,6.489,0,0,0,1169.3,10852.3Z" transform="translate(-841 -10792)"/>
  <path id="シェイプ_678_のコピー_4" data-name="シェイプ 678 のコピー 4" class="cls-3" d="M879.4,10823.9a3.867,3.867,0,1,1-3.867-3.9A3.833,3.833,0,0,1,879.4,10823.9Zm2.579,10.3a6.562,6.562,0,0,0-2.616-5.2,6.29,6.29,0,0,1-7.659,0,6.643,6.643,0,0,0-2.7,5.2v6.5h12.977v-6.5Zm12.89-10.3A3.867,3.867,0,1,1,891,10820,3.833,3.833,0,0,1,894.867,10823.9Zm-10.312,10.3v6.5h12.89v-6.5a6.561,6.561,0,0,0-2.615-5.2,6.292,6.292,0,0,1-7.66,0A6.561,6.561,0,0,0,884.555,10834.2Zm25.781-10.3a3.867,3.867,0,1,1-3.867-3.9A3.834,3.834,0,0,1,910.336,10823.9Zm-0.038,5.1a6.29,6.29,0,0,1-7.659,0,6.562,6.562,0,0,0-2.616,5.2v6.5H913v-6.5A6.643,6.643,0,0,0,910.3,10829Zm-30.9,18.2a3.867,3.867,0,1,1-3.867-3.9A3.833,3.833,0,0,1,879.4,10847.2Zm2.579,10.3a6.418,6.418,0,0,0-2.616-5.2,6.29,6.29,0,0,1-7.659,0,6.494,6.494,0,0,0-2.7,5.2v6.5h12.977v-6.5Zm12.89-10.3a3.867,3.867,0,1,1-3.867-3.9A3.833,3.833,0,0,1,894.867,10847.2Zm-10.312,16.8h12.89v-6.5a6.417,6.417,0,0,0-2.615-5.2,6.292,6.292,0,0,1-7.66,0,6.417,6.417,0,0,0-2.615,5.2v6.5Zm25.781-16.8a3.867,3.867,0,1,1-3.867-3.9A3.834,3.834,0,0,1,910.336,10847.2Zm-0.038,5.1a6.29,6.29,0,0,1-7.659,0,6.418,6.418,0,0,0-2.616,5.2v6.5H913v-6.5A6.494,6.494,0,0,0,910.3,10852.3Z" transform="translate(-841 -10792)"/>
  <path id="シェイプ_678_のコピー_3" data-name="シェイプ 678 のコピー 3" class="cls-3" d="M1009.4,10823.9a3.87,3.87,0,1,1-3.87-3.9A3.833,3.833,0,0,1,1009.4,10823.9Zm2.58,10.3a6.563,6.563,0,0,0-2.62-5.2,6.292,6.292,0,0,1-7.66,0,6.638,6.638,0,0,0-2.7,5.2v6.5h12.98v-6.5Zm12.89-10.3a3.87,3.87,0,1,1-3.87-3.9A3.833,3.833,0,0,1,1024.87,10823.9Zm-10.32,10.3v6.5h12.9v-6.5a6.563,6.563,0,0,0-2.62-5.2,6.292,6.292,0,0,1-7.66,0A6.563,6.563,0,0,0,1014.55,10834.2Zm25.79-10.3a3.87,3.87,0,1,1-3.87-3.9A3.839,3.839,0,0,1,1040.34,10823.9Zm-0.04,5.1a6.292,6.292,0,0,1-7.66,0,6.563,6.563,0,0,0-2.62,5.2v6.5H1043v-6.5A6.638,6.638,0,0,0,1040.3,10829Zm-30.9,18.2a3.87,3.87,0,1,1-3.87-3.9A3.833,3.833,0,0,1,1009.4,10847.2Zm2.58,10.3a6.419,6.419,0,0,0-2.62-5.2,6.292,6.292,0,0,1-7.66,0,6.489,6.489,0,0,0-2.7,5.2v6.5h12.98v-6.5Zm12.89-10.3a3.87,3.87,0,1,1-3.87-3.9A3.833,3.833,0,0,1,1024.87,10847.2Zm-10.32,16.8h12.9v-6.5a6.419,6.419,0,0,0-2.62-5.2,6.292,6.292,0,0,1-7.66,0,6.419,6.419,0,0,0-2.62,5.2v6.5Zm25.79-16.8a3.87,3.87,0,1,1-3.87-3.9A3.839,3.839,0,0,1,1040.34,10847.2Zm-0.04,5.1a6.292,6.292,0,0,1-7.66,0,6.419,6.419,0,0,0-2.62,5.2v6.5H1043v-6.5A6.489,6.489,0,0,0,1040.3,10852.3Z" transform="translate(-841 -10792)"/>
</svg>
