<svg id="kv_ttl01.svg" xmlns="http://www.w3.org/2000/svg" width="60" height="285" viewBox="0 0 60 285">
  <defs>
    <style>
      .cls-1 {
        fill: #72c9f3;
      }

      .cls-2 {
        fill: #fff;
        fill-rule: evenodd;
      }
    </style>
  </defs>
  <rect id="長方形_1496_のコピー_3" data-name="長方形 1496 のコピー 3" class="cls-1" width="60" height="285"/>
  <path id="公文式教育の_追求_のコピー" data-name="公文式教育の 追求 のコピー" class="cls-2" d="M256.743,503.233a56.8,56.8,0,0,1,6.383,9.365c-10.163.924-11.3,1.008-18.814,1.3a50.569,50.569,0,0,0,3.486-5.165,65.55,65.55,0,0,0,6.089-11.927c1.554-.294,1.932-0.462,1.932-0.882,0-.5-1.008-0.8-5.166-1.595-0.756,4.577-3.527,11.716-7.6,19.611-1.092.042-1.511,0.042-2.309,0.042-1.47,0-2.184-.042-3.78-0.168,0.42,1.848,1.05,4.157,1.218,4.661,0.168,0.462.294,0.63,0.546,0.63,0.378,0,.588-0.462.8-1.847,1.26-.168,2.687-0.336,4.283-0.546,5.543-.714,5.837-0.756,11-1.6,4.283-.672,5.207-0.882,8.777-1.68a23.979,23.979,0,0,1,1.049,2.226,22.711,22.711,0,0,0,1.092,2.519,0.813,0.813,0,0,0,.672.42c0.756,0,1.512-1.679,1.512-3.317,0-1.554-.714-2.814-2.94-5.249a59.971,59.971,0,0,0-7.559-7.307Zm-22.761.672a38.228,38.228,0,0,0,8.314-7.223,43.424,43.424,0,0,0,6.594-10.12c1.343-.126,1.847-0.294,1.847-0.714s-0.924-.882-4.535-2.226a22.592,22.592,0,0,1-.8,2.6,63.787,63.787,0,0,1-3.192,6.3,44.2,44.2,0,0,1-8.692,10.75Zm22.845-19.863a4.585,4.585,0,0,1,1.133,1.89A37.95,37.95,0,0,0,263,495.3a34.1,34.1,0,0,0,7.433,7.307,3.986,3.986,0,0,1,3.317-2.856v-0.63a20.1,20.1,0,0,1-5.123-2.394,26.77,26.77,0,0,1-6.887-6.467c-1.974-2.687-3.192-5.081-3.192-6.3V483.37Zm15.621,51.7a0.281,0.281,0,0,0,.294-0.252,0.841,0.841,0,0,0-.252-0.462c-1.805-1.6-2.351-2.058-4.2-3.569l-2.772,3.317H254.811v-5.5c1.512-.588,1.89-0.8,1.89-1.134,0-.462-0.336-0.546-5.208-1.176,0.084,1.3.126,1.89,0.126,3.024v4.787H238.727a21.954,21.954,0,0,1-3.99-.462l0.336,1.722a24.683,24.683,0,0,1,3.738-.294h5.795a35.411,35.411,0,0,0,1.47,4.955,38.792,38.792,0,0,0,6.425,11.255,39.638,39.638,0,0,1-4.787,4.787,42.558,42.558,0,0,1-13.271,7.811l0.168,0.672a42.861,42.861,0,0,0,13.4-6.131,34.214,34.214,0,0,0,6.215-5.165,40.712,40.712,0,0,0,6.719,5.795,35.144,35.144,0,0,0,9.407,4.661c0.588-2.225,1.26-2.855,3.233-3.317l0.042-.42a29.438,29.438,0,0,1-9.2-2.9,38.087,38.087,0,0,1-8.566-5.711,37.577,37.577,0,0,0,5.081-8.189,38.353,38.353,0,0,0,2.6-8.1h8.9Zm-12.262,0a39.779,39.779,0,0,1-6.257,14.4,35.851,35.851,0,0,1-8.441-14.4h14.7Zm-20.535,44.73a16.278,16.278,0,0,1-4.662-.462l0.252,1.764a22.422,22.422,0,0,1,4.41-.336h17.176c0.545,7.811,1.427,12.136,3.4,16.63,1.89,4.493,4.535,7.979,7.517,9.994a6.471,6.471,0,0,0,3.234,1.26,1.139,1.139,0,0,0,1.259-1.134,1.8,1.8,0,0,0-.671-1.259,1.583,1.583,0,0,1-.714-1.176,6.29,6.29,0,0,1,.252-1.3l1.511-7.307-0.462-.084c-1.343,3.234-1.469,3.527-3.569,7.811a18.266,18.266,0,0,1-4.116-4.577,31.885,31.885,0,0,1-3.695-8.987,55.48,55.48,0,0,1-1.218-9.869h12.43a0.465,0.465,0,0,0,.462-0.336,0.95,0.95,0,0,0-.168-0.378c-1.637-1.47-2.141-1.89-3.821-3.275-1.134,1.259-1.47,1.679-2.52,3.023h-6.425c-0.042-1.512-.084-3.275-0.084-4.787V573.8c1.134-.336,1.638-0.63,1.638-0.924,0-.462-0.756-0.588-4.787-0.924,0.168,1.428.168,1.974,0.294,4.872,0.042,1.343.042,2.1,0.168,3.653H239.651Zm8.147,9.365h8.273a0.405,0.405,0,0,0,.462-0.294,0.692,0.692,0,0,0-.21-0.378,35.5,35.5,0,0,0-3.57-3.15,25.759,25.759,0,0,0-2.352,2.856H240.239a11.97,11.97,0,0,1-3.318-.42l0.294,1.722a15.155,15.155,0,0,1,3.024-.336h4.7v11.674a56.809,56.809,0,0,1-9.617,2.016c1.638,4.829,1.68,5,2.142,5,0.42,0,.546-0.378.756-2.141,3.989-1.26,6.173-2.058,9.827-3.486,5.585-2.184,7.265-2.981,9.784-4.493l-0.252-.5a87.038,87.038,0,0,1-9.784,2.981V589.838ZM261.4,573.8a16.8,16.8,0,0,1,2.31,2.352c0.672,0.966,1.007,1.47,1.091,1.554l0.5,0.755c0.294,0.462.336,0.5,0.588,0.5,0.588,0,1.134-.966,1.134-1.973a1.754,1.754,0,0,0-.966-1.764,11.215,11.215,0,0,0-3.443-1.554,6.766,6.766,0,0,1-.966-0.336Zm11.968,54.515a0.281,0.281,0,0,0,.294-0.252,0.355,0.355,0,0,0-.084-0.252c-1.554-1.386-2.015-1.806-3.611-3.15a26.55,26.55,0,0,0-2.184,2.688H260.9a60.77,60.77,0,0,0,2.73-7.895c1.469-.252,1.889-0.462,1.889-0.8,0-.378-0.672-0.672-2.435-1.05-0.462-.084-1.218-0.252-2.184-0.5a55.535,55.535,0,0,1-2.058,8.819,61.637,61.637,0,0,1-5.879,13.9l0.462,0.378a37.177,37.177,0,0,0,4.745-7.265,38.354,38.354,0,0,0,3.276,10.205,27.426,27.426,0,0,1-5.123,5.795,41.422,41.422,0,0,1-8.147,5.291l0.168,0.462a30.847,30.847,0,0,0,8.9-4.325,24.986,24.986,0,0,0,5.46-4.956,38.136,38.136,0,0,0,2.729,3.738,21.936,21.936,0,0,0,4.83,4.493c0.756-1.511,1.6-2.015,3.443-2.1l0.042-.672a23.887,23.887,0,0,1-9.574-7.433,29.366,29.366,0,0,0,3.653-8.105,39.65,39.65,0,0,0,1.428-7.013h4.115Zm-6.887,0c-0.882,5.837-1.932,9.448-3.863,12.892A32.434,32.434,0,0,1,258.8,631.8c1.218-2.519,1.218-2.519,1.638-3.485h6.047Zm-20.871-4.956v-4.409c1.512-.5,1.848-0.714,1.848-1.008,0-.378-0.714-0.588-2.478-0.756-0.5-.042-1.3-0.126-2.31-0.252,0.042,0.42.126,1.722,0.168,3.906v2.519h-3.863a10.378,10.378,0,0,1-2.9-.378l0.252,1.512a22.765,22.765,0,0,1,2.646-.168h3.863v6.173h-5.711a14.518,14.518,0,0,1-2.939-.294l0.335,1.47a18.674,18.674,0,0,1,2.646-.21h8.861a46.226,46.226,0,0,1-3.948,4.788h-3.653a16.215,16.215,0,0,1-2.94-.294l0.336,1.428c1.512-.126,2.268-0.168,2.352-0.168h2.982a64.816,64.816,0,0,1-7.013,6.131l0.419,0.546a48.194,48.194,0,0,0,8.861-6.677h5.124a19.473,19.473,0,0,1-1.638,3.4c-0.588-.084-0.882-0.126-2.226-0.252a10.533,10.533,0,0,0,.126,1.3,13.975,13.975,0,0,1,.084,1.428v0.588c-7.517,1.721-8.021,1.8-10.331,1.973,0.336,0.924.84,2.226,1.3,3.276,0.252,0.63.336,0.756,0.546,0.756,0.252,0,.462-0.294.588-0.924,0.042-.168.126-0.42,0.21-0.714,0.588-.21.588-0.21,2.394-0.8,2.771-.924,2.771-0.924,3.947-1.3a11.779,11.779,0,0,1,1.344-.462v5.5c0,0.588-.126.714-0.588,0.756-1.344,0-1.386,0-4.367-.21-0.378,0-.966-0.042-1.764-0.084v0.588l0.882,0.126,0.966,0.126a6.479,6.479,0,0,1,1.931.545c0.5,0.252.63,0.462,1.218,1.764a13.476,13.476,0,0,0,2.6-.546,2.271,2.271,0,0,0,1.764-1.931v-1.974c-0.042-.5-0.042-0.882-0.042-1.092v-4.493c2.729-.924,3.863-1.386,6.467-2.478l-0.168-.63c-2.562.672-3.654,0.966-6.3,1.6V642a1.6,1.6,0,0,0,1.134-.756,1.053,1.053,0,0,0-.966-0.462,5.486,5.486,0,0,1,.63-0.5c2.393-1.89,2.393-1.89,3.191-2.478,0.21-.084.42-0.125,0.63-0.209l0.63-.168a2.834,2.834,0,0,0,.8-0.378,0.443,0.443,0,0,0,.084-0.21,0.45,0.45,0,0,0-.252-0.336,13.654,13.654,0,0,0-3.024-1.89,18.331,18.331,0,0,0-1.469,1.638h-4.452c1.722-1.764,2.9-3.066,4.326-4.788h7.727a0.331,0.331,0,0,0,.21-0.294,0.568,0.568,0,0,0-.21-0.378,24.435,24.435,0,0,0-3.108-2.477c-0.8.924-1.05,1.218-1.806,2.183h-2.058c1.848-2.393,4.578-6.341,6.426-9.322,1.637-.21,1.889-0.294,1.889-0.588s-0.5-.588-1.931-1.176c-0.462-.21-1.176-0.5-2.1-0.924a34.37,34.37,0,0,1-2.6,5.291c-1.764-1.469-1.848-1.553-3.065-2.561-0.84.966-1.092,1.26-1.806,2.141h-0.714Zm5.207,0.966c-1.763,2.814-2.645,4.158-4.073,6.173h-1.134v-6.173h5.207Zm11.045,65.98V696.1a0.473,0.473,0,0,1-.5.588c-2.058-.042-2.058-0.042-6.761-0.378v0.588a12.722,12.722,0,0,1,4.115,1.259,2.2,2.2,0,0,1,.966,1.806c4.284-.63,5.039-1.134,5.123-3.107V695.3c-0.084-3.234-.084-3.234-0.084-5.921v-9.155c1.008-.672,1.3-0.924,1.3-1.176a0.906,0.906,0,0,0-.462-0.63c-1.092-.84-1.427-1.092-2.519-1.848-0.714.8-.924,1.008-1.6,1.848H245.278a18.467,18.467,0,0,0-3.318-1.848c0.126,2.1.168,3.612,0.168,9.533,0,4.955-.042,7.979-0.168,13.648,0,0.462.168,0.588,0.756,0.588a9.775,9.775,0,0,0,1.806-.168,0.553,0.553,0,0,0,.462-0.672v-9.2h16.882Zm-16.882-6.72v-4.2h16.882v4.2H244.984Zm16.882,0.966v4.788H244.984v-4.788h16.882Zm-7.223-17.427v-3.36c1.6-.5,1.722-0.588,1.722-0.924a0.682,0.682,0,0,0-.21-0.378,18.806,18.806,0,0,0-4.662-.672,19.821,19.821,0,0,1,.21,2.562v2.772h-13.27a23.352,23.352,0,0,1-3.444-.378l0.378,1.679a20.307,20.307,0,0,1,3.066-.336h9.323a24.1,24.1,0,0,1-2.016,5c-3.7.084-3.7,0.084-4.535,0.084-1.47,0-2.226-.042-3.864-0.168,0.252,1.554.672,3.947,0.8,4.283a0.391,0.391,0,0,0,.294.42c0.336,0,.588-0.42,1.05-1.764,10.708-.671,17.679-1.385,24.105-2.393a22.726,22.726,0,0,1,3.779,3.653,1.64,1.64,0,0,0,1.134.8c0.462,0,.672-0.462.672-1.554,0-2.309-.546-2.939-3.822-4.577a68.08,68.08,0,0,0-7.181-2.814l-0.378.5a29.17,29.17,0,0,1,4.536,3.024c-3.612.378-5.753,0.462-15.412,0.5,1.638-1.806,1.638-1.806,4.283-5h21.207a0.428,0.428,0,0,0,.462-0.377,0.612,0.612,0,0,0-.21-0.336c-1.721-1.512-2.225-1.932-3.989-3.276a38.171,38.171,0,0,0-2.688,3.024H254.643Zm-1.176,74.672a25.061,25.061,0,0,0,8.189-2.6c5.291-2.814,8.357-7.475,8.357-12.724a12.821,12.821,0,0,0-4.032-9.869,15.952,15.952,0,0,0-10.834-3.863,20.359,20.359,0,0,0-14.446,5.879c-2.352,2.561-3.78,5.669-3.78,8.315a8.065,8.065,0,0,0,.966,3.821,26.144,26.144,0,0,1,1.848,3.948,8.246,8.246,0,0,0,1.176,2.687,2.435,2.435,0,0,0,1.847.882c1.554,0,3.612-2.058,6.258-6.257,3.191-5.123,5.543-11.255,5.543-14.53a5.481,5.481,0,0,0-1.3-3.486,9.668,9.668,0,0,1,1.47-.084,13.863,13.863,0,0,1,7.265,1.932c3.107,1.974,4.745,5.207,4.745,9.281A14.943,14.943,0,0,1,263,735.241c-2.394,2.771-5.292,4.493-9.827,5.837Zm-1.092-27.633a4.688,4.688,0,0,1,.588,2.1c0,2.6-2.226,8.021-5.333,12.976-2.058,3.276-4.074,5.544-5,5.544a2.555,2.555,0,0,1-1.595-1.218,9.827,9.827,0,0,1-1.68-5.544C239.357,721.55,245.068,715.461,252.375,714.159Z" transform="translate(-224 -471)"/>
</svg>
