<svg id="kv_ttl02.svg" xmlns="http://www.w3.org/2000/svg" width="60" height="109" viewBox="0 0 60 109">
  <defs>
    <style>
      .cls-1 {
        fill: #72c9f3;
      }

      .cls-2 {
        fill: #fff;
        fill-rule: evenodd;
      }
    </style>
  </defs>
  <rect id="長方形_1496_のコピー_3" data-name="長方形 1496 のコピー 3" class="cls-1" width="60" height="109"/>
  <path id="公文式教育の_追求_のコピー_2" data-name="公文式教育の 追求 のコピー 2" class="cls-2" d="M192.281,491.013c0.294-.336.546-0.588,0.671-0.756,2.436-2.855,2.436-2.855,2.982-3.443,1.26-.21,1.89-0.462,1.89-0.84,0-.336-0.378-0.462-4.914-1.428a22.809,22.809,0,0,1-1.847,6.467h-2.982a26.622,26.622,0,0,0-3.149-1.974c0.126,2.226.168,5.964,0.168,18.562,0,2.6,0,3.906-.042,5.333-0.084,2.31-.084,2.31-0.084,2.73v0.924a0.518,0.518,0,0,0,.587.378c2.268-.126,2.31-0.168,2.31-0.8v-2.52H201.9v2.226c0.042,0.462.084,0.588,0.252,0.588,2.646-.126,2.646-0.126,2.646-0.672,0-.336-0.042-3.57-0.126-9.743,1.176-.756,1.386-0.924,1.386-1.176a0.779,0.779,0,0,0-.168-0.42,30.6,30.6,0,0,0-2.772-1.973,13.714,13.714,0,0,0-1.512,1.973H187.829v-5h13.186V500.8c0,0.336.252,0.462,0.8,0.462h0.168a0.932,0.932,0,0,0,.378-0.042c1.218-.042,1.47-0.126,1.47-0.462v-0.084c-0.042-1.092-.084-5.291-0.084-7.181v-0.924c0.168-.084.294-0.21,0.462-0.294,0.336-.252.546-0.378,0.546-0.378a0.917,0.917,0,0,0,.42-0.5,0.581,0.581,0,0,0-.21-0.378c-1.218-.882-1.6-1.134-2.814-1.974a21.856,21.856,0,0,0-1.47,1.974h-8.4Zm-4.452,7.475v-6.509h13.186v6.509H187.829Zm0,14.194v-7.265H201.9v7.265H187.829Zm-16.378-26.33c3.192,3.905,3.738,4.829,5.166,8.231,0.336,0.882.756,1.3,1.217,1.3,0.546,0,1.386-1.68,1.386-2.814a3.4,3.4,0,0,0-1.092-2.436,25.784,25.784,0,0,0-6.215-4.7Zm-0.8,17.344a10.475,10.475,0,0,1,2.52-.252h3.78v10.834a20.67,20.67,0,0,1-6.719,3.78,23.808,23.808,0,0,0,1.8,3.611,1.062,1.062,0,0,0,.756.714,0.586,0.586,0,0,0,.462-0.714c0-.084-0.042-0.546-0.084-1.218a40.343,40.343,0,0,0,5.417-6.173,10.745,10.745,0,0,0,3.276,4.536c2.52,2.183,4.955,2.687,13.144,2.687h12.1c0.336-1.722.672-2.1,2.561-2.9v-0.546c-12.052.588-13.438,0.63-18.729,0.63-3.906,0-5.963-.294-8.063-1.218a4.966,4.966,0,0,1-3.15-3.192V504.031c0.63-.419.966-0.671,1.008-0.713a0.637,0.637,0,0,0,.168-0.336,0.717,0.717,0,0,0-.294-0.5c-1.134-.8-1.47-1.05-2.73-1.806a17.988,17.988,0,0,0-1.3,1.806h-3.4a11.241,11.241,0,0,1-2.939-.42Zm19.822,35.448v-7.265c1.512-.378,1.974-0.588,1.974-0.966,0-.42-0.756-0.588-4.83-1.008,0.168,2.226.21,3.192,0.21,5.838v3.4H176.323a20.279,20.279,0,0,1-4.536-.462l0.336,1.722a21.729,21.729,0,0,1,4.2-.294h11.506v11.716c-3.737,1.932-4.7,2.436-7.391,3.612a76.756,76.756,0,0,1-8.987,3.528c1.974,4.073,2.184,4.409,2.52,4.409a0.752,0.752,0,0,0,.42-0.8,0.253,0.253,0,0,0-.042-0.168v-0.966a123.239,123.239,0,0,0,13.48-8.819v10.667c0,0.714-.126.84-0.672,0.84-3.359,0-3.527,0-7.727-.084v0.546a35.666,35.666,0,0,1,5.334,1.176c1.007,0.378,1.3.8,1.469,2.057,2.478-.5,3.36-0.882,3.99-1.6a2.625,2.625,0,0,0,.588-2.142c-0.042-.714-0.084-4.452-0.168-11.213-0.042-7.1-.042-7.1-0.084-8.021-0.084-1.553-.084-1.553-0.084-2.645,1.428,5.879,2.813,9.323,5.249,12.976a29.339,29.339,0,0,0,9.239,8.9,2.946,2.946,0,0,1,1.26-1.89,3.86,3.86,0,0,1,2.183-.84l0.042-.5a24.857,24.857,0,0,1-9.112-5.081,24.453,24.453,0,0,1-4.368-4.871,64.661,64.661,0,0,0,8.189-5.25,11.354,11.354,0,0,0,1.47.168,0.55,0.55,0,0,0,.63-0.42c0-.336-0.252-0.5-4.284-2.813a19.842,19.842,0,0,1-3.653,5,23.685,23.685,0,0,1-2.73,2.688,26.851,26.851,0,0,1-4.073-10.163h17.218c0.251,0,.419-0.084.419-0.252a0.634,0.634,0,0,0-.293-0.378,51.541,51.541,0,0,0-4.032-3.359c-1.05,1.259-1.386,1.679-2.478,3.023H190.475Zm2.855-6.887a14.44,14.44,0,0,1,3.15,2.982c0.462,0.588,1.47,1.889,1.6,2.1a1.133,1.133,0,0,0,.756.63c0.546,0,.924-0.924.924-2.225a2.067,2.067,0,0,0-1.05-2.016,19.909,19.909,0,0,0-5.166-1.89Zm-17.595,10.667a24.874,24.874,0,0,1,4.745,7.517c0.294,0.756.588,1.092,0.924,1.092,0.63,0,1.428-1.6,1.428-2.856,0-1.134-.336-1.722-1.638-2.856a21.8,21.8,0,0,0-5.081-3.233Z" transform="translate(-160 -471)"/>
</svg>
