<svg xmlns="http://www.w3.org/2000/svg" width="214" height="48" viewBox="0 0 214 48">
  <defs>
    <style>
      .cls-1 {
        fill: #fff;
        fill-rule: evenodd;
      }
    </style>
  </defs>
  <path id="name_ceo.svg" class="cls-1" d="M286.479,1155.95a2.155,2.155,0,0,1-.516.21c-0.435.03-.874-0.01-1.31,0.01-0.208.01-.49-0.14-0.585,0.22a0.644,0.644,0,0,1-.3.05c-0.452,0-.9-0.02-1.356,0-0.247.02-.573-0.16-0.717,0.24a0.6,0.6,0,0,1-.3.03c-0.482,0-.967-0.03-1.446.01-0.3.02-.69-0.21-0.893,0.24a0.486,0.486,0,0,1-.259.02,3.507,3.507,0,0,1-1.256-.02c-0.936-.4-1.948-0.02-2.816-0.31a12.553,12.553,0,0,1-1.694-.25,3.741,3.741,0,0,0-1.486-.25,0.451,0.451,0,0,1-.2-0.2c-0.4-.24-0.744-0.44-1.09-0.64a0.213,0.213,0,0,0-.122-0.05,1.233,1.233,0,0,1-1.02-.69c-0.546-.5-1.063-1.04-1.567-1.59a5.238,5.238,0,0,1-.433-0.68,0.641,0.641,0,0,0-.359-0.26,4.222,4.222,0,0,0,0-.45c-0.018-.16.112-0.41-0.214-0.45a0.64,0.64,0,0,1-.052-0.29c-0.006-.31.022-0.61-0.009-0.91s0.187-.66-0.241-0.85a0.632,0.632,0,0,1-.023-0.31c0-1.29-.007-2.57.009-3.86a1.893,1.893,0,0,1,.2-0.4,3.116,3.116,0,0,0,.08-0.47,2.514,2.514,0,0,0-2.328,1.12,0.893,0.893,0,0,0-.881.45,1.717,1.717,0,0,1-.825.36,6.469,6.469,0,0,1-.766.02c-0.248.02-.561-0.16-0.724,0.23a1.4,1.4,0,0,1-.528.01v-0.63c0.235-.24.42-0.44,0.611-0.63,0.333-.33.674-0.65,1-0.99a3.023,3.023,0,0,0,.692-0.78,1.321,1.321,0,0,1,1.139-.97c0.24-.43,2.46-2.79,3.085-2.91,0.147-.26.262-0.45,0.362-0.64a0.25,0.25,0,0,0,.007-0.2,1.4,1.4,0,0,1-.244-0.55c-0.109-.02-0.219-0.05-0.357-0.08-0.09-.53-0.163-1.06-0.279-1.57a1.165,1.165,0,0,0-.3-0.36c0.04-.05.08-0.11,0.12-0.17,0.19,0.09.379,0.18,0.568,0.26a0.622,0.622,0,0,1-.036.08c0.353,0.14.7,0.27,1.057,0.41a0.575,0.575,0,0,0-.086.07c0.283,0.34.566,0.68,0.863,1.04H269.3a0.95,0.95,0,0,1,.756-0.65,2,2,0,0,0,.707-0.53,4.728,4.728,0,0,1,.5-0.34,6.86,6.86,0,0,1,.587-0.55,2.333,2.333,0,0,1,1.156-.58,0.681,0.681,0,0,0,.419-0.51c0.028-2.43.019-4.85,0.019-7.27a2.7,2.7,0,0,1-.283-1.67l-0.731-.38c-0.358-.35-0.669-0.67-1.049-1.05v-0.69H273.1c-0.012.03-.025,0.07-0.037,0.11a5,5,0,0,0,.518.22c0.172,0.04.382-.06,0.457,0.23a1.375,1.375,0,0,0,.459.08c0.016,0.13.035,0.29,0.053,0.45,0.027-.02.053-0.05,0.079-0.07a3.378,3.378,0,0,1,.775.95c0.175,0.54.707,0.96,0.577,1.62-0.117.59,0.219,1.25-.178,1.74a3.611,3.611,0,0,1,.166.74c0.018,1.04.008,2.08,0.008,3.29a1.6,1.6,0,0,1,.648-0.32c0.564,0.06.677-.65,1.232-0.65a1.534,1.534,0,0,0,.8-0.52c1.074-.21,1.826-1.06,2.757-1.55a2.115,2.115,0,0,1,.3-0.54,0.609,0.609,0,0,1,1-.05c0.175,0.14.508-.04,0.6,0.32a1.43,1.43,0,0,0,.3.37,5.243,5.243,0,0,1,.786.01c0.3,0.04.7-.21,0.886,0.25a0.111,0.111,0,0,0,.085.01,1.222,1.222,0,0,1,1.2.56c0.339,0.34.638,0.72,1,1.04a0.445,0.445,0,0,1,0,.81,5.217,5.217,0,0,0-.489.52,12.2,12.2,0,0,0-.638,1.1,2.933,2.933,0,0,0-.06.67c-0.028.18,0.152,0.45-.2,0.5a0.187,0.187,0,0,0-.058.16,1.2,1.2,0,0,1-.321,1.12,2.066,2.066,0,0,0-.249,1.03c-0.1.02-.213,0.05-0.257,0.06a3.947,3.947,0,0,1-.393,1.3c-0.21.27-.112,0.59-0.257,0.75a2,2,0,0,0-.275.98,2.37,2.37,0,0,1-.506.51c-0.232.35-.457,0.7-0.7,1.04s-0.476.64-.831,1.12c0.012,0.68-.756,1.13-1.093,1.62-0.492.28-.843,0.5-1.213,0.68-0.274.14-.593,0.19-0.856,0.34a1.3,1.3,0,0,1-1.06.25,3.927,3.927,0,0,1-1.178-.6,2.313,2.313,0,0,1-.332-0.76,3.656,3.656,0,0,0-.356-0.5l0.085-.09c-0.109-.02-0.218-0.05-0.333-0.08-0.01-.16-0.018-0.31-0.026-0.45a0.6,0.6,0,0,0-.81.68c-0.014.27,0.177,0.62-.239,0.81a2.1,2.1,0,0,1-.135.34,1.665,1.665,0,0,0-.241.48,3.006,3.006,0,0,1-.6,1.33c-0.11.16-.213,0.32-0.374,0.56a2.629,2.629,0,0,1-.268.03c-0.127.15-.234,0.28-0.418,0.5a7.626,7.626,0,0,0-.366-1.47,11.964,11.964,0,0,1-.557-1.22,2.078,2.078,0,0,0-.734-0.64,0.251,0.251,0,0,1-.1-0.06c-0.112-.35-0.217-0.7-0.334-1.09-0.134-.01-0.293-0.03-0.479-0.05v-1.2c0.518-.08,1.038-0.14,1.551-0.25a0.534,0.534,0,0,0,.282-0.26,1.387,1.387,0,0,0,.42-0.85,1.306,1.306,0,0,1,.207-1.09,2.285,2.285,0,0,0,.037-1.18c-0.438-.21-0.58.16-0.805,0.35a0.323,0.323,0,0,1-.14.13,1.3,1.3,0,0,0-1.027.69,5.6,5.6,0,0,0-.569.7,0.425,0.425,0,0,1-.235.07,0.645,0.645,0,0,0-.653.74c0,0.46.022,0.93-.008,1.4a1.016,1.016,0,0,1-.207.88,0.892,0.892,0,0,0,.138,1.11,1.1,1.1,0,0,1,.068.73c-0.017.22,0.167,0.53-.215,0.63a0.341,0.341,0,0,0-.045.21,4.241,4.241,0,0,0,.037,1.58,5.46,5.46,0,0,1,.25,1.58,1.5,1.5,0,0,0,.311.51c0.3,0.34.563,0.66,0.856,0.95a2.989,2.989,0,0,0,.568.4,6.783,6.783,0,0,0,.909.5c0.321,0.14.667,0.21,1,.33a5.188,5.188,0,0,1,.518.22c-0.013.04-.025,0.09-0.037,0.14,0.346,0,.693-0.02,1.037,0,0.233,0.02.543-.15,0.673,0.23a0.569,0.569,0,0,0,.3.04c1.567,0,3.135,0,4.7-.01a1.121,1.121,0,0,0,.376-0.18,0.924,0.924,0,0,1,.323-0.08c0.436-.01.873,0,1.309,0-0.013-.05-0.026-0.09-0.038-0.14a2.174,2.174,0,0,1,.518-0.22c0.3-.03.6,0.01,0.9-0.01,0.192-.02.469,0.14,0.543-0.22a0.515,0.515,0,0,1,.293-0.05c0.361,0,.724.01,1.085,0a0.534,0.534,0,0,0,.641-0.22,1.378,1.378,0,0,1,.6-0.06c0.19-.03.476,0.15,0.534-0.21a0.128,0.128,0,0,1,.075-0.05c0.5-.09,1.01-0.17,1.511-0.28a2.358,2.358,0,0,0,.475-0.23c-0.014-.04-0.028-0.08-0.041-0.13a6.288,6.288,0,0,0,1.762-.32,7.938,7.938,0,0,1,.938-0.25,1.706,1.706,0,0,0,.571-0.53,9.805,9.805,0,0,0,.752-1.06c0.087-.14.177-0.28,0.259-0.43,0.163-.29.321-0.59,0.481-0.88a0.182,0.182,0,0,0,.051-0.07c0.1-.46.191-0.92,0.281-1.38,0.041-.21-0.113-0.48.228-0.59a0.99,0.99,0,0,0,.068-0.43,0.624,0.624,0,0,1,.9.55,3.726,3.726,0,0,0,.441.77,0.587,0.587,0,0,1,.083.27c0.01,0.37,0,.73,0,1.05,0.141,0.11.25,0.2,0.359,0.29-0.1.09-.207,0.19-0.347,0.31v1.1c0.579,1.05,1.516.72,2.456,0.8-0.431.41-.775,0.73-1.118,1.05l0.069,0.09c-0.148.01-.3,0.02-0.493,0.04-0.092.47,0.162,1.05-.416,1.31a8.038,8.038,0,0,1-1.076.61,2.353,2.353,0,0,1-.843.06,1.755,1.755,0,0,0-1.146.48,0.67,0.67,0,0,1-.428.06c-0.269-.01-0.515-0.02-0.486.37-0.174,0-.309.01-0.444,0a1.525,1.525,0,0,0-1.269.5,0.2,0.2,0,0,1-.079.04c-0.565.09-1.13,0.18-1.693,0.28-0.178.03-.44-0.13-0.5,0.22a1.385,1.385,0,0,1-.334.05c-0.3.07-.689-0.19-0.892,0.25a0.485,0.485,0,0,1-.259.02h-0.765C286.457,1155.85,286.468,1155.9,286.479,1155.95Zm-9.2-20.1a1.671,1.671,0,0,1-.3.32c-0.2.13-.419,0.22-0.615,0.35a2.837,2.837,0,0,0-.362.34v3.81c0.249,0.22.431,0.39,0.615,0.55a1.363,1.363,0,0,0,1.21.7,0.777,0.777,0,0,1,.339.27l0.015,0.15c0.185-.12.37-0.23,0.554-0.34a0.557,0.557,0,0,0-.051-0.08c0.146-.02.292-0.03,0.475-0.04-0.044-.3-0.052-0.58.226-0.56a1.972,1.972,0,0,0,.377-0.68,2.605,2.605,0,0,1,.527-1.37,5.215,5.215,0,0,0,.387-1.34c0.054-.01.163-0.04,0.268-0.07a1.113,1.113,0,0,1,.039-0.5c0.412-.19.176-0.54,0.249-0.81a2.485,2.485,0,0,0,.283-1.2,0.062,0.062,0,0,1,.024-0.04c0.457-.21.125-0.76,0.476-1.07a1.914,1.914,0,0,0,.027-0.98,1.129,1.129,0,0,0-.225.05,2.365,2.365,0,0,1-.818.48,1.082,1.082,0,0,0-.781.61c-0.182.08-.323,0.22-0.494,0.29-0.3.13-.609,0.21-0.912,0.31a0.481,0.481,0,0,0-.2.12A2.259,2.259,0,0,1,277.275,1135.85Zm90.062,10.07c0-.95-0.009-1.92.011-2.88a1.2,1.2,0,0,1,.251-0.34c0.135-.22.252-0.46,0.427-0.78,0.191-.13.493-0.33,0.8-0.52a0.8,0.8,0,0,0,.581-0.27,3.254,3.254,0,0,1,.816-0.76,1.629,1.629,0,0,1,1.07-.78,1.152,1.152,0,0,0,.637-0.61,0.923,0.923,0,0,1,.726-0.56,2.126,2.126,0,0,0,.7-0.54c0.149-.12.307-0.23,0.466-0.34,0.2-.18.418-0.36,0.625-0.55a3.48,3.48,0,0,0,.893-0.88,5.182,5.182,0,0,1,.817-0.84,1.6,1.6,0,0,0,.441-0.65,1.608,1.608,0,0,1,.621-0.78,1.338,1.338,0,0,0,.8-1.07,0.354,0.354,0,0,1,.132-0.13,1.93,1.93,0,0,0,.673-1.37,0.611,0.611,0,0,0-.658-0.63h-1.04a2.908,2.908,0,0,1-1.725-.91,0.518,0.518,0,0,1,0-.25,2.585,2.585,0,0,0,.4-0.03c0.192-.03.432,0.12,0.557-0.21a1.96,1.96,0,0,1,.638-0.06c0.175-.03.448,0.15,0.5-0.2a0.178,0.178,0,0,1,.155-0.06,2.685,2.685,0,0,0,1.433-.57,2.018,2.018,0,0,1,.214-0.24c0.332-.2.663-0.4,1-0.59a0.486,0.486,0,0,1,.163-0.06,1.7,1.7,0,0,0,1.05-.5,0.942,0.942,0,0,1,.43-0.07c-0.013-.04-0.026-0.07-0.039-0.11a2.335,2.335,0,0,1,.475-0.22c0.2-.06.494,0.12,0.574-0.24a0.073,0.073,0,0,1,.078-0.03,3,3,0,0,0,1.277-.32c0.255-1.4-.232-2.36-0.781-2.62-0.124-.47-0.222-0.91-0.366-1.34a1.988,1.988,0,0,0-.332-0.5,1.463,1.463,0,0,1,.093-0.13,1.918,1.918,0,0,1,.994.03,1.563,1.563,0,0,1,1.018.76,2.151,2.151,0,0,0,.709.65,1.372,1.372,0,0,1,.724,1.24,0.639,0.639,0,0,0,.381.46,0.927,0.927,0,0,0,.508-0.15c0.036-.01.056-0.07,0.09-0.08,0.473-.1.946-0.2,1.422-0.28,0.23-.04.533,0.12,0.533-0.19a1.28,1.28,0,0,1,.65.2c0.218,0.52.842,0,1.094,0.49a1.935,1.935,0,0,1,.7.32c0.109,0.17.245,0.33,0.429,0.58a6.711,6.711,0,0,0-.777.33,1.1,1.1,0,0,0-.431.4,0.994,0.994,0,0,1-1.114.4,0.877,0.877,0,0,1-.88.67,3.052,3.052,0,0,0-.924.45c-0.317.14-.647,0.26-0.976,0.39-0.112.13-.241,0.27-0.369,0.41-0.029-.02-0.059-0.03-0.088-0.05a6.652,6.652,0,0,1-.008.72,1.323,1.323,0,0,1-.171.34,0.444,0.444,0,0,0-.081.22,1.622,1.622,0,0,0,.478.39,1.262,1.262,0,0,0,.581.01,1.042,1.042,0,0,1,1.023.47,0.481,0.481,0,0,0,.186.08,2.369,2.369,0,0,1,1.032.3,2.044,2.044,0,0,0,.909.34l0.471,0.27c0.288,0.16.564,0.36,0.866,0.49a6.375,6.375,0,0,0,.955.32c0.179,0.05.416-.09,0.5,0.22a0.753,0.753,0,0,0,.379.07,1.5,1.5,0,0,0,1.124.9c0.178,0.51.839,0.02,1.058,0.51a0.937,0.937,0,0,0,.474.03h0.576a0.356,0.356,0,0,0,.49.37,1.038,1.038,0,0,1,.581.01,4.444,4.444,0,0,1,1.373.48,0.5,0.5,0,0,0,.256.05,0.676,0.676,0,0,1,.621.25c0.379,0.47.937,0.8,1.3,1.28,0.285,0.38.613,0.04,0.925,0.28,0,0.09.012,0.24,0.018,0.39-0.212.18-.7-0.15-0.655,0.38-1.43.62-2.916,0.21-4.366,0.32a0.433,0.433,0,0,1-.558-0.21,1.457,1.457,0,0,0-.712-0.08c-0.023-.1-0.049-0.2-0.056-0.23a3.756,3.756,0,0,1-1.291-.42,1.63,1.63,0,0,0-.9-0.25,1.2,1.2,0,0,1-.37-0.29c-0.152-.11-0.309-0.22-0.463-0.33a0.678,0.678,0,0,0-.1.08c-0.017-.19-0.034-0.38-0.054-0.6-0.731.1-.915-0.66-1.417-0.93a2.853,2.853,0,0,1-.481-0.3c-0.674-.48-1.349-0.97-2.024-1.45a1.087,1.087,0,0,0-.823-0.55,1.389,1.389,0,0,1-.612-0.53,1.648,1.648,0,0,1-.7-1.14H386.33v2.44c0,0.5.015,1-.009,1.5a1.479,1.479,0,0,1-.2.4,0.9,0.9,0,0,0-.063.3c-0.008.32,0.009,0.64-.008,0.95-0.009.19,0.1,0.4-.206,0.52a1.433,1.433,0,0,0-.058.69,2.264,2.264,0,0,1-.452.99,0.581,0.581,0,0,0-.088.22c-0.011.3,0,.6,0,1.08a4.814,4.814,0,0,1,.591-0.36c0.337-.14.685-0.25,1.082-0.39,0-.25.2-0.31,0.487-0.3,0.243,0.01.581,0.18,0.71-.23a0.3,0.3,0,0,1,.245.01c0.165,0.09.314,0.21,0.5,0.29a0.8,0.8,0,0,0,.832.58,1.9,1.9,0,0,1,1.428.56,1.078,1.078,0,0,1,.146.46,0.983,0.983,0,0,1,.6.89,1.267,1.267,0,0,0,.177.37,0.509,0.509,0,0,1,.077.28,1.471,1.471,0,0,1-.3.8c-0.448.27-.081,0.65-0.309,0.95-0.263,0-.2.37-0.316,0.46a1.052,1.052,0,0,0-.227,1.01,0.561,0.561,0,0,0,.562.57,3.168,3.168,0,0,1,.539.02,9.45,9.45,0,0,1,.979.46,0.269,0.269,0,0,0,.061.05,7.2,7.2,0,0,1,1.185.38c0.195,0.18.39,0.37,0.583,0.55a2.483,2.483,0,0,1,.76,1.23,7.764,7.764,0,0,1,.194,1.63,1.818,1.818,0,0,1-.166.33,0.758,0.758,0,0,0-.046.48c0.3,0.47.315,0.49-.021,1.02a0.379,0.379,0,0,0-.025.09,2.98,2.98,0,0,1-.3,1.13c-0.33.4-.069,0.91-0.283,1.2a3.779,3.779,0,0,0-.328.86c-0.089.14-.18,0.29-0.266,0.43a3.644,3.644,0,0,1-.28.47,10.1,10.1,0,0,1-.977,1.26,9.645,9.645,0,0,0-.957.9,4.649,4.649,0,0,0-.268.62,0.859,0.859,0,0,1-.933.52c-0.014.19-.025,0.34-0.037,0.48a2.084,2.084,0,0,0-1.2.9,0.582,0.582,0,0,1-.652.35c-0.232-.09-0.562.19-0.722-0.22a1.216,1.216,0,0,0-.408-0.31c-0.333-.19-0.667-0.39-1-0.59-0.025-.01-0.044-0.04-0.07-0.05a3.748,3.748,0,0,1-1.091-.3,2.791,2.791,0,0,0-1.343-.28,0.48,0.48,0,0,1-.343-0.31,2.28,2.28,0,0,0-.805-0.84,1.134,1.134,0,0,1-.123-0.11c-0.1-.23-0.17-0.47-0.294-0.69a3.391,3.391,0,0,1-.487-0.73,5.24,5.24,0,0,1-.021-1.18,1.8,1.8,0,0,1,.5.44,0.718,0.718,0,0,0,.769.55,0.933,0.933,0,0,1,.285.26,2.649,2.649,0,0,0,1.521.56c-0.012.04-.025,0.08-0.038,0.12a1.615,1.615,0,0,0,.519.22c0.465,0.03.934,0,1.4,0.01,0.273,0.01.508,0.01,0.488-.34,0.631-.1,1.228-0.18,1.815-0.31a0.684,0.684,0,0,0,.362-0.37c0.264-.36.527-0.71,0.793-1.07a0.579,0.579,0,0,0,.15-0.16,0.96,0.96,0,0,1,.523-0.78c0.2-.36.423-0.71,0.6-1.08,0.1-.22.219-0.45,0.291-0.65a2.647,2.647,0,0,0,.314-1.6,0.391,0.391,0,0,1,0-.22c0.064-.18.146-0.35,0.22-0.52l0.129,0.03v-1.54a1.42,1.42,0,0,0-.363-0.28,0.7,0.7,0,0,0-.506-0.03,1.458,1.458,0,0,1-1.5,0,2.86,2.86,0,0,1-.646-0.32,1.4,1.4,0,0,1-.514-0.75,0.552,0.552,0,0,0-.13-0.19,0.885,0.885,0,0,1-.425-0.7,0.5,0.5,0,0,0-.273-0.4c-0.332-.12-0.25-0.36-0.25-0.58,0-1.54,0-3.08,0-4.67-0.27.04-.51-0.14-0.707,0.22a2.7,2.7,0,0,1-.729.06,3.143,3.143,0,0,0-.627.32,0.145,0.145,0,0,0,0,.13c0.181,0.18.37,0.36,0.646,0.62-0.051.1-.138,0.29-0.225,0.47l-0.06-.03c-0.2.38-.422,0.75-0.593,1.15a7.671,7.671,0,0,0-.322,1c-0.072.25,0.169,0.61-.249,0.75a0.067,0.067,0,0,0-.016.04c-0.094.45-.175,0.9-0.288,1.34a1.5,1.5,0,0,1-.239.38c-0.041-.01-0.083-0.03-0.124-0.04-0.089.43-.175,0.86-0.274,1.29-0.011.05-.122,0.06-0.154,0.12a1.309,1.309,0,0,0-.408.68,1.967,1.967,0,0,1-.587.69,3.289,3.289,0,0,1-1.347,1.82,3.847,3.847,0,0,1-.4.74,0.717,0.717,0,0,1-.646.44,0.627,0.627,0,0,0-.218.25,1.716,1.716,0,0,1-.512-0.31,1.08,1.08,0,0,1-.353-0.72,1.174,1.174,0,0,0-.3-0.89,0.69,0.69,0,0,1-.213-0.69c-0.025-.23.009-0.46-0.01-0.68-0.014-.17.1-0.37-0.195-0.48a1.306,1.306,0,0,1-.067-0.68c0-.27.026-0.52-0.343-0.49v-1.38a1.117,1.117,0,0,1,1.166.89,1.074,1.074,0,0,0,.354.51c0.139,0.14.348,0.19,0.491,0.33,0.353,0.32.61,0.32,0.826-.1a8.732,8.732,0,0,0,.381-1.1c0.044-.01.153-0.03,0.278-0.06a4.853,4.853,0,0,1,.308-1.29,11.868,11.868,0,0,1,.551-1.43,2.04,2.04,0,0,0,.248-1.04,0.9,0.9,0,0,1,.336-0.32v-0.95c-0.172-.13-0.327-0.25-0.507-0.39-0.478.71-1.323,0.77-2.087,1.23a0.838,0.838,0,0,1-.826.53,1.727,1.727,0,0,0-1.179.64c-0.224.25-.432,0.52-0.674,0.75a0.955,0.955,0,0,1-1.048-.38,0.567,0.567,0,0,0-.334-0.25c-0.125-.45-0.25-0.89-0.392-1.4,0.311-.02.5-0.03,0.7-0.04,0.014-.17.027-0.32,0.045-0.53a3.5,3.5,0,0,0,.561,0,5.215,5.215,0,0,0,1.319-.31,2.491,2.491,0,0,0,.633-0.74,0.369,0.369,0,0,1,.148-0.12,7.174,7.174,0,0,0,.917-0.3c0.249-.12.445-0.35,0.691-0.47a1.548,1.548,0,0,1,.555-0.08c0.023-.1.05-0.21,0.07-0.29,0.649-.22,1.273-0.43,2.02-0.68-0.1-.17-0.193-0.33-0.29-0.5a0.174,0.174,0,0,1-.026-0.03,4.879,4.879,0,0,0-.378-1c-0.272-.28-0.563-0.54-0.808-0.84-0.21-.26-0.355-0.57-0.551-0.84a1.762,1.762,0,0,0-.352-0.26,1.134,1.134,0,0,0-.257-0.94,0.875,0.875,0,0,1,.337-0.94,0.224,0.224,0,0,1,.214.01c0.384,0.55.928,0.15,1.387,0.21a0.677,0.677,0,0,0,.374-0.5c0.03-1.56.017-3.11,0.017-4.71l-0.564-.03a1.182,1.182,0,0,1-.852.69,2.435,2.435,0,0,0-1.361.5,0.317,0.317,0,0,0-.065.23,2.772,2.772,0,0,1,.663.7,2.44,2.44,0,0,1,.007,1.05,0.411,0.411,0,0,1-.322.26l-0.936.75c-0.12.1-.249,0.19-0.361,0.29a1.1,1.1,0,0,0-.311.64,1.986,1.986,0,0,1-.535.66,2.6,2.6,0,0,0-.309.48c-0.145.16-.288,0.32-0.437,0.48a5.865,5.865,0,0,0-1.089.81,2.061,2.061,0,0,1-.478.4,0.674,0.674,0,0,1-.689.8,0.857,0.857,0,0,0-.426.87c-0.746-.1-0.983.59-1.421,0.98-0.569.49-1.065,1.07-1.614,1.59a1.378,1.378,0,0,1-.677.3c-0.243.35-.485,0.7-0.774,1.12-0.52-.2-0.6.48-0.973,0.71a5.113,5.113,0,0,0-.469.32,0.677,0.677,0,0,1-.082-0.08c-0.019.16-.038,0.32-0.064,0.53-0.662-.17-0.8.45-1.145,0.78C368.392,1145.68,368.087,1146.22,367.337,1145.92Zm-33.521-1.47a1.752,1.752,0,0,0-.212.4c-0.056.24,0.11,0.54-.25,0.67a1.017,1.017,0,0,0-.03.3c-0.094.49,0.236,1.05-.253,1.49a0.872,0.872,0,0,0-.017.44,0.643,0.643,0,0,1-.257.71,0.761,0.761,0,0,0-.29.82c0.023,0.24,0,.48,0,0.71l-0.357.22a1.815,1.815,0,0,1,.3.17c0.446,0.34.437,0.31,0.919,0.02a2,2,0,0,1,.661-0.05c0.273-.05.6,0.17,0.822-0.23a1.9,1.9,0,0,1,.69-0.05,2.457,2.457,0,0,0,.413-0.19,1.226,1.226,0,0,1,.378-0.07c1.3-.01,2.59,0,3.885,0-0.012-.05-0.023-0.1-0.034-0.15a1.592,1.592,0,0,1,.515-0.21c1.839-.01,3.678-0.01,5.517-0.01,0.222,0,.507-0.07.386,0.37,0.262,0,.471.01,0.679-0.01a1.872,1.872,0,0,1,1.375.49,1.653,1.653,0,0,0,.877.06,0.709,0.709,0,0,1,.8.64,2.133,2.133,0,0,0,.365.53c0.6,0.12,1.366-.25,1.964.41v0.45c-0.424.1-.872,0.22-1.409,0.35,0,0.01-.042.12-0.118,0.34a5.984,5.984,0,0,0-2.092.24,3.939,3.939,0,0,1-1.9.2c-1.309.06-2.622,0.01-3.933,0.03a1.283,1.283,0,0,0-.409.19,0.748,0.748,0,0,1-.29.07c-0.317.01-.634,0.02-0.95,0-0.177-.01-0.441.13-0.5-0.22a0.611,0.611,0,0,0-.291-0.05c-0.528,0-1.056-.01-1.583.01a1.094,1.094,0,0,0-.367.19,0.73,0.73,0,0,1-.287.07c-0.377.01-.755-0.02-1.13,0.01-0.247.02-.571-0.16-0.719,0.23a0.654,0.654,0,0,1-.342.03c-0.98.01-1.96,0-2.939,0.01a1.548,1.548,0,0,0-.427.18c0.011,0.06.021,0.12,0.031,0.18-0.811,0-1.622-.01-2.433,0-0.166.01-.412-0.11-0.454,0.22a0.6,0.6,0,0,1-.29.05c-0.3.01-.6-0.01-0.9,0.01-0.2.01-.455-0.12-0.545,0.22a1.875,1.875,0,0,1-.38.05c-0.368.09-.831-0.24-1.116,0.25a0.505,0.505,0,0,1-.262.02c-0.392,0-.785-0.03-1.175,0-0.275.02-.628-0.17-0.805,0.24a0.518,0.518,0,0,1-.3.03c-0.557,0-1.115-.01-1.673,0-0.223.01-.514-0.13-0.626,0.23a0.421,0.421,0,0,1-.254.04h-1c-0.24,0-.536-0.08-0.419.35h-1.637c0.012-.04.024-0.08,0.037-0.12a2.658,2.658,0,0,0-.519-0.22,4.844,4.844,0,0,0-.54-0.01c-0.194-.03-0.416.11-0.562-0.21a1.136,1.136,0,0,0-.725-0.05,3.328,3.328,0,0,1-1.516-.6,0.406,0.406,0,0,1-.008-0.18,1.8,1.8,0,0,1,.821-0.34,0.578,0.578,0,0,0,.376-0.23,5.063,5.063,0,0,0,1.142-.61,0.173,0.173,0,0,1,.122-0.04,1.686,1.686,0,0,0,.812-0.24,4.708,4.708,0,0,1,1.4-.32,1.113,1.113,0,0,0,.353-0.25c-0.016-.04-0.031-0.07-0.046-0.11a5.572,5.572,0,0,0,.578,0c0.178-.02.441,0.13,0.5-0.22a1.056,1.056,0,0,1,.291-0.05c0.416-.08.9,0.21,1.252-0.26a0.658,0.658,0,0,1,.351-0.01,2.867,2.867,0,0,0,1.248-.04c0.442-.24.988-0.05,1.278-0.28,0.518-.4,1.047-0.08,1.5-0.37a2.152,2.152,0,0,1,.518-0.21c0.267-.04.545,0.01,0.812-0.02a0.92,0.92,0,0,0,.872-0.22,2.716,2.716,0,0,1,.956-0.06,3.029,3.029,0,0,0,.725-0.31l-0.234-.3a0.377,0.377,0,0,1-.085.05v-7.03c0.577-.55.269-1.18,0.331-1.71,0.052-.44.01-0.44-0.351-0.57,0-2.28,0-4.57-.006-6.85,0-.24.151-0.55-0.229-0.68a0.571,0.571,0,0,1-.035-0.3c0-.69.015-1.39-0.01-2.09-0.009-.27.177-0.63-0.237-0.8a0.512,0.512,0,0,1-.025-0.26c0-.43.016-0.85-0.01-1.27a1.5,1.5,0,0,0-.2-0.41,1.152,1.152,0,0,1-.065-0.25,1.08,1.08,0,0,0-.255-1.03,0.91,0.91,0,0,1-.009-0.44c-0.037.01-.074,0.03-0.11,0.04-0.087-.16-0.169-0.32-0.262-0.47-0.152-.26-0.311-0.5-0.469-0.75a0.382,0.382,0,0,1-.056-0.07c-0.1-.36-0.177-0.74-0.294-1.1a2.5,2.5,0,0,0-.275-0.47c-0.119-.19-0.238-0.39-0.357-0.58,0.041-.06.082-0.13,0.124-0.19,0.813,0.07,1.627.15,2.44,0.23-0.022.06-.045,0.12-0.068,0.18,0.211,0.19.429,0.37,0.631,0.56,0.321,0.31.642,0.63,0.943,0.96a1.415,1.415,0,0,0,.991.78,0.9,0.9,0,0,1,.287.25,9.592,9.592,0,0,0,.845.54,0.732,0.732,0,0,1,.274,1.24,0.478,0.478,0,0,0-.038.26c0,1.15-.011,2.3.008,3.45a0.96,0.96,0,0,0,.173.39,4.866,4.866,0,0,0-.176.69,4.662,4.662,0,0,0,0,.81c0.011,0.17-.122.42,0.2,0.47a0.506,0.506,0,0,1,.059.28c0.008,0.32-.02.64,0.01,0.96a0.789,0.789,0,0,0,.222.83,1.871,1.871,0,0,1-.123.81c-0.02.1-.084,0.2-0.1,0.31-0.063.36,0.207,0.8-.39,1.03,0.053,0.05.107,0.1,0.161,0.16a4.378,4.378,0,0,0,1.285-.36,4.633,4.633,0,0,0,.892-1.15c0.576,0,1.368.01,2.16,0,0.189-.01.47,0.15,0.543-0.22a0.783,0.783,0,0,1,.292-0.05,6.553,6.553,0,0,0,1.173-.01,4.1,4.1,0,0,1,1.557.31,2.2,2.2,0,0,1,.636.41,0.891,0.891,0,0,1-.268.92,0.318,0.318,0,0,1-.127.09,1.93,1.93,0,0,0-1.148.29,3.306,3.306,0,0,0-.7.41c0-.02-0.022.09-0.025,0.1a5.64,5.64,0,0,1-.925.38,3.346,3.346,0,0,0-.953.03c-0.262.49-.909-0.03-1.085,0.51a1.136,1.136,0,0,1-.215.01c-0.235.04-.552-0.14-0.661,0.25a0.13,0.13,0,0,1-.038.02c-0.521.08-1.041,0.17-1.573,0.26-0.035.14-.061,0.25-0.095,0.38h-0.752v3.65C333.924,1144.46,333.87,1144.45,333.816,1144.45Zm105.24-9.45a0.374,0.374,0,0,0,0-.17c-0.461-.23-0.178-0.64-0.263-0.93a3.349,3.349,0,0,0,1.276-.62,0.606,0.606,0,0,0,.166-0.34c0.016-.64,0-1.27.017-1.91a1.3,1.3,0,0,1,.195-0.41,0.485,0.485,0,0,0,.064-0.2c0-.59,0-1.17,0-1.68a2.282,2.282,0,0,0-1.03.2,3.055,3.055,0,0,1-1.024.27c-0.584.42-1.207,0.15-1.8,0.26a1.2,1.2,0,0,0-.371.33,1.645,1.645,0,0,1-1.428-.36,2.83,2.83,0,0,1-1.471-.06c-0.383-.24-1.09.04-1.186-0.66,0.175-.07.354-0.13,0.527-0.2s0.311-.15.528-0.26c0.006-.02.031-0.13,0.057-0.24,0.027,0.03.055,0.07,0.082,0.1,0.359-.2.718-0.4,1.076-0.61a0.263,0.263,0,0,1,.078-0.04c0.382-.1.772-0.17,1.146-0.29a3.5,3.5,0,0,1,.683-0.27c0.038-.11.076-0.23,0.114-0.35,0.026,0.04.053,0.07,0.079,0.11,0.356-.21.713-0.41,1.07-0.62,0.025-.01.052-0.03,0.08-0.04a3.9,3.9,0,0,0,1.313-.31,5.334,5.334,0,0,0,1.3-.48,0.7,0.7,0,0,0,.134-0.84,0.8,0.8,0,0,1-.228-0.79c-0.06-.28.183-0.66-0.25-0.85a0.535,0.535,0,0,1-.026-0.29c-0.245-.25-0.424-0.46-0.624-0.64-0.333-.29-0.3-0.87-0.794-1.04a0.115,0.115,0,0,1-.017-0.04c-0.086-.43-0.172-0.87-0.253-1.28a0.738,0.738,0,0,1-.613-0.98,1.092,1.092,0,0,1,.945.21,1.544,1.544,0,0,0,.891.07,6.723,6.723,0,0,0,2.349,1.79c0.294,0.3.613,0.63,1,1.03a3.684,3.684,0,0,1,.3,2.01,2.078,2.078,0,0,0,.368.68,2.116,2.116,0,0,1,1.8-.5c0.047-.14.086-0.26,0.125-0.38a0.865,0.865,0,0,1,.071.1,4.645,4.645,0,0,1,.56-0.34,0.626,0.626,0,0,1,.307-0.04c1.085,0,2.17-.01,3.255.01,0.133,0,.255.18,0.4,0.2a5.42,5.42,0,0,0,.732.08c0.538,0.43,1.037.83,1.574,1.27v0.51a0.858,0.858,0,0,0-.916.49,0.5,0.5,0,0,1-.327.07,2.151,2.151,0,0,0-1.267.24,2.534,2.534,0,0,1-1.149.04,1.26,1.26,0,0,0-.409.2,0.378,0.378,0,0,1-.153.06,2.319,2.319,0,0,0-1.149.3,0.766,0.766,0,0,0-.217.31,4.655,4.655,0,0,0-1.478.35c-0.333.2-.741,0.08-0.92,0.26a1.417,1.417,0,0,1-.954.27,4.518,4.518,0,0,1,0,.57c-0.028.22,0.154,0.53-.227,0.63a0.133,0.133,0,0,0-.034.12,2.256,2.256,0,0,1-.3,1.15,0.736,0.736,0,0,1-.337.23,0.913,0.913,0,0,1-.258.84,0.74,0.74,0,0,0,.368.78,0.543,0.543,0,0,0,.242-0.11,0.6,0.6,0,0,1,.134-0.14,10.335,10.335,0,0,0,1.47-.41,1.313,1.313,0,0,1,.517-0.22,1.527,1.527,0,0,0,1.079-.46,1.347,1.347,0,0,1,1.123-.33c0.914,0.47,1.861.03,2.745,0.25a1.4,1.4,0,0,1,1.275.8c0.038,0.13.2,0.22,0.246,0.34a0.818,0.818,0,0,1-.355.83,0.6,0.6,0,0,0-.173.29,0.753,0.753,0,0,1-.62.65,1.6,1.6,0,0,0-.8.6,3.954,3.954,0,0,0-.339,1.04,0.938,0.938,0,0,0-.64.76,1.432,1.432,0,0,1-.711.73,0.829,0.829,0,0,0-.512.28,0.786,0.786,0,0,1-.814.3c-0.434-.03-0.87-0.01-1.334-0.01v-1.07c0.151-.01.3-0.02,0.442-0.04,0.986-.79,1.162-1.99,1.582-3.16a2.906,2.906,0,0,0-1.344.05,2.841,2.841,0,0,1-.981.25c0.084,0.3-.214.66,0.237,0.86a0.4,0.4,0,0,1,.025.34c-0.123.27-.294,0.51-0.426,0.78a3.907,3.907,0,0,0-.175.51c-0.065.01-.174,0.04-0.25,0.06a2.93,2.93,0,0,1-.719,1.44,1.882,1.882,0,0,0-.185.84l0.148,0.12a1.224,1.224,0,0,1,.459-0.28,4.475,4.475,0,0,1,.888.09c0.042,0.01.07,0.1,0.115,0.11,0.425,0.1.852,0.2,1.3,0.31v0.88a4.167,4.167,0,0,0-.5,0c-0.248.04-.537-0.14-0.734,0.23a2.966,2.966,0,0,1-.686.05,7.116,7.116,0,0,0-.953.44,0.761,0.761,0,0,1-.083.08q-0.644.15-1.288,0.27c0.015,0.05.031,0.1,0.046,0.15a1.615,1.615,0,0,1-.517.22,1.8,1.8,0,0,0-1.057.49,1.918,1.918,0,0,0-.621.28,2.222,2.222,0,0,1-1.021.36c-0.142.41-.64,0.79-0.823,0.58a1.835,1.835,0,0,0-1.2-.28v-1.26c-0.192-.17-0.334-0.3-0.475-0.42a9.677,9.677,0,0,1-2.606-1.52,7.424,7.424,0,0,1-.608-0.58,1.684,1.684,0,0,1-.449-0.65,3.841,3.841,0,0,0-.842-1.03v-1.27c0.468,0.14.893,0.26,1.319,0.39a0.284,0.284,0,0,1-.017.05,1.118,1.118,0,0,0,.515.22,0.639,0.639,0,0,1,.676.31,0.7,0.7,0,0,0,.617.27,7.257,7.257,0,0,1,.945.44,0.972,0.972,0,0,1,.389.2c0.275,0.18.541,0.37,0.827,0.52a0.708,0.708,0,0,1,.5.62,0.894,0.894,0,0,0,.265.97c0.115,0.07.224,0.14,0.354,0.23,0.007,0.12.016,0.27,0.025,0.43h0.485a0.906,0.906,0,0,0-.231-0.98,3.1,3.1,0,0,1-.374-0.59c0.033-.03.066-0.05,0.1-0.08-0.109-.03-0.218-0.06-0.355-0.09,0-.79.009-1.58-0.006-2.36,0-.19.121-0.42-0.2-0.57a1.778,1.778,0,0,1-.078-0.78c0.366,0.13.749-.21,0.994,0.26a0.843,0.843,0,0,0,.474.03c-0.1.62,0.456,0.82,0.747,1.19,0.27,0.34.8,0.51,0.7,1.11a5.466,5.466,0,0,0-.007.86h0.529c0.01-.17.018-0.32,0.021-0.36a4.429,4.429,0,0,0,1.491-2.76c0.079-.02.187-0.04,0.31-0.07,0-.33,0-0.63,0-0.93a1.2,1.2,0,0,0-.021-0.17,0.691,0.691,0,0,0-.934.54A6.037,6.037,0,0,1,439.056,1135Zm-13.571,20.54a1.029,1.029,0,0,1-.477,1.21,3.436,3.436,0,0,1-.285.62,2.1,2.1,0,0,0-.341,1.01,0.625,0.625,0,0,1-.889-0.57,4.2,4.2,0,0,0-.458-0.84,0.28,0.28,0,0,1-.062-0.11c0.031-.61-0.457-1.14-0.289-1.79a2.375,2.375,0,0,0,.007-0.68,1.633,1.633,0,0,1,.481-1.15,0.532,0.532,0,0,0,.06-0.3c0.008-.3-0.013-0.6.009-0.9,0.014-.2-0.146-0.48.218-0.54a0.234,0.234,0,0,0,.043-0.17c-0.113-.44.267-0.97-0.25-1.34a0.51,0.51,0,0,1-.016-0.27c0-.44.019-0.88-0.008-1.31-0.017-.27.176-0.61-0.236-0.77a1.752,1.752,0,0,1-.032-0.3,6.991,6.991,0,0,0-.326-0.77,0.394,0.394,0,0,0-.289.07,2.365,2.365,0,0,0-.482.55,2.252,2.252,0,0,0-.332.8,0.842,0.842,0,0,1-.581.68,5.459,5.459,0,0,1-.556,1.19,3.393,3.393,0,0,0-.331.81c-0.057.12-.185,0.21-0.258,0.33a1.948,1.948,0,0,0-.292.77c-0.109.02-.219,0.05-0.328,0.07l0.077,0.06c-0.424.69-.847,1.37-1.313,2.13a1.566,1.566,0,0,1-.288.38,5.24,5.24,0,0,1-.885.56,0.641,0.641,0,0,1-.773-0.5,2.242,2.242,0,0,1,.023-0.98,2.317,2.317,0,0,0,.268-1.04,0.8,0.8,0,0,1,.315-0.16,2.775,2.775,0,0,1,.531-1.18,1.528,1.528,0,0,1,.264-0.58,2.7,2.7,0,0,0,.386-1.05c0.042-.01.158-0.05,0.164-0.05a9.289,9.289,0,0,1,.713-1.38,1.951,1.951,0,0,0,.494-1.45c0.119-.04.236-0.08,0.272-0.09,0.435-1.1,1.251-1.95,1.5-3.09a0.935,0.935,0,0,0,.611-0.7,3.323,3.323,0,0,1,.452-0.83c0.128-.25.223-0.51,0.341-0.77,0.064-.13.147-0.26,0.225-0.41q0.319-.555.638-1.11a0.455,0.455,0,0,0,.033-0.08c0.094-.59.184-1.17,0.28-1.75,0.032-.19-0.126-0.45.217-0.55a1.391,1.391,0,0,0,.06-0.5h-1.034a1.592,1.592,0,0,0-.9.24,3.126,3.126,0,0,1-.817.28,1.29,1.29,0,0,0-.806.29c-0.164.12-.335,0.23-0.489,0.36-0.294.26-.566,0.54-0.874,0.78a0.989,0.989,0,0,1-.44.07,0.816,0.816,0,0,1-.751.63,0.669,0.669,0,0,0-.285.25,1.694,1.694,0,0,1-1.457.26c0.091-.74.18-1.46,0.269-2.19l0.134,0.06a7.34,7.34,0,0,0,.568-0.63c0.291-.39.518-0.84,0.838-1.21,0.3-.34.694-0.6,1.024-0.92,0.536-.51,1.053-1.04,1.577-1.57q0.52-.525,1.038-1.05a0.373,0.373,0,0,0,.131-0.15,3.725,3.725,0,0,1,.928-1.3,0.482,0.482,0,0,1,.243-0.03c-0.09-.57.433-0.73,0.7-1.07a0.979,0.979,0,0,0,.129-0.19c0.1-.22.176-0.44,0.29-0.65a5.192,5.192,0,0,1,.358-0.49,0.68,0.68,0,0,0-.083-0.08c0.109-.03.218-0.06,0.372-0.09,0.081-.55.146-1.09,0.247-1.62a0.633,0.633,0,0,0-.39-0.67,0.846,0.846,0,0,1-.536-0.88,4.721,4.721,0,0,0-.243-0.52,7.459,7.459,0,0,1-.011-1.02c0.246,0.15.4,0.25,0.555,0.34a0.208,0.208,0,0,0,.117.05,1.141,1.141,0,0,1,1.019.64c0.546,0.48,1,1.06,1.5,1.59a0.494,0.494,0,0,0,.257.05,0.793,0.793,0,0,1,.65.61,2.4,2.4,0,0,1,.247,1.17,1.315,1.315,0,0,1-.879,1.18,1.936,1.936,0,0,1-.751,1.41,0.207,0.207,0,0,0-.085.13,1.056,1.056,0,0,1-.567.8,4.919,4.919,0,0,0-.878.91,4.709,4.709,0,0,0-.386.69l-0.689.37a0.2,0.2,0,0,0-.1.12,2.066,2.066,0,0,1-.595,1.02,0.965,0.965,0,0,1-.22.21,1.5,1.5,0,0,0,.5.35,3,3,0,0,0,.991.01,2.444,2.444,0,0,1,1.6.61,1.721,1.721,0,0,1,.34.74,4.206,4.206,0,0,1,.205.4c0.046,0.16.031,0.33,0.068,0.48,0.043,0.18.114,0.35,0.158,0.48a7.6,7.6,0,0,1-.17.83,2.13,2.13,0,0,1-.289.5c-0.1.16-.223,0.31-0.412,0.57a1.757,1.757,0,0,0-.186.44c-0.039.2,0.013,0.42-.015,0.63-0.035.26,0.176,0.61-.237,0.76a0.477,0.477,0,0,0-.027.26,0.784,0.784,0,0,1-.256.71,4.424,4.424,0,0,0-.561.83,1.641,1.641,0,0,1-.222.24,5.984,5.984,0,0,1-.422.7,0.783,0.783,0,0,0,.1,1.26,0.7,0.7,0,0,0,.644.31,0.925,0.925,0,0,1,.37.26,3.749,3.749,0,0,0,.508.34,4.593,4.593,0,0,1,.616.57,0.859,0.859,0,0,1,.074.48c-0.349.09-.211,0.37-0.212,0.56-0.008,2.28,0,4.57-.007,6.86C425.855,1155.32,425.976,1155.66,425.485,1155.54Zm32.92-13.27v0.55c-0.642.21-1.291,0.43-2.077,0.69a1.426,1.426,0,0,1-1.019.79,1.047,1.047,0,0,0-.66.68,1.235,1.235,0,0,1-1.034,1.03,3.62,3.62,0,0,0-.723.42,0.735,0.735,0,0,1-.43.09c-0.245-.47-0.659-0.19-0.987-0.25a3.3,3.3,0,0,0-.558-0.01,6.8,6.8,0,0,0,.059,2.2,9.608,9.608,0,0,1,.216,1.36,4.953,4.953,0,0,0,.259.57c0.069,0.18-.145.48,0.223,0.53a0.05,0.05,0,0,1,.028.04l0.327,1.06a0.785,0.785,0,0,1,.608.94c0.18,0.02.326,0.03,0.536,0.05a9.683,9.683,0,0,1-.018,1.24,0.591,0.591,0,0,1-.367.43,1.2,1.2,0,0,0-.813.53,0.554,0.554,0,0,1-.211.05,2.326,2.326,0,0,0-1.026.31,0.735,0.735,0,0,1-.684.22,1.161,1.161,0,0,1-.329-0.18c-0.132-.04-0.279-0.05-0.415-0.08-0.367-.1-0.834.24-1.113-0.26a0.239,0.239,0,0,0-.174-0.01,1.686,1.686,0,0,1-1.228-.51c-0.154-.13-0.475.06-0.561-0.29a1.387,1.387,0,0,0-.345-0.37c-0.516.15-.7-0.39-1.021-0.67-0.482-.41-0.9-0.89-1.348-1.35a0.265,0.265,0,0,1-.108-0.16,1.643,1.643,0,0,0-.631-0.99c-0.31-.38-0.744-0.65-1.09-1.01a2.879,2.879,0,0,1-.376-0.63c0.028-.02.056-0.05,0.084-0.07-0.109-.03-0.218-0.05-0.328-0.08a0.48,0.48,0,0,0,.075-0.07,1.7,1.7,0,0,0-.418-0.65,0.457,0.457,0,0,1-.219-0.5c-0.027-.18.121-0.44-0.217-0.51a1.177,1.177,0,0,1-.05-0.47,6.008,6.008,0,0,0-.016-0.95,3.586,3.586,0,0,0-.365-0.79c-0.017,0-.126-0.03-0.235-0.06a0.534,0.534,0,0,0,.087-0.07,1.5,1.5,0,0,1-.335-0.59,0.621,0.621,0,0,1,.407-0.45c0.355,0.03.812-.29,1.065,0.23a1,1,0,0,1,.965.57c0.174,0.2.26,0.47,0.42,0.69s0.36,0.4.517,0.6c0.236,0.35.473,0.69,0.706,1.04,0.077,0.11.141,0.24,0.22,0.35a3.349,3.349,0,0,0,.267.33c0.529,0.54,1.057,1.08,1.593,1.61,0.6,0.6,1.217,1.19,1.816,1.79a0.622,0.622,0,0,1,.064.28h0.6a4.374,4.374,0,0,1,0-.55c0.031-.23-0.15-0.54.232-0.67a0.494,0.494,0,0,0,.034-0.26c0-.31-0.007-0.63,0-0.95a2.084,2.084,0,0,0-.544-1.48,1.092,1.092,0,0,0-.39-0.37c-0.321-.09-0.21-0.33-0.251-0.53a2.91,2.91,0,0,0-.194-0.45,0.42,0.42,0,0,1-.063-0.25,3.174,3.174,0,0,1,.382-0.81,4.656,4.656,0,0,1,.77-0.71,2.1,2.1,0,0,1,.734-0.47,3.157,3.157,0,0,0,1.212-.26,4.857,4.857,0,0,1,1.106-.12c0.185-.12.369-0.23,0.606-0.38,0.054,0.23.079,0.34,0.106,0.46h0.82c0-.33.2-0.36,0.489-0.37,0.27,0,.632.2,0.8-0.23a1.162,1.162,0,0,1,.256-0.03c0.287-.05.663,0.18,0.844-0.25a0.6,0.6,0,0,1,.217-0.02,0.621,0.621,0,0,0,.687-0.23,1.88,1.88,0,0,1,.689-0.05,3.72,3.72,0,0,0,.415-0.18,1.85,1.85,0,0,1,.466-0.08C457.753,1142.26,458.053,1142.27,458.405,1142.27ZM254.24,1147a2.876,2.876,0,0,0,.2-0.52c0.035-.21-0.017-0.43.016-0.64a2.284,2.284,0,0,1,.191-0.41,0.8,0.8,0,0,0,.069-0.29c0.006-.77.017-1.54-0.009-2.31,0-.15-0.225-0.28-0.243-0.44a10.322,10.322,0,0,1-.012-1.12,1.641,1.641,0,0,1,.5.44,4.281,4.281,0,0,0,.316,1.29,0.927,0.927,0,0,0,.192.37,0.214,0.214,0,0,1,.055.07,6.894,6.894,0,0,1,.273,1.29c0.037,1.22.017,2.45,0.009,3.67,0,0.2.1,0.43-.219,0.55a1.817,1.817,0,0,0,.1,1.14,0.835,0.835,0,0,1,.05.51,4.427,4.427,0,0,0-.194.45q-0.024,2.04,0,4.08a1.423,1.423,0,0,0,.19.41,1.084,1.084,0,0,1,.069.34,5.789,5.789,0,0,0,.1,1.27,3.094,3.094,0,0,0,.278.38,0.377,0.377,0,0,0,.208.05c0.116-.25.214-0.51,0.322-0.77,0.055-.13.12-0.26,0.184-0.38a0.6,0.6,0,0,0,.076-0.1c0.092-.43.178-0.86,0.267-1.3,0.138-.03.247-0.06,0.377-0.09,0-.1,0-0.19,0-0.28a2.183,2.183,0,0,1,.469-1.15,8.476,8.476,0,0,0,.462-1.41h0.426c0,0.32-.006.65,0,0.98,0.005,0.24-.121.58,0.35,0.46v0.83a0.655,0.655,0,0,1-.131-0.04,2.372,2.372,0,0,0-.212.52c-0.036.27,0.015,0.55-.016,0.82-0.033.29,0.19,0.66-.244,0.85a0.411,0.411,0,0,0-.021.17c-0.034.22,0.127,0.51-.235,0.63a0.584,0.584,0,0,0-.034.3c0,0.51.018,1.03-.01,1.54-0.015.27,0.176,0.63-.237,0.81a0.461,0.461,0,0,0-.025.25c0,0.37.012,0.73-.006,1.09-0.011.23,0.112,0.48-.222,0.64a2.056,2.056,0,0,0,.171,1.42,1.625,1.625,0,0,1,.27,1.66,4.87,4.87,0,0,0-.226.88c-0.708.3-1.049-.21-1.434-0.61a3.5,3.5,0,0,0-.976-0.98,2.62,2.62,0,0,1-.865-0.61,7.814,7.814,0,0,1-1-.97,3.727,3.727,0,0,1-.326-0.99c-0.047-.15-0.134-0.28-0.191-0.42a0.826,0.826,0,0,1-.073-0.29c-0.009-.36.012-0.72-0.01-1.09-0.014-.23.149-0.54-0.23-0.67a0.6,0.6,0,0,1-.034-0.3c0-2,0-4,.007-5.99a1.211,1.211,0,0,1,.179-0.38,0.823,0.823,0,0,0,.08-0.28c0.009-.38-0.008-0.76.009-1.13,0.009-.23-0.129-0.52.228-0.64a0.879,0.879,0,0,0,.04-0.29c0.086-.4-0.219-0.88.251-1.22a1.231,1.231,0,0,0,.023-0.48c0.031-.22-0.148-0.52.227-0.63a0.506,0.506,0,0,0,.038-0.26c0-.24,0-0.48,0-0.72A0.823,0.823,0,0,1,254.24,1147Zm210.786-3.66v0.63a4.488,4.488,0,0,0,.462.03c0.148,0.38.279,0.72,0.443,1.14,0.024,0.01.14,0.05,0.252,0.08a2.81,2.81,0,0,0,.73,1.71,1.83,1.83,0,0,1,.009,1.05,1.438,1.438,0,0,1-.34.41l-0.481-.24c0.019-.04.038-0.07,0.056-0.11a6.772,6.772,0,0,0-1.633-.36,2,2,0,0,1-.886-0.53,0.254,0.254,0,0,1-.058-0.2,0.884,0.884,0,0,0-.5-0.71,1.59,1.59,0,0,1-.709-0.88,2.117,2.117,0,0,0-.528-0.76,3.066,3.066,0,0,1-.327-0.52,0.951,0.951,0,0,1-.589-0.84,3.2,3.2,0,0,0-.434-0.98,1.054,1.054,0,0,0-.691-0.69,0.249,0.249,0,0,1,0-.16,3.361,3.361,0,0,1,.722-0.31,3.892,3.892,0,0,1,.765-0.02,1.941,1.941,0,0,1,1.38.7c0.128,0.13.234,0.27,0.394,0.46,0.514-.14.71,0.41,1.037,0.7A0.91,0.91,0,0,0,465.026,1143.34Zm-83.385-22.81a10.806,10.806,0,0,1-1.26-.36c-0.252-.1-0.441-0.35-0.69-0.47a2.1,2.1,0,0,0-.572-0.06,1.91,1.91,0,0,1-.314-0.12c0.009-.04.019-0.08,0.028-0.12l1.619-.37a2.58,2.58,0,0,0,.531-0.3c0.51-.49,1.14-0.14,1.692-0.28a4.444,4.444,0,0,0,.771-0.42,0.508,0.508,0,0,1,.344,0c0.1,0.03.191,0.13,0.3,0.16a1.056,1.056,0,0,1,.909.24,1.822,1.822,0,0,0,.872.04c0.178,0.01.443-.13,0.5,0.22a0.774,0.774,0,0,0,.248.05h0.819a0.962,0.962,0,0,0,.789.67,1.844,1.844,0,0,1,.726.63,1.171,1.171,0,0,1,.272.42c0.125,0.34-.243.42-0.376,0.63a0.768,0.768,0,0,1-.773.3,1.137,1.137,0,0,0-.456.23c-0.194-.21-0.415-0.54-0.695-0.02a0.346,0.346,0,0,1-.24.03c-0.21-.48-0.623-0.18-0.931-0.26-0.187-.05-0.475.14-0.531-0.22a0.055,0.055,0,0,0-.035-0.03,3.972,3.972,0,0,1-1.237-.28c-0.6-.04-1.206,0-1.807-0.02a1.834,1.834,0,0,1-.516-0.21C381.628,1120.59,381.634,1120.56,381.641,1120.53Zm50.844,26.91a8.413,8.413,0,0,0,.87,0,7.269,7.269,0,0,0,.759-0.18c0.252,0.45.8,0.04,1.177,0.22,0.621,1.27.269,2.61,0.323,3.91,0.056,1.36.012,2.72,0.012,4.13a1.556,1.556,0,0,1-1.2-.74,2.159,2.159,0,0,1-.835-1.22c-0.073-.02-0.183-0.04-0.218-0.05-0.139-.31-0.274-0.56-0.36-0.82a7.047,7.047,0,0,1-.161-0.8,2.513,2.513,0,0,0,.147-0.59c0.019-.88-0.012-1.76.016-2.63a0.865,0.865,0,0,0-.511-0.99,0.15,0.15,0,0,1-.031-0.08A1.2,1.2,0,0,1,432.485,1147.44Zm-172.509-11.9c-0.027,0-.162.01-0.235,0.01-0.126.24-.223,0.45-0.351,0.65a0.66,0.66,0,0,1-.275.23,2,2,0,0,1-.406-0.42c-0.193-.27-0.356-0.57-0.547-0.84a0.4,0.4,0,0,0-.247-0.17c-0.922-.08-0.992-0.16-0.9-1.16,0.18-.01.368-0.03,0.558-0.04a0.766,0.766,0,0,0,.039-0.14c0-.32,0-0.63,0-0.87-0.333-.3-0.624-0.54-0.895-0.81-0.548-.53-1.093-1.07-1.622-1.62a0.687,0.687,0,0,1-.263-0.97c0.089,0.16.156,0.27,0.248,0.43,0.224,0,.5.02,0.762,0a2.114,2.114,0,0,1,1.787.76,0.2,0.2,0,0,0,.07.05c0.428,0.09.86,0.17,1.281,0.29a0.862,0.862,0,0,1,.5.28,1.114,1.114,0,0,1,.41.8,0.617,0.617,0,0,0,.22.74,2,2,0,0,1,.046.73c0.061,0.36-.229.8,0.245,1.08a0.47,0.47,0,0,1-.013.38A4.724,4.724,0,0,1,259.976,1135.54Z" transform="translate(-253 -1118)"/>
</svg>
