<svg id="kv_ttl02.svg" xmlns="http://www.w3.org/2000/svg" width="60" height="200" viewBox="0 0 60 200">
  <defs>
    <style>
      .cls-1 {
        fill: #72c9f3;
      }

      .cls-2 {
        fill: #fff;
        fill-rule: evenodd;
      }
    </style>
  </defs>
  <rect id="長方形_1496_のコピー_3" data-name="長方形 1496 のコピー 3" class="cls-1" width="60" height="200"/>
  <path id="これからの_教育とは_のコピー_2" data-name="これからの 教育とは のコピー 2" class="cls-2" d="M209.372,496.011a0.281,0.281,0,0,0,.294-0.252,0.355,0.355,0,0,0-.084-0.252c-1.554-1.386-2.015-1.806-3.611-3.15a26.55,26.55,0,0,0-2.184,2.688H196.9a60.77,60.77,0,0,0,2.73-7.9c1.469-.252,1.889-0.462,1.889-0.8,0-.378-0.672-0.672-2.435-1.05-0.462-.084-1.218-0.252-2.184-0.5a55.56,55.56,0,0,1-2.058,8.819,61.637,61.637,0,0,1-5.879,13.9l0.462,0.378a37.206,37.206,0,0,0,4.745-7.265,38.354,38.354,0,0,0,3.276,10.2,27.426,27.426,0,0,1-5.123,5.8,41.467,41.467,0,0,1-8.147,5.291l0.168,0.462a30.873,30.873,0,0,0,8.9-4.325,24.986,24.986,0,0,0,5.46-4.956,38.136,38.136,0,0,0,2.729,3.738,21.96,21.96,0,0,0,4.83,4.493c0.756-1.512,1.6-2.016,3.443-2.1l0.042-.671a23.887,23.887,0,0,1-9.574-7.433,29.366,29.366,0,0,0,3.653-8.105,39.65,39.65,0,0,0,1.428-7.013h4.115Zm-6.887,0c-0.882,5.837-1.932,9.448-3.863,12.892A32.434,32.434,0,0,1,194.8,499.5c1.218-2.52,1.218-2.52,1.638-3.485h6.047Zm-20.871-4.956v-4.409c1.512-.5,1.848-0.714,1.848-1.008,0-.378-0.714-0.588-2.478-0.756-0.5-.042-1.3-0.126-2.31-0.252,0.042,0.42.126,1.722,0.168,3.906v2.519h-3.863a10.378,10.378,0,0,1-2.9-.378l0.252,1.512a22.765,22.765,0,0,1,2.646-.168h3.863v6.173h-5.711a14.518,14.518,0,0,1-2.939-.294l0.335,1.47a18.674,18.674,0,0,1,2.646-.21h8.861a46.226,46.226,0,0,1-3.948,4.788h-3.653a16.215,16.215,0,0,1-2.94-.294l0.336,1.427c1.512-.126,2.268-0.168,2.352-0.168h2.982a64.693,64.693,0,0,1-7.013,6.132l0.419,0.545a48.1,48.1,0,0,0,8.861-6.677h5.124a19.434,19.434,0,0,1-1.638,3.4c-0.588-.084-0.882-0.126-2.226-0.252a10.533,10.533,0,0,0,.126,1.3,13.975,13.975,0,0,1,.084,1.428v0.588c-7.517,1.721-8.021,1.805-10.331,1.973,0.336,0.924.84,2.226,1.3,3.276,0.252,0.63.336,0.756,0.546,0.756,0.252,0,.462-0.294.588-0.924,0.042-.168.126-0.42,0.21-0.714,0.588-.21.588-0.21,2.394-0.8,2.771-.924,2.771-0.924,3.947-1.3a11.779,11.779,0,0,1,1.344-.462v5.5c0,0.587-.126.713-0.588,0.755-1.344,0-1.386,0-4.367-.21-0.378,0-.966-0.042-1.764-0.084v0.588l0.882,0.126,0.966,0.126a6.442,6.442,0,0,1,1.931.546c0.5,0.252.63,0.462,1.218,1.764a13.476,13.476,0,0,0,2.6-.546,2.271,2.271,0,0,0,1.764-1.932v-1.973c-0.042-.5-0.042-0.882-0.042-1.092v-4.494c2.729-.923,3.863-1.385,6.467-2.477l-0.168-.63c-2.562.672-3.654,0.966-6.3,1.6V509.7a1.6,1.6,0,0,0,1.134-.756,1.053,1.053,0,0,0-.966-0.462,5.486,5.486,0,0,1,.63-0.5c2.393-1.89,2.393-1.89,3.191-2.478,0.21-.084.42-0.126,0.63-0.21l0.63-.168a2.834,2.834,0,0,0,.8-0.378,0.443,0.443,0,0,0,.084-0.21,0.45,0.45,0,0,0-.252-0.336,13.688,13.688,0,0,0-3.024-1.889,18.331,18.331,0,0,0-1.469,1.638h-4.452c1.722-1.764,2.9-3.066,4.326-4.788h7.727a0.331,0.331,0,0,0,.21-0.294,0.568,0.568,0,0,0-.21-0.378,24.26,24.26,0,0,0-3.108-2.477c-0.8.923-1.05,1.217-1.806,2.183h-2.058c1.848-2.393,4.578-6.341,6.426-9.322,1.637-.21,1.889-0.294,1.889-0.588s-0.5-.588-1.931-1.176c-0.462-.21-1.176-0.5-2.1-0.924a34.415,34.415,0,0,1-2.6,5.291c-1.764-1.47-1.848-1.554-3.065-2.561-0.84.965-1.092,1.259-1.806,2.141h-0.714Zm5.207,0.966c-1.763,2.814-2.645,4.158-4.073,6.173h-1.134v-6.173h5.207ZM197.866,558v5.8a0.472,0.472,0,0,1-.5.587c-2.058-.042-2.058-0.042-6.761-0.378v0.588a12.688,12.688,0,0,1,4.115,1.26,2.2,2.2,0,0,1,.966,1.806c4.284-.63,5.039-1.134,5.123-3.108V563c-0.084-3.234-.084-3.234-0.084-5.922v-9.154c1.008-.672,1.3-0.924,1.3-1.176a0.906,0.906,0,0,0-.462-0.63c-1.092-.84-1.427-1.092-2.519-1.848-0.714.8-.924,1.008-1.6,1.848H181.278a18.467,18.467,0,0,0-3.318-1.848c0.126,2.1.168,3.612,0.168,9.533,0,4.955-.042,7.979-0.168,13.648,0,0.462.168,0.588,0.756,0.588a9.775,9.775,0,0,0,1.806-.168,0.553,0.553,0,0,0,.462-0.672V558h16.882Zm-16.882-6.719v-4.2h16.882v4.2H180.984Zm16.882,0.966v4.787H180.984v-4.787h16.882Zm-7.223-17.428V531.46c1.6-.5,1.722-0.588,1.722-0.924a0.682,0.682,0,0,0-.21-0.378,18.806,18.806,0,0,0-4.662-.672,19.821,19.821,0,0,1,.21,2.562v2.771h-13.27a23.352,23.352,0,0,1-3.444-.378l0.378,1.68a20.307,20.307,0,0,1,3.066-.336h9.323a24.1,24.1,0,0,1-2.016,5c-3.7.084-3.7,0.084-4.535,0.084-1.47,0-2.226-.042-3.864-0.168,0.252,1.553.672,3.947,0.8,4.283a0.391,0.391,0,0,0,.294.42c0.336,0,.588-0.42,1.05-1.764,10.708-.672,17.679-1.386,24.1-2.393a22.686,22.686,0,0,1,3.779,3.653,1.64,1.64,0,0,0,1.134.8c0.462,0,.672-0.462.672-1.554,0-2.31-.546-2.939-3.822-4.577a68.08,68.08,0,0,0-7.181-2.814l-0.378.5a29.17,29.17,0,0,1,4.536,3.024c-3.612.378-5.753,0.462-15.412,0.5,1.638-1.806,1.638-1.806,4.283-5h21.207a0.428,0.428,0,0,0,.462-0.378,0.612,0.612,0,0,0-.21-0.336c-1.721-1.511-2.225-1.931-3.989-3.275a38.331,38.331,0,0,0-2.688,3.023H190.643Zm-9.113,42.252c1.764,0.294,2.562.714,3.024,1.512,0.336,0.63.378,1.26,0.5,4.829,0.126,3.15.168,4.074,0.293,5.082,0.21,1.8.588,2.729,1.218,3.191a2.836,2.836,0,0,0,2.016.63,26.9,26.9,0,0,0-5.123,3.36c-2.772,2.309-4.116,4.619-4.116,7.055a6.656,6.656,0,0,0,4.578,6.215,21.463,21.463,0,0,0,7.139.966,65.115,65.115,0,0,0,8.063-.546c1.343-.252,1.805-0.63,1.805-1.386a2.387,2.387,0,0,0-2.267-2.058,4.044,4.044,0,0,0-.84.126,49.01,49.01,0,0,1-9.743,1.218c-4.661,0-7.055-1.554-7.055-4.577,0-1.974,1.008-3.612,3.276-5.376,2.645-2.015,5.417-3.275,10.5-4.7a26.55,26.55,0,0,0,2.814-.882,1.332,1.332,0,0,0,.882-1.26,2.047,2.047,0,0,0-2.016-1.763,3.663,3.663,0,0,0-1.722.5c-3.821,1.806-4.745,2.142-5.627,2.142-1.3,0-1.638-.63-1.638-3.107a33.023,33.023,0,0,1,.924-8.525,2.516,2.516,0,0,0,.336-1.092v-0.084a1.457,1.457,0,0,0-1.176-1.344,13.588,13.588,0,0,0-4.241-.8A2.226,2.226,0,0,0,181.53,577.071Zm-0.252,61.822-2.268,5.418-1.763,4.2a16.659,16.659,0,0,1-.672-5.207,32.838,32.838,0,0,1,3.191-13.69c0.672-1.386.672-1.386,0.672-1.848a5.966,5.966,0,0,0-1.512-3.192c-1.175-1.511-1.973-2.057-2.939-2.1a6.528,6.528,0,0,1,1.218,3.695,18.4,18.4,0,0,1-.63,3.78c-1.428,6.593-1.89,10.12-1.89,13.984a24.874,24.874,0,0,0,1.344,8.441c0.5,1.3,1.092,1.889,1.805,1.889a0.952,0.952,0,0,0,.8-0.461c0.21-.336.252-0.5,0.294-1.848a14.358,14.358,0,0,1,.546-3.57c0.5-2.057,1.68-6.635,2.436-9.281Zm4.451-6.929a8.358,8.358,0,0,0,6.93,2.94,18.615,18.615,0,0,0,3.7-.336l0.042,5.375,0.084,4.494v0.714c-1.176-.084-1.764-0.126-2.562-0.126-4.787,0-7.9,1.847-7.9,4.745,0,2.52,2.562,4.283,6.216,4.283,4.2,0,6.719-1.8,6.719-4.829a8.792,8.792,0,0,0-.042-1.008,12.945,12.945,0,0,1,4.535,3.36c0.84,0.84,1.134,1.05,1.47,1.05,0.462,0,.84-0.672.84-1.554,0-2.436-2.058-4.074-6.929-5.375a82.8,82.8,0,0,1-.546-11.423c4.367-.84,7.433-2.1,7.433-3.023a0.9,0.9,0,0,0-.546-0.756,4.984,4.984,0,0,0-1.974-.546,1.04,1.04,0,0,0-.924.462,10.15,10.15,0,0,1-3.863,1.721,18.872,18.872,0,0,1,.882-5.627,2.933,2.933,0,0,0,.378-1.3c0-.63-0.63-1.134-1.848-1.511a12.346,12.346,0,0,0-2.856-.378,2.329,2.329,0,0,0-2.016.671,4.282,4.282,0,0,1,2.772.966c0.546,0.588.588,1.134,0.588,5.838v1.847a22.535,22.535,0,0,1-4.787.588,8.731,8.731,0,0,1-5.418-1.722Zm10.709,15.37a5.279,5.279,0,0,1-.546,2.94c-0.672,1.3-2.31,1.974-4.619,1.974-2.478,0-4.116-1.008-4.116-2.478,0-1.848,2.058-2.94,5.376-2.94A13.564,13.564,0,0,1,196.438,647.334Z" transform="translate(-160 -471)"/>
</svg>
