<svg id="kv_ttl01.svg" xmlns="http://www.w3.org/2000/svg" width="60" height="246" viewBox="0 0 60 246">
  <defs>
    <style>
      .cls-1 {
        fill: #72c9f3;
      }

      .cls-2 {
        fill: #fff;
        fill-rule: evenodd;
      }
    </style>
  </defs>
  <rect id="長方形_1496_のコピー_3" data-name="長方形 1496 のコピー 3" class="cls-1" width="60" height="246"/>
  <path id="これからの_教育とは_のコピー" data-name="これからの 教育とは のコピー" class="cls-2" d="M243.808,487.653a10.466,10.466,0,0,0,2.94,2.436,11.476,11.476,0,0,0,4.787,1.133c0.756,0,2.226-.042,3.15-0.126-0.672.42-.672,0.42-3.528,1.974-1.092.588-1.764,1.008-3.065,1.764l0.294,0.63c0.8-.294.8-0.336,1.637-0.672,2.436-1.05,2.436-1.05,3.444-1.428,4.115-1.554,4.493-1.722,6.131-2.058,2.814-.63,3.066-0.755,3.066-1.469a2.882,2.882,0,0,0-2.52-2.184,4.261,4.261,0,0,0-.756.168,32.745,32.745,0,0,1-8.735,1.26,9.849,9.849,0,0,1-6.425-1.848Zm-1.6,16a11.211,11.211,0,0,0-.671,3.527,8.055,8.055,0,0,0,3.485,6.635c2.1,1.428,5.081,2.016,9.785,2.016a48.2,48.2,0,0,0,9.784-.84,1.429,1.429,0,0,0,1.344-1.3,2,2,0,0,0-.924-1.469,5.01,5.01,0,0,0-2.309-.84,1.6,1.6,0,0,0-.714.168,28.265,28.265,0,0,1-9.281,1.512c-6.761,0-9.911-2.352-9.911-7.35,0-.587.042-0.965,0.126-1.889ZM239.651,549.9a19.534,19.534,0,0,1-2.73,3.738c-0.672.672-.714,0.756-0.714,1.26a7.783,7.783,0,0,0,.462,2.309,1.227,1.227,0,0,0,.966.966c0.42,0,.588-0.252,1.428-2.268a29.389,29.389,0,0,1,3.7,4.578c0.126,0.294.588,1.6,0.714,2.016a1.166,1.166,0,0,0,1.008,1.133c1.008,0,1.806-1.973,1.806-4.367a12.574,12.574,0,0,0-.126-1.974c-0.294-3.233-.42-5.249-0.42-7.517,0-.63,0-1.176.042-2.183a60.781,60.781,0,0,1,6.383-6.636c3.36-2.981,5.543-4.241,7.349-4.241,1.638,0,2.562,1.176,2.562,3.234,0,1.553-.084,2.141-1.05,6.635a43.771,43.771,0,0,0-1.05,7.475c0,3.821,1.722,5.879,4.913,5.879,2.982,0,6.258-1.722,9.281-4.829l-0.336-.5c-2.771,1.889-5.711,2.981-7.811,2.981a3.674,3.674,0,0,1-2.141-.63c-0.756-.546-1.05-1.428-1.05-3.107a40.452,40.452,0,0,1,.756-6.887c0.8-4.326.839-4.62,0.839-6.216a5.269,5.269,0,0,0-1.133-3.7,4.34,4.34,0,0,0-3.318-1.512c-1.848,0-3.821.882-6.761,2.982a68.149,68.149,0,0,0-7.307,6.425,9.9,9.9,0,0,1,.084-1.554,27.462,27.462,0,0,1,1.344-2.73,2.3,2.3,0,0,0,.588-1.217c0-.336-0.294-0.672-1.218-1.638a18.6,18.6,0,0,1,.756-3.318,4.181,4.181,0,0,0,.42-1.721c0-.8-0.84-1.848-2.184-2.772a5.667,5.667,0,0,0-2.688-1.134,0.819,0.819,0,0,0-.546.21c2.016,1.512,2.394,2.226,2.394,4.661a34.36,34.36,0,0,1-.294,4.452c-2.478,1.386-5.207,2.519-6.047,2.519-0.882,0-1.806-.671-2.73-2.015a3.6,3.6,0,0,0-.126.714c0,1.343,2.016,3.821,3.108,3.821a2.481,2.481,0,0,0,1.428-.672c0.756-.546,2.981-2.058,4.241-2.9-0.042.63-.042,0.63-0.126,1.469-0.042,1.092-.042,1.092-0.084,1.764Zm4.535-3.9c-0.126,1.722-.168,2.687-0.168,4.745-0.042,6.257-.042,6.257-0.126,7.853a36.655,36.655,0,0,1-4.451-3.4c0.8-1.68,1.26-2.6,2.226-4.452C243.556,547.208,243.6,547.208,244.186,545.99Zm0.294,43.218c-1.764,3.863-1.764,3.863-3.359,6.971a28.134,28.134,0,0,1-3.108,4.955,2.759,2.759,0,0,0-.966,2.352c0,1.806.462,2.9,1.218,2.9a1.213,1.213,0,0,0,1.008-.8c0.672-1.176,2.058-4.2,3.737-8.147,1.47-3.486,2.31-5.459,2.478-5.879,1.848-4.284,1.848-4.284,2.436-5.712a13.6,13.6,0,0,1,4.409-.881c2.226,0,2.982,1.007,2.982,3.821a32.483,32.483,0,0,1-2.478,11.3c-1.092,2.645-1.764,3.527-2.73,3.527-0.881,0-3.275-1.05-6.509-2.9l-0.378.546c4.452,3.654,4.536,3.738,4.662,4.914a0.976,0.976,0,0,0,1.134.966,5.948,5.948,0,0,0,4.031-1.89c2.436-2.73,4.577-9.7,4.577-15.076,0-4.41-1.721-6.551-5.333-6.551a14.609,14.609,0,0,0-3.653.5,40.579,40.579,0,0,1,2.687-5.712,1.965,1.965,0,0,0,.588-1.217c0-.882-1.05-1.638-2.939-2.184a11.508,11.508,0,0,0-2.814-.546,1.9,1.9,0,0,0-1.26.42c2.436,0.8,3.234,1.512,3.234,2.814a23.679,23.679,0,0,1-1.722,6.887,43.494,43.494,0,0,1-7.139,1.469c-1.554,0-2.31-.546-3.192-2.309a2.777,2.777,0,0,0-.252.924,6.662,6.662,0,0,0,1.386,3.191,3.1,3.1,0,0,0,1.848,1.26,2.2,2.2,0,0,0,1.218-.462,32.494,32.494,0,0,1,5.459-2.184Zm17.3-4.829a12.184,12.184,0,0,1,5.753,5.585,10.79,10.79,0,0,1,1.3,4.031,63.966,63.966,0,0,1-6.425,2.142l0.168,0.588a37.125,37.125,0,0,1,5.249-.378,2.711,2.711,0,0,1,1.722.42,1.59,1.59,0,0,0,.966.294c1.05,0,1.679-.84,1.679-2.268a9.9,9.9,0,0,0-2.393-5.963,14.6,14.6,0,0,0-7.685-5.039ZM247.8,618.4a8.749,8.749,0,0,0,2.141,3.36,13.283,13.283,0,0,0,3.822,2.393,37.349,37.349,0,0,1-4.955,1.6c-2.52.756-3.738,1.3-4.326,1.932-0.546.546-.672,0.924-0.672,2.394a46.9,46.9,0,0,1-.8,5.543c-0.21,1.47-.42,2.645-0.5,3.485a17.389,17.389,0,0,1-.462,2.52c-0.042.294-.126,0.63-0.126,0.672a4.866,4.866,0,0,0,.882,2.142c0.672,0.965,1.218,1.385,1.848,1.385a1.365,1.365,0,0,0,1.176-.839,9.606,9.606,0,0,1,2.31-2.646c3.275-2.856,7.055-4.578,10.036-4.578,3.066,0,5.082,1.806,5.082,4.578,0,2.646-1.3,4.745-4.2,6.8-2.771,1.89-5.669,2.94-10.54,3.737l0.126,0.672a30.848,30.848,0,0,0,9.532-1.637c5.25-1.806,8.273-5.082,8.273-8.945,0-3.822-3.317-6.551-8.021-6.551-3.821,0-8.609,1.8-13.69,5.207,0.084-2.814.378-6.3,0.672-8.525,0.084-.756.126-1.134,0.126-1.344a3.359,3.359,0,0,0-.294-1.344,4.152,4.152,0,0,1-.252-1.217,1.623,1.623,0,0,1,.462-1.134,4.142,4.142,0,0,1,1.932-.756,35.9,35.9,0,0,1,8.021-1.176,14.159,14.159,0,0,1,2.057.126c0.546,0.084.756,0.126,0.882,0.126a0.922,0.922,0,0,0,1.008-.882,3.035,3.035,0,0,0-.924-1.848A2.607,2.607,0,0,0,256.7,622.6c-0.966-.21-2.226-0.546-3.024-0.8-2.856-.966-3.906-1.68-5.333-3.7Zm5.669,78.452a25.061,25.061,0,0,0,8.189-2.6c5.291-2.814,8.357-7.475,8.357-12.724a12.821,12.821,0,0,0-4.032-9.869,15.953,15.953,0,0,0-10.834-3.864,20.359,20.359,0,0,0-14.446,5.88c-2.352,2.561-3.78,5.669-3.78,8.315a8.065,8.065,0,0,0,.966,3.821,26.144,26.144,0,0,1,1.848,3.948,8.246,8.246,0,0,0,1.176,2.687,2.435,2.435,0,0,0,1.847.882c1.554,0,3.612-2.058,6.258-6.257,3.191-5.123,5.543-11.255,5.543-14.53a5.481,5.481,0,0,0-1.3-3.486,9.668,9.668,0,0,1,1.47-.084,13.863,13.863,0,0,1,7.265,1.932c3.107,1.974,4.745,5.207,4.745,9.281A14.943,14.943,0,0,1,263,690.3c-2.394,2.771-5.292,4.493-9.827,5.837Zm-1.092-27.633a4.688,4.688,0,0,1,.588,2.1c0,2.6-2.226,8.021-5.333,12.976-2.058,3.276-4.074,5.544-5,5.544a2.555,2.555,0,0,1-1.595-1.218,9.827,9.827,0,0,1-1.68-5.544C239.357,676.61,245.068,670.521,252.375,669.219Z" transform="translate(-224 -471)"/>
</svg>
